<svg
        className="logo"
        viewBox="0 0 450 39"
        role="img"
        aria-label="logo"
        fill="currentColor"
        fillRule="evenodd"
        strokeLinejoin="round"
>
    <path fill-rule="nonzero"
          d="M24.897 24.063c0 4.864-.96 8.384-2.88 10.624s-5.056 3.392-9.472 3.392c-4.48 0-7.68-1.152-9.6-3.392C.96 32.447 0 28.863 0 24.063V14.015C0 9.15.96 5.567 2.88 3.327S8-.001 12.417-.001c4.416 0 7.616 1.152 9.6 3.392 1.92 2.24 2.88 5.824 2.88 10.624v10.048Zm-8.96-12.096c0-1.536-.256-2.688-.768-3.584-.576-.832-1.472-1.216-2.688-1.216-1.217 0-2.113.384-2.689 1.216-.64.896-.896 2.048-.896 3.584v14.08c0 1.536.256 2.752.896 3.584.576.832 1.472 1.28 2.689 1.28 1.216 0 2.112-.448 2.688-1.28.512-.832.768-2.048.768-3.584v-14.08ZM49.409 35.519c0 .576-.192 1.024-.576 1.344-.384.384-.832.576-1.408.576H31.617c-.576 0-1.024-.192-1.344-.576-.384-.384-.576-.832-.576-1.408V2.559c0-.576.192-1.024.576-1.408.32-.384.768-.576 1.344-.576h4.736c.576 0 1.024.192 1.408.576.32.384.512.832.512 1.408V29.95h9.152c.576 0 1.024.192 1.408.512.384.384.576.832.576 1.408v3.648ZM77.825 24.063c0 4.864-.96 8.384-2.88 10.624s-5.056 3.392-9.472 3.392c-4.48 0-7.68-1.152-9.6-3.392-1.984-2.24-2.944-5.824-2.944-10.624V14.015c0-4.864.96-8.448 2.88-10.688s5.12-3.328 9.536-3.328c4.416 0 7.616 1.152 9.6 3.392 1.92 2.24 2.88 5.824 2.88 10.624v10.048Zm-8.96-12.096c0-1.536-.256-2.688-.768-3.584-.576-.832-1.472-1.216-2.688-1.216-1.216 0-2.112.384-2.688 1.216-.64.896-.896 2.048-.896 3.584v14.08c0 1.536.256 2.752.896 3.584.576.832 1.472 1.28 2.688 1.28 1.216 0 2.112-.448 2.688-1.28.512-.832.768-2.048.768-3.584v-14.08ZM102.209 5.887c0 .576-.192 1.024-.576 1.408-.384.384-.832.576-1.408.576h-8.96v7.552h7.104c.576 0 1.024.192 1.408.512.384.384.576.832.576 1.408v3.392c0 .576-.192 1.088-.576 1.408-.384.384-.832.576-1.408.576h-7.104v12.736c0 .576-.192 1.024-.512 1.408-.384.384-.832.576-1.408.576h-4.736c-.576 0-1.024-.192-1.344-.576-.384-.384-.576-.832-.576-1.408V2.559c0-.576.192-1.024.576-1.408.32-.384.768-.576 1.344-.576h15.616c.576 0 1.024.192 1.408.512.384.384.576.832.576 1.408v3.392ZM152.129 35.519c0 .576-.192 1.024-.576 1.344-.384.384-.832.576-1.408.576h-3.84c-.576 0-1.024-.192-1.344-.576-.384-.384-.576-.832-.576-1.408V11.007l-4.672 24.448c-.064.576-.32 1.024-.64 1.408-.32.384-.768.576-1.344.576h-4.032c-.576 0-.96-.192-1.28-.576-.32-.384-.512-.832-.576-1.408l-4.48-25.024v25.088c0 .576-.192 1.024-.576 1.344-.384.384-.832.576-1.408.576h-3.84c-.576 0-1.024-.192-1.344-.576-.384-.384-.576-.832-.576-1.408V2.559c0-.576.192-1.024.576-1.408.32-.384.768-.576 1.344-.576h8.448c.576 0 1.024.192 1.344.576.32.384.576.832.64 1.408l3.904 21.44 3.904-21.44c.064-.576.32-1.024.64-1.408.32-.384.704-.576 1.28-.576h8.512c.576 0 1.024.192 1.408.576.32.384.512.832.512 1.408v32.96ZM181.185 35.455c.064.576-.064 1.024-.448 1.408-.448.384-.896.576-1.472.576h-4.672c-.576 0-1.024-.192-1.344-.576-.32-.384-.576-.832-.64-1.408l-.704-4.608h-6.784l-.768 4.608c-.064.576-.256 1.024-.576 1.408-.32.384-.768.576-1.344.576h-4.608c-.576 0-1.024-.192-1.472-.576-.448-.384-.576-.832-.512-1.408l6.592-32.896c.064-.576.32-1.024.64-1.408.32-.384.704-.576 1.28-.576h8.384c.576 0 1.024.192 1.344.576.32.384.576.832.64 1.408l6.464 32.896ZM168.577 8.447l-2.496 15.552h4.928l-2.432-15.552ZM204.609 35.519c0 .576-.192 1.024-.576 1.344-.384.384-.832.576-1.408.576h-15.808c-.576 0-1.024-.192-1.344-.576-.384-.384-.576-.832-.576-1.408V2.559c0-.576.192-1.024.576-1.408.32-.384.768-.576 1.344-.576h4.736c.576 0 1.024.192 1.408.576.32.384.512.832.512 1.408V29.95h9.152c.576 0 1.024.192 1.408.512.384.384.576.832.576 1.408v3.648ZM229.249 35.455c0 .576-.192 1.024-.576 1.408-.384.384-.832.576-1.408.576H210.88c-.576 0-1.024-.192-1.344-.576-.384-.384-.576-.832-.576-1.408V2.559c0-.576.192-1.024.576-1.408.32-.384.768-.576 1.344-.576h15.872c.576 0 1.024.192 1.408.512.384.384.576.832.576 1.408v3.392c0 .576-.192 1.024-.576 1.408-.384.384-.832.576-1.408.576h-9.216v6.912h7.616c.576 0 1.024.192 1.408.512.384.384.576.832.576 1.408v3.456c0 .576-.192 1.024-.576 1.408-.384.384-.832.576-1.408.576h-7.616v7.808h9.728c.576 0 1.024.192 1.408.512.384.384.576.832.576 1.408v3.584ZM259.073 35.455c.192.448.256.896.128 1.344-.192.448-.576.64-1.152.64h-6.464c-.576 0-.96-.192-1.216-.64a6.62 6.62 0 0 1-.704-1.344l-6.848-15.488h-.064v15.552c0 .576-.192 1.024-.576 1.344-.384.384-.832.576-1.408.576h-4.736c-.576 0-1.024-.192-1.344-.576-.384-.384-.576-.832-.576-1.408V2.559c0-.576.192-1.024.576-1.408.32-.384.768-.576 1.344-.576h4.8c.576 0 1.024.192 1.408.576.32.384.512.832.512 1.408v12.096h.064l5.824-12.096c.192-.448.448-.896.704-1.344.256-.448.64-.64 1.216-.64h6.464c.576 0 .896.192 1.088.64.192.448.128.896-.128 1.344l-7.68 14.784 8.768 18.112ZM272.065 35.519c0 .576-.192 1.024-.576 1.344-.384.384-.832.576-1.408.576h-4.736c-.576 0-1.024-.192-1.344-.576-.384-.384-.576-.832-.576-1.408V2.559c0-.576.192-1.024.576-1.408.32-.384.768-.576 1.344-.576h4.8c.576 0 1.024.192 1.408.576.32.384.512.832.512 1.408v32.96ZM316.801 35.519c0 .576-.192 1.024-.576 1.344-.384.384-.832.576-1.408.576h-6.4c-.576 0-.96-.192-1.216-.64a4.604 4.604 0 0 1-.768-1.344l-6.848-21.696v21.76c0 .576-.192 1.024-.576 1.344-.384.384-.832.576-1.408.576h-3.84c-.576 0-1.024-.192-1.344-.576-.384-.384-.576-.832-.576-1.408V2.559c0-.576.192-1.024.576-1.408.32-.384.768-.576 1.344-.576h6.72c.576 0 1.024.192 1.344.576.256.448.448.896.64 1.408l6.592 20.288V2.559c0-.576.192-1.024.576-1.408.32-.384.768-.576 1.344-.576h3.904c.576 0 1.024.192 1.408.576.32.384.512.832.512 1.408v32.96ZM346.753 24.063c0 4.864-.96 8.384-2.88 10.624s-5.056 3.392-9.472 3.392c-4.48 0-7.68-1.152-9.6-3.392-1.984-2.24-2.944-5.824-2.944-10.624V14.015c0-4.864.96-8.448 2.88-10.688s5.12-3.328 9.536-3.328c4.416 0 7.616 1.152 9.6 3.392 1.92 2.24 2.88 5.824 2.88 10.624v10.048Zm-8.96-12.096c0-1.536-.256-2.688-.768-3.584-.576-.832-1.472-1.216-2.688-1.216-1.216 0-2.112.384-2.688 1.216-.64.896-.896 2.048-.896 3.584v14.08c0 1.536.256 2.752.896 3.584.576.832 1.472 1.28 2.688 1.28 1.216 0 2.112-.448 2.688-1.28.512-.832.768-2.048.768-3.584v-14.08ZM375.361 35.455c.064.576-.064 1.024-.448 1.408-.448.384-.896.576-1.472.576h-4.736c-.576 0-.96-.192-1.28-.576-.32-.384-.576-.832-.64-1.408-.064-.192-.064-.512-.128-.832-.064-.32-.064-.64-.128-1.088-.064-.384-.064-.832-.064-1.344v-3.2c0-3.904-1.28-5.824-3.904-5.824h-2.432v12.288c0 .576-.192 1.024-.512 1.408-.384.384-.832.576-1.408.576h-4.736c-.576 0-1.024-.192-1.344-.576-.384-.384-.576-.832-.576-1.408V2.559c0-.576.192-1.024.576-1.408.32-.384.768-.576 1.344-.576h11.008c3.648 0 6.272.768 8 2.24 1.728 1.536 2.56 3.968 2.56 7.296v1.472c0 2.176-.384 3.968-1.152 5.44-.768 1.472-2.112 2.432-4.096 3.008 1.984.704 3.392 1.92 4.16 3.584.768 1.728 1.152 3.648 1.152 5.824v2.944c0 .448 0 .832.064 1.152 0 .384 0 .704.064 1.024.064.32.064.64.128.896Zm-8.832-24.256c0-1.344-.256-2.368-.832-3.008-.576-.64-1.472-.96-2.752-.96h-2.752v9.472h2.56c1.344 0 2.368-.256 2.944-.832.576-.576.832-1.536.832-3.008v-1.664ZM404.225 20.927c0 2.944-.192 5.44-.576 7.488-.448 2.112-1.088 3.776-2.048 5.12-.96 1.344-2.24 2.368-3.84 2.944-1.6.64-3.584.96-5.952.96h-9.472c-.576 0-1.024-.192-1.344-.576-.384-.384-.576-.832-.576-1.408V2.559c0-.576.192-1.024.576-1.408.32-.384.768-.576 1.344-.576h9.856c2.24 0 4.16.32 5.696.896a8.728 8.728 0 0 1 3.712 2.88c.96 1.344 1.6 3.008 2.048 4.992.384 2.048.576 4.48.576 7.296v4.288Zm-8.704-7.232c0-2.176-.32-3.776-.96-4.736-.704-.96-1.856-1.472-3.456-1.472h-1.984v22.848h2.048c1.728 0 2.944-.512 3.52-1.536.576-.96.832-2.624.832-4.928V13.695ZM418.433 35.519c0 .576-.192 1.024-.576 1.344-.384.384-.832.576-1.408.576h-4.736c-.576 0-1.024-.192-1.344-.576-.384-.384-.576-.832-.576-1.408V2.559c0-.576.192-1.024.576-1.408.32-.384.768-.576 1.344-.576h4.8c.576 0 1.024.192 1.408.576.32.384.512.832.512 1.408v32.96ZM449.793 35.519c0 .576-.192 1.024-.576 1.344-.384.384-.832.576-1.408.576h-6.4c-.576 0-.96-.192-1.216-.64a4.604 4.604 0 0 1-.768-1.344l-6.848-21.696v21.76c0 .576-.192 1.024-.576 1.344-.384.384-.832.576-1.408.576h-3.84c-.576 0-1.024-.192-1.344-.576-.384-.384-.576-.832-.576-1.408V2.559c0-.576.192-1.024.576-1.408.32-.384.768-.576 1.344-.576h6.72c.576 0 1.024.192 1.344.576.256.448.448.896.64 1.408l6.592 20.288V2.559c0-.576.192-1.024.576-1.408.32-.384.768-.576 1.344-.576h3.904c.576 0 1.024.192 1.408.576.32.384.512.832.512 1.408v32.96Z"/>
</svg>