<?xml version="1.0" encoding="UTF-8" standalone="no"?>
<!DOCTYPE svg PUBLIC "-//W3C//DTD SVG 1.1//EN" "http://www.w3.org/Graphics/SVG/1.1/DTD/svg11.dtd">
<svg width="100%" height="100%" viewBox="0 0 107 155" version="1.1" xmlns="http://www.w3.org/2000/svg" xmlns:xlink="http://www.w3.org/1999/xlink" xml:space="preserve" xmlns:serif="http://www.serif.com/" style="fill-rule:evenodd;clip-rule:evenodd;stroke-linejoin:round;stroke-miterlimit:2;">
    <g transform="matrix(1,0,0,1,-85.6957,-393.731)">
        <g transform="matrix(0.999573,-0.0292283,0.0292283,0.999573,1546.73,-187.057)">
            <path d="M-1473.34,617.525C-1473.34,617.525 -1475.12,612.835 -1476.74,609.791C-1478.03,607.347 -1479.2,604.284 -1479.2,601.183C-1479.2,594.219 -1478.62,589.683 -1472.93,587.424C-1467.24,585.164 -1459.72,582.969 -1459.49,566.067C-1459.42,561.041 -1458.89,554.632 -1458.7,549.297C-1458.24,536.448 -1447.51,531.07 -1449.65,556.529C-1453.46,601.741 -1444.74,567.629 -1443.76,550.098C-1443.16,539.346 -1434.72,532.36 -1436.11,551.808C-1436.87,562.457 -1437.45,573.519 -1437.8,580.48C-1438.09,586.27 -1432.11,591.358 -1433.38,606.234C-1434.19,615.754 -1427.84,618.09 -1406.62,616.234C-1385.39,614.377 -1372.37,615.487 -1373.94,634.252C-1375.5,653.016 -1378.18,678.459 -1378.84,686.247C-1379.51,694.034 -1383.93,694.462 -1390.38,694.381C-1392.55,694.353 -1392.8,693.104 -1392.73,682.499C-1392.71,679.838 -1395.66,678.756 -1401.07,679.173C-1406.46,679.589 -1403.1,685.398 -1403.6,689.148C-1404.09,692.898 -1405.88,694.368 -1411.21,694.073C-1416.54,693.778 -1412.08,685.811 -1412.09,683.032C-1412.1,680.254 -1409.56,679.146 -1426.32,678.46C-1443.09,677.774 -1444.01,677.704 -1447.08,677.721C-1450.14,677.738 -1448.78,686.696 -1448.78,690.94C-1448.78,695.185 -1460.74,694.846 -1460.09,686.415C-1459.44,677.985 -1459.45,674.338 -1459.99,673.443C-1460.53,672.549 -1465.5,670.282 -1465.92,674.615C-1466.33,678.949 -1467.84,691.502 -1470.92,691.232C-1473.99,690.963 -1481.31,693.527 -1478.94,680.338C-1476.57,667.149 -1471.97,629.674 -1473.34,617.525Z" style="fill:rgb(255,140,76);"/>
        </g>
        <g transform="matrix(1.15475,-0.0337659,0.0337659,1.15475,1768.81,-289.283)">
            <circle cx="-1453.43" cy="600.371" r="10.91" style="fill:white;"/>
        </g>
        <g transform="matrix(2.2179,-0.0648532,0.0648532,2.2179,3296.01,-968.896)">
            <circle cx="-1456.72" cy="599.004" r="0.901"/>
        </g>
    </g>
</svg>
