<?xml version="1.0" encoding="UTF-8" standalone="no"?>
<!DOCTYPE svg PUBLIC "-//W3C//DTD SVG 1.1//EN" "http://www.w3.org/Graphics/SVG/1.1/DTD/svg11.dtd">
<svg width="100%" height="100%" viewBox="0 0 7128 4266" version="1.1" xmlns="http://www.w3.org/2000/svg" xmlns:xlink="http://www.w3.org/1999/xlink" xml:space="preserve" xmlns:serif="http://www.serif.com/" style="fill-rule:evenodd;clip-rule:evenodd;stroke-linejoin:round;stroke-miterlimit:2;">
    <g transform="matrix(1,0,0,1,-17135.4,-14832)">
        <g id="Vertical-Tagline" transform="matrix(2.2275,0,0,0.999844,17135.4,14832)">
            <rect x="0" y="0" width="3200" height="4266.67" style="fill:white;"/>
            <g transform="matrix(1,0,0,1,0,-191.436)">
                <g transform="matrix(0.245332,0.546562,-0.245332,0.546562,1928.56,-708.599)">
                    <path d="M2054.43,3444.99L1070.61,3444.99L1070.61,3340.68L1017.81,3340.68C1017.8,3347.44 1017.8,3353.53 1017.8,3357.95C1017.8,3395.9 986.988,3426.71 949.037,3426.71C911.087,3426.71 880.276,3395.9 880.276,3357.95C880.276,3320 911.087,3289.19 949.037,3289.19C953.457,3289.19 959.553,3289.18 966.306,3289.18L966.306,3236.38L862.002,3236.38L862.002,2252.92C855.322,2252.91 849.295,2252.9 844.915,2252.9C806.965,2252.9 776.154,2222.09 776.154,2184.14C776.154,2146.19 806.965,2115.38 844.915,2115.38C882.866,2115.38 913.677,2146.19 913.677,2184.14C913.677,2188.52 913.682,2194.55 913.691,2201.23L1897.15,2201.23L1897.15,2305.53L1949.95,2305.53C1949.96,2298.78 1949.96,2292.68 1949.96,2288.26C1949.96,2250.32 1980.77,2219.5 2018.73,2219.5C2056.68,2219.5 2087.49,2250.32 2087.49,2288.26C2087.49,2326.22 2056.68,2357.03 2018.73,2357.03C2014.31,2357.03 2008.21,2357.03 2001.46,2357.04L2001.46,2409.84L2105.76,2409.84L2105.76,3393.66C2112.59,3393.67 2118.75,3393.68 2123.21,3393.68C2161.16,3393.68 2191.97,3424.49 2191.97,3462.44C2191.97,3500.39 2161.16,3531.2 2123.21,3531.2C2085.26,3531.2 2054.45,3500.39 2054.45,3462.44C2054.45,3457.98 2054.44,3451.81 2054.43,3444.99ZM1122.37,3288.93L1949.7,3288.93L1949.7,2461.6L1897.15,2461.6L1897.15,3236.38L1122.37,3236.38L1122.37,3288.93ZM1018.06,3236.38L1018.06,3288.93L1070.61,3288.93L1070.61,3236.38L1018.06,3236.38ZM1845.39,3184.62L1845.39,2461.6L1122.37,2461.6L1845.39,3184.62ZM844.915,2201.66C854.581,2201.66 862.428,2193.81 862.428,2184.14C862.428,2174.48 854.581,2166.63 844.915,2166.63C835.25,2166.63 827.402,2174.48 827.402,2184.14C827.402,2193.81 835.25,2201.66 844.915,2201.66ZM1122.37,3340.68L1122.37,3393.23C1325.09,3393.23 2054,3393.23 2054,3393.23L2054,2461.6L2001.46,2461.6L2001.46,3340.68L1122.37,3340.68ZM2001.21,2288.26C2001.21,2297.93 2009.06,2305.78 2018.73,2305.78C2028.39,2305.78 2036.24,2297.93 2036.24,2288.26C2036.24,2278.6 2028.39,2270.75 2018.73,2270.75C2009.06,2270.75 2001.21,2278.6 2001.21,2288.26ZM1949.7,2409.84L1949.7,2357.29L1897.15,2357.29L1897.15,2409.84L1949.7,2409.84ZM1845.39,2409.84L1845.39,2357.29L1018.06,2357.29L1018.06,3184.62L1070.61,3184.62L1070.61,2409.84L1845.39,2409.84ZM913.759,2253.01C913.759,2258.66 913.759,3184.62 913.759,3184.62L966.306,3184.62L966.306,2305.53L1845.39,2305.53L1845.39,2252.99C1845.39,2252.99 1116.54,2252.99 913.785,2252.99L913.785,2253.01L913.759,2253.01ZM966.55,3357.95C966.55,3348.29 958.703,3340.44 949.037,3340.44C939.372,3340.44 931.524,3348.29 931.524,3357.95C931.524,3367.62 939.372,3375.47 949.037,3375.47C958.703,3375.47 966.55,3367.62 966.55,3357.95ZM2123.21,3444.93C2113.55,3444.93 2105.7,3452.77 2105.7,3462.44C2105.7,3472.11 2113.55,3479.95 2123.21,3479.95C2132.88,3479.95 2140.72,3472.11 2140.72,3462.44C2140.72,3452.77 2132.88,3444.93 2123.21,3444.93Z"/>
                </g>
                <g transform="matrix(0.987036,0,0,0.780721,-7843.42,614.406)">
                    <path d="M9183.96,3132.79C9183.96,3134.45 9183.03,3135.56 9181.16,3136.11C9179.29,3136.66 9177.23,3137.08 9174.97,3137.36C9172.7,3137.63 9170.59,3137.63 9168.62,3137.36C9166.66,3137.08 9165.48,3136.94 9165.08,3136.94C9163.12,3136.94 9160.61,3137.49 9157.56,3138.6C9154.51,3139.71 9150.73,3140.26 9146.2,3140.26C9145.61,3140.26 9144.93,3140.12 9144.14,3139.85C9143.35,3139.57 9142.96,3138.05 9142.96,3135.28C9142.96,3133.62 9143.3,3130.43 9143.99,3125.72C9144.68,3121.01 9145.37,3115.48 9146.06,3109.11C9146.75,3102.74 9147.43,3096.23 9148.12,3089.58C9148.81,3082.93 9149.16,3076.84 9149.16,3071.3L9149.16,3067.98C9149.16,3042.5 9148.71,3016.88 9147.83,2991.12C9146.94,2965.37 9146.2,2939.75 9145.61,2914.27C9144.63,2871.06 9143.65,2828.27 9142.67,2785.9C9141.68,2743.53 9140.6,2700.74 9139.42,2657.53C9139.42,2656.42 9139.37,2653.93 9139.27,2650.05C9139.17,2646.18 9138.73,2644.24 9137.94,2644.24C9137.55,2644.24 9136.32,2646.87 9134.26,2652.13C9132.19,2657.39 9129.68,2663.9 9126.74,2671.66C9123.78,2679.41 9120.69,2688 9117.44,2697.41C9114.2,2706.83 9111.15,2715.41 9108.3,2723.17C9105.45,2730.92 9102.99,2737.43 9100.92,2742.7C9098.86,2747.96 9097.63,2750.59 9097.24,2750.59C9096.84,2750.59 9094.73,2745.33 9090.89,2734.8C9087.06,2724.28 9082.78,2712.64 9078.06,2699.91C9073.34,2687.16 9069.02,2675.53 9065.08,2665.01C9061.15,2654.49 9058.89,2649.22 9058.3,2649.22C9057.51,2649.22 9057.02,2651.02 9056.82,2654.62C9056.63,2658.22 9056.53,2660.58 9056.53,2661.68C9055.74,2684.95 9054.91,2711.12 9054.02,2740.2C9053.14,2769.28 9052.25,2799.05 9051.36,2829.52C9050.48,2859.99 9049.65,2889.76 9048.86,2918.84C9048.07,2947.92 9047.33,2974.09 9046.65,2997.36C9045.96,3020.62 9045.42,3039.87 9045.02,3055.1C9044.63,3070.33 9044.43,3078.78 9044.43,3080.44L9044.43,3084.6C9044.43,3097.89 9045.22,3108.55 9046.79,3116.58C9048.37,3124.62 9049.35,3131.68 9049.74,3137.77C9049.35,3139.43 9048.66,3140.26 9047.68,3140.26C9044.93,3140.26 9041.78,3139.71 9038.24,3138.6C9034.7,3137.49 9031.45,3136.94 9028.5,3136.94L9009.03,3136.94C9008.25,3136.94 9007.85,3136.11 9007.85,3134.45C9007.85,3133.34 9008.15,3131.68 9008.74,3129.46C9009.33,3127.25 9009.72,3125.86 9009.92,3125.31C9014.64,3108.14 9017.29,3087.92 9017.88,3064.66C9019.26,3014.25 9020.54,2964.26 9021.72,2914.68C9022.9,2865.11 9024.18,2815.12 9025.55,2764.71C9026.14,2739.23 9026.83,2713.34 9027.62,2687.03C9028.41,2660.72 9029.09,2635.1 9029.68,2610.17C9029.68,2609.06 9029.73,2607.68 9029.83,2606.02C9029.93,2604.36 9029.98,2602.97 9029.98,2601.86C9029.98,2593.55 9029.19,2587.6 9027.62,2584C9026.05,2580.4 9025.26,2576.38 9025.26,2571.95C9025.26,2566.97 9026.24,2564.47 9028.21,2564.47C9031.55,2564.47 9034.9,2565.03 9038.24,2566.14C9041.58,2567.24 9044.93,2567.8 9048.27,2567.8C9051.61,2567.8 9054.95,2567.24 9058.3,2566.14C9061.64,2565.03 9064.98,2564.47 9068.33,2564.47C9070.49,2564.47 9071.57,2568.08 9071.57,2575.28C9071.57,2583.58 9072.9,2591.06 9075.56,2597.71C9078.21,2604.36 9080.13,2609.34 9081.31,2612.66C9081.5,2613.77 9082.44,2616.4 9084.11,2620.56C9085.78,2624.71 9087.55,2629.14 9089.42,2633.85C9091.29,2638.56 9093.06,2642.85 9094.73,2646.73C9096.4,2650.61 9097.43,2652.55 9097.83,2652.55C9098.22,2652.55 9099.69,2649.64 9102.25,2643.82C9104.81,2638.01 9107.46,2631.22 9110.22,2623.47C9113.56,2615.16 9117.2,2605.46 9121.13,2594.39C9122.31,2591.62 9123.29,2588.85 9124.08,2586.08C9124.87,2583.31 9125.46,2579.71 9125.85,2575.28C9126.24,2572.51 9126.54,2570.01 9126.74,2567.8C9126.93,2565.58 9127.72,2564.47 9129.09,2564.47C9132.05,2564.47 9135,2565.03 9137.94,2566.14C9140.9,2567.24 9143.84,2567.8 9146.8,2567.8C9150.14,2567.8 9153.58,2567.24 9157.12,2566.14C9160.66,2565.03 9164.1,2564.47 9167.44,2564.47C9167.84,2564.47 9168.58,2564.75 9169.66,2565.3C9170.74,2565.86 9171.28,2566.97 9171.28,2568.63C9171.28,2570.29 9170.93,2572.51 9170.25,2575.28C9169.56,2578.05 9168.87,2581.23 9168.18,2584.83C9167.49,2588.43 9166.85,2592.45 9166.26,2596.88C9165.67,2601.31 9165.38,2605.74 9165.38,2610.17C9165.58,2621.25 9165.87,2633.3 9166.26,2646.31C9166.66,2659.33 9167.05,2672.62 9167.44,2686.2C9167.84,2699.77 9168.18,2713.2 9168.48,2726.49C9168.77,2739.79 9169.12,2752.25 9169.51,2763.88C9170.69,2813.73 9171.87,2863.31 9173.05,2912.61C9174.23,2961.9 9175.41,3011.48 9176.59,3061.33C9176.78,3070.19 9177.28,3081.27 9178.06,3094.57C9178.85,3107.86 9180.23,3118.11 9182.19,3125.31C9182.59,3126.42 9182.98,3127.52 9183.37,3128.63C9183.77,3129.74 9183.96,3131.12 9183.96,3132.79Z" style="fill-rule:nonzero;"/>
                    <path d="M9312.58,2566.14C9312.58,2568.35 9312.09,2570.57 9311.1,2572.78C9310.12,2575 9308.99,2577.21 9307.71,2579.43C9306.43,2581.64 9305.11,2583.58 9303.73,2585.25C9302.35,2586.91 9301.37,2588.29 9300.78,2589.4C9299.4,2592.17 9296.9,2599.65 9293.26,2611.83C9289.62,2624.02 9285.83,2637.31 9281.9,2651.72C9277.97,2666.12 9274.28,2679.83 9270.84,2692.84C9267.4,2705.86 9265.09,2714.31 9263.91,2718.18L9263.91,3072.96C9263.91,3081.27 9264.15,3088.47 9264.64,3094.57C9265.14,3100.66 9265.73,3105.92 9266.41,3110.35C9267.1,3114.78 9267.69,3118.8 9268.18,3122.4C9268.68,3126 9268.92,3129.74 9268.92,3133.62C9268.92,3135.83 9268.53,3137.08 9267.74,3137.36C9266.95,3137.63 9266.36,3137.77 9265.97,3137.77C9263.22,3137.77 9260.42,3137.22 9257.56,3136.11C9254.71,3135 9251.91,3134.45 9249.16,3134.45C9246.6,3134.45 9244.09,3135 9241.63,3136.11C9239.18,3137.22 9236.77,3137.77 9234.41,3137.77C9234.01,3137.77 9233.52,3137.49 9232.93,3136.94C9232.34,3136.39 9232.05,3135.28 9232.05,3133.62C9232.05,3125.86 9232.74,3117 9234.11,3107.03C9235.49,3097.06 9236.18,3087.37 9236.18,3077.95L9236.18,2721.51C9229.69,2700.46 9223.25,2679.41 9216.85,2658.36C9210.46,2637.31 9204.32,2615.43 9198.42,2592.72C9197.63,2589.95 9196.65,2587.6 9195.47,2585.66C9194.29,2583.72 9193.11,2582.06 9191.93,2580.68C9190.75,2579.29 9189.72,2577.91 9188.83,2576.52C9187.95,2575.14 9187.5,2573.34 9187.5,2571.12C9187.5,2568.35 9187.85,2566.41 9188.54,2565.3C9189.22,2564.2 9189.96,2563.64 9190.75,2563.64C9194.29,2563.64 9197.88,2564.2 9201.51,2565.3C9205.15,2566.41 9208.74,2566.97 9212.28,2566.97C9215.63,2566.97 9218.92,2566.55 9222.17,2565.72C9225.41,2564.89 9228.7,2564.47 9232.05,2564.47C9233.23,2564.47 9234.06,2564.89 9234.55,2565.72C9235.05,2566.55 9235.29,2568.63 9235.29,2571.95C9235.29,2574.17 9235.14,2576.38 9234.85,2578.6C9234.55,2580.82 9234.41,2583.31 9234.41,2586.08C9234.41,2587.74 9235.09,2591.75 9236.47,2598.12C9237.85,2604.49 9239.42,2611.28 9241.19,2618.48C9242.96,2625.68 9244.58,2632.47 9246.06,2638.84C9247.53,2645.21 9248.37,2648.67 9248.57,2649.22L9249.45,2649.22C9249.84,2647.56 9250.78,2643.55 9252.25,2637.18C9253.73,2630.8 9255.3,2623.88 9256.97,2616.4C9258.65,2608.93 9260.12,2601.86 9261.4,2595.22C9262.68,2588.57 9263.32,2584.41 9263.32,2582.75C9263.32,2581.09 9263.22,2579.57 9263.02,2578.18C9262.82,2576.8 9262.73,2575 9262.73,2572.78C9262.73,2570.01 9262.87,2567.66 9263.17,2565.72C9263.46,2563.78 9264.1,2562.81 9265.09,2562.81C9269.02,2562.81 9272.81,2562.95 9276.44,2563.23C9280.08,2563.51 9283.87,2563.64 9287.8,2563.64C9291.54,2563.64 9295.32,2563.23 9299.16,2562.4C9302.99,2561.57 9306.78,2561.15 9310.51,2561.15C9311.89,2561.15 9312.58,2562.81 9312.58,2566.14Z" style="fill-rule:nonzero;"/>
                    <path d="M9449.16,3134.45C9449.16,3135.56 9448.96,3136.66 9448.57,3137.77C9448.18,3138.88 9447.78,3139.71 9447.39,3140.26C9444.24,3140.26 9441.15,3139.71 9438.1,3138.6C9435.05,3137.49 9431.95,3136.94 9428.81,3136.94C9425.46,3136.94 9421.82,3137.36 9417.89,3138.19C9413.96,3139.02 9410.32,3139.43 9406.98,3139.43C9405.8,3139.43 9405.21,3137.49 9405.21,3133.62C9405.21,3127.52 9405.84,3121.15 9407.12,3114.51C9408.4,3107.86 9409.04,3100.94 9409.04,3093.74C9409.04,3092.07 9408.3,3085.29 9406.83,3073.38C9405.35,3061.47 9403.53,3047.07 9401.37,3030.17C9399.21,3013.28 9396.8,2995 9394.14,2975.34C9391.49,2955.67 9388.98,2937.39 9386.62,2920.5C9384.26,2903.61 9382.25,2889.2 9380.58,2877.3C9378.9,2865.39 9377.97,2858.6 9377.77,2856.94C9377.38,2856.94 9376.25,2861.23 9374.38,2869.82C9372.51,2878.4 9370.5,2887.82 9368.33,2898.07C9366.17,2908.31 9364.06,2918.28 9361.99,2927.98C9359.93,2937.67 9358.6,2943.62 9358.01,2945.84C9356.83,2951.38 9356.24,2958.03 9356.24,2965.78L9356.24,3077.95C9356.24,3085.7 9356.39,3091.8 9356.68,3096.23C9356.98,3100.66 9357.42,3104.54 9358.01,3107.86C9358.6,3111.18 9359.29,3114.78 9360.07,3118.66C9360.86,3122.54 9361.65,3127.25 9362.43,3132.79C9362.43,3134.45 9362.14,3135.56 9361.55,3136.11C9360.96,3136.66 9360.47,3136.94 9360.07,3136.94L9340.6,3136.94C9338.24,3136.94 9335.64,3137.49 9332.79,3138.6C9329.93,3139.71 9327.33,3140.26 9324.97,3140.26C9323.59,3140.26 9322.85,3139.43 9322.76,3137.77C9322.66,3136.11 9322.81,3133.89 9323.2,3131.12C9323.4,3130.02 9323.84,3127.52 9324.53,3123.65C9325.22,3119.77 9325.95,3114.92 9326.74,3109.11C9327.52,3103.29 9328.21,3097.2 9328.8,3090.83C9329.39,3084.46 9329.69,3078.23 9329.69,3072.13L9329.69,2650.05C9329.69,2641.19 9329.49,2629.42 9329.1,2614.74C9328.7,2600.06 9327.72,2588.29 9326.15,2579.43C9325.76,2577.21 9325.26,2575.28 9324.67,2573.61C9324.08,2571.95 9323.79,2569.74 9323.79,2566.97C9323.79,2564.75 9324.18,2563.51 9324.97,2563.23C9325.76,2562.95 9326.34,2562.81 9326.74,2562.81C9329.3,2562.81 9331.8,2563.23 9334.26,2564.06C9336.72,2564.89 9339.23,2565.3 9341.78,2565.3L9368.92,2565.3C9375.61,2565.3 9382.89,2565.03 9390.75,2564.47C9398.62,2563.92 9405.9,2563.64 9412.58,2563.64C9415.73,2563.64 9418.87,2564.34 9422.02,2565.72C9425.17,2567.11 9428.07,2569.74 9430.72,2573.61C9433.38,2577.49 9435.54,2582.89 9437.21,2589.82C9438.88,2596.74 9439.72,2605.46 9439.72,2615.99C9439.72,2622.08 9438.74,2630.11 9436.77,2640.08C9434.8,2650.05 9432.39,2660.99 9429.54,2672.9C9426.69,2684.81 9423.59,2696.86 9420.25,2709.05C9416.91,2721.23 9413.81,2732.72 9410.96,2743.53C9408.11,2754.33 9405.7,2763.88 9403.73,2772.19C9401.76,2780.5 9400.78,2786.32 9400.78,2789.64C9400.78,2791.3 9401.62,2799.47 9403.29,2814.15C9404.96,2828.83 9407.07,2846.69 9409.63,2867.74C9412.19,2888.79 9415.04,2911.5 9418.19,2935.87C9421.33,2960.24 9424.33,2983.51 9427.18,3005.66C9430.03,3027.82 9432.54,3047.07 9434.7,3063.41C9436.87,3079.75 9438.34,3090.14 9439.13,3094.57C9440.11,3100.11 9441.15,3105.64 9442.23,3111.18C9443.31,3116.72 9444.64,3121.71 9446.21,3126.14C9446.6,3127.25 9447.19,3128.63 9447.98,3130.29C9448.77,3131.95 9449.16,3133.34 9449.16,3134.45ZM9401.37,2648.39C9401.37,2643.96 9400.73,2640.91 9399.45,2639.25C9398.18,2637.59 9396.85,2636.76 9395.47,2636.76L9361.55,2636.76C9358.79,2636.76 9357.22,2638.28 9356.83,2641.33C9356.43,2644.38 9356.24,2649.5 9356.24,2656.7L9356.24,2822.04L9356.83,2827.03C9357.61,2826.47 9358.4,2825.09 9359.19,2822.87C9359.97,2820.66 9360.56,2818.72 9360.96,2817.06C9368.43,2788.81 9375.12,2763.05 9381.02,2739.79C9383.57,2729.82 9386.03,2719.98 9388.39,2710.29C9390.75,2700.6 9392.92,2691.6 9394.88,2683.29C9396.85,2674.98 9398.42,2667.78 9399.6,2661.68C9400.78,2655.59 9401.37,2651.16 9401.37,2648.39Z" style="fill-rule:nonzero;"/>
                    <path d="M9577.19,2984.06C9577.19,3007.33 9575.37,3028.79 9571.73,3048.45C9568.09,3068.12 9563.32,3085.15 9557.42,3099.55C9551.52,3113.95 9544.74,3125.17 9537.07,3133.2C9529.4,3141.23 9521.63,3145.25 9513.76,3145.25C9501.37,3145.25 9490.46,3140.96 9481.02,3132.37C9471.58,3123.78 9462.24,3112.57 9453,3098.72C9452.21,3097.61 9451.47,3096.64 9450.78,3095.81C9450.09,3094.98 9449.75,3092.9 9449.75,3089.58C9449.75,3086.81 9450.24,3084.87 9451.23,3083.76C9452.21,3082.66 9453,3081.27 9453.59,3079.61C9455.35,3075.18 9457.27,3068.12 9459.34,3058.42C9461.4,3048.73 9463.12,3040.56 9464.5,3033.91C9464.89,3032.8 9465.38,3030.59 9465.97,3027.27C9466.56,3023.94 9467.15,3022.28 9467.74,3022.28C9468.53,3022.28 9469.27,3023.66 9469.96,3026.43C9470.65,3029.2 9471.19,3031.14 9471.58,3032.25C9474.14,3041.11 9477.18,3048.31 9480.72,3053.85C9484.26,3059.39 9488,3063.82 9491.93,3067.15C9495.87,3070.47 9499.7,3072.69 9503.44,3073.79C9507.17,3074.9 9510.52,3075.46 9513.47,3075.46C9518.38,3075.46 9522.96,3073.24 9527.18,3068.81C9531.41,3064.38 9535.1,3058.01 9538.25,3049.7C9541.39,3041.39 9543.85,3031.56 9545.62,3020.2C9547.39,3008.85 9548.28,2995.97 9548.28,2981.57C9548.28,2954.98 9546.46,2931.72 9542.82,2911.78C9539.18,2891.84 9534.61,2873.69 9529.1,2857.35C9523.6,2841.01 9517.7,2825.92 9511.4,2812.07C9505.11,2798.22 9499.21,2783.82 9493.7,2768.87C9488.2,2753.91 9483.62,2737.85 9479.99,2720.68C9476.35,2703.51 9474.53,2683.57 9474.53,2660.85C9474.53,2628.17 9478.22,2603.11 9485.59,2585.66C9492.97,2568.21 9504.62,2559.49 9520.55,2559.49C9524.48,2559.49 9528.81,2561.15 9533.53,2564.47C9538.25,2567.8 9542.67,2571.68 9546.8,2576.11C9550.93,2580.54 9554.42,2585.25 9557.27,2590.23C9560.12,2595.22 9561.55,2599.65 9561.55,2603.53C9561.55,2603.53 9561.06,2605.33 9560.08,2608.93C9559.09,2612.53 9557.91,2616.68 9556.54,2621.39C9555.16,2626.1 9553.88,2630.67 9552.7,2635.1C9551.52,2639.53 9550.74,2642.58 9550.34,2644.24C9549.95,2646.45 9549.51,2648.81 9549.01,2651.3C9548.52,2653.79 9547.88,2655.59 9547.1,2656.7C9540.8,2645.62 9535.4,2638.42 9530.87,2635.1C9526.35,2631.77 9522.12,2630.11 9518.19,2630.11C9513.86,2630.11 9510.37,2632.61 9507.72,2637.59C9505.06,2642.58 9503.73,2649.5 9503.73,2658.36C9503.73,2674.43 9505.55,2689.1 9509.19,2702.4C9512.83,2715.69 9517.35,2728.99 9522.76,2742.28C9528.17,2755.57 9534.07,2769.7 9540.46,2784.65C9546.85,2799.61 9552.75,2816.5 9558.16,2835.34C9563.57,2854.17 9568.09,2875.63 9571.73,2899.73C9575.37,2923.82 9577.19,2951.93 9577.19,2984.06Z" style="fill-rule:nonzero;"/>
                    <path d="M9707.28,2562.81C9705.7,2585.52 9702.31,2604.08 9697.1,2618.48C9691.89,2632.88 9685.15,2640.08 9676.89,2640.08C9673.55,2640.08 9670.5,2639.67 9667.75,2638.84C9664.99,2638.01 9661.95,2637.59 9658.6,2637.59C9657.42,2637.59 9656.64,2638.01 9656.24,2638.84C9655.85,2639.67 9655.65,2641.74 9655.65,2645.07L9655.65,3076.29C9655.65,3084.04 9655.8,3092.07 9656.09,3100.38C9656.39,3108.69 9657.52,3115.89 9659.49,3121.98C9659.88,3123.09 9660.32,3124.62 9660.82,3126.55C9661.31,3128.49 9661.55,3130.57 9661.55,3132.79C9661.55,3136.11 9660.77,3137.77 9659.19,3137.77C9658.21,3137.77 9657.33,3137.49 9656.54,3136.94C9655.75,3136.39 9654.87,3136.11 9653.88,3136.11C9651.72,3135.56 9649.51,3135.28 9647.25,3135.28L9640.61,3135.28C9638.25,3135.28 9635.69,3135.56 9632.94,3136.11C9630.18,3136.66 9627.63,3136.94 9625.27,3136.94C9624.29,3136.94 9623.2,3136.39 9622.02,3135.28C9620.84,3134.17 9620.25,3132.23 9620.25,3129.46C9620.25,3127.8 9620.35,3126.69 9620.55,3126.14C9622.71,3115.06 9624.48,3104.68 9625.86,3094.98C9627.24,3085.29 9627.92,3073.79 9627.92,3060.5L9627.92,2648.39C9627.92,2644.51 9627.63,2641.88 9627.04,2640.5C9626.45,2639.11 9625.71,2638.14 9624.83,2637.59C9623.94,2637.04 9622.91,2636.9 9621.73,2637.18C9620.55,2637.45 9619.47,2637.59 9618.48,2637.59C9613.96,2637.59 9609.44,2637.87 9604.92,2638.42C9600.39,2638.97 9595.87,2640.91 9591.34,2644.24C9589.97,2645.35 9588.54,2647.28 9587.07,2650.05C9585.59,2652.82 9584.26,2654.21 9583.09,2654.21C9582.1,2654.21 9581.46,2653.24 9581.17,2651.3C9580.87,2649.36 9580.73,2647.01 9580.73,2644.24C9580.73,2642.02 9580.77,2639.94 9580.87,2638.01C9580.97,2636.07 9581.02,2633.99 9581.02,2631.77L9581.02,2566.97L9686.04,2567.8C9688.2,2567.8 9690.85,2567.24 9694,2566.14C9697.15,2565.03 9699.7,2563.09 9701.67,2560.32C9702.26,2559.21 9702.9,2558.24 9703.59,2557.41C9704.28,2556.58 9705.01,2556.17 9705.8,2556.17C9706.78,2556.17 9707.28,2557.55 9707.28,2560.32L9707.28,2562.81Z" style="fill-rule:nonzero;"/>
                    <path d="M9839.14,3043.88C9839.14,3049.98 9839.04,3056.49 9838.84,3063.41C9838.65,3070.33 9838.55,3076.84 9838.55,3082.93L9838.55,3124.48C9838.55,3131.68 9837.96,3135.69 9836.78,3136.53C9835.6,3137.36 9833.93,3137.77 9831.76,3137.77C9816.23,3137.77 9800.79,3137.36 9785.45,3136.53C9770.11,3135.69 9754.67,3135.28 9739.14,3135.28C9736.18,3135.28 9733.28,3135.56 9730.43,3136.11C9727.58,3136.66 9724.68,3136.94 9721.73,3136.94C9720.35,3136.94 9719.67,3135.56 9719.67,3132.79C9719.67,3128.91 9720.35,3125.03 9721.73,3121.15C9723.3,3116.72 9724.53,3110.63 9725.42,3102.88C9726.3,3095.12 9726.94,3087.09 9727.34,3078.78C9727.73,3070.47 9727.93,3062.02 9727.93,3053.44L9727.93,2625.13C9727.93,2620.14 9727.68,2614.47 9727.19,2608.1C9726.7,2601.72 9726.2,2595.77 9725.71,2590.23C9725.22,2584.69 9724.73,2579.85 9724.24,2575.69C9723.75,2571.54 9723.5,2568.91 9723.5,2567.8C9723.5,2565.58 9723.84,2564.47 9724.53,2564.47L9726.16,2564.47C9728.71,2564.47 9731.17,2564.75 9733.53,2565.3C9735.89,2565.86 9738.35,2566.14 9740.91,2566.14C9754.87,2566.14 9768.68,2565.72 9782.35,2564.89C9796.02,2564.06 9809.83,2563.64 9823.8,2563.64C9825.37,2563.64 9826.16,2565.58 9826.16,2569.46C9826.16,2583.86 9826.35,2597.85 9826.75,2611.42C9827.14,2624.99 9827.34,2638.97 9827.34,2653.38L9827.34,2656.28C9827.34,2657.67 9827.14,2658.36 9826.75,2658.36C9826.35,2658.36 9825.81,2657.67 9825.12,2656.28C9824.44,2654.9 9823.9,2653.65 9823.5,2652.55C9820.75,2646.45 9817.06,2642.3 9812.44,2640.08C9807.82,2637.87 9803.84,2636.76 9800.49,2636.76L9758.01,2636.76C9756.25,2636.76 9755.21,2637.45 9754.92,2638.84C9754.62,2640.22 9754.48,2642.3 9754.48,2645.07C9754.48,2647.28 9754.43,2650.19 9754.33,2653.79C9754.23,2657.39 9754.23,2660.99 9754.33,2664.59C9754.43,2668.19 9754.67,2671.24 9755.07,2673.73C9755.46,2676.22 9756.05,2677.47 9756.84,2677.47L9817.6,2677.47C9819.18,2677.47 9820.16,2678.3 9820.55,2679.96C9820.95,2681.63 9821.14,2684.67 9821.14,2689.1L9821.14,2735.63C9821.14,2743.39 9819.77,2747.26 9817.01,2747.26L9758.6,2747.26C9757.03,2747.26 9755.95,2747.54 9755.36,2748.1C9754.77,2748.65 9754.48,2751.42 9754.48,2756.4L9754.48,3032.25C9754.48,3044.44 9755.16,3052.47 9756.54,3056.35C9757.92,3060.22 9760.67,3062.16 9764.8,3062.16L9811.41,3062.16C9815.14,3062.16 9818.49,3060.92 9821.44,3058.42C9824.39,3055.93 9826.94,3053.3 9829.11,3050.53C9831.27,3047.76 9833.09,3045.13 9834.57,3042.64C9836.04,3040.14 9837.17,3038.9 9837.96,3038.9C9838.35,3038.9 9838.65,3039.45 9838.84,3040.56C9839.04,3041.67 9839.14,3042.78 9839.14,3043.88Z" style="fill-rule:nonzero;"/>
                    <path d="M9980.14,2568.63C9980.14,2571.95 9979.85,2574.72 9979.26,2576.94C9977.29,2588.01 9975.91,2597.02 9975.13,2603.94C9974.34,2610.86 9973.95,2620.97 9973.95,2634.27L9973.95,3070.47C9973.95,3079.33 9974.24,3087.92 9974.83,3096.23C9975.42,3104.54 9976.5,3112.57 9978.08,3120.32C9978.47,3121.98 9978.82,3123.65 9979.11,3125.31C9979.41,3126.97 9979.55,3128.91 9979.55,3131.12C9979.55,3135 9978.57,3136.94 9976.6,3136.94C9974.24,3136.94 9971.54,3136.53 9968.49,3135.69C9965.44,3134.86 9962.64,3134.45 9960.08,3134.45C9957.33,3134.45 9954.63,3134.86 9951.97,3135.69C9949.32,3136.53 9946.61,3136.94 9943.86,3136.94L9943.27,3136.94C9941.69,3136.94 9940.91,3135 9940.91,3131.12C9940.91,3128.35 9941.4,3125.59 9942.38,3122.82C9943.37,3120.05 9944.15,3116.03 9944.74,3110.77C9945.33,3105.51 9945.83,3099.83 9946.22,3093.74C9946.61,3087.64 9946.91,3081.69 9947.1,3075.87C9947.3,3070.06 9947.4,3065.21 9947.4,3061.33L9947.4,2935.87L9910.23,2780.5C9907.08,2767.2 9903.84,2754.05 9900.5,2741.03C9897.15,2728.02 9893.81,2715.14 9890.47,2702.4C9890.07,2701.29 9889.63,2699.77 9889.14,2697.83C9888.65,2695.89 9888.1,2694.92 9887.51,2694.92C9886.53,2694.92 9886.04,2697.97 9886.04,2704.06L9886.04,3070.47C9886.04,3077.67 9886.34,3086.26 9886.93,3096.23C9887.51,3106.2 9888.69,3113.95 9890.47,3119.49C9890.86,3120.6 9891.5,3122.68 9892.38,3125.72C9893.27,3128.77 9893.71,3131.4 9893.71,3133.62C9893.71,3135.28 9893.37,3136.25 9892.68,3136.53C9891.99,3136.8 9891.45,3136.94 9891.06,3136.94C9888.3,3136.94 9885.55,3136.53 9882.8,3135.69C9880.04,3134.86 9877.29,3134.45 9874.54,3134.45C9871.59,3134.45 9868.34,3134.86 9864.8,3135.69C9861.26,3136.53 9858.02,3136.94 9855.07,3136.94L9854.48,3136.94C9852.9,3136.94 9852.12,3135 9852.12,3131.12C9852.12,3128.35 9852.61,3125.59 9853.59,3122.82C9855.76,3116.17 9857.28,3106.47 9858.16,3093.74C9859.05,3080.99 9859.49,3070.19 9859.49,3061.33L9859.49,2625.54C9859.49,2620.28 9859.44,2614.88 9859.34,2609.34C9859.25,2603.8 9859.05,2598.68 9858.75,2593.97C9858.46,2589.26 9858.11,2585.8 9857.72,2583.58C9857.33,2581.37 9856.79,2578.88 9856.1,2576.11C9855.41,2573.34 9855.07,2570.84 9855.07,2568.63C9855.07,2566.41 9855.46,2565.03 9856.25,2564.47C9857.03,2563.92 9857.72,2563.64 9858.31,2563.64C9860.87,2563.64 9863.62,2563.92 9866.57,2564.47C9869.52,2565.03 9872.27,2565.3 9874.83,2565.3C9878.37,2565.3 9882.01,2565.17 9885.75,2564.89C9889.48,2564.61 9893.12,2564.47 9896.66,2564.47L9898.87,2564.47C9899.76,2564.47 9900.2,2565.86 9900.2,2568.63C9900.2,2571.4 9899.56,2574.86 9898.28,2579.01C9897,2583.17 9896.36,2588.57 9896.36,2595.22C9896.36,2597.99 9896.76,2602.14 9897.55,2607.68C9899.12,2616.54 9901.09,2625.27 9903.44,2633.85C9905.81,2642.44 9908.07,2650.61 9910.23,2658.36C9914.16,2673.87 9918.15,2689.38 9922.18,2704.89C9926.21,2720.4 9930.19,2735.91 9934.12,2751.42C9936.29,2759.17 9938.06,2766.93 9939.43,2774.68C9940.81,2782.44 9942.38,2790.47 9944.15,2798.78C9944.35,2799.89 9944.69,2801.55 9945.19,2803.76C9945.68,2805.98 9946.12,2807.09 9946.51,2807.09C9946.91,2807.09 9947.15,2805.98 9947.25,2803.76C9947.35,2801.55 9947.4,2800.16 9947.4,2799.61L9947.4,2612.66C9947.4,2600.48 9946.61,2590.78 9945.04,2583.58C9944.65,2581.37 9943.71,2578.88 9942.24,2576.11C9940.76,2573.34 9940.02,2570.84 9940.02,2568.63C9940.02,2566.41 9940.42,2565.03 9941.2,2564.47C9941.99,2563.92 9942.68,2563.64 9943.27,2563.64C9946.22,2563.64 9949.07,2563.92 9951.82,2564.47C9954.58,2565.03 9957.43,2565.3 9960.38,2565.3C9962.74,2565.3 9965.49,2565.17 9968.64,2564.89C9971.78,2564.61 9974.54,2564.47 9976.9,2564.47L9978.96,2564.47C9979.75,2564.47 9980.14,2565.86 9980.14,2568.63Z" style="fill-rule:nonzero;"/>
                    <path d="M10122,2984.06C10122,3007.33 10120.2,3028.79 10116.6,3048.45C10112.9,3068.12 10108.2,3085.15 10102.3,3099.55C10096.4,3113.95 10089.6,3125.17 10081.9,3133.2C10074.2,3141.23 10066.5,3145.25 10058.6,3145.25C10046.2,3145.25 10035.3,3140.96 10025.9,3132.37C10016.4,3123.78 10007.1,3112.57 9997.84,3098.72C9997.06,3097.61 9996.32,3096.64 9995.63,3095.81C9994.94,3094.98 9994.6,3092.9 9994.6,3089.58C9994.6,3086.81 9995.09,3084.87 9996.07,3083.76C9997.06,3082.66 9997.84,3081.27 9998.43,3079.61C10000.2,3075.18 10002.1,3068.12 10004.2,3058.42C10006.2,3048.73 10008,3040.56 10009.3,3033.91C10009.7,3032.8 10010.2,3030.59 10010.8,3027.27C10011.4,3023.94 10012,3022.28 10012.6,3022.28C10013.4,3022.28 10014.1,3023.66 10014.8,3026.43C10015.5,3029.2 10016,3031.14 10016.4,3032.25C10019,3041.11 10022,3048.31 10025.6,3053.85C10029.1,3059.39 10032.8,3063.82 10036.8,3067.15C10040.7,3070.47 10044.5,3072.69 10048.3,3073.79C10052,3074.9 10055.4,3075.46 10058.3,3075.46C10063.2,3075.46 10067.8,3073.24 10072,3068.81C10076.3,3064.38 10079.9,3058.01 10083.1,3049.7C10086.2,3041.39 10088.7,3031.56 10090.5,3020.2C10092.2,3008.85 10093.1,2995.97 10093.1,2981.57C10093.1,2954.98 10091.3,2931.72 10087.7,2911.78C10084,2891.84 10079.5,2873.69 10073.9,2857.35C10068.4,2841.01 10062.5,2825.92 10056.2,2812.07C10050,2798.22 10044.1,2783.82 10038.6,2768.87C10033,2753.91 10028.5,2737.85 10024.8,2720.68C10021.2,2703.51 10019.4,2683.57 10019.4,2660.85C10019.4,2628.17 10023.1,2603.11 10030.4,2585.66C10037.8,2568.21 10049.5,2559.49 10065.4,2559.49C10069.3,2559.49 10073.7,2561.15 10078.4,2564.47C10083.1,2567.8 10087.5,2571.68 10091.6,2576.11C10095.8,2580.54 10099.3,2585.25 10102.1,2590.23C10105,2595.22 10106.4,2599.65 10106.4,2603.53C10106.4,2603.53 10105.9,2605.33 10104.9,2608.93C10103.9,2612.53 10102.8,2616.68 10101.4,2621.39C10100,2626.1 10098.7,2630.67 10097.5,2635.1C10096.4,2639.53 10095.6,2642.58 10095.2,2644.24C10094.8,2646.45 10094.4,2648.81 10093.9,2651.3C10093.4,2653.79 10092.7,2655.59 10091.9,2656.7C10085.6,2645.62 10080.2,2638.42 10075.7,2635.1C10071.2,2631.77 10067,2630.11 10063,2630.11C10058.7,2630.11 10055.2,2632.61 10052.6,2637.59C10049.9,2642.58 10048.6,2649.5 10048.6,2658.36C10048.6,2674.43 10050.4,2689.1 10054,2702.4C10057.7,2715.69 10062.2,2728.99 10067.6,2742.28C10073,2755.57 10078.9,2769.7 10085.3,2784.65C10091.7,2799.61 10097.6,2816.5 10103,2835.34C10108.4,2854.17 10112.9,2875.63 10116.6,2899.73C10120.2,2923.82 10122,2951.93 10122,2984.06Z" style="fill-rule:nonzero;"/>
                </g>
                <g transform="matrix(0.842811,0,0,0.271136,-6463.55,2531.53)">
                    <path d="M9081.73,2970.57C9081.73,2993.16 9081.01,3014 9079.57,3033.09C9078.13,3052.18 9076.25,3068.71 9073.92,3082.7C9071.59,3096.68 9068.91,3107.57 9065.88,3115.37C9062.85,3123.16 9059.79,3127.06 9056.68,3127.06C9051.79,3127.06 9047.48,3122.89 9043.75,3114.56C9040.02,3106.22 9036.34,3095.33 9032.69,3081.89C9032.38,3080.81 9032.08,3079.87 9031.81,3079.07C9031.54,3078.26 9031.41,3076.24 9031.41,3073.02C9031.41,3070.33 9031.6,3068.45 9031.99,3067.37C9032.38,3066.3 9032.69,3064.95 9032.92,3063.34C9033.62,3059.03 9034.38,3052.18 9035.19,3042.77C9036.01,3033.36 9036.68,3025.42 9037.23,3018.97C9037.38,3017.9 9037.58,3015.74 9037.81,3012.52C9038.04,3009.29 9038.28,3007.68 9038.51,3007.68C9038.82,3007.68 9039.11,3009.02 9039.38,3011.71C9039.66,3014.4 9039.87,3016.28 9040.02,3017.36C9041.03,3025.96 9042.24,3032.95 9043.64,3038.33C9045.03,3043.71 9046.51,3048.01 9048.06,3051.24C9049.61,3054.46 9051.13,3056.62 9052.6,3057.69C9054.08,3058.77 9055.4,3059.3 9056.57,3059.3C9058.51,3059.3 9060.31,3057.15 9061.98,3052.85C9063.65,3048.55 9065.11,3042.36 9066.35,3034.3C9067.59,3026.23 9068.56,3016.69 9069.26,3005.66C9069.96,2994.64 9070.31,2982.13 9070.31,2968.15C9070.31,2942.34 9069.59,2919.75 9068.15,2900.39C9066.72,2881.03 9064.91,2863.42 9062.74,2847.56C9060.56,2831.69 9058.23,2817.04 9055.75,2803.6C9053.26,2790.15 9050.93,2776.17 9048.76,2761.65C9046.59,2747.13 9044.78,2731.54 9043.34,2714.87C9041.91,2698.19 9041.19,2678.84 9041.19,2656.79C9041.19,2625.06 9042.65,2600.72 9045.56,2583.78C9048.47,2566.85 9053.07,2558.38 9059.36,2558.38C9060.91,2558.38 9062.62,2559.99 9064.49,2563.22C9066.35,2566.44 9068.1,2570.21 9069.73,2574.51C9071.36,2578.81 9072.74,2583.38 9073.86,2588.22C9074.99,2593.06 9075.55,2597.36 9075.55,2601.13C9075.55,2601.13 9075.36,2602.88 9074.97,2606.37C9074.58,2609.87 9074.11,2613.9 9073.57,2618.47C9073.03,2623.04 9072.52,2627.48 9072.06,2631.78C9071.59,2636.08 9071.28,2639.04 9071.12,2640.65C9070.97,2642.8 9070.8,2645.09 9070.6,2647.51C9070.41,2649.93 9070.15,2651.68 9069.84,2652.75C9067.36,2642 9065.22,2635.01 9063.44,2631.78C9061.65,2628.55 9059.98,2626.94 9058.43,2626.94C9056.72,2626.94 9055.34,2629.36 9054.29,2634.2C9053.25,2639.04 9052.72,2645.76 9052.72,2654.37C9052.72,2669.96 9053.44,2684.21 9054.88,2697.12C9056.31,2710.03 9058.1,2722.93 9060.23,2735.84C9062.37,2748.74 9064.7,2762.46 9067.22,2776.98C9069.75,2791.5 9072.08,2807.9 9074.21,2826.18C9076.35,2844.47 9078.13,2865.3 9079.57,2888.7C9081.01,2912.09 9081.73,2939.38 9081.73,2970.57Z" style="fill-rule:nonzero;"/>
                    <path d="M9133.68,3112.54C9133.68,3116.31 9133.42,3118.46 9132.92,3119C9132.41,3119.53 9131.97,3119.8 9131.58,3119.8C9130.65,3119.8 9129.75,3119.13 9128.9,3117.79C9128.05,3116.44 9127.15,3115.77 9126.22,3115.77C9125.29,3115.77 9124.36,3116.44 9123.43,3117.79C9122.49,3119.13 9121.56,3119.8 9120.63,3119.8C9120.24,3119.8 9119.77,3119.53 9119.23,3119C9118.69,3118.46 9118.42,3116.31 9118.42,3112.54C9118.42,3111.47 9118.55,3109.45 9118.82,3106.49C9119.1,3103.53 9119.41,3099.5 9119.76,3094.39C9120.1,3089.28 9120.42,3083.23 9120.69,3076.24C9120.96,3069.25 9121.09,3061.19 9121.09,3052.04L9121.09,2839.89C9121.09,2831.83 9120.78,2824.84 9120.16,2818.92C9119.54,2813.01 9118.77,2808.17 9117.83,2804.4C9116.9,2800.64 9115.87,2797.95 9114.75,2796.34C9113.62,2794.72 9112.55,2793.92 9111.54,2793.92C9110.61,2793.92 9109.54,2795.26 9108.34,2797.95C9107.14,2800.64 9106.01,2804.4 9104.96,2809.24C9103.91,2814.08 9103.04,2819.73 9102.34,2826.18C9101.64,2832.64 9101.29,2839.63 9101.29,2847.16L9101.29,3068.18C9101.29,3077.32 9101.64,3085.92 9102.34,3093.99C9103.04,3102.06 9103.39,3108.51 9103.39,3113.35C9103.39,3117.65 9103.08,3119.8 9102.46,3119.8C9101.37,3119.8 9100.3,3119.53 9099.26,3119C9098.21,3118.46 9097.14,3118.19 9096.05,3118.19C9095.12,3118.19 9094.17,3118.46 9093.2,3119C9092.23,3119.53 9091.28,3119.8 9090.34,3119.8C9089.96,3119.8 9089.51,3119.53 9089.01,3119C9088.5,3118.46 9088.25,3116.31 9088.25,3112.54C9088.25,3108.78 9088.68,3102.59 9089.53,3093.99C9090.38,3085.39 9090.81,3074.09 9090.81,3060.11L9090.81,2776.98C9090.81,2764.61 9090.46,2755.6 9089.76,2749.95C9089.06,2744.31 9088.71,2739.87 9088.71,2736.64C9088.71,2732.34 9088.91,2730.19 9089.3,2730.19C9090.38,2730.19 9091.45,2730.46 9092.5,2731C9093.55,2731.54 9094.61,2731.8 9095.7,2731.8C9096.63,2731.8 9097.57,2731.27 9098.5,2730.19C9099.43,2729.12 9100.36,2728.58 9101.29,2728.58C9101.45,2728.58 9101.8,2728.71 9102.34,2728.98C9102.89,2729.25 9103.12,2730.46 9103.04,2732.61C9102.5,2737.45 9102.09,2740.95 9101.82,2743.1C9101.55,2745.25 9101.37,2747.53 9101.29,2749.95C9101.22,2752.37 9101.18,2755.33 9101.18,2758.83L9101.18,2775.36L9101.53,2775.36C9102.77,2760.31 9104.67,2748.47 9107.23,2739.87C9109.8,2731.27 9112.24,2726.97 9114.57,2726.97C9116.59,2726.97 9118.61,2729.25 9120.63,2733.82C9122.65,2738.39 9124.47,2744.85 9126.1,2753.18C9127.74,2761.52 9129.06,2771.6 9130.06,2783.43C9131.07,2795.26 9131.58,2808.44 9131.58,2822.96L9131.58,3060.92C9131.58,3071.13 9131.93,3080.81 9132.63,3089.96C9133.33,3099.1 9133.68,3106.63 9133.68,3112.54Z" style="fill-rule:nonzero;"/>
                    <path d="M9155.69,2621.29C9155.69,2633.12 9155.05,2643.34 9153.77,2651.95C9152.49,2660.55 9150.95,2664.85 9149.17,2664.85C9147.38,2664.85 9145.98,2660.01 9144.97,2650.33C9143.96,2640.65 9143.46,2629.9 9143.46,2618.07C9143.46,2606.24 9143.94,2596.56 9144.92,2589.03C9145.89,2581.5 9147.26,2577.74 9149.05,2577.74C9150.84,2577.74 9152.39,2582.04 9153.71,2590.64C9155.03,2599.24 9155.69,2609.46 9155.69,2621.29ZM9156.74,2734.22C9156.74,2735.3 9156.33,2741.22 9155.51,2751.97C9154.7,2762.73 9154.29,2778.05 9154.29,2797.95L9154.29,3054.46C9154.29,3073.82 9154.66,3087.67 9155.4,3096.01C9156.14,3104.34 9156.51,3110.12 9156.51,3113.35C9156.51,3117.11 9156.12,3119 9155.34,3119C9154.41,3119 9153.57,3118.59 9152.84,3117.79C9152.1,3116.98 9150.76,3116.58 9148.82,3116.58C9147.03,3116.58 9145.73,3116.98 9144.92,3117.79C9144.1,3118.59 9143.15,3119 9142.06,3119C9141.52,3119 9141.25,3117.11 9141.25,3113.35C9141.25,3110.66 9141.44,3107.97 9141.83,3105.28C9142.22,3102.06 9142.53,3097.89 9142.76,3092.78C9142.99,3087.67 9143.19,3082.29 9143.34,3076.65C9143.5,3071 9143.61,3065.49 9143.69,3060.11C9143.77,3054.73 9143.81,3049.89 9143.81,3045.59L9143.81,2801.18C9143.81,2798.49 9143.79,2794.72 9143.75,2789.88C9143.71,2785.04 9143.65,2779.93 9143.58,2774.56C9143.5,2769.18 9143.4,2764.2 9143.28,2759.63C9143.17,2755.06 9143.03,2751.7 9142.88,2749.55C9142.72,2746.86 9142.53,2744.31 9142.3,2741.89C9142.06,2739.47 9141.94,2736.91 9141.94,2734.22C9141.94,2732.07 9142.08,2730.73 9142.35,2730.19C9142.62,2729.65 9142.88,2729.38 9143.11,2729.38C9144.2,2729.38 9145.21,2729.79 9146.14,2730.59C9147.07,2731.4 9148.12,2731.8 9149.28,2731.8C9150.29,2731.8 9151.38,2731.54 9152.55,2731C9153.71,2730.46 9154.68,2730.19 9155.46,2730.19L9156.27,2730.19C9156.58,2730.19 9156.74,2731.54 9156.74,2734.22Z" style="fill-rule:nonzero;"/>
                    <path d="M9202.17,3102.06C9202.17,3106.36 9202.03,3111.33 9201.76,3116.98C9201.49,3122.62 9200.92,3125.45 9200.07,3125.45C9195.26,3125.45 9190.61,3121.82 9186.15,3114.56C9181.68,3107.3 9177.72,3095.74 9174.27,3079.87C9170.81,3064.01 9168.06,3043.3 9166,3017.76C9163.94,2992.22 9162.91,2960.89 9162.91,2923.79C9162.91,2889.91 9163.73,2860.6 9165.36,2835.86C9166.99,2811.12 9169.26,2790.42 9172.17,2773.75C9175.08,2757.08 9178.54,2744.71 9182.54,2736.64C9186.54,2728.58 9190.91,2724.55 9195.64,2724.55C9196.73,2724.55 9197.76,2726.02 9198.73,2728.98C9199.7,2731.94 9200.19,2737.99 9200.19,2747.13L9200.19,2797.95C9200.19,2802.25 9200.03,2805.61 9199.72,2808.03C9199.41,2810.45 9199.02,2812.47 9198.56,2814.08C9197.93,2812.47 9197.53,2810.72 9197.33,2808.84C9197.14,2806.96 9196.69,2804.94 9195.99,2802.79C9195.14,2800.1 9194.11,2798.62 9192.91,2798.35C9191.7,2798.08 9190.63,2797.95 9189.7,2797.95C9186.75,2797.95 9184.27,2801.71 9182.25,2809.24C9180.23,2816.77 9178.58,2826.45 9177.3,2838.28C9176.02,2850.11 9175.08,2863.42 9174.5,2878.21C9173.92,2893 9173.63,2907.65 9173.63,2922.17C9173.63,2941.53 9174.13,2959.28 9175.14,2975.41C9176.15,2991.55 9177.61,3005.39 9179.51,3016.95C9181.41,3028.52 9183.7,3037.52 9186.38,3043.98C9189.06,3050.43 9192.07,3053.66 9195.41,3053.66C9196.19,3053.66 9196.94,3052.85 9197.68,3051.24C9198.42,3049.62 9199.14,3048.82 9199.84,3048.82C9200.53,3048.82 9201.06,3050.97 9201.41,3055.27C9201.76,3059.57 9201.99,3064.68 9202.11,3070.6C9202.22,3076.51 9202.26,3082.43 9202.22,3088.34C9202.18,3094.26 9202.17,3098.83 9202.17,3102.06Z" style="fill-rule:nonzero;"/>
                    <path d="M9253.07,3114.96C9253.07,3119.26 9252.78,3121.15 9252.19,3120.61C9251.61,3120.07 9251.05,3119.8 9250.51,3119.8C9249.5,3119.8 9248.52,3119.26 9247.59,3118.19C9246.66,3117.11 9245.69,3116.58 9244.68,3116.58C9243.67,3116.58 9242.82,3116.98 9242.12,3117.79C9241.42,3118.59 9240.57,3119.53 9239.56,3120.61C9239.17,3121.15 9238.76,3121.01 9238.33,3120.21C9237.91,3119.4 9237.69,3117.65 9237.69,3114.96C9237.69,3112.27 9237.87,3110.66 9238.22,3110.12C9238.57,3109.59 9238.74,3107.16 9238.74,3102.86C9238.74,3101.25 9238.3,3093.18 9237.4,3078.66C9236.51,3064.14 9235.38,3046.8 9234.02,3026.63C9232.67,3006.47 9231.17,2985.09 9229.54,2962.51C9227.91,2939.92 9226.35,2919.22 9224.88,2900.39L9220.22,2933.47L9220.22,3054.46C9220.22,3061.45 9220.34,3068.18 9220.57,3074.63C9220.8,3081.08 9221.06,3086.86 9221.33,3091.97C9221.6,3097.08 9221.85,3101.52 9222.08,3105.28C9222.32,3109.05 9222.43,3111.74 9222.43,3113.35C9222.43,3117.11 9222.05,3119 9221.27,3119C9220.18,3119 9219.09,3118.59 9218.01,3117.79C9216.92,3116.98 9215.83,3116.58 9214.75,3116.58C9213.66,3116.58 9212.53,3116.98 9211.37,3117.79C9210.2,3118.59 9209.08,3119 9207.99,3119C9207.45,3119 9207.18,3117.11 9207.18,3113.35C9207.18,3111.74 9207.23,3110.26 9207.35,3108.91C9207.47,3107.57 9207.6,3106.36 9207.76,3105.28C9208.53,3098.83 9209.06,3089.55 9209.33,3077.45C9209.6,3065.35 9209.74,3055.27 9209.74,3047.2L9209.74,2650.33C9209.74,2640.12 9209.68,2630.3 9209.56,2620.89C9209.45,2611.48 9209,2602.2 9208.22,2593.06C9208.07,2590.91 9207.89,2588.89 9207.7,2587.01C9207.51,2585.13 9207.41,2582.84 9207.41,2580.16C9207.41,2578 9207.78,2575.85 9208.51,2573.7C9209.25,2571.55 9209.74,2569.94 9209.97,2568.86L9215.21,2548.7C9215.6,2547.08 9216.05,2544.8 9216.55,2541.84C9217.06,2538.88 9217.58,2535.92 9218.12,2532.97C9218.67,2530.01 9219.19,2527.32 9219.7,2524.9C9220.2,2522.48 9220.65,2521.27 9221.04,2521.27L9221.39,2521.27C9221.54,2521.27 9221.74,2521.54 9221.97,2522.08C9222.2,2522.61 9222.32,2523.69 9222.32,2525.3C9222.32,2529.07 9222.2,2533.37 9221.97,2538.21C9221.74,2543.05 9221.54,2547.35 9221.39,2551.12C9221,2561.87 9220.71,2572.49 9220.51,2582.98C9220.32,2593.46 9220.22,2604.09 9220.22,2614.84L9220.22,2850.38L9220.57,2850.38C9221.04,2847.16 9222.05,2840.43 9223.6,2830.22C9225.15,2820 9226.74,2809.11 9228.37,2797.55C9230.01,2785.98 9231.46,2775.1 9232.74,2764.88C9234.02,2754.66 9234.66,2748.21 9234.66,2745.52C9234.51,2744.44 9234.28,2743.1 9233.97,2741.48C9233.66,2739.87 9233.5,2738.26 9233.5,2736.64C9233.5,2732.88 9233.67,2730.59 9234.02,2729.79C9234.37,2728.98 9234.82,2728.58 9235.36,2728.58C9236.53,2728.58 9237.5,2729.12 9238.27,2730.19C9239.05,2731.27 9240.02,2731.8 9241.19,2731.8C9242.04,2731.8 9242.82,2731.54 9243.52,2731C9244.22,2730.46 9244.99,2730.19 9245.85,2730.19L9248.64,2730.19C9249.65,2730.19 9250.16,2732.34 9250.16,2736.64C9250.16,2739.87 9250.04,2741.48 9249.81,2741.48C9249.57,2741.48 9249.11,2742.56 9248.41,2744.71C9247.86,2746.32 9246.9,2752.11 9245.5,2762.05C9244.1,2772 9242.6,2783.03 9241.01,2795.13C9239.42,2807.23 9237.89,2818.92 9236.41,2830.22C9234.94,2841.51 9233.85,2849.58 9233.15,2854.41C9233.54,2862.48 9234.18,2872.7 9235.07,2885.07C9235.97,2897.44 9236.97,2910.61 9238.1,2924.59C9239.23,2938.58 9240.37,2953.1 9241.54,2968.15C9242.7,2983.21 9243.75,2997.73 9244.68,3011.71C9244.92,3016.01 9245.36,3023 9246.02,3032.68C9246.68,3042.36 9247.4,3052.45 9248.18,3062.93C9248.95,3073.42 9249.71,3083.1 9250.45,3091.97C9251.18,3100.85 9251.79,3106.36 9252.25,3108.51C9252.56,3109.59 9252.78,3110.26 9252.89,3110.53C9253.01,3110.8 9253.07,3112.27 9253.07,3114.96Z" style="fill-rule:nonzero;"/>
                    <path d="M9302.92,2893.13L9269.14,2989.93C9270.08,3008.75 9271.51,3024.21 9273.45,3036.31C9275.39,3048.41 9277.84,3054.46 9280.79,3054.46C9283.82,3054.46 9286.4,3047.74 9288.54,3034.3C9290.67,3020.85 9291.86,3003.64 9292.09,2982.67C9292.09,2979.98 9292.21,2978.64 9292.44,2978.64C9292.67,2978.64 9293.31,2980.79 9294.36,2985.09C9295.41,2989.39 9296.5,2994.37 9297.62,3000.01C9298.75,3005.66 9299.76,3010.91 9300.65,3015.74C9301.54,3020.58 9301.99,3023.27 9301.99,3023.81C9301.99,3026.5 9301.91,3028.78 9301.76,3030.67C9301.6,3032.55 9301.45,3034.57 9301.29,3036.72C9299.04,3067.37 9296.32,3089.82 9293.14,3104.07C9289.95,3118.32 9285.84,3125.45 9280.79,3125.45C9276.75,3125.45 9273.24,3119.67 9270.25,3108.11C9267.26,3096.54 9264.77,3081.22 9262.79,3062.13C9260.81,3043.04 9259.34,3021.53 9258.37,2997.6C9257.4,2973.66 9256.91,2949.33 9256.91,2924.59C9256.91,2899.86 9257.46,2875.39 9258.54,2851.19C9259.63,2826.99 9261.22,2805.61 9263.32,2787.06C9265.42,2768.51 9268.02,2753.45 9271.12,2741.89C9274.23,2730.33 9277.8,2724.55 9281.84,2724.55C9285.1,2724.55 9288.09,2728.71 9290.81,2737.05C9293.53,2745.38 9295.82,2756.68 9297.68,2770.93C9299.54,2785.18 9300.96,2801.85 9301.93,2820.94C9302.9,2840.03 9303.27,2860.6 9303.04,2882.65L9302.92,2893.13ZM9291.62,2854.41C9291.08,2835.59 9289.93,2820.27 9288.19,2808.44C9286.44,2796.61 9284.21,2790.69 9281.49,2790.69C9278.93,2790.69 9276.75,2794.72 9274.97,2802.79C9273.18,2810.86 9271.74,2821.21 9270.66,2833.85C9269.57,2846.48 9268.77,2860.47 9268.27,2875.79C9267.76,2891.12 9267.51,2906.31 9267.51,2921.37L9291.62,2854.41Z" style="fill-rule:nonzero;"/>
                    <path d="M9345.32,2802.79C9345.32,2803.87 9345.13,2805.21 9344.74,2806.82C9344.35,2808.44 9343.9,2809.78 9343.4,2810.86C9342.9,2811.93 9342.39,2813.01 9341.89,2814.08C9341.38,2815.16 9341.05,2815.7 9340.9,2815.7C9340.51,2816.23 9340.04,2817.44 9339.5,2819.33C9338.95,2821.21 9338.39,2823.09 9337.81,2824.97C9337.23,2826.85 9336.68,2828.47 9336.18,2829.81C9335.67,2831.16 9335.26,2831.83 9334.95,2831.83C9334.8,2831.83 9334.68,2831.56 9334.6,2831.02C9334.45,2828.87 9334.39,2826.72 9334.43,2824.57C9334.47,2822.42 9334.45,2820 9334.37,2817.31C9334.14,2810.86 9333.75,2805.88 9333.21,2802.39C9332.66,2798.89 9332.04,2796.74 9331.34,2795.93C9330.65,2795.13 9329.91,2795.39 9329.13,2796.74C9328.35,2798.08 9327.69,2800.1 9327.15,2802.79C9325.36,2810.86 9324.16,2822.15 9323.54,2836.67C9322.92,2851.19 9322.61,2866.25 9322.61,2881.84L9322.61,3068.18C9322.61,3077.32 9322.96,3085.65 9323.66,3093.18C9324.35,3100.71 9324.7,3107.43 9324.7,3113.35C9324.7,3117.65 9324.39,3119.8 9323.77,3119.8L9311.66,3119.8C9311.27,3119.8 9310.82,3119.53 9310.32,3119C9309.81,3118.46 9309.56,3116.31 9309.56,3112.54C9309.56,3110.93 9309.7,3108.38 9309.97,3104.88C9310.24,3101.38 9310.53,3097.35 9310.84,3092.78C9311.15,3088.21 9311.44,3083.1 9311.72,3077.45C9311.99,3071.81 9312.12,3066.03 9312.12,3060.11L9312.12,2776.98C9312.12,2766.76 9311.77,2758.16 9311.08,2751.16C9310.38,2744.17 9310.03,2739.33 9310.03,2736.64C9310.03,2732.34 9310.22,2730.19 9310.61,2730.19C9311.7,2730.19 9312.76,2730.46 9313.81,2731C9314.86,2731.54 9315.93,2731.8 9317.02,2731.8C9317.95,2731.8 9318.88,2731.27 9319.81,2730.19C9320.74,2729.12 9321.68,2728.58 9322.61,2728.58L9323.6,2728.58C9324.02,2728.58 9324.28,2729.92 9324.35,2732.61C9323.89,2736.91 9323.52,2740.27 9323.25,2742.69C9322.98,2745.11 9322.78,2747.26 9322.67,2749.15C9322.55,2751.03 9322.49,2753.45 9322.49,2756.41L9322.49,2775.36L9322.84,2775.36C9323.85,2761.38 9325.38,2749.82 9327.44,2740.68C9329.5,2731.54 9331.38,2726.97 9333.09,2726.97C9336.97,2726.97 9339.83,2732.61 9341.65,2743.9C9343.48,2755.2 9344.58,2769.45 9344.97,2786.66C9345.05,2789.35 9345.13,2791.9 9345.2,2794.32C9345.28,2796.74 9345.32,2799.56 9345.32,2802.79Z" style="fill-rule:nonzero;"/>
                    <path d="M9364.42,2621.29C9364.42,2633.12 9363.78,2643.34 9362.5,2651.95C9361.22,2660.55 9359.69,2664.85 9357.9,2664.85C9356.11,2664.85 9354.72,2660.01 9353.71,2650.33C9352.7,2640.65 9352.19,2629.9 9352.19,2618.07C9352.19,2606.24 9352.68,2596.56 9353.65,2589.03C9354.62,2581.5 9356,2577.74 9357.78,2577.74C9359.57,2577.74 9361.12,2582.04 9362.44,2590.64C9363.76,2599.24 9364.42,2609.46 9364.42,2621.29ZM9365.47,2734.22C9365.47,2735.3 9365.07,2741.22 9364.25,2751.97C9363.43,2762.73 9363.03,2778.05 9363.03,2797.95L9363.03,3054.46C9363.03,3073.82 9363.4,3087.67 9364.13,3096.01C9364.87,3104.34 9365.24,3110.12 9365.24,3113.35C9365.24,3117.11 9364.85,3119 9364.08,3119C9363.14,3119 9362.31,3118.59 9361.57,3117.79C9360.83,3116.98 9359.49,3116.58 9357.55,3116.58C9355.77,3116.58 9354.47,3116.98 9353.65,3117.79C9352.83,3118.59 9351.88,3119 9350.8,3119C9350.25,3119 9349.98,3117.11 9349.98,3113.35C9349.98,3110.66 9350.18,3107.97 9350.56,3105.28C9350.95,3102.06 9351.26,3097.89 9351.5,3092.78C9351.73,3087.67 9351.92,3082.29 9352.08,3076.65C9352.23,3071 9352.35,3065.49 9352.43,3060.11C9352.5,3054.73 9352.54,3049.89 9352.54,3045.59L9352.54,2801.18C9352.54,2798.49 9352.52,2794.72 9352.49,2789.88C9352.45,2785.04 9352.39,2779.93 9352.31,2774.56C9352.23,2769.18 9352.14,2764.2 9352.02,2759.63C9351.9,2755.06 9351.77,2751.7 9351.61,2749.55C9351.46,2746.86 9351.26,2744.31 9351.03,2741.89C9350.8,2739.47 9350.68,2736.91 9350.68,2734.22C9350.68,2732.07 9350.82,2730.73 9351.09,2730.19C9351.36,2729.65 9351.61,2729.38 9351.84,2729.38C9352.93,2729.38 9353.94,2729.79 9354.87,2730.59C9355.81,2731.4 9356.85,2731.8 9358.02,2731.8C9359.03,2731.8 9360.11,2731.54 9361.28,2731C9362.44,2730.46 9363.42,2730.19 9364.19,2730.19L9365.01,2730.19C9365.32,2730.19 9365.47,2731.54 9365.47,2734.22Z" style="fill-rule:nonzero;"/>
                    <path d="M9472.75,2837.47C9472.75,2844.47 9472.54,2851.86 9472.11,2859.66C9471.68,2867.46 9470.85,2871.36 9469.61,2871.36C9469.06,2871.36 9468.56,2870.41 9468.09,2868.53C9467.63,2866.65 9467.1,2864.77 9466.52,2862.89C9465.94,2861 9465.3,2859.12 9464.6,2857.24C9463.9,2855.36 9463.08,2854.41 9462.15,2854.41C9460.83,2854.41 9459.67,2857.51 9458.66,2863.69C9457.65,2869.88 9456.77,2877.27 9456.04,2885.87C9455.3,2894.48 9454.68,2903.62 9454.17,2913.3C9453.67,2922.98 9453.26,2931.32 9452.95,2938.31C9452.41,2948.52 9451.92,2958.74 9451.49,2968.96C9451.07,2979.18 9450.62,2989.39 9450.15,2999.61C9448.06,3046.4 9444.8,3079.07 9440.37,3097.62C9435.94,3116.17 9430.31,3125.45 9423.48,3125.45C9419.44,3125.45 9415.73,3120.74 9412.36,3111.33C9408.98,3101.92 9406.09,3088.88 9403.68,3072.21C9401.27,3055.54 9399.39,3035.64 9398.03,3012.52C9396.67,2989.39 9395.99,2963.85 9395.99,2935.89C9395.99,2900.93 9397.31,2870.68 9399.95,2845.14C9402.59,2819.6 9406.24,2800.64 9410.9,2788.27L9410.9,2785.85C9408.57,2778.32 9406.84,2767.43 9405.72,2753.18C9404.59,2738.93 9404.03,2723.2 9404.03,2705.99C9404.03,2689.86 9404.61,2675.07 9405.77,2661.63C9406.94,2648.18 9408.43,2636.62 9410.26,2626.94C9412.08,2617.26 9414.1,2609.87 9416.32,2604.76C9418.53,2599.65 9420.72,2597.09 9422.9,2597.09C9426.16,2597.09 9429.15,2599.65 9431.87,2604.76C9434.59,2609.87 9437.3,2617.8 9440.02,2628.55C9440.25,2629.63 9440.56,2630.7 9440.95,2631.78C9441.34,2632.86 9441.53,2634.74 9441.53,2637.43C9441.53,2637.96 9441.51,2638.5 9441.48,2639.04C9441.44,2639.58 9441.42,2640.12 9441.42,2640.65C9441.18,2642.27 9440.78,2646.03 9440.19,2651.95C9439.61,2657.86 9438.99,2663.91 9438.33,2670.1C9437.67,2676.28 9437.05,2681.79 9436.47,2686.63C9435.89,2691.47 9435.48,2693.89 9435.25,2693.89C9435.09,2693.89 9434.74,2692.14 9434.2,2688.65C9433.65,2685.15 9432.92,2681.39 9431.98,2677.36C9431.05,2673.32 9429.93,2669.56 9428.6,2666.06C9427.28,2662.57 9425.77,2660.82 9424.06,2660.82C9421.73,2660.82 9419.62,2665.26 9417.71,2674.13C9415.81,2683 9414.86,2696.58 9414.86,2714.87C9414.86,2729.38 9415.54,2740.01 9416.9,2746.73C9418.26,2753.45 9419.73,2758.29 9421.33,2761.25C9422.92,2764.2 9424.39,2766.36 9425.75,2767.7C9427.11,2769.05 9427.79,2771.33 9427.79,2774.56C9427.79,2777.78 9427.64,2782.35 9427.32,2788.27C9427.01,2794.18 9426.62,2800.1 9426.16,2806.02C9425.69,2811.93 9425.19,2817.04 9424.65,2821.34C9424.1,2825.64 9423.6,2827.8 9423.13,2827.8C9420.96,2827.8 9418.9,2830.75 9416.96,2836.67C9415.02,2842.58 9413.29,2850.65 9411.77,2860.87C9410.26,2871.09 9409.06,2882.92 9408.16,2896.36C9407.27,2909.8 9406.82,2924.06 9406.82,2939.11C9406.82,2956.86 9407.29,2972.99 9408.22,2987.51C9409.15,3002.03 9410.43,3014.53 9412.07,3025.02C9413.7,3035.51 9415.6,3043.57 9417.77,3049.22C9419.95,3054.87 9422.28,3057.69 9424.76,3057.69C9426.55,3057.69 9428.37,3055.81 9430.24,3052.04C9432.1,3048.28 9433.79,3042.77 9435.3,3035.51C9436.82,3028.25 9438.06,3019.37 9439.03,3008.89C9440,2998.4 9440.49,2986.17 9440.49,2972.19C9440.49,2962.51 9440.35,2952.69 9440.08,2942.74C9439.81,2932.79 9439.32,2923.92 9438.62,2916.12C9437.92,2908.33 9437.01,2901.87 9435.89,2896.76C9434.76,2891.66 9433.38,2889.1 9431.75,2889.1C9430.9,2889.1 9430.14,2890.31 9429.48,2892.73C9428.82,2895.15 9428.24,2897.7 9427.73,2900.39C9427.23,2903.08 9426.74,2905.64 9426.28,2908.06C9425.81,2910.48 9425.38,2911.69 9424.99,2911.69C9424.37,2911.69 9424,2909.8 9423.89,2906.04C9423.77,2902.28 9423.71,2899.05 9423.71,2896.36C9423.71,2886.68 9424,2877.67 9424.59,2869.34C9425.17,2861 9425.95,2853.74 9426.92,2847.56C9427.89,2841.37 9428.99,2836.67 9430.24,2833.44C9431.48,2830.22 9432.8,2828.6 9434.2,2828.6C9436.29,2828.6 9437.98,2831.43 9439.26,2837.07C9440.55,2842.72 9441.65,2848.9 9442.58,2855.62C9443.51,2862.35 9444.37,2868.53 9445.15,2874.18C9445.92,2879.82 9446.78,2882.65 9447.71,2882.65C9448.49,2882.65 9448.99,2880.5 9449.22,2876.19C9449.45,2871.89 9449.65,2867.86 9449.81,2864.1C9450.27,2853.34 9450.91,2842.58 9451.73,2831.83C9452.54,2821.07 9453.53,2811.53 9454.7,2803.19C9455.86,2794.86 9457.2,2788 9458.72,2782.62C9460.23,2777.25 9461.88,2774.56 9463.67,2774.56C9466.31,2774.56 9468.48,2780.47 9470.19,2792.3C9471.9,2804.13 9472.75,2819.19 9472.75,2837.47Z" style="fill-rule:nonzero;"/>
                    <path d="M9545.9,2943.95C9545.9,2967.08 9545.49,2989.39 9544.68,3010.91C9543.86,3032.41 9542.6,3051.37 9540.89,3067.77C9539.18,3084.18 9537.07,3097.35 9534.55,3107.3C9532.02,3117.25 9529.05,3122.22 9525.63,3122.22C9522.68,3122.22 9519.77,3121.28 9516.9,3119.4C9514.02,3117.52 9511.15,3116.58 9508.28,3116.58C9507.19,3116.58 9506.07,3116.98 9504.9,3117.79C9503.74,3118.59 9502.61,3119 9501.52,3119C9500.98,3119 9500.71,3117.11 9500.71,3113.35C9500.71,3111.74 9500.76,3110.26 9500.88,3108.91C9501,3107.57 9501.13,3106.36 9501.29,3105.28C9502.07,3097.75 9502.59,3088.48 9502.86,3077.45C9503.13,3066.43 9503.27,3056.35 9503.27,3047.2L9503.27,2646.3C9503.27,2637.16 9503.19,2628.02 9503.04,2618.87C9502.88,2609.73 9502.45,2601.13 9501.76,2593.06C9501.6,2590.91 9501.43,2588.89 9501.23,2587.01C9501.04,2585.13 9500.94,2582.84 9500.94,2580.16C9500.94,2578 9501.31,2575.85 9502.05,2573.7C9502.78,2571.55 9503.27,2569.94 9503.5,2568.86L9508.74,2548.7C9509.68,2544.93 9510.67,2539.42 9511.72,2532.16C9512.76,2524.9 9513.83,2521.27 9514.92,2521.27C9515.07,2521.27 9515.27,2521.54 9515.5,2522.08C9515.73,2522.61 9515.85,2523.69 9515.85,2525.3C9515.85,2529.61 9515.73,2533.91 9515.5,2538.21C9515.27,2542.51 9515.07,2546.81 9514.92,2551.12C9514.53,2561.87 9514.24,2572.49 9514.04,2582.98C9513.85,2593.46 9513.75,2604.09 9513.75,2614.84L9513.75,2712.45C9515.38,2717.28 9517.19,2722.66 9519.17,2728.58C9521.15,2734.49 9523.17,2740.68 9525.23,2747.13C9527.28,2753.58 9529.26,2760.44 9531.17,2767.7C9533.07,2774.96 9534.72,2782.62 9536.12,2790.69C9539.77,2810.59 9542.31,2833.04 9543.75,2858.05C9545.18,2883.05 9545.9,2911.69 9545.9,2943.95ZM9534.49,2943.15C9534.49,2911.42 9533.65,2885.47 9531.98,2865.3C9530.31,2845.14 9527.38,2828.33 9523.19,2814.89C9521.64,2810.05 9520.06,2806.15 9518.47,2803.19C9516.88,2800.24 9515.31,2796.61 9513.75,2792.3L9513.75,3023C9513.75,3031.61 9514.04,3038.73 9514.63,3044.38C9515.21,3050.03 9516.16,3052.85 9517.48,3052.85L9522.95,3052.85C9525.05,3052.85 9526.84,3049.22 9528.31,3041.96C9529.79,3034.7 9530.97,3025.69 9531.87,3014.94C9532.76,3004.18 9533.42,2992.35 9533.85,2979.45C9534.27,2966.54 9534.49,2954.44 9534.49,2943.15Z" style="fill-rule:nonzero;"/>
                    <path d="M9598.32,2735.03C9598.32,2738.26 9597.89,2744.58 9597.04,2753.99C9596.18,2763.4 9595.76,2774.56 9595.76,2787.46L9595.76,3068.98C9595.76,3138.36 9593.29,3191.73 9588.36,3229.1C9583.43,3266.48 9575.84,3285.16 9565.59,3285.16C9564.97,3285.16 9564.56,3283.42 9564.36,3279.92C9564.17,3276.43 9564.03,3272.26 9563.96,3267.42C9563.88,3262.58 9563.88,3257.61 9563.96,3252.5C9564.03,3247.39 9564.07,3243.49 9564.07,3240.8L9564.07,3221.84C9564.07,3215.12 9564.15,3208.8 9564.31,3202.89C9564.46,3202.89 9564.56,3202.75 9564.6,3202.48C9564.64,3202.22 9564.73,3202.08 9564.89,3202.08C9565.28,3202.08 9565.9,3204.1 9566.75,3208.13C9567.61,3212.16 9568.46,3214.18 9569.32,3214.18C9578.63,3214.18 9583.99,3182.45 9585.39,3119C9585.47,3115.23 9585.51,3110.66 9585.51,3105.28C9585.51,3099.91 9585.47,3094.8 9585.39,3089.96C9585.31,3085.12 9585.27,3080.95 9585.27,3077.45C9585.27,3073.96 9585.31,3072.21 9585.39,3072.21L9585.04,3072.21C9583.8,3087.27 9581.91,3099.1 9579.39,3107.7C9576.87,3116.31 9574.4,3120.61 9571.99,3120.61C9570.05,3120.61 9568.07,3118.46 9566.05,3114.16C9564.03,3109.85 9562.21,3103.53 9560.58,3095.2C9558.95,3086.86 9557.61,3076.78 9556.56,3064.95C9555.51,3053.12 9554.99,3039.68 9554.99,3024.62L9554.99,2786.66C9554.99,2776.44 9554.64,2766.76 9553.94,2757.62C9553.24,2748.47 9552.89,2740.95 9552.89,2735.03C9552.89,2731.27 9553.14,2729.12 9553.65,2728.58C9554.15,2728.04 9554.6,2727.77 9554.99,2727.77C9555.92,2727.77 9556.81,2728.44 9557.67,2729.79C9558.52,2731.13 9559.41,2731.8 9560.34,2731.8C9561.28,2731.8 9562.21,2731.13 9563.14,2729.79C9564.07,2728.44 9565.01,2727.77 9565.94,2727.77C9566.33,2727.77 9566.79,2728.04 9567.33,2728.58C9567.88,2729.12 9568.15,2731.27 9568.15,2735.03C9568.15,2735.57 9568.01,2737.72 9567.74,2741.48C9567.47,2745.25 9567.16,2749.95 9566.81,2755.6C9566.46,2761.25 9566.15,2767.57 9565.88,2774.56C9565.61,2781.55 9565.47,2788.54 9565.47,2795.53L9565.47,3007.68C9565.47,3016.28 9565.78,3023.54 9566.4,3029.46C9567.02,3035.37 9567.8,3040.08 9568.73,3043.57C9569.66,3047.07 9570.69,3049.62 9571.82,3051.24C9572.94,3052.85 9574.01,3053.66 9575.02,3053.66C9575.95,3053.66 9577.02,3052.31 9578.23,3049.62C9579.43,3046.93 9580.56,3043.17 9581.6,3038.33C9582.65,3033.49 9583.52,3027.84 9584.22,3021.39C9584.92,3014.94 9585.27,3007.95 9585.27,3000.42L9585.27,2779.4C9585.27,2770.26 9584.92,2761.78 9584.22,2753.99C9583.52,2746.19 9583.18,2739.6 9583.18,2734.22C9583.18,2729.92 9583.49,2727.77 9584.11,2727.77L9596.22,2727.77C9596.61,2727.77 9597.06,2728.04 9597.56,2728.58C9598.07,2729.12 9598.32,2731.27 9598.32,2735.03Z" style="fill-rule:nonzero;"/>
                    <path d="M9648.87,2735.84C9648.87,2746.59 9648.79,2756.95 9648.64,2766.89C9648.48,2776.84 9648.41,2787.19 9648.41,2797.95L9648.41,3068.98C9648.41,3139.43 9645.9,3193.07 9640.89,3229.91C9635.88,3266.75 9628.33,3285.16 9618.24,3285.16C9617.23,3285.16 9616.72,3281.67 9616.72,3274.68C9616.72,3270.91 9616.7,3265.67 9616.66,3258.95C9616.62,3252.23 9616.61,3245.24 9616.61,3237.98C9616.61,3230.72 9616.62,3223.86 9616.66,3217.41C9616.7,3210.95 9616.8,3206.11 9616.95,3202.89C9617.11,3202.35 9617.31,3202.08 9617.54,3202.08C9617.93,3202.08 9618.55,3204.1 9619.4,3208.13C9620.26,3212.16 9621.11,3214.18 9621.96,3214.18C9626.78,3214.18 9630.45,3206.38 9632.97,3190.79C9635.5,3175.19 9637.18,3151.26 9638.04,3119C9636.02,3120.07 9634,3120.88 9631.98,3121.41C9629.96,3121.95 9627.94,3122.22 9625.92,3122.22C9622.35,3122.22 9619.28,3116.98 9616.72,3106.49C9614.16,3096.01 9612.06,3082.29 9610.43,3065.35C9608.8,3048.41 9607.6,3029.32 9606.82,3008.08C9606.05,2986.84 9605.66,2965.46 9605.66,2943.95C9605.66,2912.22 9606.38,2883.72 9607.81,2858.45C9609.25,2833.17 9611.79,2810.59 9615.44,2790.69C9617.38,2779.93 9619.58,2770.52 9622.02,2762.46C9624.47,2754.39 9626.99,2747.8 9629.59,2742.69C9632.19,2737.59 9634.74,2733.69 9637.22,2731C9639.71,2728.31 9641.96,2726.97 9643.98,2726.97L9645.09,2726.97C9645.59,2726.97 9646.13,2727.23 9646.72,2727.77C9647.3,2728.31 9647.8,2729.25 9648.23,2730.59C9648.66,2731.94 9648.87,2733.69 9648.87,2735.84ZM9637.81,2801.18C9634.78,2805.48 9631.98,2810.86 9629.42,2817.31C9626.86,2823.76 9624.66,2832.37 9622.84,2843.12C9621.01,2853.88 9619.6,2867.46 9618.59,2883.86C9617.58,2900.26 9617.07,2920.02 9617.07,2943.15C9617.07,2955.51 9617.31,2967.75 9617.77,2979.85C9618.24,2991.95 9618.93,3002.97 9619.87,3012.92C9620.8,3022.87 9621.98,3030.94 9623.42,3037.12C9624.86,3043.3 9626.58,3046.4 9628.6,3046.4L9634.08,3046.4C9635.4,3046.4 9636.35,3043.57 9636.93,3037.93C9637.51,3032.28 9637.81,3025.16 9637.81,3016.55L9637.81,2801.18Z" style="fill-rule:nonzero;"/>
                    <path d="M9701.06,2735.84C9701.06,2746.59 9700.98,2756.95 9700.82,2766.89C9700.67,2776.84 9700.59,2787.19 9700.59,2797.95L9700.59,3068.98C9700.59,3139.43 9698.08,3193.07 9693.08,3229.91C9688.07,3266.75 9680.51,3285.16 9670.42,3285.16C9669.41,3285.16 9668.91,3281.67 9668.91,3274.68C9668.91,3270.91 9668.89,3265.67 9668.85,3258.95C9668.81,3252.23 9668.79,3245.24 9668.79,3237.98C9668.79,3230.72 9668.81,3223.86 9668.85,3217.41C9668.89,3210.95 9668.98,3206.11 9669.14,3202.89C9669.29,3202.35 9669.49,3202.08 9669.72,3202.08C9670.11,3202.08 9670.73,3204.1 9671.59,3208.13C9672.44,3212.16 9673.29,3214.18 9674.15,3214.18C9678.96,3214.18 9682.63,3206.38 9685.16,3190.79C9687.68,3175.19 9689.37,3151.26 9690.22,3119C9688.2,3120.07 9686.18,3120.88 9684.17,3121.41C9682.15,3121.95 9680.13,3122.22 9678.11,3122.22C9674.54,3122.22 9671.47,3116.98 9668.91,3106.49C9666.34,3096.01 9664.25,3082.29 9662.62,3065.35C9660.99,3048.41 9659.78,3029.32 9659.01,3008.08C9658.23,2986.84 9657.84,2965.46 9657.84,2943.95C9657.84,2912.22 9658.56,2883.72 9660,2858.45C9661.43,2833.17 9663.98,2810.59 9667.62,2790.69C9669.57,2779.93 9671.76,2770.52 9674.21,2762.46C9676.65,2754.39 9679.18,2747.8 9681.78,2742.69C9684.38,2737.59 9686.92,2733.69 9689.41,2731C9691.89,2728.31 9694.14,2726.97 9696.16,2726.97L9697.27,2726.97C9697.77,2726.97 9698.32,2727.23 9698.9,2727.77C9699.48,2728.31 9699.99,2729.25 9700.41,2730.59C9700.84,2731.94 9701.06,2733.69 9701.06,2735.84ZM9689.99,2801.18C9686.96,2805.48 9684.17,2810.86 9681.6,2817.31C9679.04,2823.76 9676.85,2832.37 9675.02,2843.12C9673.2,2853.88 9671.78,2867.46 9670.77,2883.86C9669.76,2900.26 9669.26,2920.02 9669.26,2943.15C9669.26,2955.51 9669.49,2967.75 9669.95,2979.85C9670.42,2991.95 9671.12,3002.97 9672.05,3012.92C9672.98,3022.87 9674.17,3030.94 9675.6,3037.12C9677.04,3043.3 9678.77,3046.4 9680.79,3046.4L9686.26,3046.4C9687.58,3046.4 9688.53,3043.57 9689.11,3037.93C9689.7,3032.28 9689.99,3025.16 9689.99,3016.55L9689.99,2801.18Z" style="fill-rule:nonzero;"/>
                    <path d="M9755.8,3112.54C9755.8,3116.31 9755.55,3118.46 9755.04,3119C9754.54,3119.53 9754.09,3119.8 9753.7,3119.8C9752.77,3119.8 9751.88,3119.13 9751.02,3117.79C9750.17,3116.44 9749.28,3115.77 9748.35,3115.77C9747.41,3115.77 9746.48,3116.44 9745.55,3117.79C9744.62,3119.13 9743.69,3119.8 9742.76,3119.8C9742.37,3119.8 9741.9,3119.53 9741.36,3119C9740.81,3118.46 9740.54,3116.31 9740.54,3112.54C9740.54,3111.47 9740.68,3109.45 9740.95,3106.49C9741.22,3103.53 9741.53,3099.5 9741.88,3094.39C9742.23,3089.28 9742.54,3083.23 9742.81,3076.24C9743.09,3069.25 9743.22,3061.19 9743.22,3052.04L9743.22,2839.89C9743.22,2831.83 9742.91,2824.84 9742.29,2818.92C9741.67,2813.01 9740.89,2808.17 9739.96,2804.4C9739.03,2800.64 9738,2797.95 9736.87,2796.34C9735.75,2794.72 9734.68,2793.92 9733.67,2793.92C9732.74,2793.92 9731.67,2795.26 9730.47,2797.95C9729.26,2800.64 9728.14,2804.4 9727.09,2809.24C9726.04,2814.08 9725.17,2819.73 9724.47,2826.18C9723.77,2832.64 9723.42,2839.63 9723.42,2847.16L9723.42,3068.18C9723.42,3077.32 9723.77,3085.92 9724.47,3093.99C9725.17,3102.06 9725.52,3108.51 9725.52,3113.35C9725.52,3117.65 9725.2,3119.8 9724.58,3119.8C9723.5,3119.8 9722.43,3119.53 9721.38,3119C9720.33,3118.46 9719.26,3118.19 9718.18,3118.19C9717.25,3118.19 9716.29,3118.46 9715.32,3119C9714.35,3119.53 9713.4,3119.8 9712.47,3119.8C9712.08,3119.8 9711.64,3119.53 9711.13,3119C9710.63,3118.46 9710.37,3116.31 9710.37,3112.54C9710.37,3108.78 9710.8,3102.59 9711.65,3093.99C9712.51,3085.39 9712.94,3074.09 9712.94,3060.11L9712.94,2776.98C9712.94,2764.61 9712.59,2755.6 9711.89,2749.95C9711.19,2744.31 9710.84,2739.87 9710.84,2736.64C9710.84,2732.34 9711.03,2730.19 9711.42,2730.19C9712.51,2730.19 9713.58,2730.46 9714.62,2731C9715.67,2731.54 9716.74,2731.8 9717.83,2731.8C9718.76,2731.8 9719.69,2731.27 9720.62,2730.19C9721.56,2729.12 9722.49,2728.58 9723.42,2728.58C9723.57,2728.58 9723.92,2728.71 9724.47,2728.98C9725.01,2729.25 9725.24,2730.46 9725.17,2732.61C9724.62,2737.45 9724.22,2740.95 9723.94,2743.1C9723.67,2745.25 9723.5,2747.53 9723.42,2749.95C9723.34,2752.37 9723.3,2755.33 9723.3,2758.83L9723.3,2775.36L9723.65,2775.36C9724.9,2760.31 9726.8,2748.47 9729.36,2739.87C9731.92,2731.27 9734.37,2726.97 9736.7,2726.97C9738.72,2726.97 9740.74,2729.25 9742.76,2733.82C9744.77,2738.39 9746.6,2744.85 9748.23,2753.18C9749.86,2761.52 9751.18,2771.6 9752.19,2783.43C9753.2,2795.26 9753.7,2808.44 9753.7,2822.96L9753.7,3060.92C9753.7,3071.13 9754.05,3080.81 9754.75,3089.96C9755.45,3099.1 9755.8,3106.63 9755.8,3112.54Z" style="fill-rule:nonzero;"/>
                    <path d="M9806.35,3113.35C9806.35,3116.04 9806.22,3117.65 9805.95,3118.19C9805.67,3118.73 9805.42,3119 9805.19,3119C9804.1,3119 9803.01,3118.59 9801.93,3117.79C9800.84,3116.98 9799.75,3116.58 9798.67,3116.58C9797.81,3116.58 9796.94,3116.84 9796.05,3117.38C9795.15,3117.92 9794.28,3118.46 9793.42,3119L9793.42,3115.77C9793.42,3113.08 9793.44,3110.8 9793.48,3108.91C9793.52,3107.03 9793.54,3104.74 9793.54,3102.06L9793.31,3100.44C9792.61,3101.52 9791.89,3103.27 9791.15,3105.69C9790.42,3108.11 9789.62,3110.66 9788.76,3113.35C9787.91,3116.04 9786.94,3118.46 9785.85,3120.61C9784.77,3122.76 9783.52,3123.84 9782.13,3123.84C9779.33,3123.84 9776.75,3122.09 9774.38,3118.59C9772.01,3115.1 9769.97,3109.05 9768.26,3100.44C9766.56,3091.84 9765.22,3080.14 9764.25,3065.35C9763.27,3050.57 9762.79,3031.88 9762.79,3009.29C9762.79,2986.7 9763.55,2968.02 9765.06,2953.23C9766.58,2938.44 9768.48,2925.94 9770.77,2915.72C9773.06,2905.5 9775.54,2896.9 9778.22,2889.91C9780.9,2882.92 9783.39,2876.33 9785.68,2870.14C9787.97,2863.96 9789.87,2857.51 9791.39,2850.78C9792.9,2844.06 9793.66,2835.59 9793.66,2825.38C9793.66,2817.85 9793.48,2811.39 9793.13,2806.02C9792.78,2800.64 9791.95,2797.95 9790.63,2797.95L9774.2,2797.95C9772.96,2797.95 9772.15,2800.24 9771.76,2804.81C9771.37,2809.38 9770.98,2811.66 9770.59,2811.66C9770.44,2811.66 9770.36,2810.86 9770.36,2809.24L9770.36,2741.48C9770.36,2737.72 9770.44,2734.9 9770.59,2733.01C9770.75,2731.13 9771.14,2730.19 9771.76,2730.19L9790.63,2730.19C9792.49,2730.19 9794.26,2730.73 9795.93,2731.8C9797.6,2732.88 9799.03,2735.7 9800.24,2740.27C9801.44,2744.85 9802.39,2751.57 9803.09,2760.44C9803.79,2769.31 9804.14,2781.82 9804.14,2797.95L9804.14,3054.46C9804.14,3065.22 9804.51,3075.84 9805.25,3086.33C9805.99,3096.81 9806.35,3105.82 9806.35,3113.35ZM9794.01,2918.14C9794.01,2915.99 9793.93,2914.91 9793.77,2914.91C9792.84,2918.68 9791.29,2922.71 9789.11,2927.01C9786.94,2931.32 9784.71,2937.1 9782.42,2944.36C9780.13,2951.62 9778.13,2960.62 9776.42,2971.38C9774.71,2982.13 9773.85,2995.58 9773.85,3011.71C9773.85,3022.47 9774.11,3030.94 9774.61,3037.12C9775.12,3043.3 9775.82,3048.01 9776.71,3051.24C9777.6,3054.46 9778.61,3056.48 9779.74,3057.29C9780.86,3058.09 9782.01,3058.5 9783.17,3058.5C9783.95,3058.5 9784.96,3057.42 9786.2,3055.27C9787.44,3053.12 9788.65,3050.16 9789.81,3046.4C9790.98,3042.63 9791.97,3037.93 9792.78,3032.28C9793.6,3026.63 9794.01,3020.58 9794.01,3014.13L9794.01,2918.14Z" style="fill-rule:nonzero;"/>
                    <path d="M9858.54,3113.35C9858.54,3117.11 9858.26,3119 9857.72,3119C9856.64,3119 9855.51,3118.59 9854.34,3117.79C9853.18,3116.98 9852.05,3116.58 9850.97,3116.58C9848.09,3116.58 9845.22,3117.52 9842.35,3119.4C9839.47,3121.28 9836.56,3122.22 9833.61,3122.22C9830.19,3122.22 9827.22,3117.25 9824.7,3107.3C9822.18,3097.35 9820.06,3084.18 9818.35,3067.77C9816.64,3051.37 9815.38,3032.41 9814.57,3010.91C9813.75,2989.39 9813.34,2967.08 9813.34,2943.95C9813.34,2911.69 9814.06,2883.05 9815.5,2858.05C9816.93,2833.04 9819.48,2810.59 9823.13,2790.69C9824.52,2782.62 9826.18,2774.96 9828.08,2767.7C9829.98,2760.44 9831.96,2753.58 9834.02,2747.13C9836.08,2740.68 9838.09,2734.49 9840.08,2728.58C9842.06,2722.66 9843.86,2717.28 9845.49,2712.45L9845.49,2635.01C9845.49,2629.09 9845.47,2624.25 9845.43,2620.49C9845.39,2616.72 9845.32,2613.5 9845.2,2610.81C9845.08,2608.12 9844.91,2605.56 9844.68,2603.14C9844.44,2600.72 9844.17,2597.36 9843.86,2593.06C9843.7,2590.91 9843.53,2588.89 9843.34,2587.01C9843.14,2585.13 9843.05,2582.84 9843.05,2580.16C9843.05,2578 9843.41,2575.85 9844.15,2573.7C9844.89,2571.55 9845.38,2569.94 9845.61,2568.86L9850.85,2548.7C9851.78,2544.93 9852.77,2539.42 9853.82,2532.16C9854.87,2524.9 9855.94,2521.27 9857.02,2521.27C9857.18,2521.27 9857.37,2521.54 9857.6,2522.08C9857.84,2522.61 9857.95,2523.69 9857.95,2525.3C9857.95,2529.61 9857.84,2533.91 9857.6,2538.21C9857.37,2542.51 9857.18,2546.81 9857.02,2551.12C9856.64,2561.87 9856.36,2572.89 9856.21,2584.19C9856.05,2595.48 9855.98,2605.7 9855.98,2614.84L9855.98,3047.2C9855.98,3056.35 9856.11,3066.43 9856.38,3077.45C9856.65,3088.48 9857.18,3097.75 9857.95,3105.28C9858.11,3106.36 9858.25,3107.57 9858.36,3108.91C9858.48,3110.26 9858.54,3111.74 9858.54,3113.35ZM9845.49,2790.69C9843.94,2794.99 9842.35,2798.49 9840.72,2801.18C9839.09,2803.87 9837.53,2807.9 9836.06,2813.28C9833.8,2821.34 9831.94,2829.81 9830.47,2838.68C9828.99,2847.56 9827.83,2857.1 9826.97,2867.32C9826.12,2877.54 9825.53,2888.83 9825.22,2901.2C9824.91,2913.57 9824.76,2927.55 9824.76,2943.15C9824.76,2954.44 9824.97,2966.54 9825.4,2979.45C9825.83,2992.35 9826.49,3004.18 9827.38,3014.94C9828.27,3025.69 9829.46,3034.7 9830.93,3041.96C9832.41,3049.22 9834.19,3052.85 9836.29,3052.85L9841.76,3052.85C9843.08,3052.85 9844.03,3050.03 9844.62,3044.38C9845.2,3038.73 9845.49,3031.61 9845.49,3023L9845.49,2790.69Z" style="fill-rule:nonzero;"/>
                    <path d="M9910.49,3006.07C9910.49,3027.04 9909.81,3044.92 9908.45,3059.71C9907.09,3074.49 9905.32,3086.73 9903.15,3096.41C9900.98,3106.09 9898.55,3113.22 9895.87,3117.79C9893.19,3122.36 9890.57,3124.64 9888.01,3124.64C9883.58,3124.64 9879.64,3120.34 9876.18,3111.74C9872.73,3103.13 9869.76,3092.91 9867.27,3081.08C9866.96,3080.01 9866.69,3078.93 9866.46,3077.86C9866.23,3076.78 9866.11,3074.9 9866.11,3072.21C9866.11,3068.98 9866.38,3065.89 9866.92,3062.93C9867.47,3059.98 9868.2,3053.12 9869.14,3042.36C9869.6,3036.99 9869.97,3031.2 9870.24,3025.02C9870.51,3018.84 9870.96,3015.74 9871.58,3015.74C9871.97,3015.74 9872.4,3017.49 9872.86,3020.99C9873.33,3024.48 9873.68,3027.04 9873.91,3028.65C9875.62,3039.41 9877.85,3047.74 9880.61,3053.66C9883.37,3059.57 9885.87,3062.53 9888.12,3062.53C9889.37,3062.53 9890.67,3061.45 9892.03,3059.3C9893.38,3057.15 9894.59,3053.66 9895.64,3048.82C9896.68,3043.98 9897.56,3037.79 9898.26,3030.26C9898.96,3022.74 9899.31,3013.86 9899.31,3003.64C9899.31,2988.59 9898.68,2975.68 9897.44,2964.93C9896.2,2954.17 9894.63,2944.36 9892.72,2935.48C9890.82,2926.61 9888.76,2918.28 9886.55,2910.48C9884.34,2902.68 9882.28,2894.08 9880.38,2884.66C9878.48,2875.25 9876.9,2864.36 9875.66,2851.99C9874.42,2839.63 9873.8,2824.57 9873.8,2806.82C9873.8,2791.23 9874.3,2778.32 9875.31,2768.1C9876.32,2757.89 9877.66,2749.68 9879.33,2743.5C9881,2737.32 9882.86,2733.01 9884.92,2730.59C9886.98,2728.17 9889.06,2726.97 9891.15,2726.97C9892.01,2726.97 9893.19,2727.91 9894.7,2729.79C9896.22,2731.67 9897.73,2734.09 9899.25,2737.05C9900.76,2740.01 9902.1,2743.5 9903.27,2747.53C9904.43,2751.57 9905.05,2755.74 9905.13,2760.04C9904.66,2766.49 9904,2772.68 9903.15,2778.59C9902.68,2782.35 9902.33,2785.58 9902.1,2788.27C9901.87,2790.96 9901.56,2794.45 9901.17,2798.76C9900.7,2803.6 9900.16,2807.09 9899.54,2809.24C9897.99,2803.87 9896.37,2799.43 9894.7,2795.93C9893.03,2792.44 9891.31,2790.69 9889.52,2790.69C9888.67,2790.69 9887.76,2792.57 9886.78,2796.34C9885.81,2800.1 9885.33,2805.48 9885.33,2812.47C9885.33,2817.85 9885.95,2823.76 9887.19,2830.22C9888.43,2836.67 9889.99,2843.79 9891.85,2851.59C9893.71,2859.39 9895.73,2868.13 9897.91,2877.81C9900.08,2887.49 9902.1,2898.51 9903.97,2910.88C9905.83,2923.25 9907.38,2937.37 9908.62,2953.23C9909.87,2969.09 9910.49,2986.7 9910.49,3006.07Z" style="fill-rule:nonzero;"/>
                    <path d="M9960.69,2737.45C9960.69,2740.14 9960.44,2742.96 9959.93,2745.92C9959.43,2748.88 9959.06,2752.78 9958.83,2757.62C9957.51,2786.66 9955.93,2820.13 9954.11,2858.05C9952.28,2895.96 9950.52,2934.54 9948.81,2973.8L9946.01,3038.33C9945.94,3039.94 9945.8,3043.98 9945.61,3050.43C9945.41,3056.88 9945.2,3063.47 9944.97,3070.19C9944.73,3076.91 9944.54,3083.1 9944.38,3088.75C9944.23,3094.39 9944.15,3097.49 9944.15,3098.02C9944.15,3101.25 9944.25,3104.48 9944.44,3107.7C9944.64,3110.93 9944.73,3114.16 9944.73,3117.38C9944.73,3120.61 9944.42,3122.22 9943.8,3122.22C9942.71,3122.22 9941.63,3121.55 9940.54,3120.21C9939.45,3118.86 9938.37,3118.19 9937.28,3118.19C9936.35,3118.19 9935.43,3118.59 9934.54,3119.4C9933.65,3120.21 9932.74,3120.61 9931.8,3120.61C9931.65,3120.61 9931.38,3120.47 9930.99,3120.21C9930.6,3119.94 9930.41,3118.46 9930.41,3115.77C9930.41,3111.47 9930.5,3107.57 9930.7,3104.07C9930.89,3100.58 9930.99,3096.68 9930.99,3092.38C9930.99,3084.85 9930.72,3073.15 9930.17,3057.29C9929.63,3041.42 9928.91,3023.41 9928.02,3003.24C9927.12,2983.08 9926.15,2961.7 9925.11,2939.11C9924.06,2916.53 9923.03,2894.61 9922.02,2873.37C9921.01,2852.13 9920.1,2832.5 9919.28,2814.49C9918.47,2796.47 9917.86,2782.09 9917.48,2771.33C9917.4,2769.18 9917.24,2766.36 9917.01,2762.86C9916.78,2759.37 9916.55,2755.87 9916.31,2752.37C9916.08,2748.88 9915.89,2745.79 9915.73,2743.1C9915.57,2740.41 9915.5,2738.53 9915.5,2737.45C9915.5,2732.07 9915.89,2729.38 9916.66,2729.38C9917.75,2729.38 9918.82,2729.79 9919.86,2730.59C9920.91,2731.4 9921.98,2731.8 9923.07,2731.8C9923.92,2731.8 9924.82,2731.4 9925.75,2730.59C9926.68,2729.79 9927.57,2729.38 9928.43,2729.38C9928.58,2729.38 9928.89,2729.65 9929.36,2730.19C9929.82,2730.73 9930.06,2732.07 9930.06,2734.22C9930.06,2739.06 9929.84,2742.96 9929.42,2745.92C9928.99,2748.88 9928.77,2754.12 9928.77,2761.65C9928.77,2764.34 9928.91,2769.58 9929.18,2777.38C9929.45,2785.18 9929.78,2794.59 9930.17,2805.61C9930.56,2816.64 9931.03,2828.74 9931.57,2841.91C9932.11,2855.09 9932.66,2868.4 9933.2,2881.84C9934.52,2913.57 9936,2948.52 9937.63,2986.7L9937.98,2986.7C9939.61,2950.68 9941.12,2917.6 9942.52,2887.49C9943.06,2874.58 9943.61,2861.68 9944.15,2848.77C9944.69,2835.86 9945.18,2824.03 9945.61,2813.28C9946.03,2802.52 9946.38,2792.97 9946.66,2784.64C9946.93,2776.3 9947.06,2770.52 9947.06,2767.3C9947.06,2762.99 9946.99,2759.5 9946.83,2756.81C9946.68,2754.12 9946.48,2751.7 9946.25,2749.55C9946.01,2747.4 9945.82,2745.38 9945.67,2743.5C9945.51,2741.62 9945.43,2739.06 9945.43,2735.84C9945.43,2731.54 9945.78,2729.38 9946.48,2729.38C9947.57,2729.38 9948.64,2729.79 9949.68,2730.59C9950.73,2731.4 9951.8,2731.8 9952.89,2731.8C9953.82,2731.8 9954.77,2731.4 9955.74,2730.59C9956.71,2729.79 9957.7,2729.38 9958.71,2729.38C9959.1,2729.38 9959.53,2729.65 9959.99,2730.19C9960.46,2730.73 9960.69,2733.15 9960.69,2737.45Z" style="fill-rule:nonzero;"/>
                    <path d="M10002.5,2582.57C10002.5,2596.02 10002.2,2608.52 10001.5,2620.08C10000.8,2631.65 9999.79,2641.73 9998.55,2650.33C9997.31,2658.94 9995.85,2665.79 9994.18,2670.9C9992.51,2676.01 9990.7,2678.57 9988.76,2678.57C9986.74,2678.57 9984.9,2676.01 9983.23,2670.9C9981.56,2665.79 9980.1,2658.8 9978.86,2649.93C9977.62,2641.06 9976.65,2630.84 9975.95,2619.28C9975.25,2607.72 9974.9,2595.48 9974.9,2582.57C9974.9,2570.21 9975.25,2558.24 9975.95,2546.68C9976.65,2535.12 9977.6,2524.9 9978.8,2516.03C9980.01,2507.15 9981.46,2500.03 9983.17,2494.65C9984.88,2489.27 9986.74,2486.58 9988.76,2486.58C9992.88,2486.58 9996.2,2495.46 9998.72,2513.2C10001.2,2530.95 10002.5,2554.07 10002.5,2582.57ZM10008.4,3113.35C10008.4,3116.04 10008.3,3117.65 10008,3118.19C10007.8,3118.73 10007.5,3119 10007.3,3119C10006.2,3119 10005.1,3118.59 10004,3117.79C10002.9,3116.98 10001.8,3116.58 10000.8,3116.58C9999.91,3116.58 9999.03,3116.84 9998.14,3117.38C9997.25,3117.92 9996.37,3118.46 9995.52,3119L9995.52,3115.77C9995.52,3113.08 9995.54,3110.8 9995.58,3108.91C9995.62,3107.03 9995.64,3104.74 9995.64,3102.06L9995.4,3100.44C9994.7,3101.52 9993.99,3103.27 9993.25,3105.69C9992.51,3108.11 9991.71,3110.66 9990.86,3113.35C9990.01,3116.04 9989.03,3118.46 9987.95,3120.61C9986.86,3122.76 9985.62,3123.84 9984.22,3123.84C9981.43,3123.84 9978.84,3122.09 9976.47,3118.59C9974.11,3115.1 9972.07,3109.05 9970.36,3100.44C9968.65,3091.84 9967.31,3080.14 9966.34,3065.35C9965.37,3050.57 9964.88,3031.88 9964.88,3009.29C9964.88,2986.7 9965.64,2968.02 9967.16,2953.23C9968.67,2938.44 9970.57,2925.94 9972.86,2915.72C9975.15,2905.5 9977.64,2896.9 9980.32,2889.91C9983,2882.92 9985.48,2876.33 9987.77,2870.14C9990.06,2863.96 9991.97,2857.51 9993.48,2850.78C9995,2844.06 9995.75,2835.59 9995.75,2825.38C9995.75,2817.85 9995.58,2811.39 9995.23,2806.02C9994.88,2800.64 9994.04,2797.95 9992.72,2797.95L9976.3,2797.95C9975.06,2797.95 9974.24,2800.24 9973.85,2804.81C9973.47,2809.38 9973.08,2811.66 9972.69,2811.66C9972.53,2811.66 9972.46,2810.86 9972.46,2809.24L9972.46,2741.48C9972.46,2737.72 9972.53,2734.9 9972.69,2733.01C9972.84,2731.13 9973.23,2730.19 9973.85,2730.19L9992.72,2730.19C9994.59,2730.19 9996.35,2730.73 9998.02,2731.8C9999.69,2732.88 10001.1,2735.7 10002.3,2740.27C10003.5,2744.85 10004.5,2751.57 10005.2,2760.44C10005.9,2769.31 10006.2,2781.82 10006.2,2797.95L10006.2,3054.46C10006.2,3065.22 10006.6,3075.84 10007.3,3086.33C10008.1,3096.81 10008.4,3105.82 10008.4,3113.35ZM9995.75,2582.57C9995.75,2568.05 9995.13,2555.95 9993.89,2546.28C9992.65,2536.6 9990.94,2531.76 9988.76,2531.76C9986.82,2531.76 9985.17,2537 9983.81,2547.49C9982.45,2557.97 9981.77,2569.67 9981.77,2582.57C9981.77,2594.41 9982.4,2605.56 9983.64,2616.05C9984.88,2626.54 9986.63,2631.78 9988.88,2631.78C9990.82,2631.78 9992.45,2626.81 9993.77,2616.86C9995.09,2606.91 9995.75,2595.48 9995.75,2582.57ZM9996.1,2918.14C9996.1,2915.99 9996.02,2914.91 9995.87,2914.91C9994.94,2918.68 9993.38,2922.71 9991.21,2927.01C9989.03,2931.32 9986.8,2937.1 9984.51,2944.36C9982.22,2951.62 9980.22,2960.62 9978.51,2971.38C9976.8,2982.13 9975.95,2995.58 9975.95,3011.71C9975.95,3022.47 9976.2,3030.94 9976.71,3037.12C9977.21,3043.3 9977.91,3048.01 9978.8,3051.24C9979.7,3054.46 9980.71,3056.48 9981.83,3057.29C9982.96,3058.09 9984.1,3058.5 9985.27,3058.5C9986.05,3058.5 9987.06,3057.42 9988.3,3055.27C9989.54,3053.12 9990.74,3050.16 9991.91,3046.4C9993.07,3042.63 9994.06,3037.93 9994.88,3032.28C9995.69,3026.63 9996.1,3020.58 9996.1,3014.13L9996.1,2918.14Z" style="fill-rule:nonzero;"/>
                    <path d="M10051.5,2802.79C10051.5,2803.87 10051.4,2805.21 10051,2806.82C10050.6,2808.44 10050.1,2809.78 10049.6,2810.86C10049.1,2811.93 10048.6,2813.01 10048.1,2814.08C10047.6,2815.16 10047.3,2815.7 10047.1,2815.7C10046.7,2816.23 10046.3,2817.44 10045.7,2819.33C10045.2,2821.21 10044.6,2823.09 10044,2824.97C10043.5,2826.85 10042.9,2828.47 10042.4,2829.81C10041.9,2831.16 10041.5,2831.83 10041.2,2831.83C10041,2831.83 10040.9,2831.56 10040.8,2831.02C10040.7,2828.87 10040.6,2826.72 10040.7,2824.57C10040.7,2822.42 10040.7,2820 10040.6,2817.31C10040.4,2810.86 10040,2805.88 10039.4,2802.39C10038.9,2798.89 10038.3,2796.74 10037.6,2795.93C10036.9,2795.13 10036.1,2795.39 10035.4,2796.74C10034.6,2798.08 10033.9,2800.1 10033.4,2802.79C10031.6,2810.86 10030.4,2822.15 10029.8,2836.67C10029.1,2851.19 10028.8,2866.25 10028.8,2881.84L10028.8,3068.18C10028.8,3077.32 10029.2,3085.65 10029.9,3093.18C10030.6,3100.71 10030.9,3107.43 10030.9,3113.35C10030.9,3117.65 10030.6,3119.8 10030,3119.8L10017.9,3119.8C10017.5,3119.8 10017,3119.53 10016.5,3119C10016,3118.46 10015.8,3116.31 10015.8,3112.54C10015.8,3110.93 10015.9,3108.38 10016.2,3104.88C10016.5,3101.38 10016.8,3097.35 10017.1,3092.78C10017.4,3088.21 10017.7,3083.1 10017.9,3077.45C10018.2,3071.81 10018.3,3066.03 10018.3,3060.11L10018.3,2776.98C10018.3,2766.76 10018,2758.16 10017.3,2751.16C10016.6,2744.17 10016.3,2739.33 10016.3,2736.64C10016.3,2732.34 10016.4,2730.19 10016.8,2730.19C10017.9,2730.19 10019,2730.46 10020,2731C10021.1,2731.54 10022.2,2731.8 10023.2,2731.8C10024.2,2731.8 10025.1,2731.27 10026,2730.19C10027,2729.12 10027.9,2728.58 10028.8,2728.58L10029.8,2728.58C10030.2,2728.58 10030.5,2729.92 10030.6,2732.61C10030.1,2736.91 10029.7,2740.27 10029.5,2742.69C10029.2,2745.11 10029,2747.26 10028.9,2749.15C10028.8,2751.03 10028.7,2753.45 10028.7,2756.41L10028.7,2775.36L10029.1,2775.36C10030.1,2761.38 10031.6,2749.82 10033.7,2740.68C10035.7,2731.54 10037.6,2726.97 10039.3,2726.97C10043.2,2726.97 10046.1,2732.61 10047.9,2743.9C10049.7,2755.2 10050.8,2769.45 10051.2,2786.66C10051.3,2789.35 10051.4,2791.9 10051.4,2794.32C10051.5,2796.74 10051.5,2799.56 10051.5,2802.79Z" style="fill-rule:nonzero;"/>
                    <path d="M10102.8,3113.35C10102.8,3117.11 10102.5,3119 10102,3119C10100.9,3119 10099.8,3118.59 10098.6,3117.79C10097.4,3116.98 10096.3,3116.58 10095.2,3116.58C10092.4,3116.58 10089.5,3117.52 10086.6,3119.4C10083.7,3121.28 10080.8,3122.22 10077.9,3122.22C10074.5,3122.22 10071.5,3117.25 10069,3107.3C10066.4,3097.35 10064.3,3084.18 10062.6,3067.77C10060.9,3051.37 10059.6,3032.41 10058.8,3010.91C10058,2989.39 10057.6,2967.08 10057.6,2943.95C10057.6,2911.69 10058.3,2883.05 10059.8,2858.05C10061.2,2833.04 10063.7,2810.59 10067.4,2790.69C10068.8,2782.62 10070.4,2774.96 10072.3,2767.7C10074.2,2760.44 10076.2,2753.58 10078.3,2747.13C10080.3,2740.68 10082.4,2734.49 10084.3,2728.58C10086.3,2722.66 10088.1,2717.28 10089.8,2712.45L10089.8,2635.01C10089.8,2629.09 10089.7,2624.25 10089.7,2620.49C10089.7,2616.72 10089.6,2613.5 10089.5,2610.81C10089.3,2608.12 10089.2,2605.56 10088.9,2603.14C10088.7,2600.72 10088.4,2597.36 10088.1,2593.06C10088,2590.91 10087.8,2588.89 10087.6,2587.01C10087.4,2585.13 10087.3,2582.84 10087.3,2580.16C10087.3,2578 10087.7,2575.85 10088.4,2573.7C10089.1,2571.55 10089.6,2569.94 10089.9,2568.86L10095.1,2548.7C10096,2544.93 10097,2539.42 10098.1,2532.16C10099.1,2524.9 10100.2,2521.27 10101.3,2521.27C10101.4,2521.27 10101.6,2521.54 10101.9,2522.08C10102.1,2522.61 10102.2,2523.69 10102.2,2525.3C10102.2,2529.61 10102.1,2533.91 10101.9,2538.21C10101.6,2542.51 10101.4,2546.81 10101.3,2551.12C10100.9,2561.87 10100.6,2572.89 10100.5,2584.19C10100.3,2595.48 10100.2,2605.7 10100.2,2614.84L10100.2,3047.2C10100.2,3056.35 10100.4,3066.43 10100.6,3077.45C10100.9,3088.48 10101.4,3097.75 10102.2,3105.28C10102.4,3106.36 10102.5,3107.57 10102.6,3108.91C10102.7,3110.26 10102.8,3111.74 10102.8,3113.35ZM10089.8,2790.69C10088.2,2794.99 10086.6,2798.49 10085,2801.18C10083.3,2803.87 10081.8,2807.9 10080.3,2813.28C10078.1,2821.34 10076.2,2829.81 10074.7,2838.68C10073.3,2847.56 10072.1,2857.1 10071.2,2867.32C10070.4,2877.54 10069.8,2888.83 10069.5,2901.2C10069.2,2913.57 10069,2927.55 10069,2943.15C10069,2954.44 10069.2,2966.54 10069.7,2979.45C10070.1,2992.35 10070.7,3004.18 10071.6,3014.94C10072.5,3025.69 10073.7,3034.7 10075.2,3041.96C10076.7,3049.22 10078.5,3052.85 10080.6,3052.85L10086,3052.85C10087.3,3052.85 10088.3,3050.03 10088.9,3044.38C10089.5,3038.73 10089.8,3031.61 10089.8,3023L10089.8,2790.69Z" style="fill-rule:nonzero;"/>
                </g>
            </g>
        </g>
    </g>
</svg>
