<svg clip-rule="evenodd" fill-rule="evenodd" stroke-linejoin="round" stroke-miterlimit="2" viewBox="0 0 7128 4266" xmlns="http://www.w3.org/2000/svg"><g transform="scale(2.2275 .999844)"><path d="m0 0h3200v4266.67h-3200z" fill="#fff"/><path d="m2054.43 3444.99h-983.82v-104.31h-52.8c-.01 6.76-.01 12.85-.01 17.27 0 37.95-30.812 68.76-68.763 68.76-37.95 0-68.761-30.81-68.761-68.76s30.811-68.76 68.761-68.76c4.42 0 10.516-.01 17.269-.01v-52.8h-104.304v-983.46c-6.68-.01-12.707-.02-17.087-.02-37.95 0-68.761-30.81-68.761-68.76s30.811-68.76 68.761-68.76c37.951 0 68.762 30.81 68.762 68.76 0 4.38.005 10.41.014 17.09h983.459v104.3h52.8c.01-6.75.01-12.85.01-17.27 0-37.94 30.81-68.76 68.77-68.76 37.95 0 68.76 30.82 68.76 68.76 0 37.96-30.81 68.77-68.76 68.77-4.42 0-10.52 0-17.27.01v52.8h104.3v983.82c6.83.01 12.99.02 17.45.02 37.95 0 68.76 30.81 68.76 68.76s-30.81 68.76-68.76 68.76-68.76-30.81-68.76-68.76c0-4.46-.01-10.63-.02-17.45zm-932.06-156.06h827.33v-827.33h-52.55v774.78h-774.78zm-104.31-52.55v52.55h52.55v-52.55zm827.33-51.76v-723.02h-723.02zm-1000.475-982.96c9.666 0 17.513-7.85 17.513-17.52 0-9.66-7.847-17.51-17.513-17.51-9.665 0-17.513 7.85-17.513 17.51 0 9.67 7.848 17.52 17.513 17.52zm277.455 1139.02v52.55h931.63v-931.63h-52.54v879.08zm878.84-1052.42c0 9.67 7.85 17.52 17.52 17.52 9.66 0 17.51-7.85 17.51-17.52 0-9.66-7.85-17.51-17.51-17.51-9.67 0-17.52 7.85-17.52 17.51zm-51.51 121.58v-52.55h-52.55v52.55zm-104.31 0v-52.55h-827.33v827.33h52.55v-774.78zm-931.631-156.83v931.61h52.547v-879.09h879.084v-52.54s-728.85 0-931.605 0v.02zm52.791 1104.94c0-9.66-7.847-17.51-17.513-17.51-9.665 0-17.513 7.85-17.513 17.51 0 9.67 7.848 17.52 17.513 17.52 9.666 0 17.513-7.85 17.513-17.52zm1156.66 86.98c-9.66 0-17.51 7.84-17.51 17.51s7.85 17.51 17.51 17.51c9.67 0 17.51-7.84 17.51-17.51s-7.84-17.51-17.51-17.51z" transform="matrix(.245332 .546562 -.245332 .546562 1928.56 -900.035)"/><g fill-rule="nonzero"><g transform="matrix(.987036 0 0 .780721 -7843.42 422.97)"><path d="m9183.96 3132.79c0 1.66-.93 2.77-2.8 3.32s-3.93.97-6.19 1.25c-2.27.27-4.38.27-6.35 0-1.96-.28-3.14-.42-3.54-.42-1.96 0-4.47.55-7.52 1.66s-6.83 1.66-11.36 1.66c-.59 0-1.27-.14-2.06-.41-.79-.28-1.18-1.8-1.18-4.57 0-1.66.34-4.85 1.03-9.56s1.38-10.24 2.07-16.61 1.37-12.88 2.06-19.53 1.04-12.74 1.04-18.28v-3.32c0-25.48-.45-51.1-1.33-76.86-.89-25.75-1.63-51.37-2.22-76.85-.98-43.21-1.96-86-2.94-128.37-.99-42.37-2.07-85.16-3.25-128.37 0-1.11-.05-3.6-.15-7.48-.1-3.87-.54-5.81-1.33-5.81-.39 0-1.62 2.63-3.68 7.89-2.07 5.26-4.58 11.77-7.52 19.53-2.96 7.75-6.05 16.34-9.3 25.75-3.24 9.42-6.29 18-9.14 25.76-2.85 7.75-5.31 14.26-7.38 19.53-2.06 5.26-3.29 7.89-3.68 7.89-.4 0-2.51-5.26-6.35-15.79-3.83-10.52-8.11-22.16-12.83-34.89-4.72-12.75-9.04-24.38-12.98-34.9-3.93-10.52-6.19-15.79-6.78-15.79-.79 0-1.28 1.8-1.48 5.4-.19 3.6-.29 5.96-.29 7.06-.79 23.27-1.62 49.44-2.51 78.52-.88 29.08-1.77 58.85-2.66 89.32-.88 30.47-1.71 60.24-2.5 89.32s-1.53 55.25-2.21 78.52c-.69 23.26-1.23 42.51-1.63 57.74-.39 15.23-.59 23.68-.59 25.34v4.16c0 13.29.79 23.95 2.36 31.98 1.58 8.04 2.56 15.1 2.95 21.19-.39 1.66-1.08 2.49-2.06 2.49-2.75 0-5.9-.55-9.44-1.66s-6.79-1.66-9.74-1.66h-19.47c-.78 0-1.18-.83-1.18-2.49 0-1.11.3-2.77.89-4.99.59-2.21.98-3.6 1.18-4.15 4.72-17.17 7.37-37.39 7.96-60.65 1.38-50.41 2.66-100.4 3.84-149.98 1.18-49.57 2.46-99.56 3.83-149.97.59-25.48 1.28-51.37 2.07-77.68s1.47-51.93 2.06-76.86c0-1.11.05-2.49.15-4.15s.15-3.05.15-4.16c0-8.31-.79-14.26-2.36-17.86s-2.36-7.62-2.36-12.05c0-4.98.98-7.48 2.95-7.48 3.34 0 6.69.56 10.03 1.67 3.34 1.1 6.69 1.66 10.03 1.66s6.68-.56 10.03-1.66c3.34-1.11 6.68-1.67 10.03-1.67 2.16 0 3.24 3.61 3.24 10.81 0 8.3 1.33 15.78 3.99 22.43 2.65 6.65 4.57 11.63 5.75 14.95.19 1.11 1.13 3.74 2.8 7.9 1.67 4.15 3.44 8.58 5.31 13.29s3.64 9 5.31 12.88 2.7 5.82 3.1 5.82c.39 0 1.86-2.91 4.42-8.73 2.56-5.81 5.21-12.6 7.97-20.35 3.34-8.31 6.98-18.01 10.91-29.08 1.18-2.77 2.16-5.54 2.95-8.31s1.38-6.37 1.77-10.8c.39-2.77.69-5.27.89-7.48.19-2.22.98-3.33 2.35-3.33 2.96 0 5.91.56 8.85 1.67 2.96 1.1 5.9 1.66 8.86 1.66 3.34 0 6.78-.56 10.32-1.66 3.54-1.11 6.98-1.67 10.32-1.67.4 0 1.14.28 2.22.83 1.08.56 1.62 1.67 1.62 3.33s-.35 3.88-1.03 6.65c-.69 2.77-1.38 5.95-2.07 9.55s-1.33 7.62-1.92 12.05-.88 8.86-.88 13.29c.2 11.08.49 23.13.88 36.14.4 13.02.79 26.31 1.18 39.89.4 13.57.74 27 1.04 40.29.29 13.3.64 25.76 1.03 37.39 1.18 49.85 2.36 99.43 3.54 148.73 1.18 49.29 2.36 98.87 3.54 148.72.19 8.86.69 19.94 1.47 33.24.79 13.29 2.17 23.54 4.13 30.74.4 1.11.79 2.21 1.18 3.32.4 1.11.59 2.49.59 4.16z"/><path d="m9312.58 2566.14c0 2.21-.49 4.43-1.48 6.64-.98 2.22-2.11 4.43-3.39 6.65-1.28 2.21-2.6 4.15-3.98 5.82-1.38 1.66-2.36 3.04-2.95 4.15-1.38 2.77-3.88 10.25-7.52 22.43-3.64 12.19-7.43 25.48-11.36 39.89-3.93 14.4-7.62 28.11-11.06 41.12-3.44 13.02-5.75 21.47-6.93 25.34v354.78c0 8.31.24 15.51.73 21.61.5 6.09 1.09 11.35 1.77 15.78.69 4.43 1.28 8.45 1.77 12.05.5 3.6.74 7.34.74 11.22 0 2.21-.39 3.46-1.18 3.74-.79.27-1.38.41-1.77.41-2.75 0-5.55-.55-8.41-1.66-2.85-1.11-5.65-1.66-8.4-1.66-2.56 0-5.07.55-7.53 1.66-2.45 1.11-4.86 1.66-7.22 1.66-.4 0-.89-.28-1.48-.83s-.88-1.66-.88-3.32c0-7.76.69-16.62 2.06-26.59 1.38-9.97 2.07-19.66 2.07-29.08v-356.44c-6.49-21.05-12.93-42.1-19.33-63.15-6.39-21.05-12.53-42.93-18.43-65.64-.79-2.77-1.77-5.12-2.95-7.06s-2.36-3.6-3.54-4.98c-1.18-1.39-2.21-2.77-3.1-4.16-.88-1.38-1.33-3.18-1.33-5.4 0-2.77.35-4.71 1.04-5.82.68-1.1 1.42-1.66 2.21-1.66 3.54 0 7.13.56 10.76 1.66 3.64 1.11 7.23 1.67 10.77 1.67 3.35 0 6.64-.42 9.89-1.25 3.24-.83 6.53-1.25 9.88-1.25 1.18 0 2.01.42 2.5 1.25.5.83.74 2.91.74 6.23 0 2.22-.15 4.43-.44 6.65-.3 2.22-.44 4.71-.44 7.48 0 1.66.68 5.67 2.06 12.04s2.95 13.16 4.72 20.36 3.39 13.99 4.87 20.36c1.47 6.37 2.31 9.83 2.51 10.38h.88c.39-1.66 1.33-5.67 2.8-12.04 1.48-6.38 3.05-13.3 4.72-20.78 1.68-7.47 3.15-14.54 4.43-21.18 1.28-6.65 1.92-10.81 1.92-12.47s-.1-3.18-.3-4.57c-.2-1.38-.29-3.18-.29-5.4 0-2.77.14-5.12.44-7.06.29-1.94.93-2.91 1.92-2.91 3.93 0 7.72.14 11.35.42 3.64.28 7.43.41 11.36.41 3.74 0 7.52-.41 11.36-1.24 3.83-.83 7.62-1.25 11.35-1.25 1.38 0 2.07 1.66 2.07 4.99z"/><path d="m9449.16 3134.45c0 1.11-.2 2.21-.59 3.32s-.79 1.94-1.18 2.49c-3.15 0-6.24-.55-9.29-1.66s-6.15-1.66-9.29-1.66c-3.35 0-6.99.42-10.92 1.25s-7.57 1.24-10.91 1.24c-1.18 0-1.77-1.94-1.77-5.81 0-6.1.63-12.47 1.91-19.11 1.28-6.65 1.92-13.57 1.92-20.77 0-1.67-.74-8.45-2.21-20.36-1.48-11.91-3.3-26.31-5.46-43.21-2.16-16.89-4.57-35.17-7.23-54.83-2.65-19.67-5.16-37.95-7.52-54.84s-4.37-31.3-6.04-43.2c-1.68-11.91-2.61-18.7-2.81-20.36-.39 0-1.52 4.29-3.39 12.88-1.87 8.58-3.88 18-6.05 28.25-2.16 10.24-4.27 20.21-6.34 29.91-2.06 9.69-3.39 15.64-3.98 17.86-1.18 5.54-1.77 12.19-1.77 19.94v112.17c0 7.75.15 13.85.44 18.28.3 4.43.74 8.31 1.33 11.63s1.28 6.92 2.06 10.8c.79 3.88 1.58 8.59 2.36 14.13 0 1.66-.29 2.77-.88 3.32s-1.08.83-1.48.83h-19.47c-2.36 0-4.96.55-7.81 1.66-2.86 1.11-5.46 1.66-7.82 1.66-1.38 0-2.12-.83-2.21-2.49-.1-1.66.05-3.88.44-6.65.2-1.1.64-3.6 1.33-7.47.69-3.88 1.42-8.73 2.21-14.54.78-5.82 1.47-11.91 2.06-18.28s.89-12.6.89-18.7v-422.08c0-8.86-.2-20.63-.59-35.31-.4-14.68-1.38-26.45-2.95-35.31-.39-2.22-.89-4.15-1.48-5.82-.59-1.66-.88-3.87-.88-6.64 0-2.22.39-3.46 1.18-3.74s1.37-.42 1.77-.42c2.56 0 5.06.42 7.52 1.25s4.97 1.24 7.52 1.24h27.14c6.69 0 13.97-.27 21.83-.83 7.87-.55 15.15-.83 21.83-.83 3.15 0 6.29.7 9.44 2.08 3.15 1.39 6.05 4.02 8.7 7.89 2.66 3.88 4.82 9.28 6.49 16.21 1.67 6.92 2.51 15.64 2.51 26.17 0 6.09-.98 14.12-2.95 24.09s-4.38 20.91-7.23 32.82-5.95 23.96-9.29 36.15c-3.34 12.18-6.44 23.67-9.29 34.48-2.85 10.8-5.26 20.35-7.23 28.66s-2.95 14.13-2.95 17.45c0 1.66.84 9.83 2.51 24.51s3.78 32.54 6.34 53.59 5.41 43.76 8.56 68.13c3.14 24.37 6.14 47.64 8.99 69.79 2.85 22.16 5.36 41.41 7.52 57.75 2.17 16.34 3.64 26.73 4.43 31.16.98 5.54 2.02 11.07 3.1 16.61s2.41 10.53 3.98 14.96c.39 1.11.98 2.49 1.77 4.15s1.18 3.05 1.18 4.16zm-47.79-486.06c0-4.43-.64-7.48-1.92-9.14-1.27-1.66-2.6-2.49-3.98-2.49h-33.92c-2.76 0-4.33 1.52-4.72 4.57-.4 3.05-.59 8.17-.59 15.37v165.34l.59 4.99c.78-.56 1.57-1.94 2.36-4.16.78-2.21 1.37-4.15 1.77-5.81 7.47-28.25 14.16-54.01 20.06-77.27 2.55-9.97 5.01-19.81 7.37-29.5s4.53-18.69 6.49-27c1.97-8.31 3.54-15.51 4.72-21.61 1.18-6.09 1.77-10.52 1.77-13.29z"/><path d="m9577.19 2984.06c0 23.27-1.82 44.73-5.46 64.39-3.64 19.67-8.41 36.7-14.31 51.1s-12.68 25.62-20.35 33.65-15.44 12.05-23.31 12.05c-12.39 0-23.3-4.29-32.74-12.88s-18.78-19.8-28.02-33.65c-.79-1.11-1.53-2.08-2.22-2.91s-1.03-2.91-1.03-6.23c0-2.77.49-4.71 1.48-5.82.98-1.1 1.77-2.49 2.36-4.15 1.76-4.43 3.68-11.49 5.75-21.19 2.06-9.69 3.78-17.86 5.16-24.51.39-1.11.88-3.32 1.47-6.64.59-3.33 1.18-4.99 1.77-4.99.79 0 1.53 1.38 2.22 4.15s1.23 4.71 1.62 5.82c2.56 8.86 5.6 16.06 9.14 21.6s7.28 9.97 11.21 13.3c3.94 3.32 7.77 5.54 11.51 6.64 3.73 1.11 7.08 1.67 10.03 1.67 4.91 0 9.49-2.22 13.71-6.65 4.23-4.43 7.92-10.8 11.07-19.11 3.14-8.31 5.6-18.14 7.37-29.5 1.77-11.35 2.66-24.23 2.66-38.63 0-26.59-1.82-49.85-5.46-69.79s-8.21-38.09-13.72-54.43c-5.5-16.34-11.4-31.43-17.7-45.28-6.29-13.85-12.19-28.25-17.7-43.2-5.5-14.96-10.08-31.02-13.71-48.19-3.64-17.17-5.46-37.11-5.46-59.83 0-32.68 3.69-57.74 11.06-75.19 7.38-17.45 19.03-26.17 34.96-26.17 3.93 0 8.26 1.66 12.98 4.98 4.72 3.33 9.14 7.21 13.27 11.64s7.62 9.14 10.47 14.12c2.85 4.99 4.28 9.42 4.28 13.3 0 0-.49 1.8-1.47 5.4-.99 3.6-2.17 7.75-3.54 12.46-1.38 4.71-2.66 9.28-3.84 13.71s-1.96 7.48-2.36 9.14c-.39 2.21-.83 4.57-1.33 7.06-.49 2.49-1.13 4.29-1.91 5.4-6.3-11.08-11.7-18.28-16.23-21.6-4.52-3.33-8.75-4.99-12.68-4.99-4.33 0-7.82 2.5-10.47 7.48-2.66 4.99-3.99 11.91-3.99 20.77 0 16.07 1.82 30.74 5.46 44.04 3.64 13.29 8.16 26.59 13.57 39.88s11.31 27.42 17.7 42.37c6.39 14.96 12.29 31.85 17.7 50.69 5.41 18.83 9.93 40.29 13.57 64.39 3.64 24.09 5.46 52.2 5.46 84.33z"/><path d="m9707.28 2562.81c-1.58 22.71-4.97 41.27-10.18 55.67s-11.95 21.6-20.21 21.6c-3.34 0-6.39-.41-9.14-1.24-2.76-.83-5.8-1.25-9.15-1.25-1.18 0-1.96.42-2.36 1.25-.39.83-.59 2.9-.59 6.23v431.22c0 7.75.15 15.78.44 24.09.3 8.31 1.43 15.51 3.4 21.6.39 1.11.83 2.64 1.33 4.57.49 1.94.73 4.02.73 6.24 0 3.32-.78 4.98-2.36 4.98-.98 0-1.86-.28-2.65-.83s-1.67-.83-2.66-.83c-2.16-.55-4.37-.83-6.63-.83h-6.64c-2.36 0-4.92.28-7.67.83-2.76.55-5.31.83-7.67.83-.98 0-2.07-.55-3.25-1.66s-1.77-3.05-1.77-5.82c0-1.66.1-2.77.3-3.32 2.16-11.08 3.93-21.46 5.31-31.16 1.38-9.69 2.06-21.19 2.06-34.48v-412.11c0-3.88-.29-6.51-.88-7.89-.59-1.39-1.33-2.36-2.21-2.91-.89-.55-1.92-.69-3.1-.41-1.18.27-2.26.41-3.25.41-4.52 0-9.04.28-13.56.83-4.53.55-9.05 2.49-13.58 5.82-1.37 1.11-2.8 3.04-4.27 5.81-1.48 2.77-2.81 4.16-3.98 4.16-.99 0-1.63-.97-1.92-2.91-.3-1.94-.44-4.29-.44-7.06 0-2.22.04-4.3.14-6.23.1-1.94.15-4.02.15-6.24v-64.8l105.02.83c2.16 0 4.81-.56 7.96-1.66 3.15-1.11 5.7-3.05 7.67-5.82.59-1.11 1.23-2.08 1.92-2.91s1.42-1.24 2.21-1.24c.98 0 1.48 1.38 1.48 4.15z"/><path d="m9839.14 3043.88c0 6.1-.1 12.61-.3 19.53-.19 6.92-.29 13.43-.29 19.52v41.55c0 7.2-.59 11.21-1.77 12.05-1.18.83-2.85 1.24-5.02 1.24-15.53 0-30.97-.41-46.31-1.24-15.34-.84-30.78-1.25-46.31-1.25-2.96 0-5.86.28-8.71.83s-5.75.83-8.7.83c-1.38 0-2.06-1.38-2.06-4.15 0-3.88.68-7.76 2.06-11.64 1.57-4.43 2.8-10.52 3.69-18.27.88-7.76 1.52-15.79 1.92-24.1.39-8.31.59-16.76.59-25.34v-428.31c0-4.99-.25-10.66-.74-17.03-.49-6.38-.99-12.33-1.48-17.87s-.98-10.38-1.47-14.54c-.49-4.15-.74-6.78-.74-7.89 0-2.22.34-3.33 1.03-3.33h1.63c2.55 0 5.01.28 7.37.83 2.36.56 4.82.84 7.38.84 13.96 0 27.77-.42 41.44-1.25s27.48-1.25 41.45-1.25c1.57 0 2.36 1.94 2.36 5.82 0 14.4.19 28.39.59 41.96.39 13.57.59 27.55.59 41.96v2.9c0 1.39-.2 2.08-.59 2.08-.4 0-.94-.69-1.63-2.08-.68-1.38-1.22-2.63-1.62-3.73-2.75-6.1-6.44-10.25-11.06-12.47-4.62-2.21-8.6-3.32-11.95-3.32h-42.48c-1.76 0-2.8.69-3.09 2.08-.3 1.38-.44 3.46-.44 6.23 0 2.21-.05 5.12-.15 8.72s-.1 7.2 0 10.8.34 6.65.74 9.14c.39 2.49.98 3.74 1.77 3.74h60.76c1.58 0 2.56.83 2.95 2.49.4 1.67.59 4.71.59 9.14v46.53c0 7.76-1.37 11.63-4.13 11.63h-58.41c-1.57 0-2.65.28-3.24.84-.59.55-.88 3.32-.88 8.3v275.85c0 12.19.68 20.22 2.06 24.1 1.38 3.87 4.13 5.81 8.26 5.81h46.61c3.73 0 7.08-1.24 10.03-3.74 2.95-2.49 5.5-5.12 7.67-7.89 2.16-2.77 3.98-5.4 5.46-7.89 1.47-2.5 2.6-3.74 3.39-3.74.39 0 .69.55.88 1.66.2 1.11.3 2.22.3 3.32z"/><path d="m9980.14 2568.63c0 3.32-.29 6.09-.88 8.31-1.97 11.07-3.35 20.08-4.13 27-.79 6.92-1.18 17.03-1.18 30.33v436.2c0 8.86.29 17.45.88 25.76s1.67 16.34 3.25 24.09c.39 1.66.74 3.33 1.03 4.99.3 1.66.44 3.6.44 5.81 0 3.88-.98 5.82-2.95 5.82-2.36 0-5.06-.41-8.11-1.25-3.05-.83-5.85-1.24-8.41-1.24-2.75 0-5.45.41-8.11 1.24-2.65.84-5.36 1.25-8.11 1.25h-.59c-1.58 0-2.36-1.94-2.36-5.82 0-2.77.49-5.53 1.47-8.3.99-2.77 1.77-6.79 2.36-12.05s1.09-10.94 1.48-17.03c.39-6.1.69-12.05.88-17.87.2-5.81.3-10.66.3-14.54v-125.46l-37.17-155.37c-3.15-13.3-6.39-26.45-9.73-39.47-3.35-13.01-6.69-25.89-10.03-38.63-.4-1.11-.84-2.63-1.33-4.57s-1.04-2.91-1.63-2.91c-.98 0-1.47 3.05-1.47 9.14v366.41c0 7.2.3 15.79.89 25.76.58 9.97 1.76 17.72 3.54 23.26.39 1.11 1.03 3.19 1.91 6.23.89 3.05 1.33 5.68 1.33 7.9 0 1.66-.34 2.63-1.03 2.91-.69.27-1.23.41-1.62.41-2.76 0-5.51-.41-8.26-1.25-2.76-.83-5.51-1.24-8.26-1.24-2.95 0-6.2.41-9.74 1.24-3.54.84-6.78 1.25-9.73 1.25h-.59c-1.58 0-2.36-1.94-2.36-5.82 0-2.77.49-5.53 1.47-8.3 2.17-6.65 3.69-16.35 4.57-29.08.89-12.75 1.33-23.55 1.33-32.41v-435.79c0-5.26-.05-10.66-.15-16.2-.09-5.54-.29-10.66-.59-15.37-.29-4.71-.64-8.17-1.03-10.39-.39-2.21-.93-4.7-1.62-7.47s-1.03-5.27-1.03-7.48c0-2.22.39-3.6 1.18-4.16.78-.55 1.47-.83 2.06-.83 2.56 0 5.31.28 8.26.83 2.95.56 5.7.83 8.26.83 3.54 0 7.18-.13 10.92-.41 3.73-.28 7.37-.42 10.91-.42h2.21c.89 0 1.33 1.39 1.33 4.16s-.64 6.23-1.92 10.38c-1.28 4.16-1.92 9.56-1.92 16.21 0 2.77.4 6.92 1.19 12.46 1.57 8.86 3.54 17.59 5.89 26.17 2.37 8.59 4.63 16.76 6.79 24.51 3.93 15.51 7.92 31.02 11.95 46.53s8.01 31.02 11.94 46.53c2.17 7.75 3.94 15.51 5.31 23.26 1.38 7.76 2.95 15.79 4.72 24.1.2 1.11.54 2.77 1.04 4.98.49 2.22.93 3.33 1.32 3.33.4 0 .64-1.11.74-3.33.1-2.21.15-3.6.15-4.15v-186.95c0-12.18-.79-21.88-2.36-29.08-.39-2.21-1.33-4.7-2.8-7.47-1.48-2.77-2.22-5.27-2.22-7.48 0-2.22.4-3.6 1.18-4.16.79-.55 1.48-.83 2.07-.83 2.95 0 5.8.28 8.55.83 2.76.56 5.61.83 8.56.83 2.36 0 5.11-.13 8.26-.41 3.14-.28 5.9-.42 8.26-.42h2.06c.79 0 1.18 1.39 1.18 4.16z"/><path d="m10122 2984.06c0 23.27-1.8 44.73-5.4 64.39-3.7 19.67-8.4 36.7-14.3 51.1s-12.7 25.62-20.4 33.65-15.4 12.05-23.3 12.05c-12.4 0-23.3-4.29-32.7-12.88-9.5-8.59-18.8-19.8-28.06-33.65-.78-1.11-1.52-2.08-2.21-2.91s-1.03-2.91-1.03-6.23c0-2.77.49-4.71 1.47-5.82.99-1.1 1.77-2.49 2.36-4.15 1.77-4.43 3.67-11.49 5.77-21.19 2-9.69 3.8-17.86 5.1-24.51.4-1.11.9-3.32 1.5-6.64.6-3.33 1.2-4.99 1.8-4.99.8 0 1.5 1.38 2.2 4.15s1.2 4.71 1.6 5.82c2.6 8.86 5.6 16.06 9.2 21.6 3.5 5.54 7.2 9.97 11.2 13.3 3.9 3.32 7.7 5.54 11.5 6.64 3.7 1.11 7.1 1.67 10 1.67 4.9 0 9.5-2.22 13.7-6.65 4.3-4.43 7.9-10.8 11.1-19.11 3.1-8.31 5.6-18.14 7.4-29.5 1.7-11.35 2.6-24.23 2.6-38.63 0-26.59-1.8-49.85-5.4-69.79-3.7-19.94-8.2-38.09-13.8-54.43-5.5-16.34-11.4-31.43-17.7-45.28-6.2-13.85-12.1-28.25-17.6-43.2-5.6-14.96-10.1-31.02-13.8-48.19-3.6-17.17-5.4-37.11-5.4-59.83 0-32.68 3.7-57.74 11-75.19 7.4-17.45 19.1-26.17 35-26.17 3.9 0 8.3 1.66 13 4.98 4.7 3.33 9.1 7.21 13.2 11.64 4.2 4.43 7.7 9.14 10.5 14.12 2.9 4.99 4.3 9.42 4.3 13.3 0 0-.5 1.8-1.5 5.4s-2.1 7.75-3.5 12.46-2.7 9.28-3.9 13.71c-1.1 4.43-1.9 7.48-2.3 9.14-.4 2.21-.8 4.57-1.3 7.06s-1.2 4.29-2 5.4c-6.3-11.08-11.7-18.28-16.2-21.6-4.5-3.33-8.7-4.99-12.7-4.99-4.3 0-7.8 2.5-10.4 7.48-2.7 4.99-4 11.91-4 20.77 0 16.07 1.8 30.74 5.4 44.04 3.7 13.29 8.2 26.59 13.6 39.88s11.3 27.42 17.7 42.37c6.4 14.96 12.3 31.85 17.7 50.69 5.4 18.83 9.9 40.29 13.6 64.39 3.6 24.09 5.4 52.2 5.4 84.33z"/></g><g transform="matrix(.842811 0 0 .271136 -6463.55 2340.094)"><path d="m9081.73 2970.57c0 22.59-.72 43.43-2.16 62.52s-3.32 35.62-5.65 49.61c-2.33 13.98-5.01 24.87-8.04 32.67-3.03 7.79-6.09 11.69-9.2 11.69-4.89 0-9.2-4.17-12.93-12.5-3.73-8.34-7.41-19.23-11.06-32.67-.31-1.08-.61-2.02-.88-2.82-.27-.81-.4-2.83-.4-6.05 0-2.69.19-4.57.58-5.65.39-1.07.7-2.42.93-4.03.7-4.31 1.46-11.16 2.27-20.57.82-9.41 1.49-17.35 2.04-23.8.15-1.07.35-3.23.58-6.45.23-3.23.47-4.84.7-4.84.31 0 .6 1.34.87 4.03.28 2.69.49 4.57.64 5.65 1.01 8.6 2.22 15.59 3.62 20.97 1.39 5.38 2.87 9.68 4.42 12.91 1.55 3.22 3.07 5.38 4.54 6.45 1.48 1.08 2.8 1.61 3.97 1.61 1.94 0 3.74-2.15 5.41-6.45s3.13-10.49 4.37-18.55c1.24-8.07 2.21-17.61 2.91-28.64.7-11.02 1.05-23.53 1.05-37.51 0-25.81-.72-48.4-2.16-67.76-1.43-19.36-3.24-36.97-5.41-52.83-2.18-15.87-4.51-30.52-6.99-43.96-2.49-13.45-4.82-27.43-6.99-41.95s-3.98-30.11-5.42-46.78c-1.43-16.68-2.15-36.03-2.15-58.08 0-31.73 1.46-56.07 4.37-73.01 2.91-16.93 7.51-25.4 13.8-25.4 1.55 0 3.26 1.61 5.13 4.84 1.86 3.22 3.61 6.99 5.24 11.29s3.01 8.87 4.13 13.71c1.13 4.84 1.69 9.14 1.69 12.91 0 0-.19 1.75-.58 5.24-.39 3.5-.86 7.53-1.4 12.1s-1.05 9.01-1.51 13.31c-.47 4.3-.78 7.26-.94 8.87-.15 2.15-.32 4.44-.52 6.86-.19 2.42-.45 4.17-.76 5.24-2.48-10.75-4.62-17.74-6.4-20.97-1.79-3.23-3.46-4.84-5.01-4.84-1.71 0-3.09 2.42-4.14 7.26-1.04 4.84-1.57 11.56-1.57 20.17 0 15.59.72 29.84 2.16 42.75 1.43 12.91 3.22 25.81 5.35 38.72 2.14 12.9 4.47 26.62 6.99 41.14 2.53 14.52 4.86 30.92 6.99 49.2 2.14 18.29 3.92 39.12 5.36 62.52 1.44 23.39 2.16 50.68 2.16 81.87z"/><path d="m9133.68 3112.54c0 3.77-.26 5.92-.76 6.46-.51.53-.95.8-1.34.8-.93 0-1.83-.67-2.68-2.01-.85-1.35-1.75-2.02-2.68-2.02s-1.86.67-2.79 2.02c-.94 1.34-1.87 2.01-2.8 2.01-.39 0-.86-.27-1.4-.8-.54-.54-.81-2.69-.81-6.46 0-1.07.13-3.09.4-6.05.28-2.96.59-6.99.94-12.1.34-5.11.66-11.16.93-18.15s.4-15.05.4-24.2v-212.15c0-8.06-.31-15.05-.93-20.97-.62-5.91-1.39-10.75-2.33-14.52-.93-3.76-1.96-6.45-3.08-8.06-1.13-1.62-2.2-2.42-3.21-2.42-.93 0-2 1.34-3.2 4.03s-2.33 6.45-3.38 11.29-1.92 10.49-2.62 16.94c-.7 6.46-1.05 13.45-1.05 20.98v221.02c0 9.14.35 17.74 1.05 25.81s1.05 14.52 1.05 19.36c0 4.3-.31 6.45-.93 6.45-1.09 0-2.16-.27-3.2-.8-1.05-.54-2.12-.81-3.21-.81-.93 0-1.88.27-2.85.81-.97.53-1.92.8-2.86.8-.38 0-.83-.27-1.33-.8-.51-.54-.76-2.69-.76-6.46 0-3.76.43-9.95 1.28-18.55s1.28-19.9 1.28-33.88v-283.13c0-12.37-.35-21.38-1.05-27.03-.7-5.64-1.05-10.08-1.05-13.31 0-4.3.2-6.45.59-6.45 1.08 0 2.15.27 3.2.81s2.11.8 3.2.8c.93 0 1.87-.53 2.8-1.61.93-1.07 1.86-1.61 2.79-1.61.16 0 .51.13 1.05.4.55.27.78 1.48.7 3.63-.54 4.84-.95 8.34-1.22 10.49s-.45 4.43-.53 6.85c-.07 2.42-.11 5.38-.11 8.88v16.53h.35c1.24-15.05 3.14-26.89 5.7-35.49 2.57-8.6 5.01-12.9 7.34-12.9 2.02 0 4.04 2.28 6.06 6.85s3.84 11.03 5.47 19.36c1.64 8.34 2.96 18.42 3.96 30.25 1.01 11.83 1.52 25.01 1.52 39.53v237.96c0 10.21.35 19.89 1.05 29.04.7 9.14 1.05 16.67 1.05 22.58z"/><path d="m9155.69 2621.29c0 11.83-.64 22.05-1.92 30.66-1.28 8.6-2.82 12.9-4.6 12.9-1.79 0-3.19-4.84-4.2-14.52s-1.51-20.43-1.51-32.26.48-21.51 1.46-29.04c.97-7.53 2.34-11.29 4.13-11.29s3.34 4.3 4.66 12.9 1.98 18.82 1.98 30.65zm1.05 112.93c0 1.08-.41 7-1.23 17.75-.81 10.76-1.22 26.08-1.22 45.98v256.51c0 19.36.37 33.21 1.11 41.55.74 8.33 1.11 14.11 1.11 17.34 0 3.76-.39 5.65-1.17 5.65-.93 0-1.77-.41-2.5-1.21-.74-.81-2.08-1.21-4.02-1.21-1.79 0-3.09.4-3.9 1.21-.82.8-1.77 1.21-2.86 1.21-.54 0-.81-1.89-.81-5.65 0-2.69.19-5.38.58-8.07.39-3.22.7-7.39.93-12.5s.43-10.49.58-16.13c.16-5.65.27-11.16.35-16.54s.12-10.22.12-14.52v-244.41c0-2.69-.02-6.46-.06-11.3s-.1-9.95-.17-15.32c-.08-5.38-.18-10.36-.3-14.93-.11-4.57-.25-7.93-.4-10.08-.16-2.69-.35-5.24-.58-7.66-.24-2.42-.36-4.98-.36-7.67 0-2.15.14-3.49.41-4.03s.53-.81.76-.81c1.09 0 2.1.41 3.03 1.21.93.81 1.98 1.21 3.14 1.21 1.01 0 2.1-.26 3.27-.8 1.16-.54 2.13-.81 2.91-.81h.81c.31 0 .47 1.35.47 4.03z"/><path d="m9202.17 3102.06c0 4.3-.14 9.27-.41 14.92-.27 5.64-.84 8.47-1.69 8.47-4.81 0-9.46-3.63-13.92-10.89-4.47-7.26-8.43-18.82-11.88-34.69-3.46-15.86-6.21-36.57-8.27-62.11s-3.09-56.87-3.09-93.97c0-33.88.82-63.19 2.45-87.93s3.9-45.44 6.81-62.11 6.37-29.04 10.37-37.11c4-8.06 8.37-12.09 13.1-12.09 1.09 0 2.12 1.47 3.09 4.43s1.46 9.01 1.46 18.15v50.82c0 4.3-.16 7.66-.47 10.08s-.7 4.44-1.16 6.05c-.63-1.61-1.03-3.36-1.23-5.24-.19-1.88-.64-3.9-1.34-6.05-.85-2.69-1.88-4.17-3.08-4.44-1.21-.27-2.28-.4-3.21-.4-2.95 0-5.43 3.76-7.45 11.29s-3.67 17.21-4.95 29.04-2.22 25.14-2.8 39.93-.87 29.44-.87 43.96c0 19.36.5 37.11 1.51 53.24 1.01 16.14 2.47 29.98 4.37 41.54 1.9 11.57 4.19 20.57 6.87 27.03 2.68 6.45 5.69 9.68 9.03 9.68.78 0 1.53-.81 2.27-2.42.74-1.62 1.46-2.42 2.16-2.42.69 0 1.22 2.15 1.57 6.45s.58 9.41.7 15.33c.11 5.91.15 11.83.11 17.74-.04 5.92-.05 10.49-.05 13.72z"/><path d="m9253.07 3114.96c0 4.3-.29 6.19-.88 5.65-.58-.54-1.14-.81-1.68-.81-1.01 0-1.99-.54-2.92-1.61-.93-1.08-1.9-1.61-2.91-1.61s-1.86.4-2.56 1.21c-.7.8-1.55 1.74-2.56 2.82-.39.54-.8.4-1.23-.4-.42-.81-.64-2.56-.64-5.25s.18-4.3.53-4.84c.35-.53.52-2.96.52-7.26 0-1.61-.44-9.68-1.34-24.2-.89-14.52-2.02-31.86-3.38-52.03-1.35-20.16-2.85-41.54-4.48-64.12-1.63-22.59-3.19-43.29-4.66-62.12l-4.66 33.08v120.99c0 6.99.12 13.72.35 20.17s.49 12.23.76 17.34.52 9.55.75 13.31c.24 3.77.35 6.46.35 8.07 0 3.76-.38 5.65-1.16 5.65-1.09 0-2.18-.41-3.26-1.21-1.09-.81-2.18-1.21-3.26-1.21-1.09 0-2.22.4-3.38 1.21-1.17.8-2.29 1.21-3.38 1.21-.54 0-.81-1.89-.81-5.65 0-1.61.05-3.09.17-4.44.12-1.34.25-2.55.41-3.63.77-6.45 1.3-15.73 1.57-27.83s.41-22.18.41-30.25v-396.87c0-10.21-.06-20.03-.18-29.44-.11-9.41-.56-18.69-1.34-27.83-.15-2.15-.33-4.17-.52-6.05s-.29-4.17-.29-6.85c0-2.16.37-4.31 1.1-6.46.74-2.15 1.23-3.76 1.46-4.84l5.24-20.16c.39-1.62.84-3.9 1.34-6.86.51-2.96 1.03-5.92 1.57-8.87.55-2.96 1.07-5.65 1.58-8.07.5-2.42.95-3.63 1.34-3.63h.35c.15 0 .35.27.58.81.23.53.35 1.61.35 3.22 0 3.77-.12 8.07-.35 12.91s-.43 9.14-.58 12.91c-.39 10.75-.68 21.37-.88 31.86-.19 10.48-.29 21.11-.29 31.86v235.54h.35c.47-3.22 1.48-9.95 3.03-20.16 1.55-10.22 3.14-21.11 4.77-32.67 1.64-11.57 3.09-22.45 4.37-32.67s1.92-16.67 1.92-19.36c-.15-1.08-.38-2.42-.69-4.04-.31-1.61-.47-3.22-.47-4.84 0-3.76.17-6.05.52-6.85.35-.81.8-1.21 1.34-1.21 1.17 0 2.14.54 2.91 1.61.78 1.08 1.75 1.61 2.92 1.61.85 0 1.63-.26 2.33-.8s1.47-.81 2.33-.81h2.79c1.01 0 1.52 2.15 1.52 6.45 0 3.23-.12 4.84-.35 4.84-.24 0-.7 1.08-1.4 3.23-.55 1.61-1.51 7.4-2.91 17.34-1.4 9.95-2.9 20.98-4.49 33.08s-3.12 23.79-4.6 35.09c-1.47 11.29-2.56 19.36-3.26 24.19.39 8.07 1.03 18.29 1.92 30.66.9 12.37 1.9 25.54 3.03 39.52 1.13 13.99 2.27 28.51 3.44 43.56 1.16 15.06 2.21 29.58 3.14 43.56.24 4.3.68 11.29 1.34 20.97s1.38 19.77 2.16 30.25c.77 10.49 1.53 20.17 2.27 29.04.73 8.88 1.34 14.39 1.8 16.54.31 1.08.53 1.75.64 2.02.12.27.18 1.74.18 4.43z"/><path d="m9302.92 2893.13-33.78 96.8c.94 18.82 2.37 34.28 4.31 46.38s4.39 18.15 7.34 18.15c3.03 0 5.61-6.72 7.75-20.16 2.13-13.45 3.32-30.66 3.55-51.63 0-2.69.12-4.03.35-4.03s.87 2.15 1.92 6.45 2.14 9.28 3.26 14.92c1.13 5.65 2.14 10.9 3.03 15.73.89 4.84 1.34 7.53 1.34 8.07 0 2.69-.08 4.97-.23 6.86-.16 1.88-.31 3.9-.47 6.05-2.25 30.65-4.97 53.1-8.15 67.35-3.19 14.25-7.3 21.38-12.35 21.38-4.04 0-7.55-5.78-10.54-17.34-2.99-11.57-5.48-26.89-7.46-45.98s-3.45-40.6-4.42-64.53c-.97-23.94-1.46-48.27-1.46-73.01 0-24.73.55-49.2 1.63-73.4 1.09-24.2 2.68-45.58 4.78-64.13s4.7-33.61 7.8-45.17c3.11-11.56 6.68-17.34 10.72-17.34 3.26 0 6.25 4.16 8.97 12.5 2.72 8.33 5.01 19.63 6.87 33.88s3.28 30.92 4.25 50.01 1.34 39.66 1.11 61.71zm-11.3-38.72c-.54-18.82-1.69-34.14-3.43-45.97-1.75-11.83-3.98-17.75-6.7-17.75-2.56 0-4.74 4.03-6.52 12.1-1.79 8.07-3.23 18.42-4.31 31.06-1.09 12.63-1.89 26.62-2.39 41.94-.51 15.33-.76 30.52-.76 45.58z"/><path d="m9345.32 2802.79c0 1.08-.19 2.42-.58 4.03-.39 1.62-.84 2.96-1.34 4.04-.5 1.07-1.01 2.15-1.51 3.22-.51 1.08-.84 1.62-.99 1.62-.39.53-.86 1.74-1.4 3.63-.55 1.88-1.11 3.76-1.69 5.64s-1.13 3.5-1.63 4.84c-.51 1.35-.92 2.02-1.23 2.02-.15 0-.27-.27-.35-.81-.15-2.15-.21-4.3-.17-6.45s.02-4.57-.06-7.26c-.23-6.45-.62-11.43-1.16-14.92-.55-3.5-1.17-5.65-1.87-6.46-.69-.8-1.43-.54-2.21.81-.78 1.34-1.44 3.36-1.98 6.05-1.79 8.07-2.99 19.36-3.61 33.88s-.93 29.58-.93 45.17v186.34c0 9.14.35 17.47 1.05 25 .69 7.53 1.04 14.25 1.04 20.17 0 4.3-.31 6.45-.93 6.45h-12.11c-.39 0-.84-.27-1.34-.8-.51-.54-.76-2.69-.76-6.46 0-1.61.14-4.16.41-7.66s.56-7.53.87-12.1.6-9.68.88-15.33c.27-5.64.4-11.42.4-17.34v-283.13c0-10.22-.35-18.82-1.04-25.82-.7-6.99-1.05-11.83-1.05-14.52 0-4.3.19-6.45.58-6.45 1.09 0 2.15.27 3.2.81s2.12.8 3.21.8c.93 0 1.86-.53 2.79-1.61.93-1.07 1.87-1.61 2.8-1.61h.99c.42 0 .68 1.34.75 4.03-.46 4.3-.83 7.66-1.1 10.08s-.47 4.57-.58 6.46c-.12 1.88-.18 4.3-.18 7.26v18.95h.35c1.01-13.98 2.54-25.54 4.6-34.68s3.94-13.71 5.65-13.71c3.88 0 6.74 5.64 8.56 16.93 1.83 11.3 2.93 25.55 3.32 42.76.08 2.69.16 5.24.23 7.66.08 2.42.12 5.24.12 8.47z"/><path d="m9364.42 2621.29c0 11.83-.64 22.05-1.92 30.66-1.28 8.6-2.81 12.9-4.6 12.9s-3.18-4.84-4.19-14.52-1.52-20.43-1.52-32.26.49-21.51 1.46-29.04 2.35-11.29 4.13-11.29c1.79 0 3.34 4.3 4.66 12.9s1.98 18.82 1.98 30.65zm1.05 112.93c0 1.08-.4 7-1.22 17.75-.82 10.76-1.22 26.08-1.22 45.98v256.51c0 19.36.37 33.21 1.1 41.55.74 8.33 1.11 14.11 1.11 17.34 0 3.76-.39 5.65-1.16 5.65-.94 0-1.77-.41-2.51-1.21-.74-.81-2.08-1.21-4.02-1.21-1.78 0-3.08.4-3.9 1.21-.82.8-1.77 1.21-2.85 1.21-.55 0-.82-1.89-.82-5.65 0-2.69.2-5.38.58-8.07.39-3.22.7-7.39.94-12.5.23-5.11.42-10.49.58-16.13.15-5.65.27-11.16.35-16.54.07-5.38.11-10.22.11-14.52v-244.41c0-2.69-.02-6.46-.05-11.3-.04-4.84-.1-9.95-.18-15.32-.08-5.38-.17-10.36-.29-14.93s-.25-7.93-.41-10.08c-.15-2.69-.35-5.24-.58-7.66s-.35-4.98-.35-7.67c0-2.15.14-3.49.41-4.03s.52-.81.75-.81c1.09 0 2.1.41 3.03 1.21.94.81 1.98 1.21 3.15 1.21 1.01 0 2.09-.26 3.26-.8 1.16-.54 2.14-.81 2.91-.81h.82c.31 0 .46 1.35.46 4.03z"/><path d="m9472.75 2837.47c0 7-.21 14.39-.64 22.19s-1.26 11.7-2.5 11.7c-.55 0-1.05-.95-1.52-2.83-.46-1.88-.99-3.76-1.57-5.64-.58-1.89-1.22-3.77-1.92-5.65s-1.52-2.83-2.45-2.83c-1.32 0-2.48 3.1-3.49 9.28-1.01 6.19-1.89 13.58-2.62 22.18-.74 8.61-1.36 17.75-1.87 27.43-.5 9.68-.91 18.02-1.22 25.01-.54 10.21-1.03 20.43-1.46 30.65-.42 10.22-.87 20.43-1.34 30.65-2.09 46.79-5.35 79.46-9.78 98.01s-10.06 27.83-16.89 27.83c-4.04 0-7.75-4.71-11.12-14.12-3.38-9.41-6.27-22.45-8.68-39.12s-4.29-36.57-5.65-59.69c-1.36-23.13-2.04-48.67-2.04-76.63 0-34.96 1.32-65.21 3.96-90.75s6.29-44.5 10.95-56.87v-2.42c-2.33-7.53-4.06-18.42-5.18-32.67-1.13-14.25-1.69-29.98-1.69-47.19 0-16.13.58-30.92 1.74-44.36 1.17-13.45 2.66-25.01 4.49-34.69 1.82-9.68 3.84-17.07 6.06-22.18 2.21-5.11 4.4-7.67 6.58-7.67 3.26 0 6.25 2.56 8.97 7.67s5.43 13.04 8.15 23.79c.23 1.08.54 2.15.93 3.23s.58 2.96.58 5.65c0 .53-.02 1.07-.05 1.61-.04.54-.06 1.08-.06 1.61-.24 1.62-.64 5.38-1.23 11.3-.58 5.91-1.2 11.96-1.86 18.15-.66 6.18-1.28 11.69-1.86 16.53s-.99 7.26-1.22 7.26c-.16 0-.51-1.75-1.05-5.24-.55-3.5-1.28-7.26-2.22-11.29-.93-4.04-2.05-7.8-3.38-11.3-1.32-3.49-2.83-5.24-4.54-5.24-2.33 0-4.44 4.44-6.35 13.31-1.9 8.87-2.85 22.45-2.85 40.74 0 14.51.68 25.14 2.04 31.86s2.83 11.56 4.43 14.52c1.59 2.95 3.06 5.11 4.42 6.45 1.36 1.35 2.04 3.63 2.04 6.86 0 3.22-.15 7.79-.47 13.71-.31 5.91-.7 11.83-1.16 17.75-.47 5.91-.97 11.02-1.51 15.32-.55 4.3-1.05 6.46-1.52 6.46-2.17 0-4.23 2.95-6.17 8.87-1.94 5.91-3.67 13.98-5.19 24.2-1.51 10.22-2.71 22.05-3.61 35.49-.89 13.44-1.34 27.7-1.34 42.75 0 17.75.47 33.88 1.4 48.4s2.21 27.02 3.85 37.51c1.63 10.49 3.53 18.55 5.7 24.2 2.18 5.65 4.51 8.47 6.99 8.47 1.79 0 3.61-1.88 5.48-5.65 1.86-3.76 3.55-9.27 5.06-16.53 1.52-7.26 2.76-16.14 3.73-26.62.97-10.49 1.46-22.72 1.46-36.7 0-9.68-.14-19.5-.41-29.45s-.76-18.82-1.46-26.62c-.7-7.79-1.61-14.25-2.73-19.36-1.13-5.1-2.51-7.66-4.14-7.66-.85 0-1.61 1.21-2.27 3.63s-1.24 4.97-1.75 7.66c-.5 2.69-.99 5.25-1.45 7.67-.47 2.42-.9 3.63-1.29 3.63-.62 0-.99-1.89-1.1-5.65-.12-3.76-.18-6.99-.18-9.68 0-9.68.29-18.69.88-27.02.58-8.34 1.36-15.6 2.33-21.78.97-6.19 2.07-10.89 3.32-14.12 1.24-3.22 2.56-4.84 3.96-4.84 2.09 0 3.78 2.83 5.06 8.47 1.29 5.65 2.39 11.83 3.32 18.55.93 6.73 1.79 12.91 2.57 18.56.77 5.64 1.63 8.47 2.56 8.47.78 0 1.28-2.15 1.51-6.46.23-4.3.43-8.33.59-12.09.46-10.76 1.1-21.52 1.92-32.27.81-10.76 1.8-20.3 2.97-28.64 1.16-8.33 2.5-15.19 4.02-20.57 1.51-5.37 3.16-8.06 4.95-8.06 2.64 0 4.81 5.91 6.52 17.74s2.56 26.89 2.56 45.17z"/><path d="m9545.9 2943.95c0 23.13-.41 45.44-1.22 66.96-.82 21.5-2.08 40.46-3.79 56.86-1.71 16.41-3.82 29.58-6.34 39.53-2.53 9.95-5.5 14.92-8.92 14.92-2.95 0-5.86-.94-8.73-2.82-2.88-1.88-5.75-2.82-8.62-2.82-1.09 0-2.21.4-3.38 1.21-1.16.8-2.29 1.21-3.38 1.21-.54 0-.81-1.89-.81-5.65 0-1.61.05-3.09.17-4.44.12-1.34.25-2.55.41-3.63.78-7.53 1.3-16.8 1.57-27.83.27-11.02.41-21.1.41-30.25v-400.9c0-9.14-.08-18.28-.23-27.43-.16-9.14-.59-17.74-1.28-25.81-.16-2.15-.33-4.17-.53-6.05-.19-1.88-.29-4.17-.29-6.85 0-2.16.37-4.31 1.11-6.46.73-2.15 1.22-3.76 1.45-4.84l5.24-20.16c.94-3.77 1.93-9.28 2.98-16.54 1.04-7.26 2.11-10.89 3.2-10.89.15 0 .35.27.58.81.23.53.35 1.61.35 3.22 0 4.31-.12 8.61-.35 12.91s-.43 8.6-.58 12.91c-.39 10.75-.68 21.37-.88 31.86-.19 10.48-.29 21.11-.29 31.86v97.61c1.63 4.83 3.44 10.21 5.42 16.13 1.98 5.91 4 12.1 6.06 18.55 2.05 6.45 4.03 13.31 5.94 20.57 1.9 7.26 3.55 14.92 4.95 22.99 3.65 19.9 6.19 42.35 7.63 67.36 1.43 25 2.15 53.64 2.15 85.9zm-11.41-.8c0-31.73-.84-57.68-2.51-77.85-1.67-20.16-4.6-36.97-8.79-50.41-1.55-4.84-3.13-8.74-4.72-11.7-1.59-2.95-3.16-6.58-4.72-10.89v230.7c0 8.61.29 15.73.88 21.38.58 5.65 1.53 8.47 2.85 8.47h5.47c2.1 0 3.89-3.63 5.36-10.89 1.48-7.26 2.66-16.27 3.56-27.02.89-10.76 1.55-22.59 1.98-35.49.42-12.91.64-25.01.64-36.3z"/><path d="m9598.32 2735.03c0 3.23-.43 9.55-1.28 18.96-.86 9.41-1.28 20.57-1.28 33.47v281.52c0 69.38-2.47 122.75-7.4 160.12-4.93 37.38-12.52 56.06-22.77 56.06-.62 0-1.03-1.74-1.23-5.24-.19-3.49-.33-7.66-.4-12.5-.08-4.84-.08-9.81 0-14.92.07-5.11.11-9.01.11-11.7v-18.96c0-6.72.08-13.04.24-18.95.15 0 .25-.14.29-.41.04-.26.13-.4.29-.4.39 0 1.01 2.02 1.86 6.05.86 4.03 1.71 6.05 2.57 6.05 9.31 0 14.67-31.73 16.07-95.18.08-3.77.12-8.34.12-13.72 0-5.37-.04-10.48-.12-15.32s-.12-9.01-.12-12.51c0-3.49.04-5.24.12-5.24h-.35c-1.24 15.06-3.13 26.89-5.65 35.49-2.52 8.61-4.99 12.91-7.4 12.91-1.94 0-3.92-2.15-5.94-6.45-2.02-4.31-3.84-10.63-5.47-18.96-1.63-8.34-2.97-18.42-4.02-30.25s-1.57-25.27-1.57-40.33v-237.96c0-10.22-.35-19.9-1.05-29.04-.7-9.15-1.05-16.67-1.05-22.59 0-3.76.25-5.91.76-6.45.5-.54.95-.81 1.34-.81.93 0 1.82.67 2.68 2.02.85 1.34 1.74 2.01 2.67 2.01.94 0 1.87-.67 2.8-2.01.93-1.35 1.87-2.02 2.8-2.02.39 0 .85.27 1.39.81.55.54.82 2.69.82 6.45 0 .54-.14 2.69-.41 6.45-.27 3.77-.58 8.47-.93 14.12s-.66 11.97-.93 18.96-.41 13.98-.41 20.97v212.15c0 8.6.31 15.86.93 21.78.62 5.91 1.4 10.62 2.33 14.11.93 3.5 1.96 6.05 3.09 7.67 1.12 1.61 2.19 2.42 3.2 2.42.93 0 2-1.35 3.21-4.04 1.2-2.69 2.33-6.45 3.37-11.29 1.05-4.84 1.92-10.49 2.62-16.94s1.05-13.44 1.05-20.97v-221.02c0-9.14-.35-17.62-1.05-25.41-.7-7.8-1.04-14.39-1.04-19.77 0-4.3.31-6.45.93-6.45h12.11c.39 0 .84.27 1.34.81.51.54.76 2.69.76 6.45z"/><path d="m9648.87 2735.84c0 10.75-.08 21.11-.23 31.05-.16 9.95-.23 20.3-.23 31.06v271.03c0 70.45-2.51 124.09-7.52 160.93s-12.56 55.25-22.65 55.25c-1.01 0-1.52-3.49-1.52-10.48 0-3.77-.02-9.01-.06-15.73s-.05-13.71-.05-20.97.01-14.12.05-20.57c.04-6.46.14-11.3.29-14.52.16-.54.36-.81.59-.81.39 0 1.01 2.02 1.86 6.05.86 4.03 1.71 6.05 2.56 6.05 4.82 0 8.49-7.8 11.01-23.39 2.53-15.6 4.21-39.53 5.07-71.79-2.02 1.07-4.04 1.88-6.06 2.41-2.02.54-4.04.81-6.06.81-3.57 0-6.64-5.24-9.2-15.73-2.56-10.48-4.66-24.2-6.29-41.14s-2.83-36.03-3.61-57.27c-.77-21.24-1.16-42.62-1.16-64.13 0-31.73.72-60.23 2.15-85.5 1.44-25.28 3.98-47.86 7.63-67.76 1.94-10.76 4.14-20.17 6.58-28.23 2.45-8.07 4.97-14.66 7.57-19.77 2.6-5.1 5.15-9 7.63-11.69 2.49-2.69 4.74-4.03 6.76-4.03h1.11c.5 0 1.04.26 1.63.8.58.54 1.08 1.48 1.51 2.82.43 1.35.64 3.1.64 5.25zm-11.06 65.34c-3.03 4.3-5.83 9.68-8.39 16.13s-4.76 15.06-6.58 25.81c-1.83 10.76-3.24 24.34-4.25 40.74s-1.52 36.16-1.52 59.29c0 12.36.24 24.6.7 36.7.47 12.1 1.16 23.12 2.1 33.07.93 9.95 2.11 18.02 3.55 24.2s3.16 9.28 5.18 9.28h5.48c1.32 0 2.27-2.83 2.85-8.47.58-5.65.88-12.77.88-21.38z"/><path d="m9701.06 2735.84c0 10.75-.08 21.11-.24 31.05-.15 9.95-.23 20.3-.23 31.06v271.03c0 70.45-2.51 124.09-7.51 160.93-5.01 36.84-12.57 55.25-22.66 55.25-1.01 0-1.51-3.49-1.51-10.48 0-3.77-.02-9.01-.06-15.73s-.06-13.71-.06-20.97.02-14.12.06-20.57c.04-6.46.13-11.3.29-14.52.15-.54.35-.81.58-.81.39 0 1.01 2.02 1.87 6.05.85 4.03 1.7 6.05 2.56 6.05 4.81 0 8.48-7.8 11.01-23.39 2.52-15.6 4.21-39.53 5.06-71.79-2.02 1.07-4.04 1.88-6.05 2.41-2.02.54-4.04.81-6.06.81-3.57 0-6.64-5.24-9.2-15.73-2.57-10.48-4.66-24.2-6.29-41.14s-2.84-36.03-3.61-57.27c-.78-21.24-1.17-42.62-1.17-64.13 0-31.73.72-60.23 2.16-85.5 1.43-25.28 3.98-47.86 7.62-67.76 1.95-10.76 4.14-20.17 6.59-28.23 2.44-8.07 4.97-14.66 7.57-19.77 2.6-5.1 5.14-9 7.63-11.69 2.48-2.69 4.73-4.03 6.75-4.03h1.11c.5 0 1.05.26 1.63.8s1.09 1.48 1.51 2.82c.43 1.35.65 3.1.65 5.25zm-11.07 65.34c-3.03 4.3-5.82 9.68-8.39 16.13-2.56 6.45-4.75 15.06-6.58 25.81-1.82 10.76-3.24 24.34-4.25 40.74s-1.51 36.16-1.51 59.29c0 12.36.23 24.6.69 36.7.47 12.1 1.17 23.12 2.1 33.07s2.12 18.02 3.55 24.2c1.44 6.18 3.17 9.28 5.19 9.28h5.47c1.32 0 2.27-2.83 2.85-8.47.59-5.65.88-12.77.88-21.38z"/><path d="m9755.8 3112.54c0 3.77-.25 5.92-.76 6.46-.5.53-.95.8-1.34.8-.93 0-1.82-.67-2.68-2.01-.85-1.35-1.74-2.02-2.67-2.02-.94 0-1.87.67-2.8 2.02-.93 1.34-1.86 2.01-2.79 2.01-.39 0-.86-.27-1.4-.8-.55-.54-.82-2.69-.82-6.46 0-1.07.14-3.09.41-6.05s.58-6.99.93-12.1.66-11.16.93-18.15c.28-6.99.41-15.05.41-24.2v-212.15c0-8.06-.31-15.05-.93-20.97-.62-5.91-1.4-10.75-2.33-14.52-.93-3.76-1.96-6.45-3.09-8.06-1.12-1.62-2.19-2.42-3.2-2.42-.93 0-2 1.34-3.2 4.03-1.21 2.69-2.33 6.45-3.38 11.29s-1.92 10.49-2.62 16.94c-.7 6.46-1.05 13.45-1.05 20.98v221.02c0 9.14.35 17.74 1.05 25.81s1.05 14.52 1.05 19.36c0 4.3-.32 6.45-.94 6.45-1.08 0-2.15-.27-3.2-.8-1.05-.54-2.12-.81-3.2-.81-.93 0-1.89.27-2.86.81-.97.53-1.92.8-2.85.8-.39 0-.83-.27-1.34-.8-.5-.54-.76-2.69-.76-6.46 0-3.76.43-9.95 1.28-18.55.86-8.6 1.29-19.9 1.29-33.88v-283.13c0-12.37-.35-21.38-1.05-27.03-.7-5.64-1.05-10.08-1.05-13.31 0-4.3.19-6.45.58-6.45 1.09 0 2.16.27 3.2.81 1.05.54 2.12.8 3.21.8.93 0 1.86-.53 2.79-1.61.94-1.07 1.87-1.61 2.8-1.61.15 0 .5.13 1.05.4.54.27.77 1.48.7 3.63-.55 4.84-.95 8.34-1.23 10.49-.27 2.15-.44 4.43-.52 6.85s-.12 5.38-.12 8.88v16.53h.35c1.25-15.05 3.15-26.89 5.71-35.49s5.01-12.9 7.34-12.9c2.02 0 4.04 2.28 6.06 6.85 2.01 4.57 3.84 11.03 5.47 19.36 1.63 8.34 2.95 18.42 3.96 30.25s1.51 25.01 1.51 39.53v237.96c0 10.21.35 19.89 1.05 29.04.7 9.14 1.05 16.67 1.05 22.58z"/><path d="m9806.35 3113.35c0 2.69-.13 4.3-.4 4.84-.28.54-.53.81-.76.81-1.09 0-2.18-.41-3.26-1.21-1.09-.81-2.18-1.21-3.26-1.21-.86 0-1.73.26-2.62.8-.9.54-1.77 1.08-2.63 1.62v-3.23c0-2.69.02-4.97.06-6.86.04-1.88.06-4.17.06-6.85l-.23-1.62c-.7 1.08-1.42 2.83-2.16 5.25-.73 2.42-1.53 4.97-2.39 7.66-.85 2.69-1.82 5.11-2.91 7.26-1.08 2.15-2.33 3.23-3.72 3.23-2.8 0-5.38-1.75-7.75-5.25-2.37-3.49-4.41-9.54-6.12-18.15-1.7-8.6-3.04-20.3-4.01-35.09-.98-14.78-1.46-33.47-1.46-56.06s.76-41.27 2.27-56.06c1.52-14.79 3.42-27.29 5.71-37.51s4.77-18.82 7.45-25.81 5.17-13.58 7.46-19.77c2.29-6.18 4.19-12.63 5.71-19.36 1.51-6.72 2.27-15.19 2.27-25.4 0-7.53-.18-13.99-.53-19.36-.35-5.38-1.18-8.07-2.5-8.07h-16.43c-1.24 0-2.05 2.29-2.44 6.86s-.78 6.85-1.17 6.85c-.15 0-.23-.8-.23-2.42v-67.76c0-3.76.08-6.58.23-8.47.16-1.88.55-2.82 1.17-2.82h18.87c1.86 0 3.63.54 5.3 1.61 1.67 1.08 3.1 3.9 4.31 8.47 1.2 4.58 2.15 11.3 2.85 20.17s1.05 21.38 1.05 37.51v256.51c0 10.76.37 21.38 1.11 31.87.74 10.48 1.1 19.49 1.1 27.02zm-12.34-195.21c0-2.15-.08-3.23-.24-3.23-.93 3.77-2.48 7.8-4.66 12.1-2.17 4.31-4.4 10.09-6.69 17.35s-4.29 16.26-6 27.02c-1.71 10.75-2.57 24.2-2.57 40.33 0 10.76.26 19.23.76 25.41.51 6.18 1.21 10.89 2.1 14.12.89 3.22 1.9 5.24 3.03 6.05 1.12.8 2.27 1.21 3.43 1.21.78 0 1.79-1.08 3.03-3.23s2.45-5.11 3.61-8.87c1.17-3.77 2.16-8.47 2.97-14.12.82-5.65 1.23-11.7 1.23-18.15z"/><path d="m9858.54 3113.35c0 3.76-.28 5.65-.82 5.65-1.08 0-2.21-.41-3.38-1.21-1.16-.81-2.29-1.21-3.37-1.21-2.88 0-5.75.94-8.62 2.82-2.88 1.88-5.79 2.82-8.74 2.82-3.42 0-6.39-4.97-8.91-14.92s-4.64-23.12-6.35-39.53c-1.71-16.4-2.97-35.36-3.78-56.86-.82-21.52-1.23-43.83-1.23-66.96 0-32.26.72-60.9 2.16-85.9 1.43-25.01 3.98-47.46 7.63-67.36 1.39-8.07 3.05-15.73 4.95-22.99s3.88-14.12 5.94-20.57 4.07-12.64 6.06-18.55c1.98-5.92 3.78-11.3 5.41-16.13v-77.44c0-5.92-.02-10.76-.06-14.52-.04-3.77-.11-6.99-.23-9.68s-.29-5.25-.52-7.67c-.24-2.42-.51-5.78-.82-10.08-.16-2.15-.33-4.17-.52-6.05-.2-1.88-.29-4.17-.29-6.85 0-2.16.36-4.31 1.1-6.46s1.23-3.76 1.46-4.84l5.24-20.16c.93-3.77 1.92-9.28 2.97-16.54s2.12-10.89 3.2-10.89c.16 0 .35.27.58.81.24.53.35 1.61.35 3.22 0 4.31-.11 8.61-.35 12.91-.23 4.3-.42 8.6-.58 12.91-.38 10.75-.66 21.77-.81 33.07-.16 11.29-.23 21.51-.23 30.65v432.36c0 9.15.13 19.23.4 30.25.27 11.03.8 20.3 1.57 27.83.16 1.08.3 2.29.41 3.63.12 1.35.18 2.83.18 4.44zm-13.05-322.66c-1.55 4.3-3.14 7.8-4.77 10.49s-3.19 6.72-4.66 12.1c-2.26 8.06-4.12 16.53-5.59 25.4-1.48 8.88-2.64 18.42-3.5 28.64-.85 10.22-1.44 21.51-1.75 33.88s-.46 26.35-.46 41.95c0 11.29.21 23.39.64 36.3.43 12.9 1.09 24.73 1.98 35.49.89 10.75 2.08 19.76 3.55 27.02 1.48 7.26 3.26 10.89 5.36 10.89h5.47c1.32 0 2.27-2.82 2.86-8.47.58-5.65.87-12.77.87-21.38z"/><path d="m9910.49 3006.07c0 20.97-.68 38.85-2.04 53.64-1.36 14.78-3.13 27.02-5.3 36.7s-4.6 16.81-7.28 21.38-5.3 6.85-7.86 6.85c-4.43 0-8.37-4.3-11.83-12.9-3.45-8.61-6.42-18.83-8.91-30.66-.31-1.07-.58-2.15-.81-3.22-.23-1.08-.35-2.96-.35-5.65 0-3.23.27-6.32.81-9.28.55-2.95 1.28-9.81 2.22-20.57.46-5.37.83-11.16 1.1-17.34s.72-9.28 1.34-9.28c.39 0 .82 1.75 1.28 5.25.47 3.49.82 6.05 1.05 7.66 1.71 10.76 3.94 19.09 6.7 25.01 2.76 5.91 5.26 8.87 7.51 8.87 1.25 0 2.55-1.08 3.91-3.23 1.35-2.15 2.56-5.64 3.61-10.48 1.04-4.84 1.92-11.03 2.62-18.56.7-7.52 1.05-16.4 1.05-26.62 0-15.05-.63-27.96-1.87-38.71-1.24-10.76-2.81-20.57-4.72-29.45-1.9-8.87-3.96-17.2-6.17-25s-4.27-16.4-6.17-25.82c-1.9-9.41-3.48-20.3-4.72-32.67-1.24-12.36-1.86-27.42-1.86-45.17 0-15.59.5-28.5 1.51-38.72 1.01-10.21 2.35-18.42 4.02-24.6s3.53-10.49 5.59-12.91 4.14-3.62 6.23-3.62c.86 0 2.04.94 3.55 2.82 1.52 1.88 3.03 4.3 4.55 7.26 1.51 2.96 2.85 6.45 4.02 10.48 1.16 4.04 1.78 8.21 1.86 12.51-.47 6.45-1.13 12.64-1.98 18.55-.47 3.76-.82 6.99-1.05 9.68s-.54 6.18-.93 10.49c-.47 4.84-1.01 8.33-1.63 10.48-1.55-5.37-3.17-9.81-4.84-13.31-1.67-3.49-3.39-5.24-5.18-5.24-.85 0-1.76 1.88-2.74 5.65-.97 3.76-1.45 9.14-1.45 16.13 0 5.38.62 11.29 1.86 17.75 1.24 6.45 2.8 13.57 4.66 21.37s3.88 16.54 6.06 26.22c2.17 9.68 4.19 20.7 6.06 33.07 1.86 12.37 3.41 26.49 4.65 42.35 1.25 15.86 1.87 33.47 1.87 52.84z"/><path d="m9960.69 2737.45c0 2.69-.25 5.51-.76 8.47-.5 2.96-.87 6.86-1.1 11.7-1.32 29.04-2.9 62.51-4.72 100.43-1.83 37.91-3.59 76.49-5.3 115.75l-2.8 64.53c-.07 1.61-.21 5.65-.4 12.1-.2 6.45-.41 13.04-.64 19.76-.24 6.72-.43 12.91-.59 18.56-.15 5.64-.23 8.74-.23 9.27 0 3.23.1 6.46.29 9.68.2 3.23.29 6.46.29 9.68 0 3.23-.31 4.84-.93 4.84-1.09 0-2.17-.67-3.26-2.01-1.09-1.35-2.17-2.02-3.26-2.02-.93 0-1.85.4-2.74 1.21s-1.8 1.21-2.74 1.21c-.15 0-.42-.14-.81-.4-.39-.27-.58-1.75-.58-4.44 0-4.3.09-8.2.29-11.7.19-3.49.29-7.39.29-11.69 0-7.53-.27-19.23-.82-35.09-.54-15.87-1.26-33.88-2.15-54.05-.9-20.16-1.87-41.54-2.91-64.13-1.05-22.58-2.08-44.5-3.09-65.74s-1.92-40.87-2.74-58.88c-.81-18.02-1.42-32.4-1.8-43.16-.08-2.15-.24-4.97-.47-8.47-.23-3.49-.46-6.99-.7-10.49-.23-3.49-.42-6.58-.58-9.27s-.23-4.57-.23-5.65c0-5.38.39-8.07 1.16-8.07 1.09 0 2.16.41 3.2 1.21 1.05.81 2.12 1.21 3.21 1.21.85 0 1.75-.4 2.68-1.21.93-.8 1.82-1.21 2.68-1.21.15 0 .46.27.93.81.46.54.7 1.88.7 4.03 0 4.84-.22 8.74-.64 11.7-.43 2.96-.65 8.2-.65 15.73 0 2.69.14 7.93.41 15.73s.6 17.21.99 28.23c.39 11.03.86 23.13 1.4 36.3.54 13.18 1.09 26.49 1.63 39.93 1.32 31.73 2.8 66.68 4.43 104.86h.35c1.63-36.02 3.14-69.1 4.54-99.21.54-12.91 1.09-25.81 1.63-38.72s1.03-24.74 1.46-35.49c.42-10.76.77-20.31 1.05-28.64.27-8.34.4-14.12.4-17.34 0-4.31-.07-7.8-.23-10.49-.15-2.69-.35-5.11-.58-7.26-.24-2.15-.43-4.17-.58-6.05-.16-1.88-.24-4.44-.24-7.66 0-4.3.35-6.46 1.05-6.46 1.09 0 2.16.41 3.2 1.21 1.05.81 2.12 1.21 3.21 1.21.93 0 1.88-.4 2.85-1.21.97-.8 1.96-1.21 2.97-1.21.39 0 .82.27 1.28.81.47.54.7 2.96.7 7.26z"/><path d="m10002.5 2582.57c0 13.45-.3 25.95-1 37.51-.7 11.57-1.71 21.65-2.95 30.25-1.24 8.61-2.7 15.46-4.37 20.57s-3.48 7.67-5.42 7.67c-2.02 0-3.86-2.56-5.53-7.67s-3.13-12.1-4.37-20.97-2.21-19.09-2.91-30.65-1.05-23.8-1.05-36.71c0-12.36.35-24.33 1.05-35.89s1.65-21.78 2.85-30.65c1.21-8.88 2.66-16 4.37-21.38s3.57-8.07 5.59-8.07c4.12 0 7.44 8.88 9.96 26.62 2.48 17.75 3.78 40.87 3.78 69.37zm5.9 530.78c0 2.69-.1 4.3-.4 4.84-.2.54-.5.81-.7.81-1.1 0-2.2-.41-3.3-1.21-1.1-.81-2.2-1.21-3.2-1.21-.89 0-1.77.26-2.66.8s-1.77 1.08-2.62 1.62v-3.23c0-2.69.02-4.97.06-6.86.04-1.88.06-4.17.06-6.85l-.24-1.62c-.7 1.08-1.41 2.83-2.15 5.25s-1.54 4.97-2.39 7.66-1.83 5.11-2.91 7.26c-1.09 2.15-2.33 3.23-3.73 3.23-2.79 0-5.38-1.75-7.75-5.25-2.36-3.49-4.4-9.54-6.11-18.15-1.71-8.6-3.05-20.3-4.02-35.09-.97-14.78-1.46-33.47-1.46-56.06s.76-41.27 2.28-56.06c1.51-14.79 3.41-27.29 5.7-37.51s4.78-18.82 7.46-25.81 5.16-13.58 7.45-19.77c2.29-6.18 4.2-12.63 5.71-19.36 1.52-6.72 2.27-15.19 2.27-25.4 0-7.53-.17-13.99-.52-19.36-.35-5.38-1.19-8.07-2.51-8.07h-16.42c-1.24 0-2.06 2.29-2.45 6.86-.38 4.57-.77 6.85-1.16 6.85-.16 0-.23-.8-.23-2.42v-67.76c0-3.76.07-6.58.23-8.47.15-1.88.54-2.82 1.16-2.82h18.87c1.87 0 3.63.54 5.3 1.61 1.67 1.08 3.08 3.9 4.28 8.47 1.2 4.58 2.2 11.3 2.9 20.17s1 21.38 1 37.51v256.51c0 10.76.4 21.38 1.1 31.87.8 10.48 1.1 19.49 1.1 27.02zm-12.65-530.78c0-14.52-.62-26.62-1.86-36.29-1.24-9.68-2.95-14.52-5.13-14.52-1.94 0-3.59 5.24-4.95 15.73-1.36 10.48-2.04 22.18-2.04 35.08 0 11.84.63 22.99 1.87 33.48s2.99 15.73 5.24 15.73c1.94 0 3.57-4.97 4.89-14.92s1.98-21.38 1.98-34.29zm.35 335.57c0-2.15-.08-3.23-.23-3.23-.93 3.77-2.49 7.8-4.66 12.1-2.18 4.31-4.41 10.09-6.7 17.35s-4.29 16.26-6 27.02c-1.71 10.75-2.56 24.2-2.56 40.33 0 10.76.25 19.23.76 25.41.5 6.18 1.2 10.89 2.09 14.12.9 3.22 1.91 5.24 3.03 6.05 1.13.8 2.27 1.21 3.44 1.21.78 0 1.79-1.08 3.03-3.23s2.44-5.11 3.61-8.87c1.16-3.77 2.15-8.47 2.97-14.12.81-5.65 1.22-11.7 1.22-18.15z"/><path d="m10051.5 2802.79c0 1.08-.1 2.42-.5 4.03-.4 1.62-.9 2.96-1.4 4.04-.5 1.07-1 2.15-1.5 3.22-.5 1.08-.8 1.62-1 1.62-.4.53-.8 1.74-1.4 3.63-.5 1.88-1.1 3.76-1.7 5.64-.5 1.88-1.1 3.5-1.6 4.84-.5 1.35-.9 2.02-1.2 2.02-.2 0-.3-.27-.4-.81-.1-2.15-.2-4.3-.1-6.45 0-2.15 0-4.57-.1-7.26-.2-6.45-.6-11.43-1.2-14.92-.5-3.5-1.1-5.65-1.8-6.46-.7-.8-1.5-.54-2.2.81-.8 1.34-1.5 3.36-2 6.05-1.8 8.07-3 19.36-3.6 33.88-.7 14.52-1 29.58-1 45.17v186.34c0 9.14.4 17.47 1.1 25s1 14.25 1 20.17c0 4.3-.3 6.45-.9 6.45h-12.1c-.4 0-.9-.27-1.4-.8-.5-.54-.7-2.69-.7-6.46 0-1.61.1-4.16.4-7.66s.6-7.53.9-12.1.6-9.68.8-15.33c.3-5.64.4-11.42.4-17.34v-283.13c0-10.22-.3-18.82-1-25.82-.7-6.99-1-11.83-1-14.52 0-4.3.1-6.45.5-6.45 1.1 0 2.2.27 3.2.81 1.1.54 2.2.8 3.2.8s1.9-.53 2.8-1.61c1-1.07 1.9-1.61 2.8-1.61h1c.4 0 .7 1.34.8 4.03-.5 4.3-.9 7.66-1.1 10.08-.3 2.42-.5 4.57-.6 6.46-.1 1.88-.2 4.3-.2 7.26v18.95h.4c1-13.98 2.5-25.54 4.6-34.68 2-9.14 3.9-13.71 5.6-13.71 3.9 0 6.8 5.64 8.6 16.93 1.8 11.3 2.9 25.55 3.3 42.76.1 2.69.2 5.24.2 7.66.1 2.42.1 5.24.1 8.47z"/><path d="m10102.8 3113.35c0 3.76-.3 5.65-.8 5.65-1.1 0-2.2-.41-3.4-1.21-1.2-.81-2.3-1.21-3.4-1.21-2.8 0-5.7.94-8.6 2.82s-5.8 2.82-8.7 2.82c-3.4 0-6.4-4.97-8.9-14.92-2.6-9.95-4.7-23.12-6.4-39.53-1.7-16.4-3-35.36-3.8-56.86-.8-21.52-1.2-43.83-1.2-66.96 0-32.26.7-60.9 2.2-85.9 1.4-25.01 3.9-47.46 7.6-67.36 1.4-8.07 3-15.73 4.9-22.99s3.9-14.12 6-20.57c2-6.45 4.1-12.64 6-18.55 2-5.92 3.8-11.3 5.5-16.13v-77.44c0-5.92-.1-10.76-.1-14.52 0-3.77-.1-6.99-.2-9.68-.2-2.69-.3-5.25-.6-7.67-.2-2.42-.5-5.78-.8-10.08-.1-2.15-.3-4.17-.5-6.05s-.3-4.17-.3-6.85c0-2.16.4-4.31 1.1-6.46s1.2-3.76 1.5-4.84l5.2-20.16c.9-3.77 1.9-9.28 3-16.54 1-7.26 2.1-10.89 3.2-10.89.1 0 .3.27.6.81.2.53.3 1.61.3 3.22 0 4.31-.1 8.61-.3 12.91-.3 4.3-.5 8.6-.6 12.91-.4 10.75-.7 21.77-.8 33.07-.2 11.29-.3 21.51-.3 30.65v432.36c0 9.15.2 19.23.4 30.25.3 11.03.8 20.3 1.6 27.83.2 1.08.3 2.29.4 3.63.1 1.35.2 2.83.2 4.44zm-13-322.66c-1.6 4.3-3.2 7.8-4.8 10.49-1.7 2.69-3.2 6.72-4.7 12.1-2.2 8.06-4.1 16.53-5.6 25.4-1.4 8.88-2.6 18.42-3.5 28.64-.8 10.22-1.4 21.51-1.7 33.88s-.5 26.35-.5 41.95c0 11.29.2 23.39.7 36.3.4 12.9 1 24.73 1.9 35.49.9 10.75 2.1 19.76 3.6 27.02s3.3 10.89 5.4 10.89h5.4c1.3 0 2.3-2.82 2.9-8.47s.9-12.77.9-21.38z"/></g></g></g></svg>