<svg clip-rule="evenodd" fill-rule="evenodd" stroke-linejoin="round" stroke-miterlimit="2" viewBox="0 0 7128 4266" xmlns="http://www.w3.org/2000/svg"><g transform="scale(2.2275 .999844)"><path d="m0 0h3200v4266.67h-3200z" fill="#fff"/><path d="m2054.43 3444.99h-983.82v-104.31h-52.8c-.01 6.76-.01 12.85-.01 17.27 0 37.95-30.812 68.76-68.763 68.76-37.95 0-68.761-30.81-68.761-68.76s30.811-68.76 68.761-68.76c4.42 0 10.516-.01 17.269-.01v-52.8h-104.304v-983.46c-6.68-.01-12.707-.02-17.087-.02-37.95 0-68.761-30.81-68.761-68.76s30.811-68.76 68.761-68.76c37.951 0 68.762 30.81 68.762 68.76 0 4.38.005 10.41.014 17.09h983.459v104.3h52.8c.01-6.75.01-12.85.01-17.27 0-37.94 30.81-68.76 68.77-68.76 37.95 0 68.76 30.82 68.76 68.76 0 37.96-30.81 68.77-68.76 68.77-4.42 0-10.52 0-17.27.01v52.8h104.3v983.82c6.83.01 12.99.02 17.45.02 37.95 0 68.76 30.81 68.76 68.76s-30.81 68.76-68.76 68.76-68.76-30.81-68.76-68.76c0-4.46-.01-10.63-.02-17.45zm-932.06-156.06h827.33v-827.33h-52.55v774.78h-774.78zm-104.31-52.55v52.55h52.55v-52.55zm827.33-51.76v-723.02h-723.02zm-1000.475-982.96c9.666 0 17.513-7.85 17.513-17.52 0-9.66-7.847-17.51-17.513-17.51-9.665 0-17.513 7.85-17.513 17.51 0 9.67 7.848 17.52 17.513 17.52zm277.455 1139.02v52.55h931.63v-931.63h-52.54v879.08zm878.84-1052.42c0 9.67 7.85 17.52 17.52 17.52 9.66 0 17.51-7.85 17.51-17.52 0-9.66-7.85-17.51-17.51-17.51-9.67 0-17.52 7.85-17.52 17.51zm-51.51 121.58v-52.55h-52.55v52.55zm-104.31 0v-52.55h-827.33v827.33h52.55v-774.78zm-931.631-156.83v931.61h52.547v-879.09h879.084v-52.54s-728.85 0-931.605 0v.02zm52.791 1104.94c0-9.66-7.847-17.51-17.513-17.51-9.665 0-17.513 7.85-17.513 17.51 0 9.67 7.848 17.52 17.513 17.52 9.666 0 17.513-7.85 17.513-17.52zm1156.66 86.98c-9.66 0-17.51 7.84-17.51 17.51s7.85 17.51 17.51 17.51c9.67 0 17.51-7.84 17.51-17.51s-7.84-17.51-17.51-17.51z" transform="matrix(.210453 .468857 -.210453 .468857 1272.01 -51.38)"/><g fill-rule="nonzero"><g transform="matrix(.987036 0 0 .780721 -7552.56958 -401.306)"><path d="m9183.96 3132.79c0 1.66-.93 2.77-2.8 3.32s-3.93.97-6.19 1.25c-2.27.27-4.38.27-6.35 0-1.96-.28-3.14-.42-3.54-.42-1.96 0-4.47.55-7.52 1.66s-6.83 1.66-11.36 1.66c-.59 0-1.27-.14-2.06-.41-.79-.28-1.18-1.8-1.18-4.57 0-1.66.34-4.85 1.03-9.56s1.38-10.24 2.07-16.61 1.37-12.88 2.06-19.53 1.04-12.74 1.04-18.28v-3.32c0-25.48-.45-51.1-1.33-76.86-.89-25.75-1.63-51.37-2.22-76.85-.98-43.21-1.96-86-2.94-128.37-.99-42.37-2.07-85.16-3.25-128.37 0-1.11-.05-3.6-.15-7.48-.1-3.87-.54-5.81-1.33-5.81-.39 0-1.62 2.63-3.68 7.89-2.07 5.26-4.58 11.77-7.52 19.53-2.96 7.75-6.05 16.34-9.3 25.75-3.24 9.42-6.29 18-9.14 25.76-2.85 7.75-5.31 14.26-7.38 19.53-2.06 5.26-3.29 7.89-3.68 7.89-.4 0-2.51-5.26-6.35-15.79-3.83-10.52-8.11-22.16-12.83-34.89-4.72-12.75-9.04-24.38-12.98-34.9-3.93-10.52-6.19-15.79-6.78-15.79-.79 0-1.28 1.8-1.48 5.4-.19 3.6-.29 5.96-.29 7.06-.79 23.27-1.62 49.44-2.51 78.52-.88 29.08-1.77 58.85-2.66 89.32-.88 30.47-1.71 60.24-2.5 89.32s-1.53 55.25-2.21 78.52c-.69 23.26-1.23 42.51-1.63 57.74-.39 15.23-.59 23.68-.59 25.34v4.16c0 13.29.79 23.95 2.36 31.98 1.58 8.04 2.56 15.1 2.95 21.19-.39 1.66-1.08 2.49-2.06 2.49-2.75 0-5.9-.55-9.44-1.66s-6.79-1.66-9.74-1.66h-19.47c-.78 0-1.18-.83-1.18-2.49 0-1.11.3-2.77.89-4.99.59-2.21.98-3.6 1.18-4.15 4.72-17.17 7.37-37.39 7.96-60.65 1.38-50.41 2.66-100.4 3.84-149.98 1.18-49.57 2.46-99.56 3.83-149.97.59-25.48 1.28-51.37 2.07-77.68s1.47-51.93 2.06-76.86c0-1.11.05-2.49.15-4.15s.15-3.05.15-4.16c0-8.31-.79-14.26-2.36-17.86s-2.36-7.62-2.36-12.05c0-4.98.98-7.48 2.95-7.48 3.34 0 6.69.56 10.03 1.67 3.34 1.1 6.69 1.66 10.03 1.66s6.68-.56 10.03-1.66c3.34-1.11 6.68-1.67 10.03-1.67 2.16 0 3.24 3.61 3.24 10.81 0 8.3 1.33 15.78 3.99 22.43 2.65 6.65 4.57 11.63 5.75 14.95.19 1.11 1.13 3.74 2.8 7.9 1.67 4.15 3.44 8.58 5.31 13.29s3.64 9 5.31 12.88 2.7 5.82 3.1 5.82c.39 0 1.86-2.91 4.42-8.73 2.56-5.81 5.21-12.6 7.97-20.35 3.34-8.31 6.98-18.01 10.91-29.08 1.18-2.77 2.16-5.54 2.95-8.31s1.38-6.37 1.77-10.8c.39-2.77.69-5.27.89-7.48.19-2.22.98-3.33 2.35-3.33 2.96 0 5.91.56 8.85 1.67 2.96 1.1 5.9 1.66 8.86 1.66 3.34 0 6.78-.56 10.32-1.66 3.54-1.11 6.98-1.67 10.32-1.67.4 0 1.14.28 2.22.83 1.08.56 1.62 1.67 1.62 3.33s-.35 3.88-1.03 6.65c-.69 2.77-1.38 5.95-2.07 9.55s-1.33 7.62-1.92 12.05-.88 8.86-.88 13.29c.2 11.08.49 23.13.88 36.14.4 13.02.79 26.31 1.18 39.89.4 13.57.74 27 1.04 40.29.29 13.3.64 25.76 1.03 37.39 1.18 49.85 2.36 99.43 3.54 148.73 1.18 49.29 2.36 98.87 3.54 148.72.19 8.86.69 19.94 1.47 33.24.79 13.29 2.17 23.54 4.13 30.74.4 1.11.79 2.21 1.18 3.32.4 1.11.59 2.49.59 4.16z"/><path d="m9312.58 2566.14c0 2.21-.49 4.43-1.48 6.64-.98 2.22-2.11 4.43-3.39 6.65-1.28 2.21-2.6 4.15-3.98 5.82-1.38 1.66-2.36 3.04-2.95 4.15-1.38 2.77-3.88 10.25-7.52 22.43-3.64 12.19-7.43 25.48-11.36 39.89-3.93 14.4-7.62 28.11-11.06 41.12-3.44 13.02-5.75 21.47-6.93 25.34v354.78c0 8.31.24 15.51.73 21.61.5 6.09 1.09 11.35 1.77 15.78.69 4.43 1.28 8.45 1.77 12.05.5 3.6.74 7.34.74 11.22 0 2.21-.39 3.46-1.18 3.74-.79.27-1.38.41-1.77.41-2.75 0-5.55-.55-8.41-1.66-2.85-1.11-5.65-1.66-8.4-1.66-2.56 0-5.07.55-7.53 1.66-2.45 1.11-4.86 1.66-7.22 1.66-.4 0-.89-.28-1.48-.83s-.88-1.66-.88-3.32c0-7.76.69-16.62 2.06-26.59 1.38-9.97 2.07-19.66 2.07-29.08v-356.44c-6.49-21.05-12.93-42.1-19.33-63.15-6.39-21.05-12.53-42.93-18.43-65.64-.79-2.77-1.77-5.12-2.95-7.06s-2.36-3.6-3.54-4.98c-1.18-1.39-2.21-2.77-3.1-4.16-.88-1.38-1.33-3.18-1.33-5.4 0-2.77.35-4.71 1.04-5.82.68-1.1 1.42-1.66 2.21-1.66 3.54 0 7.13.56 10.76 1.66 3.64 1.11 7.23 1.67 10.77 1.67 3.35 0 6.64-.42 9.89-1.25 3.24-.83 6.53-1.25 9.88-1.25 1.18 0 2.01.42 2.5 1.25.5.83.74 2.91.74 6.23 0 2.22-.15 4.43-.44 6.65-.3 2.22-.44 4.71-.44 7.48 0 1.66.68 5.67 2.06 12.04s2.95 13.16 4.72 20.36 3.39 13.99 4.87 20.36c1.47 6.37 2.31 9.83 2.51 10.38h.88c.39-1.66 1.33-5.67 2.8-12.04 1.48-6.38 3.05-13.3 4.72-20.78 1.68-7.47 3.15-14.54 4.43-21.18 1.28-6.65 1.92-10.81 1.92-12.47s-.1-3.18-.3-4.57c-.2-1.38-.29-3.18-.29-5.4 0-2.77.14-5.12.44-7.06.29-1.94.93-2.91 1.92-2.91 3.93 0 7.72.14 11.35.42 3.64.28 7.43.41 11.36.41 3.74 0 7.52-.41 11.36-1.24 3.83-.83 7.62-1.25 11.35-1.25 1.38 0 2.07 1.66 2.07 4.99z"/><path d="m9449.16 3134.45c0 1.11-.2 2.21-.59 3.32s-.79 1.94-1.18 2.49c-3.15 0-6.24-.55-9.29-1.66s-6.15-1.66-9.29-1.66c-3.35 0-6.99.42-10.92 1.25s-7.57 1.24-10.91 1.24c-1.18 0-1.77-1.94-1.77-5.81 0-6.1.63-12.47 1.91-19.11 1.28-6.65 1.92-13.57 1.92-20.77 0-1.67-.74-8.45-2.21-20.36-1.48-11.91-3.3-26.31-5.46-43.21-2.16-16.89-4.57-35.17-7.23-54.83-2.65-19.67-5.16-37.95-7.52-54.84s-4.37-31.3-6.04-43.2c-1.68-11.91-2.61-18.7-2.81-20.36-.39 0-1.52 4.29-3.39 12.88-1.87 8.58-3.88 18-6.05 28.25-2.16 10.24-4.27 20.21-6.34 29.91-2.06 9.69-3.39 15.64-3.98 17.86-1.18 5.54-1.77 12.19-1.77 19.94v112.17c0 7.75.15 13.85.44 18.28.3 4.43.74 8.31 1.33 11.63s1.28 6.92 2.06 10.8c.79 3.88 1.58 8.59 2.36 14.13 0 1.66-.29 2.77-.88 3.32s-1.08.83-1.48.83h-19.47c-2.36 0-4.96.55-7.81 1.66-2.86 1.11-5.46 1.66-7.82 1.66-1.38 0-2.12-.83-2.21-2.49-.1-1.66.05-3.88.44-6.65.2-1.1.64-3.6 1.33-7.47.69-3.88 1.42-8.73 2.21-14.54.78-5.82 1.47-11.91 2.06-18.28s.89-12.6.89-18.7v-422.08c0-8.86-.2-20.63-.59-35.31-.4-14.68-1.38-26.45-2.95-35.31-.39-2.22-.89-4.15-1.48-5.82-.59-1.66-.88-3.87-.88-6.64 0-2.22.39-3.46 1.18-3.74s1.37-.42 1.77-.42c2.56 0 5.06.42 7.52 1.25s4.97 1.24 7.52 1.24h27.14c6.69 0 13.97-.27 21.83-.83 7.87-.55 15.15-.83 21.83-.83 3.15 0 6.29.7 9.44 2.08 3.15 1.39 6.05 4.02 8.7 7.89 2.66 3.88 4.82 9.28 6.49 16.21 1.67 6.92 2.51 15.64 2.51 26.17 0 6.09-.98 14.12-2.95 24.09s-4.38 20.91-7.23 32.82-5.95 23.96-9.29 36.15c-3.34 12.18-6.44 23.67-9.29 34.48-2.85 10.8-5.26 20.35-7.23 28.66s-2.95 14.13-2.95 17.45c0 1.66.84 9.83 2.51 24.51s3.78 32.54 6.34 53.59 5.41 43.76 8.56 68.13c3.14 24.37 6.14 47.64 8.99 69.79 2.85 22.16 5.36 41.41 7.52 57.75 2.17 16.34 3.64 26.73 4.43 31.16.98 5.54 2.02 11.07 3.1 16.61s2.41 10.53 3.98 14.96c.39 1.11.98 2.49 1.77 4.15s1.18 3.05 1.18 4.16zm-47.79-486.06c0-4.43-.64-7.48-1.92-9.14-1.27-1.66-2.6-2.49-3.98-2.49h-33.92c-2.76 0-4.33 1.52-4.72 4.57-.4 3.05-.59 8.17-.59 15.37v165.34l.59 4.99c.78-.56 1.57-1.94 2.36-4.16.78-2.21 1.37-4.15 1.77-5.81 7.47-28.25 14.16-54.01 20.06-77.27 2.55-9.97 5.01-19.81 7.37-29.5s4.53-18.69 6.49-27c1.97-8.31 3.54-15.51 4.72-21.61 1.18-6.09 1.77-10.52 1.77-13.29z"/><path d="m9577.19 2984.06c0 23.27-1.82 44.73-5.46 64.39-3.64 19.67-8.41 36.7-14.31 51.1s-12.68 25.62-20.35 33.65-15.44 12.05-23.31 12.05c-12.39 0-23.3-4.29-32.74-12.88s-18.78-19.8-28.02-33.65c-.79-1.11-1.53-2.08-2.22-2.91s-1.03-2.91-1.03-6.23c0-2.77.49-4.71 1.48-5.82.98-1.1 1.77-2.49 2.36-4.15 1.76-4.43 3.68-11.49 5.75-21.19 2.06-9.69 3.78-17.86 5.16-24.51.39-1.11.88-3.32 1.47-6.64.59-3.33 1.18-4.99 1.77-4.99.79 0 1.53 1.38 2.22 4.15s1.23 4.71 1.62 5.82c2.56 8.86 5.6 16.06 9.14 21.6s7.28 9.97 11.21 13.3c3.94 3.32 7.77 5.54 11.51 6.64 3.73 1.11 7.08 1.67 10.03 1.67 4.91 0 9.49-2.22 13.71-6.65 4.23-4.43 7.92-10.8 11.07-19.11 3.14-8.31 5.6-18.14 7.37-29.5 1.77-11.35 2.66-24.23 2.66-38.63 0-26.59-1.82-49.85-5.46-69.79s-8.21-38.09-13.72-54.43c-5.5-16.34-11.4-31.43-17.7-45.28-6.29-13.85-12.19-28.25-17.7-43.2-5.5-14.96-10.08-31.02-13.71-48.19-3.64-17.17-5.46-37.11-5.46-59.83 0-32.68 3.69-57.74 11.06-75.19 7.38-17.45 19.03-26.17 34.96-26.17 3.93 0 8.26 1.66 12.98 4.98 4.72 3.33 9.14 7.21 13.27 11.64s7.62 9.14 10.47 14.12c2.85 4.99 4.28 9.42 4.28 13.3 0 0-.49 1.8-1.47 5.4-.99 3.6-2.17 7.75-3.54 12.46-1.38 4.71-2.66 9.28-3.84 13.71s-1.96 7.48-2.36 9.14c-.39 2.21-.83 4.57-1.33 7.06-.49 2.49-1.13 4.29-1.91 5.4-6.3-11.08-11.7-18.28-16.23-21.6-4.52-3.33-8.75-4.99-12.68-4.99-4.33 0-7.82 2.5-10.47 7.48-2.66 4.99-3.99 11.91-3.99 20.77 0 16.07 1.82 30.74 5.46 44.04 3.64 13.29 8.16 26.59 13.57 39.88s11.31 27.42 17.7 42.37c6.39 14.96 12.29 31.85 17.7 50.69 5.41 18.83 9.93 40.29 13.57 64.39 3.64 24.09 5.46 52.2 5.46 84.33z"/><path d="m9707.28 2562.81c-1.58 22.71-4.97 41.27-10.18 55.67s-11.95 21.6-20.21 21.6c-3.34 0-6.39-.41-9.14-1.24-2.76-.83-5.8-1.25-9.15-1.25-1.18 0-1.96.42-2.36 1.25-.39.83-.59 2.9-.59 6.23v431.22c0 7.75.15 15.78.44 24.09.3 8.31 1.43 15.51 3.4 21.6.39 1.11.83 2.64 1.33 4.57.49 1.94.73 4.02.73 6.24 0 3.32-.78 4.98-2.36 4.98-.98 0-1.86-.28-2.65-.83s-1.67-.83-2.66-.83c-2.16-.55-4.37-.83-6.63-.83h-6.64c-2.36 0-4.92.28-7.67.83-2.76.55-5.31.83-7.67.83-.98 0-2.07-.55-3.25-1.66s-1.77-3.05-1.77-5.82c0-1.66.1-2.77.3-3.32 2.16-11.08 3.93-21.46 5.31-31.16 1.38-9.69 2.06-21.19 2.06-34.48v-412.11c0-3.88-.29-6.51-.88-7.89-.59-1.39-1.33-2.36-2.21-2.91-.89-.55-1.92-.69-3.1-.41-1.18.27-2.26.41-3.25.41-4.52 0-9.04.28-13.56.83-4.53.55-9.05 2.49-13.58 5.82-1.37 1.11-2.8 3.04-4.27 5.81-1.48 2.77-2.81 4.16-3.98 4.16-.99 0-1.63-.97-1.92-2.91-.3-1.94-.44-4.29-.44-7.06 0-2.22.04-4.3.14-6.23.1-1.94.15-4.02.15-6.24v-64.8l105.02.83c2.16 0 4.81-.56 7.96-1.66 3.15-1.11 5.7-3.05 7.67-5.82.59-1.11 1.23-2.08 1.92-2.91s1.42-1.24 2.21-1.24c.98 0 1.48 1.38 1.48 4.15z"/><path d="m9839.14 3043.88c0 6.1-.1 12.61-.3 19.53-.19 6.92-.29 13.43-.29 19.52v41.55c0 7.2-.59 11.21-1.77 12.05-1.18.83-2.85 1.24-5.02 1.24-15.53 0-30.97-.41-46.31-1.24-15.34-.84-30.78-1.25-46.31-1.25-2.96 0-5.86.28-8.71.83s-5.75.83-8.7.83c-1.38 0-2.06-1.38-2.06-4.15 0-3.88.68-7.76 2.06-11.64 1.57-4.43 2.8-10.52 3.69-18.27.88-7.76 1.52-15.79 1.92-24.1.39-8.31.59-16.76.59-25.34v-428.31c0-4.99-.25-10.66-.74-17.03-.49-6.38-.99-12.33-1.48-17.87s-.98-10.38-1.47-14.54c-.49-4.15-.74-6.78-.74-7.89 0-2.22.34-3.33 1.03-3.33h1.63c2.55 0 5.01.28 7.37.83 2.36.56 4.82.84 7.38.84 13.96 0 27.77-.42 41.44-1.25s27.48-1.25 41.45-1.25c1.57 0 2.36 1.94 2.36 5.82 0 14.4.19 28.39.59 41.96.39 13.57.59 27.55.59 41.96v2.9c0 1.39-.2 2.08-.59 2.08-.4 0-.94-.69-1.63-2.08-.68-1.38-1.22-2.63-1.62-3.73-2.75-6.1-6.44-10.25-11.06-12.47-4.62-2.21-8.6-3.32-11.95-3.32h-42.48c-1.76 0-2.8.69-3.09 2.08-.3 1.38-.44 3.46-.44 6.23 0 2.21-.05 5.12-.15 8.72s-.1 7.2 0 10.8.34 6.65.74 9.14c.39 2.49.98 3.74 1.77 3.74h60.76c1.58 0 2.56.83 2.95 2.49.4 1.67.59 4.71.59 9.14v46.53c0 7.76-1.37 11.63-4.13 11.63h-58.41c-1.57 0-2.65.28-3.24.84-.59.55-.88 3.32-.88 8.3v275.85c0 12.19.68 20.22 2.06 24.1 1.38 3.87 4.13 5.81 8.26 5.81h46.61c3.73 0 7.08-1.24 10.03-3.74 2.95-2.49 5.5-5.12 7.67-7.89 2.16-2.77 3.98-5.4 5.46-7.89 1.47-2.5 2.6-3.74 3.39-3.74.39 0 .69.55.88 1.66.2 1.11.3 2.22.3 3.32z"/><path d="m9980.14 2568.63c0 3.32-.29 6.09-.88 8.31-1.97 11.07-3.35 20.08-4.13 27-.79 6.92-1.18 17.03-1.18 30.33v436.2c0 8.86.29 17.45.88 25.76s1.67 16.34 3.25 24.09c.39 1.66.74 3.33 1.03 4.99.3 1.66.44 3.6.44 5.81 0 3.88-.98 5.82-2.95 5.82-2.36 0-5.06-.41-8.11-1.25-3.05-.83-5.85-1.24-8.41-1.24-2.75 0-5.45.41-8.11 1.24-2.65.84-5.36 1.25-8.11 1.25h-.59c-1.58 0-2.36-1.94-2.36-5.82 0-2.77.49-5.53 1.47-8.3.99-2.77 1.77-6.79 2.36-12.05s1.09-10.94 1.48-17.03c.39-6.1.69-12.05.88-17.87.2-5.81.3-10.66.3-14.54v-125.46l-37.17-155.37c-3.15-13.3-6.39-26.45-9.73-39.47-3.35-13.01-6.69-25.89-10.03-38.63-.4-1.11-.84-2.63-1.33-4.57s-1.04-2.91-1.63-2.91c-.98 0-1.47 3.05-1.47 9.14v366.41c0 7.2.3 15.79.89 25.76.58 9.97 1.76 17.72 3.54 23.26.39 1.11 1.03 3.19 1.91 6.23.89 3.05 1.33 5.68 1.33 7.9 0 1.66-.34 2.63-1.03 2.91-.69.27-1.23.41-1.62.41-2.76 0-5.51-.41-8.26-1.25-2.76-.83-5.51-1.24-8.26-1.24-2.95 0-6.2.41-9.74 1.24-3.54.84-6.78 1.25-9.73 1.25h-.59c-1.58 0-2.36-1.94-2.36-5.82 0-2.77.49-5.53 1.47-8.3 2.17-6.65 3.69-16.35 4.57-29.08.89-12.75 1.33-23.55 1.33-32.41v-435.79c0-5.26-.05-10.66-.15-16.2-.09-5.54-.29-10.66-.59-15.37-.29-4.71-.64-8.17-1.03-10.39-.39-2.21-.93-4.7-1.62-7.47s-1.03-5.27-1.03-7.48c0-2.22.39-3.6 1.18-4.16.78-.55 1.47-.83 2.06-.83 2.56 0 5.31.28 8.26.83 2.95.56 5.7.83 8.26.83 3.54 0 7.18-.13 10.92-.41 3.73-.28 7.37-.42 10.91-.42h2.21c.89 0 1.33 1.39 1.33 4.16s-.64 6.23-1.92 10.38c-1.28 4.16-1.92 9.56-1.92 16.21 0 2.77.4 6.92 1.19 12.46 1.57 8.86 3.54 17.59 5.89 26.17 2.37 8.59 4.63 16.76 6.79 24.51 3.93 15.51 7.92 31.02 11.95 46.53s8.01 31.02 11.94 46.53c2.17 7.75 3.94 15.51 5.31 23.26 1.38 7.76 2.95 15.79 4.72 24.1.2 1.11.54 2.77 1.04 4.98.49 2.22.93 3.33 1.32 3.33.4 0 .64-1.11.74-3.33.1-2.21.15-3.6.15-4.15v-186.95c0-12.18-.79-21.88-2.36-29.08-.39-2.21-1.33-4.7-2.8-7.47-1.48-2.77-2.22-5.27-2.22-7.48 0-2.22.4-3.6 1.18-4.16.79-.55 1.48-.83 2.07-.83 2.95 0 5.8.28 8.55.83 2.76.56 5.61.83 8.56.83 2.36 0 5.11-.13 8.26-.41 3.14-.28 5.9-.42 8.26-.42h2.06c.79 0 1.18 1.39 1.18 4.16z"/><path d="m10122 2984.06c0 23.27-1.8 44.73-5.4 64.39-3.7 19.67-8.4 36.7-14.3 51.1s-12.7 25.62-20.4 33.65-15.4 12.05-23.3 12.05c-12.4 0-23.3-4.29-32.7-12.88-9.5-8.59-18.8-19.8-28.06-33.65-.78-1.11-1.52-2.08-2.21-2.91s-1.03-2.91-1.03-6.23c0-2.77.49-4.71 1.47-5.82.99-1.1 1.77-2.49 2.36-4.15 1.77-4.43 3.67-11.49 5.77-21.19 2-9.69 3.8-17.86 5.1-24.51.4-1.11.9-3.32 1.5-6.64.6-3.33 1.2-4.99 1.8-4.99.8 0 1.5 1.38 2.2 4.15s1.2 4.71 1.6 5.82c2.6 8.86 5.6 16.06 9.2 21.6 3.5 5.54 7.2 9.97 11.2 13.3 3.9 3.32 7.7 5.54 11.5 6.64 3.7 1.11 7.1 1.67 10 1.67 4.9 0 9.5-2.22 13.7-6.65 4.3-4.43 7.9-10.8 11.1-19.11 3.1-8.31 5.6-18.14 7.4-29.5 1.7-11.35 2.6-24.23 2.6-38.63 0-26.59-1.8-49.85-5.4-69.79-3.7-19.94-8.2-38.09-13.8-54.43-5.5-16.34-11.4-31.43-17.7-45.28-6.2-13.85-12.1-28.25-17.6-43.2-5.6-14.96-10.1-31.02-13.8-48.19-3.6-17.17-5.4-37.11-5.4-59.83 0-32.68 3.7-57.74 11-75.19 7.4-17.45 19.1-26.17 35-26.17 3.9 0 8.3 1.66 13 4.98 4.7 3.33 9.1 7.21 13.2 11.64 4.2 4.43 7.7 9.14 10.5 14.12 2.9 4.99 4.3 9.42 4.3 13.3 0 0-.5 1.8-1.5 5.4s-2.1 7.75-3.5 12.46-2.7 9.28-3.9 13.71c-1.1 4.43-1.9 7.48-2.3 9.14-.4 2.21-.8 4.57-1.3 7.06s-1.2 4.29-2 5.4c-6.3-11.08-11.7-18.28-16.2-21.6-4.5-3.33-8.7-4.99-12.7-4.99-4.3 0-7.8 2.5-10.4 7.48-2.7 4.99-4 11.91-4 20.77 0 16.07 1.8 30.74 5.4 44.04 3.7 13.29 8.2 26.59 13.6 39.88s11.3 27.42 17.7 42.37c6.4 14.96 12.3 31.85 17.7 50.69 5.4 18.83 9.9 40.29 13.6 64.39 3.6 24.09 5.4 52.2 5.4 84.33z"/></g><g transform="matrix(.948046 0 0 .334493 -7186.71958 1303.281)"><path d="m9043.96 2958.45c0 21.98-.77 42.26-2.3 60.83-1.54 18.58-3.55 34.67-6.03 48.27-2.49 13.61-5.35 24.21-8.58 31.79-3.23 7.59-6.5 11.38-9.82 11.38-5.22 0-9.82-4.05-13.8-12.16-3.97-8.11-7.91-18.71-11.8-31.79-.33-1.05-.65-1.96-.94-2.75-.29-.78-.43-2.74-.43-5.88 0-2.62.21-4.45.62-5.5.42-1.04.75-2.35 1-3.92.74-4.19 1.55-10.86 2.42-20.02.87-9.15 1.59-16.87 2.17-23.15.17-1.05.38-3.14.62-6.28.25-3.14.5-4.71.75-4.71.33 0 .64 1.31.93 3.92.29 2.62.52 4.45.69 5.5 1.07 8.37 2.36 15.17 3.85 20.41 1.49 5.23 3.07 9.41 4.72 12.55 1.66 3.14 3.28 5.24 4.85 6.28 1.58 1.05 2.98 1.57 4.23 1.57 2.07 0 4-2.09 5.78-6.28 1.78-4.18 3.33-10.2 4.66-18.05s2.36-17.14 3.11-27.86c.74-10.73 1.12-22.9 1.12-36.5 0-25.12-.77-47.09-2.3-65.93-1.54-18.84-3.46-35.98-5.78-51.41-2.32-15.44-4.81-29.7-7.46-42.78s-5.14-26.68-7.46-40.81-4.25-29.31-5.78-45.53-2.3-35.05-2.3-56.51c0-30.87 1.55-54.55 4.66-71.03s8.02-24.73 14.73-24.73c1.66 0 3.48 1.57 5.47 4.71s3.85 6.81 5.59 10.99c1.75 4.19 3.22 8.64 4.42 13.34 1.2 4.71 1.8 8.9 1.8 12.56 0 0-.21 1.7-.62 5.11-.42 3.4-.91 7.32-1.49 11.77s-1.12 8.76-1.62 12.95-.83 7.06-.99 8.63c-.17 2.1-.36 4.32-.56 6.68-.21 2.35-.48 4.05-.81 5.1-2.65-10.47-4.93-17.27-6.84-20.41-1.9-3.14-3.69-4.71-5.34-4.71-1.83 0-3.3 2.36-4.42 7.06-1.11 4.71-1.67 11.25-1.67 19.63 0 15.17.76 29.04 2.3 41.6 1.53 12.55 3.44 25.11 5.71 37.67 2.28 12.56 4.77 25.9 7.46 40.03 2.7 14.13 5.18 30.09 7.46 47.88s4.18 38.07 5.72 60.83c1.53 22.76 2.3 49.32 2.3 79.66z"/><path d="m9099.4 3096.6c0 3.66-.27 5.75-.81 6.27-.54.53-1.02.79-1.43.79-.99 0-1.95-.65-2.86-1.96s-1.86-1.96-2.86-1.96c-.99 0-1.99.65-2.98 1.96-1 1.31-1.99 1.96-2.98 1.96-.42 0-.92-.26-1.5-.79-.58-.52-.87-2.61-.87-6.27 0-1.05.15-3.01.44-5.89s.62-6.8.99-11.78c.38-4.97.71-10.85 1-17.65.29-6.81.43-14.66.43-23.55v-206.43c0-7.85-.33-14.65-.99-20.41-.66-5.75-1.49-10.46-2.49-14.12-.99-3.67-2.09-6.28-3.29-7.85s-2.34-2.36-3.42-2.36c-1 0-2.13 1.31-3.42 3.93-1.28 2.61-2.48 6.28-3.6 10.99-1.12 4.7-2.06 10.2-2.8 16.48-.75 6.28-1.12 13.08-1.12 20.41v215.06c0 8.89.37 17.26 1.12 25.11.74 7.85 1.12 14.13 1.12 18.84 0 4.19-.33 6.28-1 6.28-1.16 0-2.3-.26-3.41-.79-1.12-.52-2.26-.78-3.42-.78-1 0-2.01.26-3.05.78-1.03.53-2.05.79-3.04.79-.42 0-.9-.26-1.43-.79-.54-.52-.81-2.61-.81-6.27 0-3.67.45-9.69 1.37-18.06.91-8.37 1.36-19.36 1.36-32.96v-275.5c0-12.03-.37-20.8-1.12-26.29-.74-5.5-1.11-9.82-1.11-12.95 0-4.19.2-6.28.62-6.28 1.16 0 2.3.26 3.42.78 1.11.52 2.25.79 3.41.79 1 0 1.99-.53 2.99-1.57.99-1.05 1.99-1.57 2.98-1.57.17 0 .54.13 1.12.39s.83 1.44.74 3.53c-.58 4.71-1.01 8.11-1.3 10.21-.29 2.09-.48 4.31-.56 6.67-.08 2.35-.12 5.23-.12 8.63v16.09h.37c1.33-14.65 3.35-26.16 6.09-34.54 2.74-8.37 5.34-12.55 7.83-12.55 2.16 0 4.31 2.22 6.47 6.67 2.15 4.45 4.1 10.73 5.84 18.84s3.15 17.92 4.22 29.43c1.08 11.51 1.62 24.33 1.62 38.46v231.54c0 9.94.37 19.36 1.12 28.26.74 8.89 1.12 16.22 1.12 21.98z"/><path d="m9122.89 2618.6c0 11.51-.68 21.45-2.05 29.82s-3 12.56-4.91 12.56-3.4-4.71-4.48-14.13c-1.07-9.42-1.61-19.88-1.61-31.39s.52-20.93 1.55-28.26c1.04-7.33 2.51-10.99 4.42-10.99 1.9 0 3.56 4.19 4.97 12.56s2.11 18.31 2.11 29.83zm1.12 109.88c0 1.05-.44 6.8-1.31 17.27-.87 10.46-1.3 25.38-1.3 44.74v249.59c0 18.84.39 32.31 1.18 40.43.79 8.11 1.18 13.73 1.18 16.87 0 3.66-.41 5.49-1.24 5.49-1 0-1.89-.39-2.68-1.17-.78-.79-2.21-1.18-4.28-1.18-1.91 0-3.3.39-4.17 1.18-.87.78-1.88 1.17-3.04 1.17-.58 0-.87-1.83-.87-5.49 0-2.62.2-5.23.62-7.85.41-3.14.74-7.19.99-12.16.25-4.98.46-10.21.62-15.7.17-5.5.29-10.86.38-16.09.08-5.23.12-9.94.12-14.13v-237.82c0-2.62-.02-6.28-.06-10.99s-.1-9.68-.19-14.92c-.08-5.23-.18-10.07-.31-14.52-.12-4.44-.27-7.71-.43-9.81-.17-2.61-.38-5.1-.63-7.45-.24-2.36-.37-4.84-.37-7.46 0-2.09.15-3.4.44-3.92.29-.53.56-.79.81-.79 1.16 0 2.23.39 3.23 1.18.99.78 2.11 1.18 3.35 1.18 1.08 0 2.24-.27 3.48-.79 1.25-.52 2.28-.78 3.11-.78h.87c.33 0 .5 1.3.5 3.92z"/><path d="m9172.49 3086.39c0 4.19-.15 9.03-.44 14.52-.29 5.5-.89 8.24-1.8 8.24-5.14 0-10.09-3.53-14.85-10.59-4.77-7.07-9-18.32-12.68-33.75-3.69-15.44-6.63-35.59-8.83-60.44-2.2-24.86-3.29-55.34-3.29-91.44 0-32.96.87-61.48 2.61-85.55s4.16-44.22 7.27-60.44 6.79-28.26 11.06-36.1c4.27-7.85 8.93-11.78 13.99-11.78 1.16 0 2.25 1.44 3.29 4.32s1.55 8.76 1.55 17.66v49.45c0 4.18-.16 7.45-.49 9.81-.33 2.35-.75 4.32-1.25 5.88-.66-1.56-1.09-3.27-1.3-5.1s-.68-3.79-1.43-5.88c-.91-2.62-2.01-4.06-3.3-4.32-1.28-.26-2.42-.39-3.41-.39-3.15 0-5.8 3.66-7.96 10.99-2.15 7.32-3.91 16.74-5.28 28.25s-2.36 24.46-2.98 38.85c-.63 14.39-.94 28.65-.94 42.78 0 18.84.54 36.11 1.62 51.8 1.08 15.7 2.63 29.18 4.66 40.43s4.47 20.01 7.33 26.29 6.07 9.42 9.64 9.42c.83 0 1.63-.79 2.42-2.36s1.56-2.35 2.3-2.35c.75 0 1.31 2.09 1.68 6.28.37 4.18.62 9.16.75 14.91.12 5.76.16 11.51.12 17.27-.04 5.75-.06 10.2-.06 13.34z"/><path d="m9226.81 3098.95c0 4.19-.31 6.02-.93 5.49-.63-.52-1.23-.78-1.81-.78-1.07 0-2.11-.52-3.1-1.57-1-1.05-2.04-1.57-3.11-1.57-1.08 0-1.99.39-2.74 1.18-.74.78-1.65 1.7-2.73 2.74-.42.53-.85.4-1.31-.39-.45-.78-.68-2.48-.68-5.1s.19-4.19.56-4.71.56-2.88.56-7.06c0-1.57-.48-9.42-1.43-23.55s-2.16-31-3.61-50.63c-1.45-19.62-3.04-40.42-4.78-62.39-1.74-21.98-3.4-42.13-4.97-60.44l-4.98 32.18v117.73c0 6.81.13 13.35.38 19.62.25 6.28.52 11.91.8 16.88.3 4.97.56 9.29.81 12.95s.38 6.28.38 7.85c0 3.66-.42 5.49-1.25 5.49-1.16 0-2.32-.39-3.48-1.17-1.16-.79-2.32-1.18-3.48-1.18s-2.36.39-3.6 1.18c-1.25.78-2.45 1.17-3.61 1.17-.58 0-.87-1.83-.87-5.49 0-1.57.06-3.01.19-4.32.12-1.3.27-2.48.43-3.53.83-6.28 1.39-15.3 1.68-27.08.29-11.77.44-21.58.44-29.43v-386.17c0-9.94-.06-19.49-.19-28.65-.12-9.15-.6-18.18-1.43-27.08-.17-2.09-.35-4.05-.56-5.88s-.31-4.06-.31-6.67c0-2.1.39-4.19 1.18-6.28.79-2.1 1.31-3.67 1.56-4.71l5.59-19.62c.41-1.57.89-3.8 1.43-6.68.54-2.87 1.1-5.75 1.68-8.63s1.14-5.49 1.67-7.85c.54-2.35 1.02-3.53 1.43-3.53h.38c.16 0 .37.26.62.78.25.53.37 1.57.37 3.14 0 3.67-.12 7.85-.37 12.56s-.46 8.9-.62 12.56c-.42 10.47-.73 20.8-.93 31-.21 10.21-.32 20.54-.32 31.01v229.19h.38c.49-3.14 1.57-9.68 3.23-19.63 1.66-9.94 3.36-20.53 5.09-31.78 1.74-11.25 3.3-21.85 4.67-31.79 1.36-9.94 2.05-16.22 2.05-18.84-.17-1.05-.42-2.35-.75-3.92-.33-1.58-.49-3.14-.49-4.71 0-3.67.18-5.89.55-6.68.38-.78.85-1.17 1.43-1.17 1.25 0 2.28.52 3.11 1.57.83 1.04 1.87 1.57 3.11 1.57.91 0 1.74-.27 2.48-.79.75-.52 1.58-.78 2.49-.78h2.98c1.08 0 1.62 2.09 1.62 6.28 0 3.13-.12 4.71-.37 4.71s-.75 1.04-1.49 3.13c-.58 1.57-1.62 7.2-3.11 16.88s-3.09 20.41-4.79 32.18-3.33 23.15-4.91 34.14c-1.57 10.99-2.73 18.84-3.48 23.55.42 7.85 1.1 17.79 2.05 29.83.96 12.03 2.03 24.85 3.24 38.46 1.2 13.6 2.42 27.73 3.66 42.38 1.25 14.65 2.36 28.78 3.36 42.38.25 4.19.72 10.99 1.43 20.41.7 9.42 1.47 19.23 2.3 29.43.83 10.21 1.63 19.63 2.42 28.26s1.43 14 1.93 16.09c.33 1.05.56 1.7.68 1.96.13.26.19 1.7.19 4.32z"/><path d="m9280.01 2883.11-36.05 94.18c1 18.32 2.53 33.36 4.6 45.13 2.07 11.78 4.68 17.66 7.83 17.66 3.23 0 5.99-6.54 8.27-19.62s3.54-29.82 3.79-50.23c0-2.62.12-3.93.37-3.93s.93 2.1 2.05 6.28c1.12 4.19 2.28 9.03 3.48 14.52 1.21 5.5 2.28 10.6 3.24 15.31.95 4.71 1.42 7.32 1.42 7.85 0 2.61-.08 4.84-.24 6.67-.17 1.83-.34 3.79-.5 5.89-2.4 29.82-5.3 51.67-8.7 65.53-3.4 13.87-7.79 20.8-13.18 20.8-4.31 0-8.06-5.62-11.25-16.87s-5.84-26.16-7.95-44.74c-2.12-18.58-3.69-39.51-4.73-62.79-1.03-23.29-1.55-46.97-1.55-71.03 0-24.08.58-47.88 1.74-71.43s2.86-44.35 5.1-62.4c2.23-18.05 5.01-32.7 8.32-43.95 3.32-11.25 7.13-16.88 11.44-16.88 3.48 0 6.67 4.06 9.57 12.17s5.35 19.1 7.34 32.96c1.98 13.87 3.5 30.09 4.53 48.67 1.04 18.57 1.43 38.59 1.18 60.04zm-12.06-37.68c-.58-18.31-1.8-33.23-3.67-44.74-1.86-11.51-4.24-17.27-7.14-17.27-2.74 0-5.06 3.93-6.96 11.78-1.91 7.85-3.44 17.92-4.6 30.21-1.16 12.3-2.01 25.91-2.55 40.82s-.81 29.69-.81 44.35z"/><path d="m9325.26 2795.2c0 1.04-.21 2.35-.63 3.92-.41 1.57-.89 2.88-1.43 3.93-.53 1.04-1.07 2.09-1.61 3.13-.54 1.05-.89 1.58-1.06 1.58-.41.52-.91 1.69-1.49 3.53-.58 1.83-1.18 3.66-1.8 5.49s-1.2 3.4-1.74 4.71-.98 1.96-1.31 1.96c-.16 0-.29-.26-.37-.78-.17-2.09-.23-4.19-.19-6.28.05-2.09.02-4.45-.06-7.06-.25-6.28-.66-11.13-1.24-14.53s-1.24-5.49-1.99-6.27c-.75-.79-1.53-.53-2.36.78s-1.54 3.27-2.12 5.89c-1.9 7.85-3.19 18.83-3.85 32.96s-.99 28.78-.99 43.96v181.31c0 8.89.37 17 1.12 24.33.74 7.32 1.11 13.86 1.11 19.62 0 4.19-.33 6.28-.99 6.28h-12.93c-.41 0-.89-.26-1.43-.79-.54-.52-.81-2.61-.81-6.27 0-1.57.15-4.06.44-7.46s.6-7.33.93-11.77c.33-4.45.64-9.42.93-14.92.29-5.49.44-11.12.44-16.87v-275.5c0-9.94-.37-18.31-1.12-25.12-.74-6.8-1.12-11.51-1.12-14.12 0-4.19.21-6.28.62-6.28 1.16 0 2.3.26 3.42.78s2.26.79 3.42.79c.99 0 1.99-.53 2.98-1.57 1-1.05 1.99-1.57 2.99-1.57h1.05c.46 0 .73 1.31.81 3.92-.5 4.19-.89 7.46-1.18 9.81-.29 2.36-.5 4.45-.62 6.28-.13 1.83-.19 4.19-.19 7.07v18.44h.37c1.08-13.6 2.72-24.85 4.92-33.75 2.19-8.9 4.2-13.34 6.02-13.34 4.15 0 7.19 5.49 9.14 16.48s3.13 24.85 3.54 41.6c.09 2.62.17 5.1.25 7.45.08 2.36.13 5.11.13 8.25z"/><path d="m9345.64 2618.6c0 11.51-.68 21.45-2.05 29.82s-3 12.56-4.91 12.56-3.4-4.71-4.48-14.13c-1.07-9.42-1.61-19.88-1.61-31.39s.52-20.93 1.55-28.26c1.04-7.33 2.51-10.99 4.42-10.99 1.9 0 3.56 4.19 4.97 12.56s2.11 18.31 2.11 29.83zm1.12 109.88c0 1.05-.43 6.8-1.31 17.27-.86 10.46-1.3 25.38-1.3 44.74v249.59c0 18.84.39 32.31 1.18 40.43.79 8.11 1.18 13.73 1.18 16.87 0 3.66-.41 5.49-1.24 5.49-1 0-1.89-.39-2.67-1.17-.79-.79-2.22-1.18-4.29-1.18-1.91 0-3.3.39-4.17 1.18-.87.78-1.88 1.17-3.04 1.17-.58 0-.87-1.83-.87-5.49 0-2.62.2-5.23.62-7.85.41-3.14.74-7.19.99-12.16.25-4.98.46-10.21.63-15.7.16-5.5.29-10.86.37-16.09s.12-9.94.12-14.13v-237.82c0-2.62-.02-6.28-.06-10.99s-.1-9.68-.19-14.92c-.08-5.23-.18-10.07-.31-14.52-.12-4.44-.27-7.71-.43-9.81-.17-2.61-.38-5.1-.62-7.45-.25-2.36-.38-4.84-.38-7.46 0-2.09.15-3.4.44-3.92.29-.53.56-.79.81-.79 1.16 0 2.23.39 3.23 1.18.99.78 2.11 1.18 3.36 1.18 1.07 0 2.23-.27 3.47-.79 1.25-.52 2.28-.78 3.11-.78h.87c.33 0 .5 1.3.5 3.92z"/><path d="m9461.24 2828.95c0 6.8-.23 13.99-.68 21.58-.46 7.59-1.35 11.38-2.67 11.38-.58 0-1.12-.91-1.62-2.75-.5-1.83-1.06-3.66-1.68-5.49s-1.3-3.66-2.05-5.49c-.74-1.83-1.61-2.75-2.61-2.75-1.41 0-2.65 3.01-3.73 9.03-1.08 6.01-2.01 13.21-2.79 21.58-.79 8.37-1.46 17.27-1.99 26.69-.54 9.42-.98 17.53-1.31 24.33-.58 9.94-1.1 19.88-1.55 29.82-.46 9.95-.93 19.89-1.43 29.83-2.24 45.52-5.72 77.31-10.44 95.37-4.73 18.05-10.74 27.07-18.03 27.07-4.31 0-8.26-4.57-11.87-13.73-3.6-9.16-6.69-21.85-9.26-38.07s-4.58-35.58-6.03-58.08-2.17-47.36-2.17-74.57c0-34.01 1.41-63.44 4.22-88.3 2.82-24.85 6.72-43.3 11.69-55.33v-2.36c-2.49-7.32-4.33-17.92-5.53-31.78-1.2-13.87-1.81-29.18-1.81-45.92 0-15.7.63-30.09 1.87-43.17s2.84-24.33 4.79-33.75c1.94-9.42 4.1-16.61 6.46-21.58 2.36-4.98 4.7-7.46 7.02-7.46 3.48 0 6.67 2.48 9.57 7.46 2.9 4.97 5.8 12.69 8.7 23.15.25 1.05.58 2.09 1 3.14.41 1.05.62 2.88.62 5.49 0 .53-.02 1.05-.06 1.57-.04.53-.06 1.05-.06 1.57-.25 1.57-.69 5.24-1.31 10.99-.62 5.76-1.28 11.64-1.99 17.66-.7 6.02-1.37 11.38-1.99 16.09s-1.05 7.07-1.3 7.07c-.17 0-.54-1.7-1.12-5.11-.58-3.4-1.37-7.06-2.36-10.98-1-3.93-2.2-7.59-3.61-10.99s-3.02-5.1-4.85-5.1c-2.48 0-4.74 4.31-6.77 12.95-2.03 8.63-3.05 21.84-3.05 39.63 0 14.13.73 24.47 2.18 31.01s3.03 11.25 4.72 14.13c1.7 2.87 3.28 4.97 4.73 6.27 1.45 1.31 2.17 3.54 2.17 6.67 0 3.15-.16 7.59-.5 13.35-.33 5.75-.74 11.51-1.24 17.27-.5 5.75-1.03 10.72-1.61 14.91-.58 4.18-1.12 6.28-1.62 6.28-2.32 0-4.52 2.88-6.59 8.63-2.07 5.76-3.91 13.61-5.53 23.55-1.61 9.94-2.9 21.45-3.85 34.53-.96 13.09-1.43 26.95-1.43 41.6 0 17.27.5 32.97 1.49 47.1s2.36 26.29 4.1 36.49c1.74 10.21 3.77 18.06 6.09 23.55s4.81 8.24 7.46 8.24c1.91 0 3.85-1.83 5.84-5.49s3.79-9.03 5.41-16.09c1.62-7.07 2.94-15.7 3.98-25.9 1.03-10.21 1.55-22.11 1.55-35.72 0-9.41-.14-18.96-.43-28.64s-.81-18.32-1.56-25.91c-.74-7.58-1.72-13.86-2.92-18.83s-2.67-7.46-4.41-7.46c-.91 0-1.72 1.18-2.42 3.53-.71 2.36-1.33 4.84-1.87 7.46-.54 2.61-1.06 5.1-1.55 7.45-.5 2.36-.96 3.54-1.37 3.54-.66 0-1.06-1.83-1.18-5.5-.13-3.66-.19-6.8-.19-9.42 0-9.41.31-18.18.93-26.29.63-8.11 1.45-15.17 2.49-21.19s2.22-10.6 3.54-13.74c1.33-3.14 2.74-4.71 4.23-4.71 2.24 0 4.04 2.75 5.41 8.24 1.36 5.5 2.54 11.52 3.54 18.06.99 6.54 1.9 12.55 2.73 18.05.83 5.49 1.74 8.24 2.74 8.24.83 0 1.37-2.09 1.61-6.28.25-4.18.46-8.11.63-11.77.49-10.47 1.18-20.93 2.05-31.4.87-10.46 1.92-19.75 3.17-27.86 1.24-8.11 2.67-14.78 4.28-20.02 1.62-5.23 3.38-7.85 5.29-7.85 2.81 0 5.13 5.76 6.96 17.27 1.82 11.52 2.73 26.17 2.73 43.96z"/><path d="m9539.31 2932.55c0 22.5-.44 44.22-1.31 65.15s-2.22 39.37-4.04 55.33-4.08 28.78-6.77 38.46c-2.7 9.68-5.87 14.52-9.51 14.52-3.15 0-6.26-.91-9.33-2.74-3.06-1.84-6.13-2.75-9.19-2.75-1.16 0-2.37.39-3.61 1.18-1.24.78-2.44 1.17-3.6 1.17-.58 0-.87-1.83-.87-5.49 0-1.57.06-3.01.18-4.32.13-1.3.27-2.48.44-3.53.83-7.32 1.39-16.35 1.68-27.08.29-10.72.43-20.54.43-29.43v-390.09c0-8.9-.08-17.79-.25-26.69-.16-8.89-.62-17.27-1.37-25.12-.16-2.09-.35-4.05-.55-5.88-.21-1.83-.32-4.06-.32-6.67 0-2.1.4-4.19 1.19-6.28.78-2.1 1.3-3.67 1.55-4.71l5.59-19.62c1-3.67 2.05-9.03 3.17-16.09 1.12-7.07 2.26-10.6 3.42-10.6.17 0 .37.26.62.78.25.53.38 1.57.38 3.14 0 4.19-.13 8.38-.38 12.56-.25 4.19-.45 8.37-.62 12.56-.41 10.47-.72 20.8-.93 31-.21 10.21-.31 20.54-.31 31.01v94.97c1.74 4.71 3.67 9.94 5.78 15.7 2.11 5.75 4.27 11.77 6.46 18.05 2.2 6.28 4.31 12.95 6.34 20.01 2.03 7.07 3.79 14.52 5.28 22.37 3.9 19.36 6.61 41.21 8.15 65.54 1.53 24.33 2.3 52.2 2.3 83.59zm-12.19-.78c0-30.88-.89-56.12-2.67-75.74-1.78-19.63-4.91-35.98-9.38-49.06-1.66-4.71-3.34-8.5-5.04-11.38s-3.37-6.41-5.03-10.6v224.48c0 8.37.31 15.31.93 20.8.62 5.5 1.64 8.24 3.05 8.24h5.84c2.24 0 4.14-3.53 5.72-10.59 1.57-7.07 2.83-15.83 3.79-26.3.95-10.46 1.65-21.97 2.11-34.53s.68-24.33.68-35.32z"/><path d="m9595.24 2729.27c0 3.14-.45 9.28-1.36 18.44-.92 9.16-1.37 20.01-1.37 32.57v273.93c0 67.5-2.63 119.43-7.9 155.8-5.26 36.37-13.36 54.55-24.3 54.55-.66 0-1.09-1.7-1.3-5.1s-.35-7.46-.44-12.17c-.08-4.7-.08-9.55 0-14.52.09-4.97.13-8.76.13-11.38v-18.44c0-6.54.08-12.69.24-18.45.17 0 .28-.13.32-.39s.14-.39.31-.39c.41 0 1.07 1.96 1.99 5.89.91 3.92 1.82 5.88 2.73 5.88 9.95 0 15.66-30.87 17.15-92.62.09-3.66.13-8.11.13-13.34s-.04-10.2-.13-14.91c-.08-4.71-.12-8.77-.12-12.17s.04-5.1.12-5.1h-.37c-1.32 14.65-3.33 26.16-6.03 34.54-2.69 8.37-5.32 12.55-7.89 12.55-2.07 0-4.18-2.09-6.34-6.28-2.15-4.18-4.1-10.33-5.84-18.44s-3.17-17.92-4.29-29.43-1.68-24.6-1.68-39.25v-231.54c0-9.94-.37-19.36-1.12-28.26-.74-8.89-1.12-16.22-1.12-21.97 0-3.67.27-5.76.81-6.28.54-.53 1.02-.79 1.43-.79 1 0 1.95.66 2.86 1.96.91 1.31 1.87 1.97 2.86 1.97s1.99-.66 2.98-1.97c1-1.3 1.99-1.96 2.99-1.96.41 0 .91.26 1.49.79.58.52.87 2.61.87 6.28 0 .52-.15 2.61-.44 6.28-.29 3.66-.62 8.24-.99 13.73-.37 5.5-.71 11.64-1 18.44-.29 6.81-.43 13.61-.43 20.41v206.43c0 8.37.33 15.43.99 21.19.67 5.76 1.49 10.34 2.49 13.74.99 3.4 2.09 5.88 3.29 7.45 1.21 1.57 2.34 2.36 3.42 2.36 1 0 2.13-1.31 3.42-3.93 1.28-2.61 2.49-6.28 3.6-10.98 1.12-4.71 2.05-10.21 2.8-16.49s1.12-13.08 1.12-20.41v-215.06c0-8.89-.37-17.13-1.12-24.72s-1.12-14-1.12-19.23c0-4.18.33-6.28 1-6.28h12.92c.42 0 .9.26 1.43.79.54.52.81 2.61.81 6.28z"/><path d="m9649.19 2730.05c0 10.47-.08 20.54-.25 30.22s-.25 19.75-.25 30.22v263.72c0 68.55-2.67 120.74-8.01 156.59-5.35 35.84-13.41 53.76-24.18 53.76-1.08 0-1.62-3.4-1.62-10.2 0-3.66-.02-8.77-.06-15.31s-.06-13.34-.06-20.4c0-7.07.02-13.74.06-20.02s.15-10.99.31-14.13c.17-.52.37-.78.62-.78.42 0 1.08 1.96 1.99 5.89.91 3.92 1.82 5.88 2.74 5.88 5.13 0 9.05-7.59 11.74-22.76 2.7-15.17 4.5-38.46 5.41-69.86-2.15 1.05-4.31 1.84-6.46 2.36-2.16.52-4.31.78-6.47.78-3.81 0-7.08-5.1-9.82-15.3-2.73-10.2-4.97-23.55-6.71-40.03s-3.02-35.06-3.85-55.73-1.25-41.47-1.25-62.4c0-30.87.77-58.6 2.3-83.2 1.54-24.59 4.25-46.57 8.14-65.93 2.08-10.46 4.42-19.62 7.03-27.47s5.3-14.26 8.08-19.23c2.77-4.97 5.49-8.76 8.14-11.38s5.05-3.92 7.21-3.92h1.18c.54 0 1.12.26 1.74.78s1.16 1.44 1.62 2.75c.45 1.31.68 3.01.68 5.1zm-11.81 63.58c-3.23 4.18-6.21 9.42-8.95 15.7-2.73 6.27-5.08 14.65-7.02 25.11-1.95 10.47-3.46 23.68-4.54 39.64s-1.61 35.19-1.61 57.69c0 12.03.24 23.94.74 35.71s1.24 22.5 2.24 32.18c.99 9.68 2.26 17.53 3.79 23.55 1.53 6.01 3.38 9.02 5.53 9.02h5.84c1.41 0 2.43-2.74 3.05-8.24.62-5.49.93-12.42.93-20.8z"/><path d="m9704.88 2730.05c0 10.47-.09 20.54-.25 30.22-.17 9.68-.25 19.75-.25 30.22v263.72c0 68.55-2.67 120.74-8.02 156.59-5.34 35.84-13.4 53.76-24.17 53.76-1.08 0-1.62-3.4-1.62-10.2 0-3.66-.02-8.77-.06-15.31s-.07-13.34-.07-20.4c0-7.07.03-13.74.07-20.02s.14-10.99.31-14.13c.16-.52.37-.78.62-.78.41 0 1.08 1.96 1.99 5.89.91 3.92 1.82 5.88 2.73 5.88 5.14 0 9.06-7.59 11.75-22.76s4.5-38.46 5.41-69.86c-2.16 1.05-4.31 1.84-6.47 2.36-2.15.52-4.31.78-6.46.78-3.81 0-7.09-5.1-9.82-15.3s-4.97-23.55-6.71-40.03-3.03-35.06-3.86-55.73c-.82-20.67-1.24-41.47-1.24-62.4 0-30.87.77-58.6 2.3-83.2 1.53-24.59 4.25-46.57 8.14-65.93 2.07-10.46 4.41-19.62 7.03-27.47 2.61-7.85 5.3-14.26 8.08-19.23 2.77-4.97 5.49-8.76 8.14-11.38s5.05-3.92 7.21-3.92h1.18c.54 0 1.12.26 1.74.78s1.16 1.44 1.61 2.75c.46 1.31.69 3.01.69 5.1zm-11.81 63.58c-3.23 4.18-6.22 9.42-8.95 15.7-2.74 6.27-5.08 14.65-7.03 25.11-1.94 10.47-3.45 23.68-4.53 39.64s-1.62 35.19-1.62 57.69c0 12.03.25 23.94.75 35.71s1.24 22.5 2.24 32.18c.99 9.68 2.25 17.53 3.79 23.55 1.53 6.01 3.37 9.02 5.53 9.02h5.84c1.41 0 2.42-2.74 3.05-8.24.62-5.49.93-12.42.93-20.8z"/><path d="m9763.3 3096.6c0 3.66-.27 5.75-.81 6.27-.54.53-1.01.79-1.43.79-.99 0-1.95-.65-2.86-1.96s-1.86-1.96-2.86-1.96c-.99 0-1.99.65-2.98 1.96s-1.99 1.96-2.98 1.96c-.42 0-.91-.26-1.49-.79-.58-.52-.87-2.61-.87-6.27 0-1.05.14-3.01.43-5.89s.62-6.8.99-11.78c.38-4.97.71-10.85 1-17.65.29-6.81.44-14.66.44-23.55v-206.43c0-7.85-.34-14.65-1-20.41-.66-5.75-1.49-10.46-2.49-14.12-.99-3.67-2.09-6.28-3.29-7.85s-2.34-2.36-3.42-2.36c-.99 0-2.13 1.31-3.42 3.93-1.28 2.61-2.48 6.28-3.6 10.99-1.12 4.7-2.05 10.2-2.8 16.48-.74 6.28-1.12 13.08-1.12 20.41v215.06c0 8.89.38 17.26 1.12 25.11.75 7.85 1.12 14.13 1.12 18.84 0 4.19-.33 6.28-.99 6.28-1.16 0-2.3-.26-3.42-.79-1.12-.52-2.26-.78-3.42-.78-.99 0-2.01.26-3.05.78-1.03.53-2.05.79-3.04.79-.41 0-.89-.26-1.43-.79-.54-.52-.81-2.61-.81-6.27 0-3.67.46-9.69 1.37-18.06s1.37-19.36 1.37-32.96v-275.5c0-12.03-.38-20.8-1.12-26.29-.75-5.5-1.12-9.82-1.12-12.95 0-4.19.21-6.28.62-6.28 1.16 0 2.3.26 3.42.78s2.26.79 3.42.79c.99 0 1.99-.53 2.98-1.57 1-1.05 1.99-1.57 2.98-1.57.17 0 .54.13 1.12.39s.83 1.44.75 3.53c-.58 4.71-1.02 8.11-1.31 10.21-.29 2.09-.47 4.31-.56 6.67-.08 2.35-.12 5.23-.12 8.63v16.09h.37c1.33-14.65 3.36-26.16 6.09-34.54 2.74-8.37 5.35-12.55 7.83-12.55 2.16 0 4.31 2.22 6.47 6.67 2.15 4.45 4.1 10.73 5.84 18.84s3.15 17.92 4.23 29.43c1.07 11.51 1.61 24.33 1.61 38.46v231.54c0 9.94.37 19.36 1.12 28.26.75 8.89 1.12 16.22 1.12 21.98z"/><path d="m9817.25 3097.38c0 2.62-.15 4.19-.44 4.71s-.56.78-.81.78c-1.16 0-2.32-.39-3.48-1.17-1.16-.79-2.32-1.18-3.48-1.18-.91 0-1.84.26-2.79.79-.96.52-1.89 1.04-2.8 1.56v-3.13c0-2.62.02-4.85.06-6.68s.06-4.05.06-6.67l-.24-1.57c-.75 1.05-1.52 2.75-2.3 5.1-.79 2.36-1.64 4.84-2.55 7.46s-1.95 4.97-3.11 7.06c-1.16 2.1-2.49 3.14-3.98 3.14-2.98 0-5.74-1.7-8.26-5.1-2.53-3.4-4.71-9.29-6.53-17.66s-3.25-19.75-4.29-34.14c-1.03-14.39-1.55-32.57-1.55-54.55s.81-40.16 2.42-54.55c1.62-14.39 3.65-26.56 6.09-36.5 2.45-9.94 5.1-18.31 7.96-25.11 2.86-6.81 5.51-13.22 7.95-19.23 2.45-6.02 4.48-12.3 6.09-18.84 1.62-6.54 2.43-14.78 2.43-24.73 0-7.32-.19-13.6-.56-18.83-.37-5.24-1.26-7.85-2.67-7.85h-17.53c-1.33 0-2.2 2.22-2.61 6.67s-.83 6.67-1.24 6.67c-.17 0-.25-.78-.25-2.35v-65.93c0-3.67.08-6.41.25-8.25.16-1.83.58-2.74 1.24-2.74h20.14c1.98 0 3.87.52 5.65 1.57 1.78 1.04 3.32 3.79 4.6 8.24 1.29 4.45 2.3 10.99 3.05 19.62.74 8.63 1.12 20.8 1.12 36.5v249.59c0 10.47.39 20.8 1.18 31.01.78 10.2 1.18 18.96 1.18 26.29zm-13.18-189.94c0-2.1-.08-3.14-.25-3.14-.99 3.66-2.65 7.58-4.97 11.77s-4.7 9.81-7.15 16.88c-2.44 7.06-4.58 15.82-6.4 26.29-1.82 10.46-2.73 23.55-2.73 39.24 0 10.47.27 18.71.81 24.73.53 6.01 1.28 10.59 2.23 13.73.96 3.14 2.03 5.11 3.23 5.89 1.21.79 2.43 1.18 3.67 1.18.83 0 1.91-1.05 3.23-3.14 1.33-2.09 2.61-4.97 3.86-8.64 1.24-3.66 2.3-8.24 3.17-13.73.87-5.5 1.3-11.38 1.3-17.66z"/><path d="m9872.93 3097.38c0 3.66-.28 5.49-.86 5.49-1.16 0-2.37-.39-3.61-1.17-1.24-.79-2.45-1.18-3.61-1.18-3.06 0-6.13.91-9.19 2.75-3.07 1.83-6.18 2.74-9.33 2.74-3.64 0-6.81-4.84-9.5-14.52-2.7-9.68-4.96-22.5-6.78-38.46s-3.17-34.4-4.04-55.33-1.31-42.65-1.31-65.15c0-31.39.77-59.26 2.31-83.59 1.53-24.33 4.24-46.18 8.14-65.54 1.49-7.85 3.25-15.3 5.28-22.37 2.03-7.06 4.14-13.73 6.34-20.01s4.35-12.3 6.46-18.05c2.12-5.76 4.04-10.99 5.78-15.7v-75.35c0-5.76-.02-10.47-.06-14.13s-.12-6.8-.25-9.42c-.12-2.61-.31-5.1-.56-7.45-.25-2.36-.54-5.63-.87-9.82-.16-2.09-.35-4.05-.56-5.88-.2-1.83-.31-4.06-.31-6.67 0-2.1.4-4.19 1.18-6.28.79-2.1 1.31-3.67 1.56-4.71l5.59-19.62c1-3.67 2.05-9.03 3.17-16.09 1.12-7.07 2.26-10.6 3.42-10.6.17 0 .37.26.62.78.25.53.37 1.57.37 3.14 0 4.19-.12 8.38-.37 12.56-.25 4.19-.45 8.37-.62 12.56-.41 10.47-.71 21.19-.87 32.18-.17 10.99-.25 20.93-.25 29.83v420.7c0 8.89.14 18.71.44 29.43.29 10.73.85 19.76 1.67 27.08.17 1.05.31 2.23.44 3.53.12 1.31.18 2.75.18 4.32zm-13.92-313.96c-1.65 4.19-3.35 7.59-5.09 10.21-1.74 2.61-3.4 6.54-4.98 11.77-2.4 7.85-4.39 16.09-5.96 24.72-1.58 8.64-2.82 17.93-3.73 27.87s-1.53 20.93-1.87 32.96c-.33 12.04-.49 25.64-.49 40.82 0 10.99.22 22.76.68 35.32s1.16 24.07 2.11 34.53c.96 10.47 2.22 19.23 3.8 26.3 1.57 7.06 3.48 10.59 5.71 10.59h5.84c1.41 0 2.43-2.74 3.05-8.24.62-5.49.93-12.43.93-20.8z"/><path d="m9928.37 2992.99c0 20.41-.72 37.81-2.17 52.19-1.45 14.39-3.34 26.3-5.66 35.72s-4.91 16.35-7.77 20.8c-2.85 4.44-5.65 6.67-8.39 6.67-4.72 0-8.93-4.19-12.61-12.56-3.69-8.37-6.86-18.31-9.51-29.83-.33-1.04-.62-2.09-.87-3.13-.25-1.05-.38-2.88-.38-5.5 0-3.14.3-6.15.88-9.03.58-2.87 1.36-9.54 2.36-20.01.49-5.23.89-10.86 1.18-16.88.29-6.01.76-9.02 1.43-9.02.41 0 .87 1.7 1.36 5.1.5 3.4.87 5.89 1.12 7.46 1.83 10.46 4.21 18.57 7.15 24.33 2.94 5.75 5.61 8.63 8.02 8.63 1.32 0 2.71-1.04 4.16-3.14 1.45-2.09 2.74-5.49 3.86-10.2 1.11-4.71 2.05-10.73 2.79-18.05.75-7.33 1.12-15.96 1.12-25.9 0-14.66-.66-27.21-1.99-37.68-1.32-10.47-3-20.01-5.03-28.65-2.03-8.63-4.23-16.74-6.59-24.33s-4.56-15.96-6.59-25.12c-2.03-9.15-3.71-19.75-5.03-31.78-1.33-12.04-1.99-26.69-1.99-43.96 0-15.17.54-27.73 1.62-37.67 1.07-9.95 2.5-17.92 4.28-23.94 1.79-6.02 3.77-10.21 5.97-12.56 2.2-2.36 4.41-3.53 6.65-3.53.91 0 2.18.91 3.79 2.74 1.62 1.83 3.23 4.19 4.85 7.07s3.04 6.28 4.29 10.2c1.24 3.93 1.9 7.98 1.99 12.17-.5 6.28-1.21 12.29-2.12 18.05-.49 3.66-.87 6.8-1.12 9.42-.24 2.61-.58 6.02-.99 10.2-.5 4.71-1.08 8.11-1.74 10.21-1.66-5.24-3.38-9.55-5.16-12.95-1.78-3.41-3.62-5.11-5.53-5.11-.91 0-1.89 1.84-2.92 5.5-1.04 3.66-1.56 8.89-1.56 15.7 0 5.23.67 10.98 1.99 17.26 1.33 6.28 2.99 13.22 4.98 20.8 1.99 7.59 4.14 16.09 6.46 25.51s4.47 20.15 6.46 32.18c1.99 12.04 3.65 25.77 4.98 41.21 1.32 15.43 1.98 32.57 1.98 51.41z"/><path d="m9981.95 2731.62c0 2.62-.27 5.36-.81 8.24s-.93 6.67-1.18 11.38c-1.41 28.26-3.09 60.83-5.03 97.72-1.95 36.89-3.84 74.44-5.66 112.63l-2.98 62.8c-.09 1.56-.23 5.49-.44 11.77s-.43 12.69-.68 19.23-.46 12.56-.62 18.05c-.17 5.49-.25 8.5-.25 9.03 0 3.14.1 6.28.31 9.42s.31 6.27.31 9.42c0 3.13-.33 4.7-.99 4.7-1.17 0-2.33-.65-3.49-1.96s-2.32-1.96-3.48-1.96c-.99 0-1.96.39-2.92 1.18-.95.78-1.92 1.17-2.92 1.17-.16 0-.45-.13-.87-.39-.41-.26-.62-1.7-.62-4.31 0-4.19.1-7.98.31-11.39.21-3.4.31-7.19.31-11.38 0-7.32-.29-18.7-.87-34.14s-1.35-32.96-2.3-52.59c-.95-19.62-1.99-40.42-3.11-62.4-1.11-21.97-2.21-43.3-3.29-63.96-1.08-20.67-2.05-39.77-2.92-57.3s-1.51-31.53-1.93-41.99c-.08-2.1-.25-4.84-.49-8.25-.25-3.4-.5-6.8-.75-10.2s-.46-6.41-.62-9.02c-.17-2.62-.25-4.45-.25-5.5 0-5.23.41-7.85 1.24-7.85 1.16 0 2.3.39 3.42 1.18 1.12.78 2.26 1.18 3.42 1.18.91 0 1.86-.4 2.86-1.18.99-.79 1.94-1.18 2.86-1.18.16 0 .49.26.99.79.5.52.75 1.83.75 3.92 0 4.71-.23 8.5-.69 11.38-.45 2.88-.68 7.98-.68 15.31 0 2.61.14 7.72.44 15.3.28 7.59.64 16.75 1.05 27.47.42 10.73.91 22.5 1.49 35.32s1.16 25.77 1.74 38.86c1.41 30.87 2.99 64.88 4.73 102.03h.37c1.74-35.06 3.36-67.24 4.85-96.54.58-12.56 1.16-25.12 1.74-37.68.58-12.55 1.1-24.06 1.55-34.53.46-10.47.83-19.75 1.12-27.86s.44-13.74.44-16.88c0-4.19-.09-7.59-.25-10.2-.17-2.62-.38-4.97-.63-7.07-.24-2.09-.45-4.05-.62-5.88-.16-1.83-.24-4.32-.24-7.46 0-4.19.37-6.28 1.11-6.28 1.16 0 2.3.39 3.42 1.18 1.12.78 2.26 1.18 3.42 1.18.99 0 2.01-.4 3.05-1.18 1.03-.79 2.09-1.18 3.17-1.18.41 0 .87.26 1.36.79.5.52.75 2.87.75 7.06z"/><path d="m10026.6 2580.92c0 13.08-.4 25.25-1.1 36.5-.8 11.25-1.8 21.06-3.2 29.43-1.3 8.37-2.8 15.05-4.6 20.02s-3.7 7.45-5.8 7.45-4.1-2.48-5.9-7.45-3.3-11.78-4.7-20.41c-1.3-8.63-2.32-18.58-3.07-29.83-.74-11.25-1.12-23.15-1.12-35.71 0-12.03.38-23.68 1.12-34.93.75-11.25 1.76-21.19 3.07-29.82 1.3-8.64 2.8-15.57 4.6-20.8 1.9-5.23 3.9-7.85 6-7.85 4.4 0 7.9 8.63 10.6 25.9s4.1 39.77 4.1 67.5zm6.3 516.46c0 2.62-.1 4.19-.4 4.71s-.6.78-.8.78c-1.2 0-2.3-.39-3.5-1.17-1.2-.79-2.3-1.18-3.5-1.18-.9 0-1.8.26-2.8.79-.9.52-1.9 1.04-2.8 1.56v-3.13c0-2.62 0-4.85.1-6.68 0-1.83 0-4.05 0-6.67l-.2-1.57c-.8 1.05-1.5 2.75-2.3 5.1-.8 2.36-1.6 4.84-2.6 7.46-.9 2.62-1.9 4.97-3.1 7.06-1.1 2.1-2.4 3.14-3.9 3.14-3 0-5.8-1.7-8.31-5.1-2.53-3.4-4.7-9.29-6.52-17.66-1.83-8.37-3.26-19.75-4.29-34.14-1.04-14.39-1.56-32.57-1.56-54.55s.81-40.16 2.43-54.55c1.61-14.39 3.64-26.56 6.09-36.5 2.44-9.94 5.06-18.31 7.96-25.11 2.9-6.81 5.5-13.22 7.9-19.23 2.5-6.02 4.5-12.3 6.1-18.84 1.7-6.54 2.5-14.78 2.5-24.73 0-7.32-.2-13.6-.6-18.83-.4-5.24-1.3-7.85-2.7-7.85h-17.5c-1.32 0-2.19 2.22-2.6 6.67-.42 4.45-.83 6.67-1.25 6.67-.16 0-.25-.78-.25-2.35v-65.93c0-3.67.09-6.41.25-8.25.17-1.83.58-2.74 1.25-2.74h20.1c2 0 3.9.52 5.7 1.57 1.8 1.04 3.3 3.79 4.6 8.24s2.3 10.99 3 19.62c.8 8.63 1.2 20.8 1.2 36.5v249.59c0 10.47.3 20.8 1.1 31.01.8 10.2 1.2 18.96 1.2 26.29zm-13.5-516.46c0-14.13-.7-25.9-2-35.32-1.4-9.42-3.2-14.13-5.5-14.13-2.1 0-3.8 5.11-5.3 15.31-1.4 10.2-2.2 21.58-2.2 34.14 0 11.51.7 22.37 2 32.57 1.4 10.21 3.2 15.31 5.6 15.31 2.1 0 3.8-4.84 5.3-14.52 1.4-9.68 2.1-20.8 2.1-33.36zm.3 326.52c0-2.1 0-3.14-.2-3.14-1 3.66-2.7 7.58-5 11.77s-4.7 9.81-7.1 16.88c-2.5 7.06-4.6 15.82-6.4 26.29-1.86 10.46-2.77 23.55-2.77 39.24 0 10.47.27 18.71.81 24.73.54 6.01 1.26 10.59 2.26 13.73.9 3.14 2 5.11 3.2 5.89 1.2.79 2.4 1.18 3.7 1.18.8 0 1.9-1.05 3.2-3.14s2.6-4.97 3.9-8.64c1.2-3.66 2.3-8.24 3.1-13.73.9-5.5 1.3-11.38 1.3-17.66z"/><path d="m10078.9 2795.2c0 1.04-.2 2.35-.6 3.92s-.9 2.88-1.4 3.93c-.6 1.04-1.1 2.09-1.7 3.13-.5 1.05-.9 1.58-1 1.58-.4.52-.9 1.69-1.5 3.53-.6 1.83-1.2 3.66-1.8 5.49s-1.2 3.4-1.8 4.71c-.5 1.31-.9 1.96-1.3 1.96-.1 0-.2-.26-.3-.78-.2-2.09-.3-4.19-.2-6.28 0-2.09 0-4.45-.1-7.06-.2-6.28-.6-11.13-1.2-14.53s-1.3-5.49-2-6.27c-.8-.79-1.5-.53-2.4.78-.8 1.31-1.5 3.27-2.1 5.89-1.9 7.85-3.2 18.83-3.8 32.96-.7 14.13-1 28.78-1 43.96v181.31c0 8.89.3 17 1.1 24.33.7 7.32 1.1 13.86 1.1 19.62 0 4.19-.3 6.28-1 6.28h-12.9c-.4 0-.9-.26-1.4-.79-.6-.52-.9-2.61-.9-6.27 0-1.57.2-4.06.5-7.46s.6-7.33.9-11.77c.3-4.45.7-9.42.9-14.92.3-5.49.5-11.12.5-16.87v-275.5c0-9.94-.4-18.31-1.1-25.12-.8-6.8-1.2-11.51-1.2-14.12 0-4.19.2-6.28.7-6.28 1.1 0 2.3.26 3.4.78s2.2.79 3.4.79c1 0 2-.53 3-1.57 1-1.05 2-1.57 3-1.57h1c.5 0 .7 1.31.8 3.92-.5 4.19-.9 7.46-1.1 9.81-.3 2.36-.5 4.45-.7 6.28-.1 1.83-.2 4.19-.2 7.07v18.44h.4c1.1-13.6 2.7-24.85 4.9-33.75s4.2-13.34 6.1-13.34c4.1 0 7.1 5.49 9.1 16.48 1.9 10.99 3.1 24.85 3.5 41.6.1 2.62.2 5.1.3 7.45.1 2.36.1 5.11.1 8.25z"/><path d="m10133.6 3097.38c0 3.66-.3 5.49-.9 5.49-1.1 0-2.3-.39-3.6-1.17-1.2-.79-2.4-1.18-3.6-1.18-3 0-6.1.91-9.2 2.75-3 1.83-6.2 2.74-9.3 2.74-3.6 0-6.8-4.84-9.5-14.52s-5-22.5-6.8-38.46-3.2-34.4-4-55.33c-.9-20.93-1.3-42.65-1.3-65.15 0-31.39.7-59.26 2.3-83.59 1.5-24.33 4.2-46.18 8.1-65.54 1.5-7.85 3.3-15.3 5.3-22.37 2-7.06 4.1-13.73 6.3-20.01s4.4-12.3 6.5-18.05c2.1-5.76 4-10.99 5.8-15.7v-75.35c0-5.76 0-10.47-.1-14.13 0-3.66-.1-6.8-.2-9.42-.2-2.61-.3-5.1-.6-7.45-.2-2.36-.5-5.63-.9-9.82-.1-2.09-.3-4.05-.5-5.88s-.3-4.06-.3-6.67c0-2.1.4-4.19 1.1-6.28.8-2.1 1.4-3.67 1.6-4.71l5.6-19.62c1-3.67 2-9.03 3.2-16.09 1.1-7.07 2.2-10.6 3.4-10.6.1 0 .4.26.6.78.3.53.4 1.57.4 3.14 0 4.19-.1 8.38-.4 12.56-.2 4.19-.5 8.37-.6 12.56-.4 10.47-.7 21.19-.9 32.18s-.2 20.93-.2 29.83v420.7c0 8.89.1 18.71.4 29.43.3 10.73.8 19.76 1.7 27.08.1 1.05.3 2.23.4 3.53.1 1.31.2 2.75.2 4.32zm-13.9-313.96c-1.7 4.19-3.4 7.59-5.1 10.21-1.8 2.61-3.4 6.54-5 11.77-2.4 7.85-4.4 16.09-6 24.72-1.5 8.64-2.8 17.93-3.7 27.87s-1.5 20.93-1.9 32.96c-.3 12.04-.4 25.64-.4 40.82 0 10.99.2 22.76.6 35.32.5 12.56 1.2 24.07 2.1 34.53 1 10.47 2.3 19.23 3.8 26.3 1.6 7.06 3.5 10.59 5.8 10.59h5.8c1.4 0 2.4-2.74 3-8.24.7-5.49 1-12.43 1-20.8z"/></g></g></g></svg>