<?xml version="1.0" encoding="UTF-8" standalone="no"?>
<!DOCTYPE svg PUBLIC "-//W3C//DTD SVG 1.1//EN" "http://www.w3.org/Graphics/SVG/1.1/DTD/svg11.dtd">
<svg width="100%" height="100%" viewBox="0 0 7128 4266" version="1.1" xmlns="http://www.w3.org/2000/svg" xmlns:xlink="http://www.w3.org/1999/xlink" xml:space="preserve" xmlns:serif="http://www.serif.com/" style="fill-rule:evenodd;clip-rule:evenodd;stroke-linejoin:round;stroke-miterlimit:2;">
    <g transform="matrix(1,0,0,1,-24944.4,-20098)">
        <g id="Horizontal-Tagline" transform="matrix(2.2275,0,0,0.999844,24944.4,20098)">
            <rect x="0" y="0" width="3200" height="4266.67" style="fill:white;"/>
            <g transform="matrix(0.843646,0,0,0.843646,257.409,160.329)">
                <g transform="matrix(0.210453,0.468857,-0.210453,0.468857,1272.01,113.802)">
                    <path d="M2054.43,3444.99L1070.61,3444.99L1070.61,3340.68L1017.81,3340.68C1017.8,3347.44 1017.8,3353.53 1017.8,3357.95C1017.8,3395.9 986.988,3426.71 949.037,3426.71C911.087,3426.71 880.276,3395.9 880.276,3357.95C880.276,3320 911.087,3289.19 949.037,3289.19C953.457,3289.19 959.553,3289.18 966.306,3289.18L966.306,3236.38L862.002,3236.38L862.002,2252.92C855.322,2252.91 849.295,2252.9 844.915,2252.9C806.965,2252.9 776.154,2222.09 776.154,2184.14C776.154,2146.19 806.965,2115.38 844.915,2115.38C882.866,2115.38 913.677,2146.19 913.677,2184.14C913.677,2188.52 913.682,2194.55 913.691,2201.23L1897.15,2201.23L1897.15,2305.53L1949.95,2305.53C1949.96,2298.78 1949.96,2292.68 1949.96,2288.26C1949.96,2250.32 1980.77,2219.5 2018.73,2219.5C2056.68,2219.5 2087.49,2250.32 2087.49,2288.26C2087.49,2326.22 2056.68,2357.03 2018.73,2357.03C2014.31,2357.03 2008.21,2357.03 2001.46,2357.04L2001.46,2409.84L2105.76,2409.84L2105.76,3393.66C2112.59,3393.67 2118.75,3393.68 2123.21,3393.68C2161.16,3393.68 2191.97,3424.49 2191.97,3462.44C2191.97,3500.39 2161.16,3531.2 2123.21,3531.2C2085.26,3531.2 2054.45,3500.39 2054.45,3462.44C2054.45,3457.98 2054.44,3451.81 2054.43,3444.99ZM1122.37,3288.93L1949.7,3288.93L1949.7,2461.6L1897.15,2461.6L1897.15,3236.38L1122.37,3236.38L1122.37,3288.93ZM1018.06,3236.38L1018.06,3288.93L1070.61,3288.93L1070.61,3236.38L1018.06,3236.38ZM1845.39,3184.62L1845.39,2461.6L1122.37,2461.6L1845.39,3184.62ZM844.915,2201.66C854.581,2201.66 862.428,2193.81 862.428,2184.14C862.428,2174.48 854.581,2166.63 844.915,2166.63C835.25,2166.63 827.402,2174.48 827.402,2184.14C827.402,2193.81 835.25,2201.66 844.915,2201.66ZM1122.37,3340.68L1122.37,3393.23C1325.09,3393.23 2054,3393.23 2054,3393.23L2054,2461.6L2001.46,2461.6L2001.46,3340.68L1122.37,3340.68ZM2001.21,2288.26C2001.21,2297.93 2009.06,2305.78 2018.73,2305.78C2028.39,2305.78 2036.24,2297.93 2036.24,2288.26C2036.24,2278.6 2028.39,2270.75 2018.73,2270.75C2009.06,2270.75 2001.21,2278.6 2001.21,2288.26ZM1949.7,2409.84L1949.7,2357.29L1897.15,2357.29L1897.15,2409.84L1949.7,2409.84ZM1845.39,2409.84L1845.39,2357.29L1018.06,2357.29L1018.06,3184.62L1070.61,3184.62L1070.61,2409.84L1845.39,2409.84ZM913.759,2253.01C913.759,2258.66 913.759,3184.62 913.759,3184.62L966.306,3184.62L966.306,2305.53L1845.39,2305.53L1845.39,2252.99C1845.39,2252.99 1116.54,2252.99 913.785,2252.99L913.785,2253.01L913.759,2253.01ZM966.55,3357.95C966.55,3348.29 958.703,3340.44 949.037,3340.44C939.372,3340.44 931.524,3348.29 931.524,3357.95C931.524,3367.62 939.372,3375.47 949.037,3375.47C958.703,3375.47 966.55,3367.62 966.55,3357.95ZM2123.21,3444.93C2113.55,3444.93 2105.7,3452.77 2105.7,3462.44C2105.7,3472.11 2113.55,3479.95 2123.21,3479.95C2132.88,3479.95 2140.72,3472.11 2140.72,3462.44C2140.72,3452.77 2132.88,3444.93 2123.21,3444.93Z"/>
                </g>
                <g transform="matrix(1,0,0,1,-3.11958,-837.147)">
                    <g transform="matrix(0.987036,0,0,0.780721,-7549.45,601.023)">
                        <path d="M9183.96,3132.79C9183.96,3134.45 9183.03,3135.56 9181.16,3136.11C9179.29,3136.66 9177.23,3137.08 9174.97,3137.36C9172.7,3137.63 9170.59,3137.63 9168.62,3137.36C9166.66,3137.08 9165.48,3136.94 9165.08,3136.94C9163.12,3136.94 9160.61,3137.49 9157.56,3138.6C9154.51,3139.71 9150.73,3140.26 9146.2,3140.26C9145.61,3140.26 9144.93,3140.12 9144.14,3139.85C9143.35,3139.57 9142.96,3138.05 9142.96,3135.28C9142.96,3133.62 9143.3,3130.43 9143.99,3125.72C9144.68,3121.01 9145.37,3115.48 9146.06,3109.11C9146.75,3102.74 9147.43,3096.23 9148.12,3089.58C9148.81,3082.93 9149.16,3076.84 9149.16,3071.3L9149.16,3067.98C9149.16,3042.5 9148.71,3016.88 9147.83,2991.12C9146.94,2965.37 9146.2,2939.75 9145.61,2914.27C9144.63,2871.06 9143.65,2828.27 9142.67,2785.9C9141.68,2743.53 9140.6,2700.74 9139.42,2657.53C9139.42,2656.42 9139.37,2653.93 9139.27,2650.05C9139.17,2646.18 9138.73,2644.24 9137.94,2644.24C9137.55,2644.24 9136.32,2646.87 9134.26,2652.13C9132.19,2657.39 9129.68,2663.9 9126.74,2671.66C9123.78,2679.41 9120.69,2688 9117.44,2697.41C9114.2,2706.83 9111.15,2715.41 9108.3,2723.17C9105.45,2730.92 9102.99,2737.43 9100.92,2742.7C9098.86,2747.96 9097.63,2750.59 9097.24,2750.59C9096.84,2750.59 9094.73,2745.33 9090.89,2734.8C9087.06,2724.28 9082.78,2712.64 9078.06,2699.91C9073.34,2687.16 9069.02,2675.53 9065.08,2665.01C9061.15,2654.49 9058.89,2649.22 9058.3,2649.22C9057.51,2649.22 9057.02,2651.02 9056.82,2654.62C9056.63,2658.22 9056.53,2660.58 9056.53,2661.68C9055.74,2684.95 9054.91,2711.12 9054.02,2740.2C9053.14,2769.28 9052.25,2799.05 9051.36,2829.52C9050.48,2859.99 9049.65,2889.76 9048.86,2918.84C9048.07,2947.92 9047.33,2974.09 9046.65,2997.36C9045.96,3020.62 9045.42,3039.87 9045.02,3055.1C9044.63,3070.33 9044.43,3078.78 9044.43,3080.44L9044.43,3084.6C9044.43,3097.89 9045.22,3108.55 9046.79,3116.58C9048.37,3124.62 9049.35,3131.68 9049.74,3137.77C9049.35,3139.43 9048.66,3140.26 9047.68,3140.26C9044.93,3140.26 9041.78,3139.71 9038.24,3138.6C9034.7,3137.49 9031.45,3136.94 9028.5,3136.94L9009.03,3136.94C9008.25,3136.94 9007.85,3136.11 9007.85,3134.45C9007.85,3133.34 9008.15,3131.68 9008.74,3129.46C9009.33,3127.25 9009.72,3125.86 9009.92,3125.31C9014.64,3108.14 9017.29,3087.92 9017.88,3064.66C9019.26,3014.25 9020.54,2964.26 9021.72,2914.68C9022.9,2865.11 9024.18,2815.12 9025.55,2764.71C9026.14,2739.23 9026.83,2713.34 9027.62,2687.03C9028.41,2660.72 9029.09,2635.1 9029.68,2610.17C9029.68,2609.06 9029.73,2607.68 9029.83,2606.02C9029.93,2604.36 9029.98,2602.97 9029.98,2601.86C9029.98,2593.55 9029.19,2587.6 9027.62,2584C9026.05,2580.4 9025.26,2576.38 9025.26,2571.95C9025.26,2566.97 9026.24,2564.47 9028.21,2564.47C9031.55,2564.47 9034.9,2565.03 9038.24,2566.14C9041.58,2567.24 9044.93,2567.8 9048.27,2567.8C9051.61,2567.8 9054.95,2567.24 9058.3,2566.14C9061.64,2565.03 9064.98,2564.47 9068.33,2564.47C9070.49,2564.47 9071.57,2568.08 9071.57,2575.28C9071.57,2583.58 9072.9,2591.06 9075.56,2597.71C9078.21,2604.36 9080.13,2609.34 9081.31,2612.66C9081.5,2613.77 9082.44,2616.4 9084.11,2620.56C9085.78,2624.71 9087.55,2629.14 9089.42,2633.85C9091.29,2638.56 9093.06,2642.85 9094.73,2646.73C9096.4,2650.61 9097.43,2652.55 9097.83,2652.55C9098.22,2652.55 9099.69,2649.64 9102.25,2643.82C9104.81,2638.01 9107.46,2631.22 9110.22,2623.47C9113.56,2615.16 9117.2,2605.46 9121.13,2594.39C9122.31,2591.62 9123.29,2588.85 9124.08,2586.08C9124.87,2583.31 9125.46,2579.71 9125.85,2575.28C9126.24,2572.51 9126.54,2570.01 9126.74,2567.8C9126.93,2565.58 9127.72,2564.47 9129.09,2564.47C9132.05,2564.47 9135,2565.03 9137.94,2566.14C9140.9,2567.24 9143.84,2567.8 9146.8,2567.8C9150.14,2567.8 9153.58,2567.24 9157.12,2566.14C9160.66,2565.03 9164.1,2564.47 9167.44,2564.47C9167.84,2564.47 9168.58,2564.75 9169.66,2565.3C9170.74,2565.86 9171.28,2566.97 9171.28,2568.63C9171.28,2570.29 9170.93,2572.51 9170.25,2575.28C9169.56,2578.05 9168.87,2581.23 9168.18,2584.83C9167.49,2588.43 9166.85,2592.45 9166.26,2596.88C9165.67,2601.31 9165.38,2605.74 9165.38,2610.17C9165.58,2621.25 9165.87,2633.3 9166.26,2646.31C9166.66,2659.33 9167.05,2672.62 9167.44,2686.2C9167.84,2699.77 9168.18,2713.2 9168.48,2726.49C9168.77,2739.79 9169.12,2752.25 9169.51,2763.88C9170.69,2813.73 9171.87,2863.31 9173.05,2912.61C9174.23,2961.9 9175.41,3011.48 9176.59,3061.33C9176.78,3070.19 9177.28,3081.27 9178.06,3094.57C9178.85,3107.86 9180.23,3118.11 9182.19,3125.31C9182.59,3126.42 9182.98,3127.52 9183.37,3128.63C9183.77,3129.74 9183.96,3131.12 9183.96,3132.79Z" style="fill-rule:nonzero;"/>
                        <path d="M9312.58,2566.14C9312.58,2568.35 9312.09,2570.57 9311.1,2572.78C9310.12,2575 9308.99,2577.21 9307.71,2579.43C9306.43,2581.64 9305.11,2583.58 9303.73,2585.25C9302.35,2586.91 9301.37,2588.29 9300.78,2589.4C9299.4,2592.17 9296.9,2599.65 9293.26,2611.83C9289.62,2624.02 9285.83,2637.31 9281.9,2651.72C9277.97,2666.12 9274.28,2679.83 9270.84,2692.84C9267.4,2705.86 9265.09,2714.31 9263.91,2718.18L9263.91,3072.96C9263.91,3081.27 9264.15,3088.47 9264.64,3094.57C9265.14,3100.66 9265.73,3105.92 9266.41,3110.35C9267.1,3114.78 9267.69,3118.8 9268.18,3122.4C9268.68,3126 9268.92,3129.74 9268.92,3133.62C9268.92,3135.83 9268.53,3137.08 9267.74,3137.36C9266.95,3137.63 9266.36,3137.77 9265.97,3137.77C9263.22,3137.77 9260.42,3137.22 9257.56,3136.11C9254.71,3135 9251.91,3134.45 9249.16,3134.45C9246.6,3134.45 9244.09,3135 9241.63,3136.11C9239.18,3137.22 9236.77,3137.77 9234.41,3137.77C9234.01,3137.77 9233.52,3137.49 9232.93,3136.94C9232.34,3136.39 9232.05,3135.28 9232.05,3133.62C9232.05,3125.86 9232.74,3117 9234.11,3107.03C9235.49,3097.06 9236.18,3087.37 9236.18,3077.95L9236.18,2721.51C9229.69,2700.46 9223.25,2679.41 9216.85,2658.36C9210.46,2637.31 9204.32,2615.43 9198.42,2592.72C9197.63,2589.95 9196.65,2587.6 9195.47,2585.66C9194.29,2583.72 9193.11,2582.06 9191.93,2580.68C9190.75,2579.29 9189.72,2577.91 9188.83,2576.52C9187.95,2575.14 9187.5,2573.34 9187.5,2571.12C9187.5,2568.35 9187.85,2566.41 9188.54,2565.3C9189.22,2564.2 9189.96,2563.64 9190.75,2563.64C9194.29,2563.64 9197.88,2564.2 9201.51,2565.3C9205.15,2566.41 9208.74,2566.97 9212.28,2566.97C9215.63,2566.97 9218.92,2566.55 9222.17,2565.72C9225.41,2564.89 9228.7,2564.47 9232.05,2564.47C9233.23,2564.47 9234.06,2564.89 9234.55,2565.72C9235.05,2566.55 9235.29,2568.63 9235.29,2571.95C9235.29,2574.17 9235.14,2576.38 9234.85,2578.6C9234.55,2580.82 9234.41,2583.31 9234.41,2586.08C9234.41,2587.74 9235.09,2591.75 9236.47,2598.12C9237.85,2604.49 9239.42,2611.28 9241.19,2618.48C9242.96,2625.68 9244.58,2632.47 9246.06,2638.84C9247.53,2645.21 9248.37,2648.67 9248.57,2649.22L9249.45,2649.22C9249.84,2647.56 9250.78,2643.55 9252.25,2637.18C9253.73,2630.8 9255.3,2623.88 9256.97,2616.4C9258.65,2608.93 9260.12,2601.86 9261.4,2595.22C9262.68,2588.57 9263.32,2584.41 9263.32,2582.75C9263.32,2581.09 9263.22,2579.57 9263.02,2578.18C9262.82,2576.8 9262.73,2575 9262.73,2572.78C9262.73,2570.01 9262.87,2567.66 9263.17,2565.72C9263.46,2563.78 9264.1,2562.81 9265.09,2562.81C9269.02,2562.81 9272.81,2562.95 9276.44,2563.23C9280.08,2563.51 9283.87,2563.64 9287.8,2563.64C9291.54,2563.64 9295.32,2563.23 9299.16,2562.4C9302.99,2561.57 9306.78,2561.15 9310.51,2561.15C9311.89,2561.15 9312.58,2562.81 9312.58,2566.14Z" style="fill-rule:nonzero;"/>
                        <path d="M9449.16,3134.45C9449.16,3135.56 9448.96,3136.66 9448.57,3137.77C9448.18,3138.88 9447.78,3139.71 9447.39,3140.26C9444.24,3140.26 9441.15,3139.71 9438.1,3138.6C9435.05,3137.49 9431.95,3136.94 9428.81,3136.94C9425.46,3136.94 9421.82,3137.36 9417.89,3138.19C9413.96,3139.02 9410.32,3139.43 9406.98,3139.43C9405.8,3139.43 9405.21,3137.49 9405.21,3133.62C9405.21,3127.52 9405.84,3121.15 9407.12,3114.51C9408.4,3107.86 9409.04,3100.94 9409.04,3093.74C9409.04,3092.07 9408.3,3085.29 9406.83,3073.38C9405.35,3061.47 9403.53,3047.07 9401.37,3030.17C9399.21,3013.28 9396.8,2995 9394.14,2975.34C9391.49,2955.67 9388.98,2937.39 9386.62,2920.5C9384.26,2903.61 9382.25,2889.2 9380.58,2877.3C9378.9,2865.39 9377.97,2858.6 9377.77,2856.94C9377.38,2856.94 9376.25,2861.23 9374.38,2869.82C9372.51,2878.4 9370.5,2887.82 9368.33,2898.07C9366.17,2908.31 9364.06,2918.28 9361.99,2927.98C9359.93,2937.67 9358.6,2943.62 9358.01,2945.84C9356.83,2951.38 9356.24,2958.03 9356.24,2965.78L9356.24,3077.95C9356.24,3085.7 9356.39,3091.8 9356.68,3096.23C9356.98,3100.66 9357.42,3104.54 9358.01,3107.86C9358.6,3111.18 9359.29,3114.78 9360.07,3118.66C9360.86,3122.54 9361.65,3127.25 9362.43,3132.79C9362.43,3134.45 9362.14,3135.56 9361.55,3136.11C9360.96,3136.66 9360.47,3136.94 9360.07,3136.94L9340.6,3136.94C9338.24,3136.94 9335.64,3137.49 9332.79,3138.6C9329.93,3139.71 9327.33,3140.26 9324.97,3140.26C9323.59,3140.26 9322.85,3139.43 9322.76,3137.77C9322.66,3136.11 9322.81,3133.89 9323.2,3131.12C9323.4,3130.02 9323.84,3127.52 9324.53,3123.65C9325.22,3119.77 9325.95,3114.92 9326.74,3109.11C9327.52,3103.29 9328.21,3097.2 9328.8,3090.83C9329.39,3084.46 9329.69,3078.23 9329.69,3072.13L9329.69,2650.05C9329.69,2641.19 9329.49,2629.42 9329.1,2614.74C9328.7,2600.06 9327.72,2588.29 9326.15,2579.43C9325.76,2577.21 9325.26,2575.28 9324.67,2573.61C9324.08,2571.95 9323.79,2569.74 9323.79,2566.97C9323.79,2564.75 9324.18,2563.51 9324.97,2563.23C9325.76,2562.95 9326.34,2562.81 9326.74,2562.81C9329.3,2562.81 9331.8,2563.23 9334.26,2564.06C9336.72,2564.89 9339.23,2565.3 9341.78,2565.3L9368.92,2565.3C9375.61,2565.3 9382.89,2565.03 9390.75,2564.47C9398.62,2563.92 9405.9,2563.64 9412.58,2563.64C9415.73,2563.64 9418.87,2564.34 9422.02,2565.72C9425.17,2567.11 9428.07,2569.74 9430.72,2573.61C9433.38,2577.49 9435.54,2582.89 9437.21,2589.82C9438.88,2596.74 9439.72,2605.46 9439.72,2615.99C9439.72,2622.08 9438.74,2630.11 9436.77,2640.08C9434.8,2650.05 9432.39,2660.99 9429.54,2672.9C9426.69,2684.81 9423.59,2696.86 9420.25,2709.05C9416.91,2721.23 9413.81,2732.72 9410.96,2743.53C9408.11,2754.33 9405.7,2763.88 9403.73,2772.19C9401.76,2780.5 9400.78,2786.32 9400.78,2789.64C9400.78,2791.3 9401.62,2799.47 9403.29,2814.15C9404.96,2828.83 9407.07,2846.69 9409.63,2867.74C9412.19,2888.79 9415.04,2911.5 9418.19,2935.87C9421.33,2960.24 9424.33,2983.51 9427.18,3005.66C9430.03,3027.82 9432.54,3047.07 9434.7,3063.41C9436.87,3079.75 9438.34,3090.14 9439.13,3094.57C9440.11,3100.11 9441.15,3105.64 9442.23,3111.18C9443.31,3116.72 9444.64,3121.71 9446.21,3126.14C9446.6,3127.25 9447.19,3128.63 9447.98,3130.29C9448.77,3131.95 9449.16,3133.34 9449.16,3134.45ZM9401.37,2648.39C9401.37,2643.96 9400.73,2640.91 9399.45,2639.25C9398.18,2637.59 9396.85,2636.76 9395.47,2636.76L9361.55,2636.76C9358.79,2636.76 9357.22,2638.28 9356.83,2641.33C9356.43,2644.38 9356.24,2649.5 9356.24,2656.7L9356.24,2822.04L9356.83,2827.03C9357.61,2826.47 9358.4,2825.09 9359.19,2822.87C9359.97,2820.66 9360.56,2818.72 9360.96,2817.06C9368.43,2788.81 9375.12,2763.05 9381.02,2739.79C9383.57,2729.82 9386.03,2719.98 9388.39,2710.29C9390.75,2700.6 9392.92,2691.6 9394.88,2683.29C9396.85,2674.98 9398.42,2667.78 9399.6,2661.68C9400.78,2655.59 9401.37,2651.16 9401.37,2648.39Z" style="fill-rule:nonzero;"/>
                        <path d="M9577.19,2984.06C9577.19,3007.33 9575.37,3028.79 9571.73,3048.45C9568.09,3068.12 9563.32,3085.15 9557.42,3099.55C9551.52,3113.95 9544.74,3125.17 9537.07,3133.2C9529.4,3141.23 9521.63,3145.25 9513.76,3145.25C9501.37,3145.25 9490.46,3140.96 9481.02,3132.37C9471.58,3123.78 9462.24,3112.57 9453,3098.72C9452.21,3097.61 9451.47,3096.64 9450.78,3095.81C9450.09,3094.98 9449.75,3092.9 9449.75,3089.58C9449.75,3086.81 9450.24,3084.87 9451.23,3083.76C9452.21,3082.66 9453,3081.27 9453.59,3079.61C9455.35,3075.18 9457.27,3068.12 9459.34,3058.42C9461.4,3048.73 9463.12,3040.56 9464.5,3033.91C9464.89,3032.8 9465.38,3030.59 9465.97,3027.27C9466.56,3023.94 9467.15,3022.28 9467.74,3022.28C9468.53,3022.28 9469.27,3023.66 9469.96,3026.43C9470.65,3029.2 9471.19,3031.14 9471.58,3032.25C9474.14,3041.11 9477.18,3048.31 9480.72,3053.85C9484.26,3059.39 9488,3063.82 9491.93,3067.15C9495.87,3070.47 9499.7,3072.69 9503.44,3073.79C9507.17,3074.9 9510.52,3075.46 9513.47,3075.46C9518.38,3075.46 9522.96,3073.24 9527.18,3068.81C9531.41,3064.38 9535.1,3058.01 9538.25,3049.7C9541.39,3041.39 9543.85,3031.56 9545.62,3020.2C9547.39,3008.85 9548.28,2995.97 9548.28,2981.57C9548.28,2954.98 9546.46,2931.72 9542.82,2911.78C9539.18,2891.84 9534.61,2873.69 9529.1,2857.35C9523.6,2841.01 9517.7,2825.92 9511.4,2812.07C9505.11,2798.22 9499.21,2783.82 9493.7,2768.87C9488.2,2753.91 9483.62,2737.85 9479.99,2720.68C9476.35,2703.51 9474.53,2683.57 9474.53,2660.85C9474.53,2628.17 9478.22,2603.11 9485.59,2585.66C9492.97,2568.21 9504.62,2559.49 9520.55,2559.49C9524.48,2559.49 9528.81,2561.15 9533.53,2564.47C9538.25,2567.8 9542.67,2571.68 9546.8,2576.11C9550.93,2580.54 9554.42,2585.25 9557.27,2590.23C9560.12,2595.22 9561.55,2599.65 9561.55,2603.53C9561.55,2603.53 9561.06,2605.33 9560.08,2608.93C9559.09,2612.53 9557.91,2616.68 9556.54,2621.39C9555.16,2626.1 9553.88,2630.67 9552.7,2635.1C9551.52,2639.53 9550.74,2642.58 9550.34,2644.24C9549.95,2646.45 9549.51,2648.81 9549.01,2651.3C9548.52,2653.79 9547.88,2655.59 9547.1,2656.7C9540.8,2645.62 9535.4,2638.42 9530.87,2635.1C9526.35,2631.77 9522.12,2630.11 9518.19,2630.11C9513.86,2630.11 9510.37,2632.61 9507.72,2637.59C9505.06,2642.58 9503.73,2649.5 9503.73,2658.36C9503.73,2674.43 9505.55,2689.1 9509.19,2702.4C9512.83,2715.69 9517.35,2728.99 9522.76,2742.28C9528.17,2755.57 9534.07,2769.7 9540.46,2784.65C9546.85,2799.61 9552.75,2816.5 9558.16,2835.34C9563.57,2854.17 9568.09,2875.63 9571.73,2899.73C9575.37,2923.82 9577.19,2951.93 9577.19,2984.06Z" style="fill-rule:nonzero;"/>
                        <path d="M9707.28,2562.81C9705.7,2585.52 9702.31,2604.08 9697.1,2618.48C9691.89,2632.88 9685.15,2640.08 9676.89,2640.08C9673.55,2640.08 9670.5,2639.67 9667.75,2638.84C9664.99,2638.01 9661.95,2637.59 9658.6,2637.59C9657.42,2637.59 9656.64,2638.01 9656.24,2638.84C9655.85,2639.67 9655.65,2641.74 9655.65,2645.07L9655.65,3076.29C9655.65,3084.04 9655.8,3092.07 9656.09,3100.38C9656.39,3108.69 9657.52,3115.89 9659.49,3121.98C9659.88,3123.09 9660.32,3124.62 9660.82,3126.55C9661.31,3128.49 9661.55,3130.57 9661.55,3132.79C9661.55,3136.11 9660.77,3137.77 9659.19,3137.77C9658.21,3137.77 9657.33,3137.49 9656.54,3136.94C9655.75,3136.39 9654.87,3136.11 9653.88,3136.11C9651.72,3135.56 9649.51,3135.28 9647.25,3135.28L9640.61,3135.28C9638.25,3135.28 9635.69,3135.56 9632.94,3136.11C9630.18,3136.66 9627.63,3136.94 9625.27,3136.94C9624.29,3136.94 9623.2,3136.39 9622.02,3135.28C9620.84,3134.17 9620.25,3132.23 9620.25,3129.46C9620.25,3127.8 9620.35,3126.69 9620.55,3126.14C9622.71,3115.06 9624.48,3104.68 9625.86,3094.98C9627.24,3085.29 9627.92,3073.79 9627.92,3060.5L9627.92,2648.39C9627.92,2644.51 9627.63,2641.88 9627.04,2640.5C9626.45,2639.11 9625.71,2638.14 9624.83,2637.59C9623.94,2637.04 9622.91,2636.9 9621.73,2637.18C9620.55,2637.45 9619.47,2637.59 9618.48,2637.59C9613.96,2637.59 9609.44,2637.87 9604.92,2638.42C9600.39,2638.97 9595.87,2640.91 9591.34,2644.24C9589.97,2645.35 9588.54,2647.28 9587.07,2650.05C9585.59,2652.82 9584.26,2654.21 9583.09,2654.21C9582.1,2654.21 9581.46,2653.24 9581.17,2651.3C9580.87,2649.36 9580.73,2647.01 9580.73,2644.24C9580.73,2642.02 9580.77,2639.94 9580.87,2638.01C9580.97,2636.07 9581.02,2633.99 9581.02,2631.77L9581.02,2566.97L9686.04,2567.8C9688.2,2567.8 9690.85,2567.24 9694,2566.14C9697.15,2565.03 9699.7,2563.09 9701.67,2560.32C9702.26,2559.21 9702.9,2558.24 9703.59,2557.41C9704.28,2556.58 9705.01,2556.17 9705.8,2556.17C9706.78,2556.17 9707.28,2557.55 9707.28,2560.32L9707.28,2562.81Z" style="fill-rule:nonzero;"/>
                        <path d="M9839.14,3043.88C9839.14,3049.98 9839.04,3056.49 9838.84,3063.41C9838.65,3070.33 9838.55,3076.84 9838.55,3082.93L9838.55,3124.48C9838.55,3131.68 9837.96,3135.69 9836.78,3136.53C9835.6,3137.36 9833.93,3137.77 9831.76,3137.77C9816.23,3137.77 9800.79,3137.36 9785.45,3136.53C9770.11,3135.69 9754.67,3135.28 9739.14,3135.28C9736.18,3135.28 9733.28,3135.56 9730.43,3136.11C9727.58,3136.66 9724.68,3136.94 9721.73,3136.94C9720.35,3136.94 9719.67,3135.56 9719.67,3132.79C9719.67,3128.91 9720.35,3125.03 9721.73,3121.15C9723.3,3116.72 9724.53,3110.63 9725.42,3102.88C9726.3,3095.12 9726.94,3087.09 9727.34,3078.78C9727.73,3070.47 9727.93,3062.02 9727.93,3053.44L9727.93,2625.13C9727.93,2620.14 9727.68,2614.47 9727.19,2608.1C9726.7,2601.72 9726.2,2595.77 9725.71,2590.23C9725.22,2584.69 9724.73,2579.85 9724.24,2575.69C9723.75,2571.54 9723.5,2568.91 9723.5,2567.8C9723.5,2565.58 9723.84,2564.47 9724.53,2564.47L9726.16,2564.47C9728.71,2564.47 9731.17,2564.75 9733.53,2565.3C9735.89,2565.86 9738.35,2566.14 9740.91,2566.14C9754.87,2566.14 9768.68,2565.72 9782.35,2564.89C9796.02,2564.06 9809.83,2563.64 9823.8,2563.64C9825.37,2563.64 9826.16,2565.58 9826.16,2569.46C9826.16,2583.86 9826.35,2597.85 9826.75,2611.42C9827.14,2624.99 9827.34,2638.97 9827.34,2653.38L9827.34,2656.28C9827.34,2657.67 9827.14,2658.36 9826.75,2658.36C9826.35,2658.36 9825.81,2657.67 9825.12,2656.28C9824.44,2654.9 9823.9,2653.65 9823.5,2652.55C9820.75,2646.45 9817.06,2642.3 9812.44,2640.08C9807.82,2637.87 9803.84,2636.76 9800.49,2636.76L9758.01,2636.76C9756.25,2636.76 9755.21,2637.45 9754.92,2638.84C9754.62,2640.22 9754.48,2642.3 9754.48,2645.07C9754.48,2647.28 9754.43,2650.19 9754.33,2653.79C9754.23,2657.39 9754.23,2660.99 9754.33,2664.59C9754.43,2668.19 9754.67,2671.24 9755.07,2673.73C9755.46,2676.22 9756.05,2677.47 9756.84,2677.47L9817.6,2677.47C9819.18,2677.47 9820.16,2678.3 9820.55,2679.96C9820.95,2681.63 9821.14,2684.67 9821.14,2689.1L9821.14,2735.63C9821.14,2743.39 9819.77,2747.26 9817.01,2747.26L9758.6,2747.26C9757.03,2747.26 9755.95,2747.54 9755.36,2748.1C9754.77,2748.65 9754.48,2751.42 9754.48,2756.4L9754.48,3032.25C9754.48,3044.44 9755.16,3052.47 9756.54,3056.35C9757.92,3060.22 9760.67,3062.16 9764.8,3062.16L9811.41,3062.16C9815.14,3062.16 9818.49,3060.92 9821.44,3058.42C9824.39,3055.93 9826.94,3053.3 9829.11,3050.53C9831.27,3047.76 9833.09,3045.13 9834.57,3042.64C9836.04,3040.14 9837.17,3038.9 9837.96,3038.9C9838.35,3038.9 9838.65,3039.45 9838.84,3040.56C9839.04,3041.67 9839.14,3042.78 9839.14,3043.88Z" style="fill-rule:nonzero;"/>
                        <path d="M9980.14,2568.63C9980.14,2571.95 9979.85,2574.72 9979.26,2576.94C9977.29,2588.01 9975.91,2597.02 9975.13,2603.94C9974.34,2610.86 9973.95,2620.97 9973.95,2634.27L9973.95,3070.47C9973.95,3079.33 9974.24,3087.92 9974.83,3096.23C9975.42,3104.54 9976.5,3112.57 9978.08,3120.32C9978.47,3121.98 9978.82,3123.65 9979.11,3125.31C9979.41,3126.97 9979.55,3128.91 9979.55,3131.12C9979.55,3135 9978.57,3136.94 9976.6,3136.94C9974.24,3136.94 9971.54,3136.53 9968.49,3135.69C9965.44,3134.86 9962.64,3134.45 9960.08,3134.45C9957.33,3134.45 9954.63,3134.86 9951.97,3135.69C9949.32,3136.53 9946.61,3136.94 9943.86,3136.94L9943.27,3136.94C9941.69,3136.94 9940.91,3135 9940.91,3131.12C9940.91,3128.35 9941.4,3125.59 9942.38,3122.82C9943.37,3120.05 9944.15,3116.03 9944.74,3110.77C9945.33,3105.51 9945.83,3099.83 9946.22,3093.74C9946.61,3087.64 9946.91,3081.69 9947.1,3075.87C9947.3,3070.06 9947.4,3065.21 9947.4,3061.33L9947.4,2935.87L9910.23,2780.5C9907.08,2767.2 9903.84,2754.05 9900.5,2741.03C9897.15,2728.02 9893.81,2715.14 9890.47,2702.4C9890.07,2701.29 9889.63,2699.77 9889.14,2697.83C9888.65,2695.89 9888.1,2694.92 9887.51,2694.92C9886.53,2694.92 9886.04,2697.97 9886.04,2704.06L9886.04,3070.47C9886.04,3077.67 9886.34,3086.26 9886.93,3096.23C9887.51,3106.2 9888.69,3113.95 9890.47,3119.49C9890.86,3120.6 9891.5,3122.68 9892.38,3125.72C9893.27,3128.77 9893.71,3131.4 9893.71,3133.62C9893.71,3135.28 9893.37,3136.25 9892.68,3136.53C9891.99,3136.8 9891.45,3136.94 9891.06,3136.94C9888.3,3136.94 9885.55,3136.53 9882.8,3135.69C9880.04,3134.86 9877.29,3134.45 9874.54,3134.45C9871.59,3134.45 9868.34,3134.86 9864.8,3135.69C9861.26,3136.53 9858.02,3136.94 9855.07,3136.94L9854.48,3136.94C9852.9,3136.94 9852.12,3135 9852.12,3131.12C9852.12,3128.35 9852.61,3125.59 9853.59,3122.82C9855.76,3116.17 9857.28,3106.47 9858.16,3093.74C9859.05,3080.99 9859.49,3070.19 9859.49,3061.33L9859.49,2625.54C9859.49,2620.28 9859.44,2614.88 9859.34,2609.34C9859.25,2603.8 9859.05,2598.68 9858.75,2593.97C9858.46,2589.26 9858.11,2585.8 9857.72,2583.58C9857.33,2581.37 9856.79,2578.88 9856.1,2576.11C9855.41,2573.34 9855.07,2570.84 9855.07,2568.63C9855.07,2566.41 9855.46,2565.03 9856.25,2564.47C9857.03,2563.92 9857.72,2563.64 9858.31,2563.64C9860.87,2563.64 9863.62,2563.92 9866.57,2564.47C9869.52,2565.03 9872.27,2565.3 9874.83,2565.3C9878.37,2565.3 9882.01,2565.17 9885.75,2564.89C9889.48,2564.61 9893.12,2564.47 9896.66,2564.47L9898.87,2564.47C9899.76,2564.47 9900.2,2565.86 9900.2,2568.63C9900.2,2571.4 9899.56,2574.86 9898.28,2579.01C9897,2583.17 9896.36,2588.57 9896.36,2595.22C9896.36,2597.99 9896.76,2602.14 9897.55,2607.68C9899.12,2616.54 9901.09,2625.27 9903.44,2633.85C9905.81,2642.44 9908.07,2650.61 9910.23,2658.36C9914.16,2673.87 9918.15,2689.38 9922.18,2704.89C9926.21,2720.4 9930.19,2735.91 9934.12,2751.42C9936.29,2759.17 9938.06,2766.93 9939.43,2774.68C9940.81,2782.44 9942.38,2790.47 9944.15,2798.78C9944.35,2799.89 9944.69,2801.55 9945.19,2803.76C9945.68,2805.98 9946.12,2807.09 9946.51,2807.09C9946.91,2807.09 9947.15,2805.98 9947.25,2803.76C9947.35,2801.55 9947.4,2800.16 9947.4,2799.61L9947.4,2612.66C9947.4,2600.48 9946.61,2590.78 9945.04,2583.58C9944.65,2581.37 9943.71,2578.88 9942.24,2576.11C9940.76,2573.34 9940.02,2570.84 9940.02,2568.63C9940.02,2566.41 9940.42,2565.03 9941.2,2564.47C9941.99,2563.92 9942.68,2563.64 9943.27,2563.64C9946.22,2563.64 9949.07,2563.92 9951.82,2564.47C9954.58,2565.03 9957.43,2565.3 9960.38,2565.3C9962.74,2565.3 9965.49,2565.17 9968.64,2564.89C9971.78,2564.61 9974.54,2564.47 9976.9,2564.47L9978.96,2564.47C9979.75,2564.47 9980.14,2565.86 9980.14,2568.63Z" style="fill-rule:nonzero;"/>
                        <path d="M10122,2984.06C10122,3007.33 10120.2,3028.79 10116.6,3048.45C10112.9,3068.12 10108.2,3085.15 10102.3,3099.55C10096.4,3113.95 10089.6,3125.17 10081.9,3133.2C10074.2,3141.23 10066.5,3145.25 10058.6,3145.25C10046.2,3145.25 10035.3,3140.96 10025.9,3132.37C10016.4,3123.78 10007.1,3112.57 9997.84,3098.72C9997.06,3097.61 9996.32,3096.64 9995.63,3095.81C9994.94,3094.98 9994.6,3092.9 9994.6,3089.58C9994.6,3086.81 9995.09,3084.87 9996.07,3083.76C9997.06,3082.66 9997.84,3081.27 9998.43,3079.61C10000.2,3075.18 10002.1,3068.12 10004.2,3058.42C10006.2,3048.73 10008,3040.56 10009.3,3033.91C10009.7,3032.8 10010.2,3030.59 10010.8,3027.27C10011.4,3023.94 10012,3022.28 10012.6,3022.28C10013.4,3022.28 10014.1,3023.66 10014.8,3026.43C10015.5,3029.2 10016,3031.14 10016.4,3032.25C10019,3041.11 10022,3048.31 10025.6,3053.85C10029.1,3059.39 10032.8,3063.82 10036.8,3067.15C10040.7,3070.47 10044.5,3072.69 10048.3,3073.79C10052,3074.9 10055.4,3075.46 10058.3,3075.46C10063.2,3075.46 10067.8,3073.24 10072,3068.81C10076.3,3064.38 10079.9,3058.01 10083.1,3049.7C10086.2,3041.39 10088.7,3031.56 10090.5,3020.2C10092.2,3008.85 10093.1,2995.97 10093.1,2981.57C10093.1,2954.98 10091.3,2931.72 10087.7,2911.78C10084,2891.84 10079.5,2873.69 10073.9,2857.35C10068.4,2841.01 10062.5,2825.92 10056.2,2812.07C10050,2798.22 10044.1,2783.82 10038.6,2768.87C10033,2753.91 10028.5,2737.85 10024.8,2720.68C10021.2,2703.51 10019.4,2683.57 10019.4,2660.85C10019.4,2628.17 10023.1,2603.11 10030.4,2585.66C10037.8,2568.21 10049.5,2559.49 10065.4,2559.49C10069.3,2559.49 10073.7,2561.15 10078.4,2564.47C10083.1,2567.8 10087.5,2571.68 10091.6,2576.11C10095.8,2580.54 10099.3,2585.25 10102.1,2590.23C10105,2595.22 10106.4,2599.65 10106.4,2603.53C10106.4,2603.53 10105.9,2605.33 10104.9,2608.93C10103.9,2612.53 10102.8,2616.68 10101.4,2621.39C10100,2626.1 10098.7,2630.67 10097.5,2635.1C10096.4,2639.53 10095.6,2642.58 10095.2,2644.24C10094.8,2646.45 10094.4,2648.81 10093.9,2651.3C10093.4,2653.79 10092.7,2655.59 10091.9,2656.7C10085.6,2645.62 10080.2,2638.42 10075.7,2635.1C10071.2,2631.77 10067,2630.11 10063,2630.11C10058.7,2630.11 10055.2,2632.61 10052.6,2637.59C10049.9,2642.58 10048.6,2649.5 10048.6,2658.36C10048.6,2674.43 10050.4,2689.1 10054,2702.4C10057.7,2715.69 10062.2,2728.99 10067.6,2742.28C10073,2755.57 10078.9,2769.7 10085.3,2784.65C10091.7,2799.61 10097.6,2816.5 10103,2835.34C10108.4,2854.17 10112.9,2875.63 10116.6,2899.73C10120.2,2923.82 10122,2951.93 10122,2984.06Z" style="fill-rule:nonzero;"/>
                    </g>
                    <g transform="matrix(0.948046,0,0,0.334493,-7183.6,2305.61)">
                        <path d="M9043.96,2958.45C9043.96,2980.43 9043.19,3000.71 9041.66,3019.28C9040.12,3037.86 9038.11,3053.95 9035.63,3067.55C9033.14,3081.16 9030.28,3091.76 9027.05,3099.34C9023.82,3106.93 9020.55,3110.72 9017.23,3110.72C9012.01,3110.72 9007.41,3106.67 9003.43,3098.56C8999.46,3090.45 8995.52,3079.85 8991.63,3066.77C8991.3,3065.72 8990.98,3064.81 8990.69,3064.02C8990.4,3063.24 8990.26,3061.28 8990.26,3058.14C8990.26,3055.52 8990.47,3053.69 8990.88,3052.64C8991.3,3051.6 8991.63,3050.29 8991.88,3048.72C8992.62,3044.53 8993.43,3037.86 8994.3,3028.7C8995.17,3019.55 8995.89,3011.83 8996.47,3005.55C8996.64,3004.5 8996.85,3002.41 8997.09,2999.27C8997.34,2996.13 8997.59,2994.56 8997.84,2994.56C8998.17,2994.56 8998.48,2995.87 8998.77,2998.48C8999.06,3001.1 8999.29,3002.93 8999.46,3003.98C9000.53,3012.35 9001.82,3019.15 9003.31,3024.39C9004.8,3029.62 9006.38,3033.8 9008.03,3036.94C9009.69,3040.08 9011.31,3042.18 9012.88,3043.22C9014.46,3044.27 9015.86,3044.79 9017.11,3044.79C9019.18,3044.79 9021.11,3042.7 9022.89,3038.51C9024.67,3034.33 9026.22,3028.31 9027.55,3020.46C9028.88,3012.61 9029.91,3003.32 9030.66,2992.6C9031.4,2981.87 9031.78,2969.7 9031.78,2956.1C9031.78,2930.98 9031.01,2909.01 9029.48,2890.17C9027.94,2871.33 9026.02,2854.19 9023.7,2838.76C9021.38,2823.32 9018.89,2809.06 9016.24,2795.98C9013.59,2782.9 9011.1,2769.3 9008.78,2755.17C9006.46,2741.04 9004.53,2725.86 9003,2709.64C9001.47,2693.42 9000.7,2674.59 9000.7,2653.13C9000.7,2622.26 9002.25,2598.58 9005.36,2582.1C9008.47,2565.62 9013.38,2557.37 9020.09,2557.37C9021.75,2557.37 9023.57,2558.94 9025.56,2562.08C9027.55,2565.22 9029.41,2568.89 9031.15,2573.07C9032.9,2577.26 9034.37,2581.71 9035.57,2586.41C9036.77,2591.12 9037.37,2595.31 9037.37,2598.97C9037.37,2598.97 9037.16,2600.67 9036.75,2604.08C9036.33,2607.48 9035.84,2611.4 9035.26,2615.85C9034.68,2620.3 9034.14,2624.61 9033.64,2628.8C9033.14,2632.99 9032.81,2635.86 9032.65,2637.43C9032.48,2639.53 9032.29,2641.75 9032.09,2644.11C9031.88,2646.46 9031.61,2648.16 9031.28,2649.21C9028.63,2638.74 9026.35,2631.94 9024.44,2628.8C9022.54,2625.66 9020.75,2624.09 9019.1,2624.09C9017.27,2624.09 9015.8,2626.45 9014.68,2631.15C9013.57,2635.86 9013.01,2642.4 9013.01,2650.78C9013.01,2665.95 9013.77,2679.82 9015.31,2692.38C9016.84,2704.93 9018.75,2717.49 9021.02,2730.05C9023.3,2742.61 9025.79,2755.95 9028.48,2770.08C9031.18,2784.21 9033.66,2800.17 9035.94,2817.96C9038.22,2835.75 9040.12,2856.03 9041.66,2878.79C9043.19,2901.55 9043.96,2928.11 9043.96,2958.45Z" style="fill-rule:nonzero;"/>
                        <path d="M9099.4,3096.6C9099.4,3100.26 9099.13,3102.35 9098.59,3102.87C9098.05,3103.4 9097.57,3103.66 9097.16,3103.66C9096.17,3103.66 9095.21,3103.01 9094.3,3101.7C9093.39,3100.39 9092.44,3099.74 9091.44,3099.74C9090.45,3099.74 9089.45,3100.39 9088.46,3101.7C9087.46,3103.01 9086.47,3103.66 9085.48,3103.66C9085.06,3103.66 9084.56,3103.4 9083.98,3102.87C9083.4,3102.35 9083.11,3100.26 9083.11,3096.6C9083.11,3095.55 9083.26,3093.59 9083.55,3090.71C9083.84,3087.83 9084.17,3083.91 9084.54,3078.93C9084.92,3073.96 9085.25,3068.08 9085.54,3061.28C9085.83,3054.47 9085.97,3046.62 9085.97,3037.73L9085.97,2831.3C9085.97,2823.45 9085.64,2816.65 9084.98,2810.89C9084.32,2805.14 9083.49,2800.43 9082.49,2796.77C9081.5,2793.1 9080.4,2790.49 9079.2,2788.92C9078,2787.35 9076.86,2786.56 9075.78,2786.56C9074.78,2786.56 9073.65,2787.87 9072.36,2790.49C9071.08,2793.1 9069.88,2796.77 9068.76,2801.48C9067.64,2806.18 9066.7,2811.68 9065.96,2817.96C9065.21,2824.24 9064.84,2831.04 9064.84,2838.37L9064.84,3053.43C9064.84,3062.32 9065.21,3070.69 9065.96,3078.54C9066.7,3086.39 9067.08,3092.67 9067.08,3097.38C9067.08,3101.57 9066.75,3103.66 9066.08,3103.66C9064.92,3103.66 9063.78,3103.4 9062.67,3102.87C9061.55,3102.35 9060.41,3102.09 9059.25,3102.09C9058.25,3102.09 9057.24,3102.35 9056.2,3102.87C9055.17,3103.4 9054.15,3103.66 9053.16,3103.66C9052.74,3103.66 9052.26,3103.4 9051.73,3102.87C9051.19,3102.35 9050.92,3100.26 9050.92,3096.6C9050.92,3092.93 9051.37,3086.91 9052.29,3078.54C9053.2,3070.17 9053.65,3059.18 9053.65,3045.58L9053.65,2770.08C9053.65,2758.05 9053.28,2749.28 9052.53,2743.79C9051.79,2738.29 9051.42,2733.97 9051.42,2730.84C9051.42,2726.65 9051.62,2724.56 9052.04,2724.56C9053.2,2724.56 9054.34,2724.82 9055.46,2725.34C9056.57,2725.86 9057.71,2726.13 9058.87,2726.13C9059.87,2726.13 9060.86,2725.6 9061.86,2724.56C9062.85,2723.51 9063.85,2722.99 9064.84,2722.99C9065.01,2722.99 9065.38,2723.12 9065.96,2723.38C9066.54,2723.64 9066.79,2724.82 9066.7,2726.91C9066.12,2731.62 9065.69,2735.02 9065.4,2737.12C9065.11,2739.21 9064.92,2741.43 9064.84,2743.79C9064.76,2746.14 9064.72,2749.02 9064.72,2752.42L9064.72,2768.51L9065.09,2768.51C9066.42,2753.86 9068.44,2742.35 9071.18,2733.97C9073.92,2725.6 9076.52,2721.42 9079.01,2721.42C9081.17,2721.42 9083.32,2723.64 9085.48,2728.09C9087.63,2732.54 9089.58,2738.82 9091.32,2746.93C9093.06,2755.04 9094.47,2764.85 9095.54,2776.36C9096.62,2787.87 9097.16,2800.69 9097.16,2814.82L9097.16,3046.36C9097.16,3056.3 9097.53,3065.72 9098.28,3074.62C9099.02,3083.51 9099.4,3090.84 9099.4,3096.6Z" style="fill-rule:nonzero;"/>
                        <path d="M9122.89,2618.6C9122.89,2630.11 9122.21,2640.05 9120.84,2648.42C9119.47,2656.79 9117.84,2660.98 9115.93,2660.98C9114.02,2660.98 9112.53,2656.27 9111.45,2646.85C9110.38,2637.43 9109.84,2626.97 9109.84,2615.46C9109.84,2603.95 9110.36,2594.53 9111.39,2587.2C9112.43,2579.87 9113.9,2576.21 9115.81,2576.21C9117.71,2576.21 9119.37,2580.4 9120.78,2588.77C9122.19,2597.14 9122.89,2607.08 9122.89,2618.6ZM9124.01,2728.48C9124.01,2729.53 9123.57,2735.28 9122.7,2745.75C9121.83,2756.21 9121.4,2771.13 9121.4,2790.49L9121.4,3040.08C9121.4,3058.92 9121.79,3072.39 9122.58,3080.51C9123.37,3088.62 9123.76,3094.24 9123.76,3097.38C9123.76,3101.04 9123.35,3102.87 9122.52,3102.87C9121.52,3102.87 9120.63,3102.48 9119.84,3101.7C9119.06,3100.91 9117.63,3100.52 9115.56,3100.52C9113.65,3100.52 9112.26,3100.91 9111.39,3101.7C9110.52,3102.48 9109.51,3102.87 9108.35,3102.87C9107.77,3102.87 9107.48,3101.04 9107.48,3097.38C9107.48,3094.76 9107.68,3092.15 9108.1,3089.53C9108.51,3086.39 9108.84,3082.34 9109.09,3077.37C9109.34,3072.39 9109.55,3067.16 9109.71,3061.67C9109.88,3056.17 9110,3050.81 9110.09,3045.58C9110.17,3040.35 9110.21,3035.64 9110.21,3031.45L9110.21,2793.63C9110.21,2791.01 9110.19,2787.35 9110.15,2782.64C9110.11,2777.93 9110.05,2772.96 9109.96,2767.72C9109.88,2762.49 9109.78,2757.65 9109.65,2753.2C9109.53,2748.76 9109.38,2745.49 9109.22,2743.39C9109.05,2740.78 9108.84,2738.29 9108.59,2735.94C9108.35,2733.58 9108.22,2731.1 9108.22,2728.48C9108.22,2726.39 9108.37,2725.08 9108.66,2724.56C9108.95,2724.03 9109.22,2723.77 9109.47,2723.77C9110.63,2723.77 9111.7,2724.16 9112.7,2724.95C9113.69,2725.73 9114.81,2726.13 9116.05,2726.13C9117.13,2726.13 9118.29,2725.86 9119.53,2725.34C9120.78,2724.82 9121.81,2724.56 9122.64,2724.56L9123.51,2724.56C9123.84,2724.56 9124.01,2725.86 9124.01,2728.48Z" style="fill-rule:nonzero;"/>
                        <path d="M9172.49,3086.39C9172.49,3090.58 9172.34,3095.42 9172.05,3100.91C9171.76,3106.41 9171.16,3109.15 9170.25,3109.15C9165.11,3109.15 9160.16,3105.62 9155.4,3098.56C9150.63,3091.49 9146.4,3080.24 9142.72,3064.81C9139.03,3049.37 9136.09,3029.22 9133.89,3004.37C9131.69,2979.51 9130.6,2949.03 9130.6,2912.93C9130.6,2879.97 9131.47,2851.45 9133.21,2827.38C9134.95,2803.31 9137.37,2783.16 9140.48,2766.94C9143.59,2750.72 9147.27,2738.68 9151.54,2730.84C9155.81,2722.99 9160.47,2719.06 9165.53,2719.06C9166.69,2719.06 9167.78,2720.5 9168.82,2723.38C9169.86,2726.26 9170.37,2732.14 9170.37,2741.04L9170.37,2790.49C9170.37,2794.67 9170.21,2797.94 9169.88,2800.3C9169.55,2802.65 9169.13,2804.62 9168.63,2806.18C9167.97,2804.62 9167.54,2802.91 9167.33,2801.08C9167.12,2799.25 9166.65,2797.29 9165.9,2795.2C9164.99,2792.58 9163.89,2791.14 9162.6,2790.88C9161.32,2790.62 9160.18,2790.49 9159.19,2790.49C9156.04,2790.49 9153.39,2794.15 9151.23,2801.48C9149.08,2808.8 9147.32,2818.22 9145.95,2829.73C9144.58,2841.24 9143.59,2854.19 9142.97,2868.58C9142.34,2882.97 9142.03,2897.23 9142.03,2911.36C9142.03,2930.2 9142.57,2947.47 9143.65,2963.16C9144.73,2978.86 9146.28,2992.34 9148.31,3003.59C9150.34,3014.84 9152.78,3023.6 9155.64,3029.88C9158.5,3036.16 9161.71,3039.3 9165.28,3039.3C9166.11,3039.3 9166.91,3038.51 9167.7,3036.94C9168.49,3035.37 9169.26,3034.59 9170,3034.59C9170.75,3034.59 9171.31,3036.68 9171.68,3040.87C9172.05,3045.05 9172.3,3050.03 9172.43,3055.78C9172.55,3061.54 9172.59,3067.29 9172.55,3073.05C9172.51,3078.8 9172.49,3083.25 9172.49,3086.39Z" style="fill-rule:nonzero;"/>
                        <path d="M9226.81,3098.95C9226.81,3103.14 9226.5,3104.97 9225.88,3104.44C9225.25,3103.92 9224.65,3103.66 9224.07,3103.66C9223,3103.66 9221.96,3103.14 9220.97,3102.09C9219.97,3101.04 9218.93,3100.52 9217.86,3100.52C9216.78,3100.52 9215.87,3100.91 9215.12,3101.7C9214.38,3102.48 9213.47,3103.4 9212.39,3104.44C9211.97,3104.97 9211.54,3104.84 9211.08,3104.05C9210.63,3103.27 9210.4,3101.57 9210.4,3098.95C9210.4,3096.33 9210.59,3094.76 9210.96,3094.24C9211.33,3093.72 9211.52,3091.36 9211.52,3087.18C9211.52,3085.61 9211.04,3077.76 9210.09,3063.63C9209.14,3049.5 9207.93,3032.63 9206.48,3013C9205.03,2993.38 9203.44,2972.58 9201.7,2950.61C9199.96,2928.63 9198.3,2908.48 9196.73,2890.17L9191.75,2922.35L9191.75,3040.08C9191.75,3046.89 9191.88,3053.43 9192.13,3059.7C9192.38,3065.98 9192.65,3071.61 9192.93,3076.58C9193.23,3081.55 9193.49,3085.87 9193.74,3089.53C9193.99,3093.19 9194.12,3095.81 9194.12,3097.38C9194.12,3101.04 9193.7,3102.87 9192.87,3102.87C9191.71,3102.87 9190.55,3102.48 9189.39,3101.7C9188.23,3100.91 9187.07,3100.52 9185.91,3100.52C9184.75,3100.52 9183.55,3100.91 9182.31,3101.7C9181.06,3102.48 9179.86,3102.87 9178.7,3102.87C9178.12,3102.87 9177.83,3101.04 9177.83,3097.38C9177.83,3095.81 9177.89,3094.37 9178.02,3093.06C9178.14,3091.76 9178.29,3090.58 9178.45,3089.53C9179.28,3083.25 9179.84,3074.23 9180.13,3062.45C9180.42,3050.68 9180.57,3040.87 9180.57,3033.02L9180.57,2646.85C9180.57,2636.91 9180.51,2627.36 9180.38,2618.2C9180.26,2609.05 9179.78,2600.02 9178.95,2591.12C9178.78,2589.03 9178.6,2587.07 9178.39,2585.24C9178.18,2583.41 9178.08,2581.18 9178.08,2578.57C9178.08,2576.47 9178.47,2574.38 9179.26,2572.29C9180.05,2570.19 9180.57,2568.62 9180.82,2567.58L9186.41,2547.96C9186.82,2546.39 9187.3,2544.16 9187.84,2541.28C9188.38,2538.41 9188.94,2535.53 9189.52,2532.65C9190.1,2529.77 9190.66,2527.16 9191.19,2524.8C9191.73,2522.45 9192.21,2521.27 9192.62,2521.27L9193,2521.27C9193.16,2521.27 9193.37,2521.53 9193.62,2522.05C9193.87,2522.58 9193.99,2523.62 9193.99,2525.19C9193.99,2528.86 9193.87,2533.04 9193.62,2537.75C9193.37,2542.46 9193.16,2546.65 9193,2550.31C9192.58,2560.78 9192.27,2571.11 9192.07,2581.31C9191.86,2591.52 9191.75,2601.85 9191.75,2612.32L9191.75,2841.51L9192.13,2841.51C9192.62,2838.37 9193.7,2831.83 9195.36,2821.88C9197.02,2811.94 9198.72,2801.35 9200.45,2790.1C9202.19,2778.85 9203.75,2768.25 9205.12,2758.31C9206.48,2748.37 9207.17,2742.09 9207.17,2739.47C9207,2738.42 9206.75,2737.12 9206.42,2735.55C9206.09,2733.97 9205.93,2732.41 9205.93,2730.84C9205.93,2727.17 9206.11,2724.95 9206.48,2724.16C9206.86,2723.38 9207.33,2722.99 9207.91,2722.99C9209.16,2722.99 9210.19,2723.51 9211.02,2724.56C9211.85,2725.6 9212.89,2726.13 9214.13,2726.13C9215.04,2726.13 9215.87,2725.86 9216.61,2725.34C9217.36,2724.82 9218.19,2724.56 9219.1,2724.56L9222.08,2724.56C9223.16,2724.56 9223.7,2726.65 9223.7,2730.84C9223.7,2733.97 9223.58,2735.55 9223.33,2735.55C9223.08,2735.55 9222.58,2736.59 9221.84,2738.68C9221.26,2740.25 9220.22,2745.88 9218.73,2755.56C9217.24,2765.24 9215.64,2775.97 9213.94,2787.74C9212.24,2799.51 9210.61,2810.89 9209.03,2821.88C9207.46,2832.87 9206.3,2840.72 9205.55,2845.43C9205.97,2853.28 9206.65,2863.22 9207.6,2875.26C9208.56,2887.29 9209.63,2900.11 9210.84,2913.72C9212.04,2927.32 9213.26,2941.45 9214.5,2956.1C9215.75,2970.75 9216.86,2984.88 9217.86,2998.48C9218.11,3002.67 9218.58,3009.47 9219.29,3018.89C9219.99,3028.31 9220.76,3038.12 9221.59,3048.32C9222.42,3058.53 9223.22,3067.95 9224.01,3076.58C9224.8,3085.21 9225.44,3090.58 9225.94,3092.67C9226.27,3093.72 9226.5,3094.37 9226.62,3094.63C9226.75,3094.89 9226.81,3096.33 9226.81,3098.95Z" style="fill-rule:nonzero;"/>
                        <path d="M9280.01,2883.11L9243.96,2977.29C9244.96,2995.61 9246.49,3010.65 9248.56,3022.42C9250.63,3034.2 9253.24,3040.08 9256.39,3040.08C9259.62,3040.08 9262.38,3033.54 9264.66,3020.46C9266.94,3007.38 9268.2,2990.64 9268.45,2970.23C9268.45,2967.61 9268.57,2966.3 9268.82,2966.3C9269.07,2966.3 9269.75,2968.4 9270.87,2972.58C9271.99,2976.77 9273.15,2981.61 9274.35,2987.1C9275.56,2992.6 9276.63,2997.7 9277.59,3002.41C9278.54,3007.12 9279.01,3009.73 9279.01,3010.26C9279.01,3012.87 9278.93,3015.1 9278.77,3016.93C9278.6,3018.76 9278.43,3020.72 9278.27,3022.82C9275.87,3052.64 9272.97,3074.49 9269.57,3088.35C9266.17,3102.22 9261.78,3109.15 9256.39,3109.15C9252.08,3109.15 9248.33,3103.53 9245.14,3092.28C9241.95,3081.03 9239.3,3066.12 9237.19,3047.54C9235.07,3028.96 9233.5,3008.03 9232.46,2984.75C9231.43,2961.46 9230.91,2937.78 9230.91,2913.72C9230.91,2889.64 9231.49,2865.84 9232.65,2842.29C9233.81,2818.74 9235.51,2797.94 9237.75,2779.89C9239.98,2761.84 9242.76,2747.19 9246.07,2735.94C9249.39,2724.69 9253.2,2719.06 9257.51,2719.06C9260.99,2719.06 9264.18,2723.12 9267.08,2731.23C9269.98,2739.34 9272.43,2750.33 9274.42,2764.19C9276.4,2778.06 9277.92,2794.28 9278.95,2812.86C9279.99,2831.43 9280.38,2851.45 9280.13,2872.9L9280.01,2883.11ZM9267.95,2845.43C9267.37,2827.12 9266.15,2812.2 9264.28,2800.69C9262.42,2789.18 9260.04,2783.42 9257.14,2783.42C9254.4,2783.42 9252.08,2787.35 9250.18,2795.2C9248.27,2803.05 9246.74,2813.12 9245.58,2825.41C9244.42,2837.71 9243.57,2851.32 9243.03,2866.23C9242.49,2881.14 9242.22,2895.92 9242.22,2910.58L9267.95,2845.43Z" style="fill-rule:nonzero;"/>
                        <path d="M9325.26,2795.2C9325.26,2796.24 9325.05,2797.55 9324.63,2799.12C9324.22,2800.69 9323.74,2802 9323.2,2803.05C9322.67,2804.09 9322.13,2805.14 9321.59,2806.18C9321.05,2807.23 9320.7,2807.76 9320.53,2807.76C9320.12,2808.28 9319.62,2809.45 9319.04,2811.29C9318.46,2813.12 9317.86,2814.95 9317.24,2816.78C9316.62,2818.61 9316.04,2820.18 9315.5,2821.49C9314.96,2822.8 9314.52,2823.45 9314.19,2823.45C9314.03,2823.45 9313.9,2823.19 9313.82,2822.67C9313.65,2820.58 9313.59,2818.48 9313.63,2816.39C9313.68,2814.3 9313.65,2811.94 9313.57,2809.33C9313.32,2803.05 9312.91,2798.2 9312.33,2794.8C9311.75,2791.4 9311.09,2789.31 9310.34,2788.53C9309.59,2787.74 9308.81,2788 9307.98,2789.31C9307.15,2790.62 9306.44,2792.58 9305.86,2795.2C9303.96,2803.05 9302.67,2814.03 9302.01,2828.16C9301.35,2842.29 9301.02,2856.94 9301.02,2872.12L9301.02,3053.43C9301.02,3062.32 9301.39,3070.43 9302.14,3077.76C9302.88,3085.08 9303.25,3091.62 9303.25,3097.38C9303.25,3101.57 9302.92,3103.66 9302.26,3103.66L9289.33,3103.66C9288.92,3103.66 9288.44,3103.4 9287.9,3102.87C9287.36,3102.35 9287.09,3100.26 9287.09,3096.6C9287.09,3095.03 9287.24,3092.54 9287.53,3089.14C9287.82,3085.74 9288.13,3081.81 9288.46,3077.37C9288.79,3072.92 9289.1,3067.95 9289.39,3062.45C9289.68,3056.96 9289.83,3051.33 9289.83,3045.58L9289.83,2770.08C9289.83,2760.14 9289.46,2751.77 9288.71,2744.96C9287.97,2738.16 9287.59,2733.45 9287.59,2730.84C9287.59,2726.65 9287.8,2724.56 9288.21,2724.56C9289.37,2724.56 9290.51,2724.82 9291.63,2725.34C9292.75,2725.86 9293.89,2726.13 9295.05,2726.13C9296.04,2726.13 9297.04,2725.6 9298.03,2724.56C9299.03,2723.51 9300.02,2722.99 9301.02,2722.99L9302.07,2722.99C9302.53,2722.99 9302.8,2724.3 9302.88,2726.91C9302.38,2731.1 9301.99,2734.37 9301.7,2736.72C9301.41,2739.08 9301.2,2741.17 9301.08,2743C9300.95,2744.83 9300.89,2747.19 9300.89,2750.07L9300.89,2768.51L9301.26,2768.51C9302.34,2754.91 9303.98,2743.66 9306.18,2734.76C9308.37,2725.86 9310.38,2721.42 9312.2,2721.42C9316.35,2721.42 9319.39,2726.91 9321.34,2737.9C9323.29,2748.89 9324.47,2762.75 9324.88,2779.5C9324.97,2782.12 9325.05,2784.6 9325.13,2786.95C9325.21,2789.31 9325.26,2792.06 9325.26,2795.2Z" style="fill-rule:nonzero;"/>
                        <path d="M9345.64,2618.6C9345.64,2630.11 9344.96,2640.05 9343.59,2648.42C9342.22,2656.79 9340.59,2660.98 9338.68,2660.98C9336.77,2660.98 9335.28,2656.27 9334.2,2646.85C9333.13,2637.43 9332.59,2626.97 9332.59,2615.46C9332.59,2603.95 9333.11,2594.53 9334.14,2587.2C9335.18,2579.87 9336.65,2576.21 9338.56,2576.21C9340.46,2576.21 9342.12,2580.4 9343.53,2588.77C9344.94,2597.14 9345.64,2607.08 9345.64,2618.6ZM9346.76,2728.48C9346.76,2729.53 9346.33,2735.28 9345.45,2745.75C9344.59,2756.21 9344.15,2771.13 9344.15,2790.49L9344.15,3040.08C9344.15,3058.92 9344.54,3072.39 9345.33,3080.51C9346.12,3088.62 9346.51,3094.24 9346.51,3097.38C9346.51,3101.04 9346.1,3102.87 9345.27,3102.87C9344.27,3102.87 9343.38,3102.48 9342.6,3101.7C9341.81,3100.91 9340.38,3100.52 9338.31,3100.52C9336.4,3100.52 9335.01,3100.91 9334.14,3101.7C9333.27,3102.48 9332.26,3102.87 9331.1,3102.87C9330.52,3102.87 9330.23,3101.04 9330.23,3097.38C9330.23,3094.76 9330.43,3092.15 9330.85,3089.53C9331.26,3086.39 9331.59,3082.34 9331.84,3077.37C9332.09,3072.39 9332.3,3067.16 9332.47,3061.67C9332.63,3056.17 9332.76,3050.81 9332.84,3045.58C9332.92,3040.35 9332.96,3035.64 9332.96,3031.45L9332.96,2793.63C9332.96,2791.01 9332.94,2787.35 9332.9,2782.64C9332.86,2777.93 9332.8,2772.96 9332.71,2767.72C9332.63,2762.49 9332.53,2757.65 9332.4,2753.2C9332.28,2748.76 9332.13,2745.49 9331.97,2743.39C9331.8,2740.78 9331.59,2738.29 9331.35,2735.94C9331.1,2733.58 9330.97,2731.1 9330.97,2728.48C9330.97,2726.39 9331.12,2725.08 9331.41,2724.56C9331.7,2724.03 9331.97,2723.77 9332.22,2723.77C9333.38,2723.77 9334.45,2724.16 9335.45,2724.95C9336.44,2725.73 9337.56,2726.13 9338.81,2726.13C9339.88,2726.13 9341.04,2725.86 9342.28,2725.34C9343.53,2724.82 9344.56,2724.56 9345.39,2724.56L9346.26,2724.56C9346.59,2724.56 9346.76,2725.86 9346.76,2728.48Z" style="fill-rule:nonzero;"/>
                        <path d="M9461.24,2828.95C9461.24,2835.75 9461.01,2842.94 9460.56,2850.53C9460.1,2858.12 9459.21,2861.91 9457.89,2861.91C9457.31,2861.91 9456.77,2861 9456.27,2859.16C9455.77,2857.33 9455.21,2855.5 9454.59,2853.67C9453.97,2851.84 9453.29,2850.01 9452.54,2848.18C9451.8,2846.35 9450.93,2845.43 9449.93,2845.43C9448.52,2845.43 9447.28,2848.44 9446.2,2854.46C9445.12,2860.47 9444.19,2867.67 9443.41,2876.04C9442.62,2884.41 9441.95,2893.31 9441.42,2902.73C9440.88,2912.15 9440.44,2920.26 9440.11,2927.06C9439.53,2937 9439.01,2946.94 9438.56,2956.88C9438.1,2966.83 9437.63,2976.77 9437.13,2986.71C9434.89,3032.23 9431.41,3064.02 9426.69,3082.08C9421.96,3100.13 9415.95,3109.15 9408.66,3109.15C9404.35,3109.15 9400.4,3104.58 9396.79,3095.42C9393.19,3086.26 9390.1,3073.57 9387.53,3057.35C9384.96,3041.13 9382.95,3021.77 9381.5,2999.27C9380.05,2976.77 9379.33,2951.91 9379.33,2924.7C9379.33,2890.69 9380.74,2861.26 9383.55,2836.4C9386.37,2811.55 9390.27,2793.1 9395.24,2781.07L9395.24,2778.71C9392.75,2771.39 9390.91,2760.79 9389.71,2746.93C9388.51,2733.06 9387.9,2717.75 9387.9,2701.01C9387.9,2685.31 9388.53,2670.92 9389.77,2657.84C9391.01,2644.76 9392.61,2633.51 9394.56,2624.09C9396.5,2614.67 9398.66,2607.48 9401.02,2602.51C9403.38,2597.53 9405.72,2595.05 9408.04,2595.05C9411.52,2595.05 9414.71,2597.53 9417.61,2602.51C9420.51,2607.48 9423.41,2615.2 9426.31,2625.66C9426.56,2626.71 9426.89,2627.75 9427.31,2628.8C9427.72,2629.85 9427.93,2631.68 9427.93,2634.29C9427.93,2634.82 9427.91,2635.34 9427.87,2635.86C9427.83,2636.39 9427.81,2636.91 9427.81,2637.43C9427.56,2639 9427.12,2642.67 9426.5,2648.42C9425.88,2654.18 9425.22,2660.06 9424.51,2666.08C9423.81,2672.1 9423.14,2677.46 9422.52,2682.17C9421.9,2686.88 9421.47,2689.24 9421.22,2689.24C9421.05,2689.24 9420.68,2687.54 9420.1,2684.13C9419.52,2680.73 9418.73,2677.07 9417.74,2673.15C9416.74,2669.22 9415.54,2665.56 9414.13,2662.16C9412.72,2658.76 9411.11,2657.06 9409.28,2657.06C9406.8,2657.06 9404.54,2661.37 9402.51,2670.01C9400.48,2678.64 9399.46,2691.85 9399.46,2709.64C9399.46,2723.77 9400.19,2734.11 9401.64,2740.65C9403.09,2747.19 9404.67,2751.9 9406.36,2754.78C9408.06,2757.65 9409.64,2759.75 9411.09,2761.05C9412.54,2762.36 9413.26,2764.59 9413.26,2767.72C9413.26,2770.87 9413.1,2775.31 9412.76,2781.07C9412.43,2786.82 9412.02,2792.58 9411.52,2798.34C9411.02,2804.09 9410.49,2809.06 9409.91,2813.25C9409.33,2817.43 9408.79,2819.53 9408.29,2819.53C9405.97,2819.53 9403.77,2822.41 9401.7,2828.16C9399.63,2833.92 9397.79,2841.77 9396.17,2851.71C9394.56,2861.65 9393.27,2873.16 9392.32,2886.24C9391.36,2899.33 9390.89,2913.19 9390.89,2927.84C9390.89,2945.11 9391.39,2960.81 9392.38,2974.94C9393.37,2989.07 9394.74,3001.23 9396.48,3011.43C9398.22,3021.64 9400.25,3029.49 9402.57,3034.98C9404.89,3040.47 9407.38,3043.22 9410.03,3043.22C9411.94,3043.22 9413.88,3041.39 9415.87,3037.73C9417.86,3034.07 9419.66,3028.7 9421.28,3021.64C9422.9,3014.57 9424.22,3005.94 9425.26,2995.74C9426.29,2985.53 9426.81,2973.63 9426.81,2960.02C9426.81,2950.61 9426.67,2941.06 9426.38,2931.38C9426.09,2921.7 9425.57,2913.06 9424.82,2905.47C9424.08,2897.89 9423.1,2891.61 9421.9,2886.64C9420.7,2881.67 9419.23,2879.18 9417.49,2879.18C9416.58,2879.18 9415.77,2880.36 9415.07,2882.71C9414.36,2885.07 9413.74,2887.55 9413.2,2890.17C9412.66,2892.78 9412.14,2895.27 9411.65,2897.62C9411.15,2899.98 9410.69,2901.16 9410.28,2901.16C9409.62,2901.16 9409.22,2899.33 9409.1,2895.66C9408.97,2892 9408.91,2888.86 9408.91,2886.24C9408.91,2876.83 9409.22,2868.06 9409.84,2859.95C9410.47,2851.84 9411.29,2844.78 9412.33,2838.76C9413.37,2832.74 9414.55,2828.16 9415.87,2825.02C9417.2,2821.88 9418.61,2820.31 9420.1,2820.31C9422.34,2820.31 9424.14,2823.06 9425.51,2828.55C9426.87,2834.05 9428.05,2840.07 9429.05,2846.61C9430.04,2853.15 9430.95,2859.16 9431.78,2864.66C9432.61,2870.15 9433.52,2872.9 9434.52,2872.9C9435.35,2872.9 9435.89,2870.81 9436.13,2866.62C9436.38,2862.44 9436.59,2858.51 9436.76,2854.85C9437.25,2844.38 9437.94,2833.92 9438.81,2823.45C9439.68,2812.99 9440.73,2803.7 9441.98,2795.59C9443.22,2787.48 9444.65,2780.81 9446.26,2775.57C9447.88,2770.34 9449.64,2767.72 9451.55,2767.72C9454.36,2767.72 9456.68,2773.48 9458.51,2784.99C9460.33,2796.51 9461.24,2811.16 9461.24,2828.95Z" style="fill-rule:nonzero;"/>
                        <path d="M9539.31,2932.55C9539.31,2955.05 9538.87,2976.77 9538,2997.7C9537.13,3018.63 9535.78,3037.07 9533.96,3053.03C9532.14,3068.99 9529.88,3081.81 9527.19,3091.49C9524.49,3101.17 9521.32,3106.01 9517.68,3106.01C9514.53,3106.01 9511.42,3105.1 9508.35,3103.27C9505.29,3101.43 9502.22,3100.52 9499.16,3100.52C9498,3100.52 9496.79,3100.91 9495.55,3101.7C9494.31,3102.48 9493.11,3102.87 9491.95,3102.87C9491.37,3102.87 9491.08,3101.04 9491.08,3097.38C9491.08,3095.81 9491.14,3094.37 9491.26,3093.06C9491.39,3091.76 9491.53,3090.58 9491.7,3089.53C9492.53,3082.21 9493.09,3073.18 9493.38,3062.45C9493.67,3051.73 9493.81,3041.91 9493.81,3033.02L9493.81,2642.93C9493.81,2634.03 9493.73,2625.14 9493.56,2616.24C9493.4,2607.35 9492.94,2598.97 9492.19,2591.12C9492.03,2589.03 9491.84,2587.07 9491.64,2585.24C9491.43,2583.41 9491.32,2581.18 9491.32,2578.57C9491.32,2576.47 9491.72,2574.38 9492.51,2572.29C9493.29,2570.19 9493.81,2568.62 9494.06,2567.58L9499.65,2547.96C9500.65,2544.29 9501.7,2538.93 9502.82,2531.87C9503.94,2524.8 9505.08,2521.27 9506.24,2521.27C9506.41,2521.27 9506.61,2521.53 9506.86,2522.05C9507.11,2522.58 9507.24,2523.62 9507.24,2525.19C9507.24,2529.38 9507.11,2533.57 9506.86,2537.75C9506.61,2541.94 9506.41,2546.12 9506.24,2550.31C9505.83,2560.78 9505.52,2571.11 9505.31,2581.31C9505.1,2591.52 9505,2601.85 9505,2612.32L9505,2707.29C9506.74,2712 9508.67,2717.23 9510.78,2722.99C9512.89,2728.74 9515.05,2734.76 9517.24,2741.04C9519.44,2747.32 9521.55,2753.99 9523.58,2761.05C9525.61,2768.12 9527.37,2775.57 9528.86,2783.42C9532.76,2802.78 9535.47,2824.63 9537.01,2848.96C9538.54,2873.29 9539.31,2901.16 9539.31,2932.55ZM9527.12,2931.77C9527.12,2900.89 9526.23,2875.65 9524.45,2856.03C9522.67,2836.4 9519.54,2820.05 9515.07,2806.97C9513.41,2802.26 9511.73,2798.47 9510.03,2795.59C9508.33,2792.71 9506.66,2789.18 9505,2784.99L9505,3009.47C9505,3017.84 9505.31,3024.78 9505.93,3030.27C9506.55,3035.77 9507.57,3038.51 9508.98,3038.51L9514.82,3038.51C9517.06,3038.51 9518.96,3034.98 9520.54,3027.92C9522.11,3020.85 9523.37,3012.09 9524.33,3001.62C9525.28,2991.16 9525.98,2979.65 9526.44,2967.09C9526.9,2954.53 9527.12,2942.76 9527.12,2931.77Z" style="fill-rule:nonzero;"/>
                        <path d="M9595.24,2729.27C9595.24,2732.41 9594.79,2738.55 9593.88,2747.71C9592.96,2756.87 9592.51,2767.72 9592.51,2780.28L9592.51,3054.21C9592.51,3121.71 9589.88,3173.64 9584.61,3210.01C9579.35,3246.38 9571.25,3264.56 9560.31,3264.56C9559.65,3264.56 9559.22,3262.86 9559.01,3259.46C9558.8,3256.06 9558.66,3252 9558.57,3247.29C9558.49,3242.59 9558.49,3237.74 9558.57,3232.77C9558.66,3227.8 9558.7,3224.01 9558.7,3221.39L9558.7,3202.95C9558.7,3196.41 9558.78,3190.26 9558.94,3184.5C9559.11,3184.5 9559.22,3184.37 9559.26,3184.11C9559.3,3183.85 9559.4,3183.72 9559.57,3183.72C9559.98,3183.72 9560.64,3185.68 9561.56,3189.61C9562.47,3193.53 9563.38,3195.49 9564.29,3195.49C9574.24,3195.49 9579.95,3164.62 9581.44,3102.87C9581.53,3099.21 9581.57,3094.76 9581.57,3089.53C9581.57,3084.3 9581.53,3079.33 9581.44,3074.62C9581.36,3069.91 9581.32,3065.85 9581.32,3062.45C9581.32,3059.05 9581.36,3057.35 9581.44,3057.35L9581.07,3057.35C9579.75,3072 9577.74,3083.51 9575.04,3091.89C9572.35,3100.26 9569.72,3104.44 9567.15,3104.44C9565.08,3104.44 9562.97,3102.35 9560.81,3098.16C9558.66,3093.98 9556.71,3087.83 9554.97,3079.72C9553.23,3071.61 9551.8,3061.8 9550.68,3050.29C9549.56,3038.78 9549,3025.69 9549,3011.04L9549,2779.5C9549,2769.56 9548.63,2760.14 9547.88,2751.24C9547.14,2742.35 9546.76,2735.02 9546.76,2729.27C9546.76,2725.6 9547.03,2723.51 9547.57,2722.99C9548.11,2722.46 9548.59,2722.2 9549,2722.2C9550,2722.2 9550.95,2722.86 9551.86,2724.16C9552.77,2725.47 9553.73,2726.13 9554.72,2726.13C9555.71,2726.13 9556.71,2725.47 9557.7,2724.16C9558.7,2722.86 9559.69,2722.2 9560.69,2722.2C9561.1,2722.2 9561.6,2722.46 9562.18,2722.99C9562.76,2723.51 9563.05,2725.6 9563.05,2729.27C9563.05,2729.79 9562.9,2731.88 9562.61,2735.55C9562.32,2739.21 9561.99,2743.79 9561.62,2749.28C9561.25,2754.78 9560.91,2760.92 9560.62,2767.72C9560.33,2774.53 9560.19,2781.33 9560.19,2788.13L9560.19,2994.56C9560.19,3002.93 9560.52,3009.99 9561.18,3015.75C9561.85,3021.51 9562.67,3026.09 9563.67,3029.49C9564.66,3032.89 9565.76,3035.37 9566.96,3036.94C9568.17,3038.51 9569.3,3039.3 9570.38,3039.3C9571.38,3039.3 9572.51,3037.99 9573.8,3035.37C9575.08,3032.76 9576.29,3029.09 9577.4,3024.39C9578.52,3019.68 9579.45,3014.18 9580.2,3007.9C9580.95,3001.62 9581.32,2994.82 9581.32,2987.49L9581.32,2772.43C9581.32,2763.54 9580.95,2755.3 9580.2,2747.71C9579.45,2740.12 9579.08,2733.71 9579.08,2728.48C9579.08,2724.3 9579.41,2722.2 9580.08,2722.2L9593,2722.2C9593.42,2722.2 9593.9,2722.46 9594.43,2722.99C9594.97,2723.51 9595.24,2725.6 9595.24,2729.27Z" style="fill-rule:nonzero;"/>
                        <path d="M9649.19,2730.05C9649.19,2740.52 9649.11,2750.59 9648.94,2760.27C9648.77,2769.95 9648.69,2780.02 9648.69,2790.49L9648.69,3054.21C9648.69,3122.76 9646.02,3174.95 9640.68,3210.8C9635.33,3246.64 9627.27,3264.56 9616.5,3264.56C9615.42,3264.56 9614.88,3261.16 9614.88,3254.36C9614.88,3250.7 9614.86,3245.59 9614.82,3239.05C9614.78,3232.51 9614.76,3225.71 9614.76,3218.65C9614.76,3211.58 9614.78,3204.91 9614.82,3198.63C9614.86,3192.35 9614.97,3187.64 9615.13,3184.5C9615.3,3183.98 9615.5,3183.72 9615.75,3183.72C9616.17,3183.72 9616.83,3185.68 9617.74,3189.61C9618.65,3193.53 9619.56,3195.49 9620.48,3195.49C9625.61,3195.49 9629.53,3187.9 9632.22,3172.73C9634.92,3157.56 9636.72,3134.27 9637.63,3102.87C9635.48,3103.92 9633.32,3104.71 9631.17,3105.23C9629.01,3105.75 9626.86,3106.01 9624.7,3106.01C9620.89,3106.01 9617.62,3100.91 9614.88,3090.71C9612.15,3080.51 9609.91,3067.16 9608.17,3050.68C9606.43,3034.2 9605.15,3015.62 9604.32,2994.95C9603.49,2974.28 9603.07,2953.48 9603.07,2932.55C9603.07,2901.68 9603.84,2873.95 9605.37,2849.35C9606.91,2824.76 9609.62,2802.78 9613.51,2783.42C9615.59,2772.96 9617.93,2763.8 9620.54,2755.95C9623.15,2748.1 9625.84,2741.69 9628.62,2736.72C9631.39,2731.75 9634.11,2727.96 9636.76,2725.34C9639.41,2722.72 9641.81,2721.42 9643.97,2721.42L9645.15,2721.42C9645.69,2721.42 9646.27,2721.68 9646.89,2722.2C9647.51,2722.72 9648.05,2723.64 9648.51,2724.95C9648.96,2726.26 9649.19,2727.96 9649.19,2730.05ZM9637.38,2793.63C9634.15,2797.81 9631.17,2803.05 9628.43,2809.33C9625.7,2815.6 9623.35,2823.98 9621.41,2834.44C9619.46,2844.91 9617.95,2858.12 9616.87,2874.08C9615.79,2890.04 9615.26,2909.27 9615.26,2931.77C9615.26,2943.8 9615.5,2955.71 9616,2967.48C9616.5,2979.25 9617.24,2989.98 9618.24,2999.66C9619.23,3009.34 9620.5,3017.19 9622.03,3023.21C9623.56,3029.22 9625.41,3032.23 9627.56,3032.23L9633.4,3032.23C9634.81,3032.23 9635.83,3029.49 9636.45,3023.99C9637.07,3018.5 9637.38,3011.57 9637.38,3003.19L9637.38,2793.63Z" style="fill-rule:nonzero;"/>
                        <path d="M9704.88,2730.05C9704.88,2740.52 9704.79,2750.59 9704.63,2760.27C9704.46,2769.95 9704.38,2780.02 9704.38,2790.49L9704.38,3054.21C9704.38,3122.76 9701.71,3174.95 9696.36,3210.8C9691.02,3246.64 9682.96,3264.56 9672.19,3264.56C9671.11,3264.56 9670.57,3261.16 9670.57,3254.36C9670.57,3250.7 9670.55,3245.59 9670.51,3239.05C9670.47,3232.51 9670.44,3225.71 9670.44,3218.65C9670.44,3211.58 9670.47,3204.91 9670.51,3198.63C9670.55,3192.35 9670.65,3187.64 9670.82,3184.5C9670.98,3183.98 9671.19,3183.72 9671.44,3183.72C9671.85,3183.72 9672.52,3185.68 9673.43,3189.61C9674.34,3193.53 9675.25,3195.49 9676.16,3195.49C9681.3,3195.49 9685.22,3187.9 9687.91,3172.73C9690.6,3157.56 9692.41,3134.27 9693.32,3102.87C9691.16,3103.92 9689.01,3104.71 9686.85,3105.23C9684.7,3105.75 9682.54,3106.01 9680.39,3106.01C9676.58,3106.01 9673.3,3100.91 9670.57,3090.71C9667.84,3080.51 9665.6,3067.16 9663.86,3050.68C9662.12,3034.2 9660.83,3015.62 9660,2994.95C9659.18,2974.28 9658.76,2953.48 9658.76,2932.55C9658.76,2901.68 9659.53,2873.95 9661.06,2849.35C9662.59,2824.76 9665.31,2802.78 9669.2,2783.42C9671.27,2772.96 9673.61,2763.8 9676.23,2755.95C9678.84,2748.1 9681.53,2741.69 9684.31,2736.72C9687.08,2731.75 9689.8,2727.96 9692.45,2725.34C9695.1,2722.72 9697.5,2721.42 9699.66,2721.42L9700.84,2721.42C9701.38,2721.42 9701.96,2721.68 9702.58,2722.2C9703.2,2722.72 9703.74,2723.64 9704.19,2724.95C9704.65,2726.26 9704.88,2727.96 9704.88,2730.05ZM9693.07,2793.63C9689.84,2797.81 9686.85,2803.05 9684.12,2809.33C9681.38,2815.6 9679.04,2823.98 9677.09,2834.44C9675.15,2844.91 9673.64,2858.12 9672.56,2874.08C9671.48,2890.04 9670.94,2909.27 9670.94,2931.77C9670.94,2943.8 9671.19,2955.71 9671.69,2967.48C9672.19,2979.25 9672.93,2989.98 9673.93,2999.66C9674.92,3009.34 9676.18,3017.19 9677.72,3023.21C9679.25,3029.22 9681.09,3032.23 9683.25,3032.23L9689.09,3032.23C9690.5,3032.23 9691.51,3029.49 9692.14,3023.99C9692.76,3018.5 9693.07,3011.57 9693.07,3003.19L9693.07,2793.63Z" style="fill-rule:nonzero;"/>
                        <path d="M9763.3,3096.6C9763.3,3100.26 9763.03,3102.35 9762.49,3102.87C9761.95,3103.4 9761.48,3103.66 9761.06,3103.66C9760.07,3103.66 9759.11,3103.01 9758.2,3101.7C9757.29,3100.39 9756.34,3099.74 9755.34,3099.74C9754.35,3099.74 9753.35,3100.39 9752.36,3101.7C9751.37,3103.01 9750.37,3103.66 9749.38,3103.66C9748.96,3103.66 9748.47,3103.4 9747.89,3102.87C9747.31,3102.35 9747.02,3100.26 9747.02,3096.6C9747.02,3095.55 9747.16,3093.59 9747.45,3090.71C9747.74,3087.83 9748.07,3083.91 9748.44,3078.93C9748.82,3073.96 9749.15,3068.08 9749.44,3061.28C9749.73,3054.47 9749.88,3046.62 9749.88,3037.73L9749.88,2831.3C9749.88,2823.45 9749.54,2816.65 9748.88,2810.89C9748.22,2805.14 9747.39,2800.43 9746.39,2796.77C9745.4,2793.1 9744.3,2790.49 9743.1,2788.92C9741.9,2787.35 9740.76,2786.56 9739.68,2786.56C9738.69,2786.56 9737.55,2787.87 9736.26,2790.49C9734.98,2793.1 9733.78,2796.77 9732.66,2801.48C9731.54,2806.18 9730.61,2811.68 9729.86,2817.96C9729.12,2824.24 9728.74,2831.04 9728.74,2838.37L9728.74,3053.43C9728.74,3062.32 9729.12,3070.69 9729.86,3078.54C9730.61,3086.39 9730.98,3092.67 9730.98,3097.38C9730.98,3101.57 9730.65,3103.66 9729.99,3103.66C9728.83,3103.66 9727.69,3103.4 9726.57,3102.87C9725.45,3102.35 9724.31,3102.09 9723.15,3102.09C9722.16,3102.09 9721.14,3102.35 9720.1,3102.87C9719.07,3103.4 9718.05,3103.66 9717.06,3103.66C9716.65,3103.66 9716.17,3103.4 9715.63,3102.87C9715.09,3102.35 9714.82,3100.26 9714.82,3096.6C9714.82,3092.93 9715.28,3086.91 9716.19,3078.54C9717.1,3070.17 9717.56,3059.18 9717.56,3045.58L9717.56,2770.08C9717.56,2758.05 9717.18,2749.28 9716.44,2743.79C9715.69,2738.29 9715.32,2733.97 9715.32,2730.84C9715.32,2726.65 9715.53,2724.56 9715.94,2724.56C9717.1,2724.56 9718.24,2724.82 9719.36,2725.34C9720.48,2725.86 9721.62,2726.13 9722.78,2726.13C9723.77,2726.13 9724.77,2725.6 9725.76,2724.56C9726.76,2723.51 9727.75,2722.99 9728.74,2722.99C9728.91,2722.99 9729.28,2723.12 9729.86,2723.38C9730.44,2723.64 9730.69,2724.82 9730.61,2726.91C9730.03,2731.62 9729.59,2735.02 9729.3,2737.12C9729.01,2739.21 9728.83,2741.43 9728.74,2743.79C9728.66,2746.14 9728.62,2749.02 9728.62,2752.42L9728.62,2768.51L9728.99,2768.51C9730.32,2753.86 9732.35,2742.35 9735.08,2733.97C9737.82,2725.6 9740.43,2721.42 9742.91,2721.42C9745.07,2721.42 9747.22,2723.64 9749.38,2728.09C9751.53,2732.54 9753.48,2738.82 9755.22,2746.93C9756.96,2755.04 9758.37,2764.85 9759.45,2776.36C9760.52,2787.87 9761.06,2800.69 9761.06,2814.82L9761.06,3046.36C9761.06,3056.3 9761.43,3065.72 9762.18,3074.62C9762.93,3083.51 9763.3,3090.84 9763.3,3096.6Z" style="fill-rule:nonzero;"/>
                        <path d="M9817.25,3097.38C9817.25,3100 9817.1,3101.57 9816.81,3102.09C9816.52,3102.61 9816.25,3102.87 9816,3102.87C9814.84,3102.87 9813.68,3102.48 9812.52,3101.7C9811.36,3100.91 9810.2,3100.52 9809.04,3100.52C9808.13,3100.52 9807.2,3100.78 9806.25,3101.31C9805.29,3101.83 9804.36,3102.35 9803.45,3102.87L9803.45,3099.74C9803.45,3097.12 9803.47,3094.89 9803.51,3093.06C9803.55,3091.23 9803.57,3089.01 9803.57,3086.39L9803.33,3084.82C9802.58,3085.87 9801.81,3087.57 9801.03,3089.92C9800.24,3092.28 9799.39,3094.76 9798.48,3097.38C9797.57,3100 9796.53,3102.35 9795.37,3104.44C9794.21,3106.54 9792.88,3107.58 9791.39,3107.58C9788.41,3107.58 9785.65,3105.88 9783.13,3102.48C9780.6,3099.08 9778.42,3093.19 9776.6,3084.82C9774.78,3076.45 9773.35,3065.07 9772.31,3050.68C9771.28,3036.29 9770.76,3018.11 9770.76,2996.13C9770.76,2974.15 9771.57,2955.97 9773.18,2941.58C9774.8,2927.19 9776.83,2915.02 9779.27,2905.08C9781.72,2895.14 9784.37,2886.77 9787.23,2879.97C9790.09,2873.16 9792.74,2866.75 9795.18,2860.74C9797.63,2854.72 9799.66,2848.44 9801.27,2841.9C9802.89,2835.36 9803.7,2827.12 9803.7,2817.17C9803.7,2809.85 9803.51,2803.57 9803.14,2798.34C9802.77,2793.1 9801.88,2790.49 9800.47,2790.49L9782.94,2790.49C9781.61,2790.49 9780.74,2792.71 9780.33,2797.16C9779.92,2801.61 9779.5,2803.83 9779.09,2803.83C9778.92,2803.83 9778.84,2803.05 9778.84,2801.48L9778.84,2735.55C9778.84,2731.88 9778.92,2729.14 9779.09,2727.3C9779.25,2725.47 9779.67,2724.56 9780.33,2724.56L9800.47,2724.56C9802.45,2724.56 9804.34,2725.08 9806.12,2726.13C9807.9,2727.17 9809.44,2729.92 9810.72,2734.37C9812.01,2738.82 9813.02,2745.36 9813.77,2753.99C9814.51,2762.62 9814.89,2774.79 9814.89,2790.49L9814.89,3040.08C9814.89,3050.55 9815.28,3060.88 9816.07,3071.09C9816.85,3081.29 9817.25,3090.05 9817.25,3097.38ZM9804.07,2907.44C9804.07,2905.34 9803.99,2904.3 9803.82,2904.3C9802.83,2907.96 9801.17,2911.88 9798.85,2916.07C9796.53,2920.26 9794.15,2925.88 9791.7,2932.95C9789.26,2940.01 9787.12,2948.77 9785.3,2959.24C9783.48,2969.7 9782.57,2982.79 9782.57,2998.48C9782.57,3008.95 9782.84,3017.19 9783.38,3023.21C9783.91,3029.22 9784.66,3033.8 9785.61,3036.94C9786.57,3040.08 9787.64,3042.05 9788.84,3042.83C9790.05,3043.62 9791.27,3044.01 9792.51,3044.01C9793.34,3044.01 9794.42,3042.96 9795.74,3040.87C9797.07,3038.78 9798.35,3035.9 9799.6,3032.23C9800.84,3028.57 9801.9,3023.99 9802.77,3018.5C9803.64,3013 9804.07,3007.12 9804.07,3000.84L9804.07,2907.44Z" style="fill-rule:nonzero;"/>
                        <path d="M9872.93,3097.38C9872.93,3101.04 9872.65,3102.87 9872.07,3102.87C9870.91,3102.87 9869.7,3102.48 9868.46,3101.7C9867.22,3100.91 9866.01,3100.52 9864.85,3100.52C9861.79,3100.52 9858.72,3101.43 9855.66,3103.27C9852.59,3105.1 9849.48,3106.01 9846.33,3106.01C9842.69,3106.01 9839.52,3101.17 9836.83,3091.49C9834.13,3081.81 9831.87,3068.99 9830.05,3053.03C9828.23,3037.07 9826.88,3018.63 9826.01,2997.7C9825.14,2976.77 9824.7,2955.05 9824.7,2932.55C9824.7,2901.16 9825.47,2873.29 9827.01,2848.96C9828.54,2824.63 9831.25,2802.78 9835.15,2783.42C9836.64,2775.57 9838.4,2768.12 9840.43,2761.05C9842.46,2753.99 9844.57,2747.32 9846.77,2741.04C9848.97,2734.76 9851.12,2728.74 9853.23,2722.99C9855.35,2717.23 9857.27,2712 9859.01,2707.29L9859.01,2631.94C9859.01,2626.18 9858.99,2621.47 9858.95,2617.81C9858.91,2614.15 9858.83,2611.01 9858.7,2608.39C9858.58,2605.78 9858.39,2603.29 9858.14,2600.94C9857.89,2598.58 9857.6,2595.31 9857.27,2591.12C9857.11,2589.03 9856.92,2587.07 9856.71,2585.24C9856.51,2583.41 9856.4,2581.18 9856.4,2578.57C9856.4,2576.47 9856.8,2574.38 9857.58,2572.29C9858.37,2570.19 9858.89,2568.62 9859.14,2567.58L9864.73,2547.96C9865.73,2544.29 9866.78,2538.93 9867.9,2531.87C9869.02,2524.8 9870.16,2521.27 9871.32,2521.27C9871.49,2521.27 9871.69,2521.53 9871.94,2522.05C9872.19,2522.58 9872.31,2523.62 9872.31,2525.19C9872.31,2529.38 9872.19,2533.57 9871.94,2537.75C9871.69,2541.94 9871.49,2546.12 9871.32,2550.31C9870.91,2560.78 9870.61,2571.5 9870.45,2582.49C9870.28,2593.48 9870.2,2603.42 9870.2,2612.32L9870.2,3033.02C9870.2,3041.91 9870.34,3051.73 9870.64,3062.45C9870.93,3073.18 9871.49,3082.21 9872.31,3089.53C9872.48,3090.58 9872.62,3091.76 9872.75,3093.06C9872.87,3094.37 9872.93,3095.81 9872.93,3097.38ZM9859.01,2783.42C9857.36,2787.61 9855.66,2791.01 9853.92,2793.63C9852.18,2796.24 9850.52,2800.17 9848.94,2805.4C9846.54,2813.25 9844.55,2821.49 9842.98,2830.12C9841.4,2838.76 9840.16,2848.05 9839.25,2857.99C9838.34,2867.93 9837.72,2878.92 9837.38,2890.95C9837.05,2902.99 9836.89,2916.59 9836.89,2931.77C9836.89,2942.76 9837.11,2954.53 9837.57,2967.09C9838.03,2979.65 9838.73,2991.16 9839.68,3001.62C9840.64,3012.09 9841.9,3020.85 9843.48,3027.92C9845.05,3034.98 9846.96,3038.51 9849.19,3038.51L9855.03,3038.51C9856.44,3038.51 9857.46,3035.77 9858.08,3030.27C9858.7,3024.78 9859.01,3017.84 9859.01,3009.47L9859.01,2783.42Z" style="fill-rule:nonzero;"/>
                        <path d="M9928.37,2992.99C9928.37,3013.4 9927.65,3030.8 9926.2,3045.18C9924.75,3059.57 9922.86,3071.48 9920.54,3080.9C9918.22,3090.32 9915.63,3097.25 9912.77,3101.7C9909.92,3106.14 9907.12,3108.37 9904.38,3108.37C9899.66,3108.37 9895.45,3104.18 9891.77,3095.81C9888.08,3087.44 9884.91,3077.5 9882.26,3065.98C9881.93,3064.94 9881.64,3063.89 9881.39,3062.85C9881.14,3061.8 9881.01,3059.97 9881.01,3057.35C9881.01,3054.21 9881.31,3051.2 9881.89,3048.32C9882.47,3045.45 9883.25,3038.78 9884.25,3028.31C9884.74,3023.08 9885.14,3017.45 9885.43,3011.43C9885.72,3005.42 9886.19,3002.41 9886.86,3002.41C9887.27,3002.41 9887.73,3004.11 9888.22,3007.51C9888.72,3010.91 9889.09,3013.4 9889.34,3014.97C9891.17,3025.43 9893.55,3033.54 9896.49,3039.3C9899.43,3045.05 9902.1,3047.93 9904.51,3047.93C9905.83,3047.93 9907.22,3046.89 9908.67,3044.79C9910.12,3042.7 9911.41,3039.3 9912.53,3034.59C9913.64,3029.88 9914.58,3023.86 9915.32,3016.54C9916.07,3009.21 9916.44,3000.58 9916.44,2990.64C9916.44,2975.98 9915.78,2963.43 9914.45,2952.96C9913.13,2942.49 9911.45,2932.95 9909.42,2924.31C9907.39,2915.68 9905.19,2907.57 9902.83,2899.98C9900.47,2892.39 9898.27,2884.02 9896.24,2874.86C9894.21,2865.71 9892.53,2855.11 9891.21,2843.08C9889.88,2831.04 9889.22,2816.39 9889.22,2799.12C9889.22,2783.95 9889.76,2771.39 9890.84,2761.45C9891.91,2751.5 9893.34,2743.53 9895.12,2737.51C9896.91,2731.49 9898.89,2727.3 9901.09,2724.95C9903.29,2722.59 9905.5,2721.42 9907.74,2721.42C9908.65,2721.42 9909.92,2722.33 9911.53,2724.16C9913.15,2725.99 9914.76,2728.35 9916.38,2731.23C9918,2734.11 9919.42,2737.51 9920.67,2741.43C9921.91,2745.36 9922.57,2749.41 9922.66,2753.6C9922.16,2759.88 9921.45,2765.89 9920.54,2771.65C9920.05,2775.31 9919.67,2778.45 9919.42,2781.07C9919.18,2783.68 9918.84,2787.09 9918.43,2791.27C9917.93,2795.98 9917.35,2799.38 9916.69,2801.48C9915.03,2796.24 9913.31,2791.93 9911.53,2788.53C9909.75,2785.12 9907.91,2783.42 9906,2783.42C9905.09,2783.42 9904.11,2785.26 9903.08,2788.92C9902.04,2792.58 9901.52,2797.81 9901.52,2804.62C9901.52,2809.85 9902.19,2815.6 9903.51,2821.88C9904.84,2828.16 9906.5,2835.1 9908.49,2842.68C9910.48,2850.27 9912.63,2858.77 9914.95,2868.19C9917.27,2877.61 9919.42,2888.34 9921.41,2900.37C9923.4,2912.41 9925.06,2926.14 9926.39,2941.58C9927.71,2957.01 9928.37,2974.15 9928.37,2992.99Z" style="fill-rule:nonzero;"/>
                        <path d="M9981.95,2731.62C9981.95,2734.24 9981.68,2736.98 9981.14,2739.86C9980.6,2742.74 9980.21,2746.53 9979.96,2751.24C9978.55,2779.5 9976.87,2812.07 9974.93,2848.96C9972.98,2885.85 9971.09,2923.4 9969.27,2961.59L9966.29,3024.39C9966.2,3025.95 9966.06,3029.88 9965.85,3036.16C9965.64,3042.44 9965.42,3048.85 9965.17,3055.39C9964.92,3061.93 9964.71,3067.95 9964.55,3073.44C9964.38,3078.93 9964.3,3081.94 9964.3,3082.47C9964.3,3085.61 9964.4,3088.75 9964.61,3091.89C9964.82,3095.03 9964.92,3098.16 9964.92,3101.31C9964.92,3104.44 9964.59,3106.01 9963.93,3106.01C9962.76,3106.01 9961.6,3105.36 9960.44,3104.05C9959.28,3102.74 9958.12,3102.09 9956.96,3102.09C9955.97,3102.09 9955,3102.48 9954.04,3103.27C9953.09,3104.05 9952.12,3104.44 9951.12,3104.44C9950.96,3104.44 9950.67,3104.31 9950.25,3104.05C9949.84,3103.79 9949.63,3102.35 9949.63,3099.74C9949.63,3095.55 9949.73,3091.76 9949.94,3088.35C9950.15,3084.95 9950.25,3081.16 9950.25,3076.97C9950.25,3069.65 9949.96,3058.27 9949.38,3042.83C9948.8,3027.39 9948.03,3009.87 9947.08,2990.24C9946.13,2970.62 9945.09,2949.82 9943.97,2927.84C9942.86,2905.87 9941.76,2884.54 9940.68,2863.88C9939.6,2843.21 9938.63,2824.11 9937.76,2806.58C9936.89,2789.05 9936.25,2775.05 9935.83,2764.59C9935.75,2762.49 9935.58,2759.75 9935.34,2756.34C9935.09,2752.94 9934.84,2749.54 9934.59,2746.14C9934.34,2742.74 9934.13,2739.73 9933.97,2737.12C9933.8,2734.5 9933.72,2732.67 9933.72,2731.62C9933.72,2726.39 9934.13,2723.77 9934.96,2723.77C9936.12,2723.77 9937.26,2724.16 9938.38,2724.95C9939.5,2725.73 9940.64,2726.13 9941.8,2726.13C9942.71,2726.13 9943.66,2725.73 9944.66,2724.95C9945.65,2724.16 9946.6,2723.77 9947.52,2723.77C9947.68,2723.77 9948.01,2724.03 9948.51,2724.56C9949.01,2725.08 9949.26,2726.39 9949.26,2728.48C9949.26,2733.19 9949.03,2736.98 9948.57,2739.86C9948.12,2742.74 9947.89,2747.84 9947.89,2755.17C9947.89,2757.78 9948.03,2762.89 9948.33,2770.47C9948.61,2778.06 9948.97,2787.22 9949.38,2797.94C9949.8,2808.67 9950.29,2820.44 9950.87,2833.26C9951.45,2846.08 9952.03,2859.03 9952.61,2872.12C9954.02,2902.99 9955.6,2937 9957.34,2974.15L9957.71,2974.15C9959.45,2939.09 9961.07,2906.91 9962.56,2877.61C9963.14,2865.05 9963.72,2852.49 9964.3,2839.93C9964.88,2827.38 9965.4,2815.87 9965.85,2805.4C9966.31,2794.93 9966.68,2785.65 9966.97,2777.54C9967.26,2769.43 9967.41,2763.8 9967.41,2760.66C9967.41,2756.47 9967.32,2753.07 9967.16,2750.46C9966.99,2747.84 9966.78,2745.49 9966.53,2743.39C9966.29,2741.3 9966.08,2739.34 9965.91,2737.51C9965.75,2735.68 9965.67,2733.19 9965.67,2730.05C9965.67,2725.86 9966.04,2723.77 9966.78,2723.77C9967.94,2723.77 9969.08,2724.16 9970.2,2724.95C9971.32,2725.73 9972.46,2726.13 9973.62,2726.13C9974.61,2726.13 9975.63,2725.73 9976.67,2724.95C9977.7,2724.16 9978.76,2723.77 9979.84,2723.77C9980.25,2723.77 9980.71,2724.03 9981.2,2724.56C9981.7,2725.08 9981.95,2727.43 9981.95,2731.62Z" style="fill-rule:nonzero;"/>
                        <path d="M10026.6,2580.92C10026.6,2594 10026.2,2606.17 10025.5,2617.42C10024.7,2628.67 10023.7,2638.48 10022.3,2646.85C10021,2655.22 10019.5,2661.9 10017.7,2666.87C10015.9,2671.84 10014,2674.32 10011.9,2674.32C10009.8,2674.32 10007.8,2671.84 10006,2666.87C10004.2,2661.9 10002.7,2655.09 10001.3,2646.46C10000,2637.83 9998.98,2627.88 9998.23,2616.63C9997.49,2605.38 9997.11,2593.48 9997.11,2580.92C9997.11,2568.89 9997.49,2557.24 9998.23,2545.99C9998.98,2534.74 9999.99,2524.8 10001.3,2516.17C10002.6,2507.53 10004.1,2500.6 10005.9,2495.37C10007.8,2490.14 10009.8,2487.52 10011.9,2487.52C10016.3,2487.52 10019.8,2496.15 10022.5,2513.42C10025.2,2530.69 10026.6,2553.19 10026.6,2580.92ZM10032.9,3097.38C10032.9,3100 10032.8,3101.57 10032.5,3102.09C10032.2,3102.61 10031.9,3102.87 10031.7,3102.87C10030.5,3102.87 10029.4,3102.48 10028.2,3101.7C10027,3100.91 10025.9,3100.52 10024.7,3100.52C10023.8,3100.52 10022.9,3100.78 10021.9,3101.31C10021,3101.83 10020,3102.35 10019.1,3102.87L10019.1,3099.74C10019.1,3097.12 10019.1,3094.89 10019.2,3093.06C10019.2,3091.23 10019.2,3089.01 10019.2,3086.39L10019,3084.82C10018.2,3085.87 10017.5,3087.57 10016.7,3089.92C10015.9,3092.28 10015.1,3094.76 10014.1,3097.38C10013.2,3100 10012.2,3102.35 10011,3104.44C10009.9,3106.54 10008.6,3107.58 10007.1,3107.58C10004.1,3107.58 10001.3,3105.88 9998.79,3102.48C9996.26,3099.08 9994.09,3093.19 9992.27,3084.82C9990.44,3076.45 9989.01,3065.07 9987.98,3050.68C9986.94,3036.29 9986.42,3018.11 9986.42,2996.13C9986.42,2974.15 9987.23,2955.97 9988.85,2941.58C9990.46,2927.19 9992.49,2915.02 9994.94,2905.08C9997.38,2895.14 10000,2886.77 10002.9,2879.97C10005.8,2873.16 10008.4,2866.75 10010.8,2860.74C10013.3,2854.72 10015.3,2848.44 10016.9,2841.9C10018.6,2835.36 10019.4,2827.12 10019.4,2817.17C10019.4,2809.85 10019.2,2803.57 10018.8,2798.34C10018.4,2793.1 10017.5,2790.49 10016.1,2790.49L9998.6,2790.49C9997.28,2790.49 9996.41,2792.71 9996,2797.16C9995.58,2801.61 9995.17,2803.83 9994.75,2803.83C9994.59,2803.83 9994.5,2803.05 9994.5,2801.48L9994.5,2735.55C9994.5,2731.88 9994.59,2729.14 9994.75,2727.3C9994.92,2725.47 9995.33,2724.56 9996,2724.56L10016.1,2724.56C10018.1,2724.56 10020,2725.08 10021.8,2726.13C10023.6,2727.17 10025.1,2729.92 10026.4,2734.37C10027.7,2738.82 10028.7,2745.36 10029.4,2753.99C10030.2,2762.62 10030.6,2774.79 10030.6,2790.49L10030.6,3040.08C10030.6,3050.55 10030.9,3060.88 10031.7,3071.09C10032.5,3081.29 10032.9,3090.05 10032.9,3097.38ZM10019.4,2580.92C10019.4,2566.79 10018.7,2555.02 10017.4,2545.6C10016,2536.18 10014.2,2531.47 10011.9,2531.47C10009.8,2531.47 10008.1,2536.58 10006.6,2546.78C10005.2,2556.98 10004.4,2568.36 10004.4,2580.92C10004.4,2592.43 10005.1,2603.29 10006.4,2613.49C10007.8,2623.7 10009.6,2628.8 10012,2628.8C10014.1,2628.8 10015.8,2623.96 10017.3,2614.28C10018.7,2604.6 10019.4,2593.48 10019.4,2580.92ZM10019.7,2907.44C10019.7,2905.34 10019.7,2904.3 10019.5,2904.3C10018.5,2907.96 10016.8,2911.88 10014.5,2916.07C10012.2,2920.26 10009.8,2925.88 10007.4,2932.95C10004.9,2940.01 10002.8,2948.77 10001,2959.24C9999.14,2969.7 9998.23,2982.79 9998.23,2998.48C9998.23,3008.95 9998.5,3017.19 9999.04,3023.21C9999.58,3029.22 10000.3,3033.8 10001.3,3036.94C10002.2,3040.08 10003.3,3042.05 10004.5,3042.83C10005.7,3043.62 10006.9,3044.01 10008.2,3044.01C10009,3044.01 10010.1,3042.96 10011.4,3040.87C10012.7,3038.78 10014,3035.9 10015.3,3032.23C10016.5,3028.57 10017.6,3023.99 10018.4,3018.5C10019.3,3013 10019.7,3007.12 10019.7,3000.84L10019.7,2907.44Z" style="fill-rule:nonzero;"/>
                        <path d="M10078.9,2795.2C10078.9,2796.24 10078.7,2797.55 10078.3,2799.12C10077.9,2800.69 10077.4,2802 10076.9,2803.05C10076.3,2804.09 10075.8,2805.14 10075.2,2806.18C10074.7,2807.23 10074.3,2807.76 10074.2,2807.76C10073.8,2808.28 10073.3,2809.45 10072.7,2811.29C10072.1,2813.12 10071.5,2814.95 10070.9,2816.78C10070.3,2818.61 10069.7,2820.18 10069.1,2821.49C10068.6,2822.8 10068.2,2823.45 10067.8,2823.45C10067.7,2823.45 10067.6,2823.19 10067.5,2822.67C10067.3,2820.58 10067.2,2818.48 10067.3,2816.39C10067.3,2814.3 10067.3,2811.94 10067.2,2809.33C10067,2803.05 10066.6,2798.2 10066,2794.8C10065.4,2791.4 10064.7,2789.31 10064,2788.53C10063.2,2787.74 10062.5,2788 10061.6,2789.31C10060.8,2790.62 10060.1,2792.58 10059.5,2795.2C10057.6,2803.05 10056.3,2814.03 10055.7,2828.16C10055,2842.29 10054.7,2856.94 10054.7,2872.12L10054.7,3053.43C10054.7,3062.32 10055,3070.43 10055.8,3077.76C10056.5,3085.08 10056.9,3091.62 10056.9,3097.38C10056.9,3101.57 10056.6,3103.66 10055.9,3103.66L10043,3103.66C10042.6,3103.66 10042.1,3103.4 10041.6,3102.87C10041,3102.35 10040.7,3100.26 10040.7,3096.6C10040.7,3095.03 10040.9,3092.54 10041.2,3089.14C10041.5,3085.74 10041.8,3081.81 10042.1,3077.37C10042.4,3072.92 10042.8,3067.95 10043,3062.45C10043.3,3056.96 10043.5,3051.33 10043.5,3045.58L10043.5,2770.08C10043.5,2760.14 10043.1,2751.77 10042.4,2744.96C10041.6,2738.16 10041.2,2733.45 10041.2,2730.84C10041.2,2726.65 10041.4,2724.56 10041.9,2724.56C10043,2724.56 10044.2,2724.82 10045.3,2725.34C10046.4,2725.86 10047.5,2726.13 10048.7,2726.13C10049.7,2726.13 10050.7,2725.6 10051.7,2724.56C10052.7,2723.51 10053.7,2722.99 10054.7,2722.99L10055.7,2722.99C10056.2,2722.99 10056.4,2724.3 10056.5,2726.91C10056,2731.1 10055.6,2734.37 10055.4,2736.72C10055.1,2739.08 10054.9,2741.17 10054.7,2743C10054.6,2744.83 10054.5,2747.19 10054.5,2750.07L10054.5,2768.51L10054.9,2768.51C10056,2754.91 10057.6,2743.66 10059.8,2734.76C10062,2725.86 10064,2721.42 10065.9,2721.42C10070,2721.42 10073,2726.91 10075,2737.9C10076.9,2748.89 10078.1,2762.75 10078.5,2779.5C10078.6,2782.12 10078.7,2784.6 10078.8,2786.95C10078.9,2789.31 10078.9,2792.06 10078.9,2795.2Z" style="fill-rule:nonzero;"/>
                        <path d="M10133.6,3097.38C10133.6,3101.04 10133.3,3102.87 10132.7,3102.87C10131.6,3102.87 10130.4,3102.48 10129.1,3101.7C10127.9,3100.91 10126.7,3100.52 10125.5,3100.52C10122.5,3100.52 10119.4,3101.43 10116.3,3103.27C10113.3,3105.1 10110.1,3106.01 10107,3106.01C10103.4,3106.01 10100.2,3101.17 10097.5,3091.49C10094.8,3081.81 10092.5,3068.99 10090.7,3053.03C10088.9,3037.07 10087.5,3018.63 10086.7,2997.7C10085.8,2976.77 10085.4,2955.05 10085.4,2932.55C10085.4,2901.16 10086.1,2873.29 10087.7,2848.96C10089.2,2824.63 10091.9,2802.78 10095.8,2783.42C10097.3,2775.57 10099.1,2768.12 10101.1,2761.05C10103.1,2753.99 10105.2,2747.32 10107.4,2741.04C10109.6,2734.76 10111.8,2728.74 10113.9,2722.99C10116,2717.23 10117.9,2712 10119.7,2707.29L10119.7,2631.94C10119.7,2626.18 10119.7,2621.47 10119.6,2617.81C10119.6,2614.15 10119.5,2611.01 10119.4,2608.39C10119.2,2605.78 10119.1,2603.29 10118.8,2600.94C10118.6,2598.58 10118.3,2595.31 10117.9,2591.12C10117.8,2589.03 10117.6,2587.07 10117.4,2585.24C10117.2,2583.41 10117.1,2581.18 10117.1,2578.57C10117.1,2576.47 10117.5,2574.38 10118.2,2572.29C10119,2570.19 10119.6,2568.62 10119.8,2567.58L10125.4,2547.96C10126.4,2544.29 10127.4,2538.93 10128.6,2531.87C10129.7,2524.8 10130.8,2521.27 10132,2521.27C10132.1,2521.27 10132.4,2521.53 10132.6,2522.05C10132.9,2522.58 10133,2523.62 10133,2525.19C10133,2529.38 10132.9,2533.57 10132.6,2537.75C10132.4,2541.94 10132.1,2546.12 10132,2550.31C10131.6,2560.78 10131.3,2571.5 10131.1,2582.49C10130.9,2593.48 10130.9,2603.42 10130.9,2612.32L10130.9,3033.02C10130.9,3041.91 10131,3051.73 10131.3,3062.45C10131.6,3073.18 10132.1,3082.21 10133,3089.53C10133.1,3090.58 10133.3,3091.76 10133.4,3093.06C10133.5,3094.37 10133.6,3095.81 10133.6,3097.38ZM10119.7,2783.42C10118,2787.61 10116.3,2791.01 10114.6,2793.63C10112.8,2796.24 10111.2,2800.17 10109.6,2805.4C10107.2,2813.25 10105.2,2821.49 10103.6,2830.12C10102.1,2838.76 10100.8,2848.05 10099.9,2857.99C10099,2867.93 10098.4,2878.92 10098,2890.95C10097.7,2902.99 10097.6,2916.59 10097.6,2931.77C10097.6,2942.76 10097.8,2954.53 10098.2,2967.09C10098.7,2979.65 10099.4,2991.16 10100.3,3001.62C10101.3,3012.09 10102.6,3020.85 10104.1,3027.92C10105.7,3034.98 10107.6,3038.51 10109.9,3038.51L10115.7,3038.51C10117.1,3038.51 10118.1,3035.77 10118.7,3030.27C10119.4,3024.78 10119.7,3017.84 10119.7,3009.47L10119.7,2783.42Z" style="fill-rule:nonzero;"/>
                    </g>
                </g>
            </g>
        </g>
    </g>
</svg>
